<?xml version="1.0" encoding="utf-8" standalone="no"?>
<!DOCTYPE svg PUBLIC "-//W3C//DTD SVG 1.1//EN"
  "http://www.w3.org/Graphics/SVG/1.1/DTD/svg11.dtd">
<svg xmlns:xlink="http://www.w3.org/1999/xlink" width="367.051562pt" height="169.145313pt" viewBox="0 0 367.051562 169.145313" xmlns="http://www.w3.org/2000/svg" version="1.1">
 <metadata>
  <rdf:RDF xmlns:dc="http://purl.org/dc/elements/1.1/" xmlns:cc="http://creativecommons.org/ns#" xmlns:rdf="http://www.w3.org/1999/02/22-rdf-syntax-ns#">
   <cc:Work>
    <dc:type rdf:resource="http://purl.org/dc/dcmitype/StillImage"/>
    <dc:date>2026-06-14T01:41:47.432879</dc:date>
    <dc:format>image/svg+xml</dc:format>
    <dc:creator>
     <cc:Agent>
      <dc:title>Matplotlib v3.10.9, https://matplotlib.org/</dc:title>
     </cc:Agent>
    </dc:creator>
   </cc:Work>
  </rdf:RDF>
 </metadata>
 <defs>
  <style type="text/css">*{stroke-linejoin: round; stroke-linecap: butt}</style>
 </defs>
 <g id="figure_1">
  <g id="patch_1">
   <path d="M 0 169.145313 
L 367.051562 169.145313 
L 367.051562 0 
L 0 0 
L 0 169.145313 
z
" style="fill: none"/>
  </g>
  <g id="axes_1">
   <g id="patch_2">
    <path d="M 46.80625 145.8 
L 325.80625 145.8 
L 325.80625 7.2 
L 46.80625 7.2 
L 46.80625 145.8 
z
" style="fill: none"/>
   </g>
   <g id="matplotlib.axis_1">
    <g id="xtick_1">
     <g id="line2d_1">
      <defs>
       <path id="m4e8144b261" d="M 0 0 
L 0 3.5 
" style="stroke: #000000; stroke-width: 0.8"/>
      </defs>
      <g>
       <use xlink:href="#m4e8144b261" x="69.69183" y="145.8" style="stroke: #000000; stroke-width: 0.8"/>
      </g>
     </g>
     <g id="text_1">
      <!-- 2 -->
      <g transform="translate(66.911361 159.957813) scale(0.1 -0.1)">
       <defs>
        <path id="ArialMT-32" d="M 3222 541 
L 3222 0 
L 194 0 
Q 188 203 259 391 
Q 375 700 629 1000 
Q 884 1300 1366 1694 
Q 2113 2306 2375 2664 
Q 2638 3022 2638 3341 
Q 2638 3675 2398 3904 
Q 2159 4134 1775 4134 
Q 1369 4134 1125 3890 
Q 881 3647 878 3216 
L 300 3275 
Q 359 3922 746 4261 
Q 1134 4600 1788 4600 
Q 2447 4600 2831 4234 
Q 3216 3869 3216 3328 
Q 3216 3053 3103 2787 
Q 2991 2522 2730 2228 
Q 2469 1934 1863 1422 
Q 1356 997 1212 845 
Q 1069 694 975 541 
L 3222 541 
z
" transform="scale(0.015625)"/>
       </defs>
       <use xlink:href="#ArialMT-32"/>
      </g>
     </g>
    </g>
    <g id="xtick_2">
     <g id="line2d_2">
      <g>
       <use xlink:href="#m4e8144b261" x="127.99904" y="145.8" style="stroke: #000000; stroke-width: 0.8"/>
      </g>
     </g>
     <g id="text_2">
      <!-- 3 -->
      <g transform="translate(125.218571 159.957813) scale(0.1 -0.1)">
       <defs>
        <path id="ArialMT-33" d="M 269 1209 
L 831 1284 
Q 928 806 1161 595 
Q 1394 384 1728 384 
Q 2125 384 2398 659 
Q 2672 934 2672 1341 
Q 2672 1728 2419 1979 
Q 2166 2231 1775 2231 
Q 1616 2231 1378 2169 
L 1441 2663 
Q 1497 2656 1531 2656 
Q 1891 2656 2178 2843 
Q 2466 3031 2466 3422 
Q 2466 3731 2256 3934 
Q 2047 4138 1716 4138 
Q 1388 4138 1169 3931 
Q 950 3725 888 3313 
L 325 3413 
Q 428 3978 793 4289 
Q 1159 4600 1703 4600 
Q 2078 4600 2393 4439 
Q 2709 4278 2876 4000 
Q 3044 3722 3044 3409 
Q 3044 3113 2884 2869 
Q 2725 2625 2413 2481 
Q 2819 2388 3044 2092 
Q 3269 1797 3269 1353 
Q 3269 753 2831 336 
Q 2394 -81 1725 -81 
Q 1122 -81 723 278 
Q 325 638 269 1209 
z
" transform="scale(0.015625)"/>
       </defs>
       <use xlink:href="#ArialMT-33"/>
      </g>
     </g>
    </g>
    <g id="xtick_3">
     <g id="line2d_3">
      <g>
       <use xlink:href="#m4e8144b261" x="186.30625" y="145.8" style="stroke: #000000; stroke-width: 0.8"/>
      </g>
     </g>
     <g id="text_3">
      <!-- 4 -->
      <g transform="translate(183.525781 159.957813) scale(0.1 -0.1)">
       <defs>
        <path id="ArialMT-34" d="M 2069 0 
L 2069 1097 
L 81 1097 
L 81 1613 
L 2172 4581 
L 2631 4581 
L 2631 1613 
L 3250 1613 
L 3250 1097 
L 2631 1097 
L 2631 0 
L 2069 0 
z
M 2069 1613 
L 2069 3678 
L 634 1613 
L 2069 1613 
z
" transform="scale(0.015625)"/>
       </defs>
       <use xlink:href="#ArialMT-34"/>
      </g>
     </g>
    </g>
    <g id="xtick_4">
     <g id="line2d_4">
      <g>
       <use xlink:href="#m4e8144b261" x="244.61346" y="145.8" style="stroke: #000000; stroke-width: 0.8"/>
      </g>
     </g>
     <g id="text_4">
      <!-- 5 -->
      <g transform="translate(241.832991 159.957813) scale(0.1 -0.1)">
       <defs>
        <path id="ArialMT-35" d="M 266 1200 
L 856 1250 
Q 922 819 1161 601 
Q 1400 384 1738 384 
Q 2144 384 2425 690 
Q 2706 997 2706 1503 
Q 2706 1984 2436 2262 
Q 2166 2541 1728 2541 
Q 1456 2541 1237 2417 
Q 1019 2294 894 2097 
L 366 2166 
L 809 4519 
L 3088 4519 
L 3088 3981 
L 1259 3981 
L 1013 2750 
Q 1425 3038 1878 3038 
Q 2478 3038 2890 2622 
Q 3303 2206 3303 1553 
Q 3303 931 2941 478 
Q 2500 -78 1738 -78 
Q 1113 -78 717 272 
Q 322 622 266 1200 
z
" transform="scale(0.015625)"/>
       </defs>
       <use xlink:href="#ArialMT-35"/>
      </g>
     </g>
    </g>
    <g id="xtick_5">
     <g id="line2d_5">
      <g>
       <use xlink:href="#m4e8144b261" x="302.92067" y="145.8" style="stroke: #000000; stroke-width: 0.8"/>
      </g>
     </g>
     <g id="text_5">
      <!-- 6 -->
      <g transform="translate(300.140201 159.957813) scale(0.1 -0.1)">
       <defs>
        <path id="ArialMT-36" d="M 3184 3459 
L 2625 3416 
Q 2550 3747 2413 3897 
Q 2184 4138 1850 4138 
Q 1581 4138 1378 3988 
Q 1113 3794 959 3422 
Q 806 3050 800 2363 
Q 1003 2672 1297 2822 
Q 1591 2972 1913 2972 
Q 2475 2972 2870 2558 
Q 3266 2144 3266 1488 
Q 3266 1056 3080 686 
Q 2894 316 2569 119 
Q 2244 -78 1831 -78 
Q 1128 -78 684 439 
Q 241 956 241 2144 
Q 241 3472 731 4075 
Q 1159 4600 1884 4600 
Q 2425 4600 2770 4297 
Q 3116 3994 3184 3459 
z
M 888 1484 
Q 888 1194 1011 928 
Q 1134 663 1356 523 
Q 1578 384 1822 384 
Q 2178 384 2434 671 
Q 2691 959 2691 1453 
Q 2691 1928 2437 2201 
Q 2184 2475 1800 2475 
Q 1419 2475 1153 2201 
Q 888 1928 888 1484 
z
" transform="scale(0.015625)"/>
       </defs>
       <use xlink:href="#ArialMT-36"/>
      </g>
     </g>
    </g>
   </g>
   <g id="matplotlib.axis_2">
    <g id="ytick_1">
     <g id="line2d_6">
      <defs>
       <path id="mf9b661823b" d="M 0 0 
L -3.5 0 
" style="stroke: #6c3f7f; stroke-width: 2"/>
      </defs>
      <g>
       <use xlink:href="#mf9b661823b" x="46.80625" y="143.784267" style="fill: #6c3f7f; stroke: #6c3f7f; stroke-width: 2"/>
      </g>
     </g>
     <g id="text_6">
      <!-- 0.00 -->
      <g style="fill: #6c3f7f" transform="translate(20.345313 147.363173) scale(0.1 -0.1)">
       <defs>
        <path id="ArialMT-30" d="M 266 2259 
Q 266 3072 433 3567 
Q 600 4063 929 4331 
Q 1259 4600 1759 4600 
Q 2128 4600 2406 4451 
Q 2684 4303 2865 4023 
Q 3047 3744 3150 3342 
Q 3253 2941 3253 2259 
Q 3253 1453 3087 958 
Q 2922 463 2592 192 
Q 2263 -78 1759 -78 
Q 1097 -78 719 397 
Q 266 969 266 2259 
z
M 844 2259 
Q 844 1131 1108 757 
Q 1372 384 1759 384 
Q 2147 384 2411 759 
Q 2675 1134 2675 2259 
Q 2675 3391 2411 3762 
Q 2147 4134 1753 4134 
Q 1366 4134 1134 3806 
Q 844 3388 844 2259 
z
" transform="scale(0.015625)"/>
        <path id="ArialMT-2e" d="M 581 0 
L 581 641 
L 1222 641 
L 1222 0 
L 581 0 
z
" transform="scale(0.015625)"/>
       </defs>
       <use xlink:href="#ArialMT-30"/>
       <use xlink:href="#ArialMT-2e" transform="translate(55.615234 0)"/>
       <use xlink:href="#ArialMT-30" transform="translate(83.398438 0)"/>
       <use xlink:href="#ArialMT-30" transform="translate(139.013672 0)"/>
      </g>
     </g>
    </g>
    <g id="ytick_2">
     <g id="line2d_7">
      <g>
       <use xlink:href="#mf9b661823b" x="46.80625" y="119.97427" style="fill: #6c3f7f; stroke: #6c3f7f; stroke-width: 2"/>
      </g>
     </g>
     <g id="text_7">
      <!-- 0.05 -->
      <g style="fill: #6c3f7f" transform="translate(20.345313 123.553176) scale(0.1 -0.1)">
       <use xlink:href="#ArialMT-30"/>
       <use xlink:href="#ArialMT-2e" transform="translate(55.615234 0)"/>
       <use xlink:href="#ArialMT-30" transform="translate(83.398438 0)"/>
       <use xlink:href="#ArialMT-35" transform="translate(139.013672 0)"/>
      </g>
     </g>
    </g>
    <g id="ytick_3">
     <g id="line2d_8">
      <g>
       <use xlink:href="#mf9b661823b" x="46.80625" y="96.164272" style="fill: #6c3f7f; stroke: #6c3f7f; stroke-width: 2"/>
      </g>
     </g>
     <g id="text_8">
      <!-- 0.10 -->
      <g style="fill: #6c3f7f" transform="translate(20.345313 99.743179) scale(0.1 -0.1)">
       <defs>
        <path id="ArialMT-31" d="M 2384 0 
L 1822 0 
L 1822 3584 
Q 1619 3391 1289 3197 
Q 959 3003 697 2906 
L 697 3450 
Q 1169 3672 1522 3987 
Q 1875 4303 2022 4600 
L 2384 4600 
L 2384 0 
z
" transform="scale(0.015625)"/>
       </defs>
       <use xlink:href="#ArialMT-30"/>
       <use xlink:href="#ArialMT-2e" transform="translate(55.615234 0)"/>
       <use xlink:href="#ArialMT-31" transform="translate(83.398438 0)"/>
       <use xlink:href="#ArialMT-30" transform="translate(139.013672 0)"/>
      </g>
     </g>
    </g>
    <g id="ytick_4">
     <g id="line2d_9">
      <g>
       <use xlink:href="#mf9b661823b" x="46.80625" y="72.354275" style="fill: #6c3f7f; stroke: #6c3f7f; stroke-width: 2"/>
      </g>
     </g>
     <g id="text_9">
      <!-- 0.15 -->
      <g style="fill: #6c3f7f" transform="translate(20.345313 75.933181) scale(0.1 -0.1)">
       <use xlink:href="#ArialMT-30"/>
       <use xlink:href="#ArialMT-2e" transform="translate(55.615234 0)"/>
       <use xlink:href="#ArialMT-31" transform="translate(83.398438 0)"/>
       <use xlink:href="#ArialMT-35" transform="translate(139.013672 0)"/>
      </g>
     </g>
    </g>
    <g id="ytick_5">
     <g id="line2d_10">
      <g>
       <use xlink:href="#mf9b661823b" x="46.80625" y="48.544278" style="fill: #6c3f7f; stroke: #6c3f7f; stroke-width: 2"/>
      </g>
     </g>
     <g id="text_10">
      <!-- 0.20 -->
      <g style="fill: #6c3f7f" transform="translate(20.345313 52.123184) scale(0.1 -0.1)">
       <use xlink:href="#ArialMT-30"/>
       <use xlink:href="#ArialMT-2e" transform="translate(55.615234 0)"/>
       <use xlink:href="#ArialMT-32" transform="translate(83.398438 0)"/>
       <use xlink:href="#ArialMT-30" transform="translate(139.013672 0)"/>
      </g>
     </g>
    </g>
    <g id="ytick_6">
     <g id="line2d_11">
      <g>
       <use xlink:href="#mf9b661823b" x="46.80625" y="24.734281" style="fill: #6c3f7f; stroke: #6c3f7f; stroke-width: 2"/>
      </g>
     </g>
     <g id="text_11">
      <!-- 0.25 -->
      <g style="fill: #6c3f7f" transform="translate(20.345313 28.313187) scale(0.1 -0.1)">
       <use xlink:href="#ArialMT-30"/>
       <use xlink:href="#ArialMT-2e" transform="translate(55.615234 0)"/>
       <use xlink:href="#ArialMT-32" transform="translate(83.398438 0)"/>
       <use xlink:href="#ArialMT-35" transform="translate(139.013672 0)"/>
      </g>
     </g>
    </g>
    <g id="text_12">
     <!-- Silhouette Coefficient -->
     <g style="fill: #6c3f7f" transform="translate(14.357813 123.660938) rotate(-90) scale(0.1 -0.1)">
      <defs>
       <path id="ArialMT-53" d="M 288 1472 
L 859 1522 
Q 900 1178 1048 958 
Q 1197 738 1509 602 
Q 1822 466 2213 466 
Q 2559 466 2825 569 
Q 3091 672 3220 851 
Q 3350 1031 3350 1244 
Q 3350 1459 3225 1620 
Q 3100 1781 2813 1891 
Q 2628 1963 1997 2114 
Q 1366 2266 1113 2400 
Q 784 2572 623 2826 
Q 463 3081 463 3397 
Q 463 3744 659 4045 
Q 856 4347 1234 4503 
Q 1613 4659 2075 4659 
Q 2584 4659 2973 4495 
Q 3363 4331 3572 4012 
Q 3781 3694 3797 3291 
L 3216 3247 
Q 3169 3681 2898 3903 
Q 2628 4125 2100 4125 
Q 1550 4125 1298 3923 
Q 1047 3722 1047 3438 
Q 1047 3191 1225 3031 
Q 1400 2872 2139 2705 
Q 2878 2538 3153 2413 
Q 3553 2228 3743 1945 
Q 3934 1663 3934 1294 
Q 3934 928 3725 604 
Q 3516 281 3123 101 
Q 2731 -78 2241 -78 
Q 1619 -78 1198 103 
Q 778 284 539 648 
Q 300 1013 288 1472 
z
" transform="scale(0.015625)"/>
       <path id="ArialMT-69" d="M 425 3934 
L 425 4581 
L 988 4581 
L 988 3934 
L 425 3934 
z
M 425 0 
L 425 3319 
L 988 3319 
L 988 0 
L 425 0 
z
" transform="scale(0.015625)"/>
       <path id="ArialMT-6c" d="M 409 0 
L 409 4581 
L 972 4581 
L 972 0 
L 409 0 
z
" transform="scale(0.015625)"/>
       <path id="ArialMT-68" d="M 422 0 
L 422 4581 
L 984 4581 
L 984 2938 
Q 1378 3394 1978 3394 
Q 2347 3394 2619 3248 
Q 2891 3103 3008 2847 
Q 3125 2591 3125 2103 
L 3125 0 
L 2563 0 
L 2563 2103 
Q 2563 2525 2380 2717 
Q 2197 2909 1863 2909 
Q 1613 2909 1392 2779 
Q 1172 2650 1078 2428 
Q 984 2206 984 1816 
L 984 0 
L 422 0 
z
" transform="scale(0.015625)"/>
       <path id="ArialMT-6f" d="M 213 1659 
Q 213 2581 725 3025 
Q 1153 3394 1769 3394 
Q 2453 3394 2887 2945 
Q 3322 2497 3322 1706 
Q 3322 1066 3130 698 
Q 2938 331 2570 128 
Q 2203 -75 1769 -75 
Q 1072 -75 642 372 
Q 213 819 213 1659 
z
M 791 1659 
Q 791 1022 1069 705 
Q 1347 388 1769 388 
Q 2188 388 2466 706 
Q 2744 1025 2744 1678 
Q 2744 2294 2464 2611 
Q 2184 2928 1769 2928 
Q 1347 2928 1069 2612 
Q 791 2297 791 1659 
z
" transform="scale(0.015625)"/>
       <path id="ArialMT-75" d="M 2597 0 
L 2597 488 
Q 2209 -75 1544 -75 
Q 1250 -75 995 37 
Q 741 150 617 320 
Q 494 491 444 738 
Q 409 903 409 1263 
L 409 3319 
L 972 3319 
L 972 1478 
Q 972 1038 1006 884 
Q 1059 663 1231 536 
Q 1403 409 1656 409 
Q 1909 409 2131 539 
Q 2353 669 2445 892 
Q 2538 1116 2538 1541 
L 2538 3319 
L 3100 3319 
L 3100 0 
L 2597 0 
z
" transform="scale(0.015625)"/>
       <path id="ArialMT-65" d="M 2694 1069 
L 3275 997 
Q 3138 488 2766 206 
Q 2394 -75 1816 -75 
Q 1088 -75 661 373 
Q 234 822 234 1631 
Q 234 2469 665 2931 
Q 1097 3394 1784 3394 
Q 2450 3394 2872 2941 
Q 3294 2488 3294 1666 
Q 3294 1616 3291 1516 
L 816 1516 
Q 847 969 1125 678 
Q 1403 388 1819 388 
Q 2128 388 2347 550 
Q 2566 713 2694 1069 
z
M 847 1978 
L 2700 1978 
Q 2663 2397 2488 2606 
Q 2219 2931 1791 2931 
Q 1403 2931 1139 2672 
Q 875 2413 847 1978 
z
" transform="scale(0.015625)"/>
       <path id="ArialMT-74" d="M 1650 503 
L 1731 6 
Q 1494 -44 1306 -44 
Q 1000 -44 831 53 
Q 663 150 594 308 
Q 525 466 525 972 
L 525 2881 
L 113 2881 
L 113 3319 
L 525 3319 
L 525 4141 
L 1084 4478 
L 1084 3319 
L 1650 3319 
L 1650 2881 
L 1084 2881 
L 1084 941 
Q 1084 700 1114 631 
Q 1144 563 1211 522 
Q 1278 481 1403 481 
Q 1497 481 1650 503 
z
" transform="scale(0.015625)"/>
       <path id="ArialMT-20" transform="scale(0.015625)"/>
       <path id="ArialMT-43" d="M 3763 1606 
L 4369 1453 
Q 4178 706 3683 314 
Q 3188 -78 2472 -78 
Q 1731 -78 1267 223 
Q 803 525 561 1097 
Q 319 1669 319 2325 
Q 319 3041 592 3573 
Q 866 4106 1370 4382 
Q 1875 4659 2481 4659 
Q 3169 4659 3637 4309 
Q 4106 3959 4291 3325 
L 3694 3184 
Q 3534 3684 3231 3912 
Q 2928 4141 2469 4141 
Q 1941 4141 1586 3887 
Q 1231 3634 1087 3207 
Q 944 2781 944 2328 
Q 944 1744 1114 1308 
Q 1284 872 1643 656 
Q 2003 441 2422 441 
Q 2931 441 3284 734 
Q 3638 1028 3763 1606 
z
" transform="scale(0.015625)"/>
       <path id="ArialMT-66" d="M 556 0 
L 556 2881 
L 59 2881 
L 59 3319 
L 556 3319 
L 556 3672 
Q 556 4006 616 4169 
Q 697 4388 901 4523 
Q 1106 4659 1475 4659 
Q 1713 4659 2000 4603 
L 1916 4113 
Q 1741 4144 1584 4144 
Q 1328 4144 1222 4034 
Q 1116 3925 1116 3625 
L 1116 3319 
L 1763 3319 
L 1763 2881 
L 1116 2881 
L 1116 0 
L 556 0 
z
" transform="scale(0.015625)"/>
       <path id="ArialMT-63" d="M 2588 1216 
L 3141 1144 
Q 3050 572 2676 248 
Q 2303 -75 1759 -75 
Q 1078 -75 664 370 
Q 250 816 250 1647 
Q 250 2184 428 2587 
Q 606 2991 970 3192 
Q 1334 3394 1763 3394 
Q 2303 3394 2647 3120 
Q 2991 2847 3088 2344 
L 2541 2259 
Q 2463 2594 2264 2762 
Q 2066 2931 1784 2931 
Q 1359 2931 1093 2626 
Q 828 2322 828 1663 
Q 828 994 1084 691 
Q 1341 388 1753 388 
Q 2084 388 2306 591 
Q 2528 794 2588 1216 
z
" transform="scale(0.015625)"/>
       <path id="ArialMT-6e" d="M 422 0 
L 422 3319 
L 928 3319 
L 928 2847 
Q 1294 3394 1984 3394 
Q 2284 3394 2536 3286 
Q 2788 3178 2913 3003 
Q 3038 2828 3088 2588 
Q 3119 2431 3119 2041 
L 3119 0 
L 2556 0 
L 2556 2019 
Q 2556 2363 2490 2533 
Q 2425 2703 2258 2804 
Q 2091 2906 1866 2906 
Q 1506 2906 1245 2678 
Q 984 2450 984 1813 
L 984 0 
L 422 0 
z
" transform="scale(0.015625)"/>
      </defs>
      <use xlink:href="#ArialMT-53"/>
      <use xlink:href="#ArialMT-69" transform="translate(66.699219 0)"/>
      <use xlink:href="#ArialMT-6c" transform="translate(88.916016 0)"/>
      <use xlink:href="#ArialMT-68" transform="translate(111.132812 0)"/>
      <use xlink:href="#ArialMT-6f" transform="translate(166.748047 0)"/>
      <use xlink:href="#ArialMT-75" transform="translate(222.363281 0)"/>
      <use xlink:href="#ArialMT-65" transform="translate(277.978516 0)"/>
      <use xlink:href="#ArialMT-74" transform="translate(333.59375 0)"/>
      <use xlink:href="#ArialMT-74" transform="translate(361.376953 0)"/>
      <use xlink:href="#ArialMT-65" transform="translate(389.160156 0)"/>
      <use xlink:href="#ArialMT-20" transform="translate(444.775391 0)"/>
      <use xlink:href="#ArialMT-43" transform="translate(472.558594 0)"/>
      <use xlink:href="#ArialMT-6f" transform="translate(544.775391 0)"/>
      <use xlink:href="#ArialMT-65" transform="translate(600.390625 0)"/>
      <use xlink:href="#ArialMT-66" transform="translate(656.005859 0)"/>
      <use xlink:href="#ArialMT-66" transform="translate(682.039062 0)"/>
      <use xlink:href="#ArialMT-69" transform="translate(709.822266 0)"/>
      <use xlink:href="#ArialMT-63" transform="translate(732.039062 0)"/>
      <use xlink:href="#ArialMT-69" transform="translate(782.039062 0)"/>
      <use xlink:href="#ArialMT-65" transform="translate(804.255859 0)"/>
      <use xlink:href="#ArialMT-6e" transform="translate(859.871094 0)"/>
      <use xlink:href="#ArialMT-74" transform="translate(915.486328 0)"/>
     </g>
    </g>
   </g>
   <g id="line2d_12">
    <path d="M 63.861109 76.087549 
L 122.168319 89.944034 
L 180.475529 99.867192 
L 238.782739 107.020936 
L 297.089949 111.613344 
" clip-path="url(#p40ba44b86e)" style="fill: none; stroke-dasharray: 5.55,2.4; stroke-dashoffset: 0; stroke: #9b59b6; stroke-opacity: 0.4; stroke-width: 1.5"/>
   </g>
   <g id="patch_3">
    <path d="M 59.488068 84.497421 
L 68.23415 84.497421 
L 68.23415 66.314731 
L 59.488068 66.314731 
L 59.488068 84.497421 
z
" clip-path="url(#p40ba44b86e)" style="fill: #9665aa; stroke: #515151; stroke-linejoin: miter"/>
   </g>
   <g id="line2d_13">
    <path d="M 63.861109 84.497421 
L 63.861109 110.524949 
" clip-path="url(#p40ba44b86e)" style="fill: none; stroke: #515151"/>
   </g>
   <g id="line2d_14">
    <path d="M 63.861109 66.314731 
L 63.861109 39.236264 
" clip-path="url(#p40ba44b86e)" style="fill: none; stroke: #515151"/>
   </g>
   <g id="line2d_15">
    <path d="M 61.674589 110.524949 
L 66.047629 110.524949 
" clip-path="url(#p40ba44b86e)" style="fill: none; stroke: #515151; stroke-linecap: square"/>
   </g>
   <g id="line2d_16">
    <path d="M 61.674589 39.236264 
L 66.047629 39.236264 
" clip-path="url(#p40ba44b86e)" style="fill: none; stroke: #515151; stroke-linecap: square"/>
   </g>
   <g id="line2d_17"/>
   <g id="patch_4">
    <path d="M 117.795278 97.282685 
L 126.54136 97.282685 
L 126.54136 81.102266 
L 117.795278 81.102266 
L 117.795278 97.282685 
z
" clip-path="url(#p40ba44b86e)" style="fill: #9665aa; stroke: #515151; stroke-linejoin: miter"/>
   </g>
   <g id="line2d_18">
    <path d="M 122.168319 97.282685 
L 122.168319 118.755925 
" clip-path="url(#p40ba44b86e)" style="fill: none; stroke: #515151"/>
   </g>
   <g id="line2d_19">
    <path d="M 122.168319 81.102266 
L 122.168319 58.782534 
" clip-path="url(#p40ba44b86e)" style="fill: none; stroke: #515151"/>
   </g>
   <g id="line2d_20">
    <path d="M 119.981799 118.755925 
L 124.354839 118.755925 
" clip-path="url(#p40ba44b86e)" style="fill: none; stroke: #515151; stroke-linecap: square"/>
   </g>
   <g id="line2d_21">
    <path d="M 119.981799 58.782534 
L 124.354839 58.782534 
" clip-path="url(#p40ba44b86e)" style="fill: none; stroke: #515151; stroke-linecap: square"/>
   </g>
   <g id="line2d_22"/>
   <g id="patch_5">
    <path d="M 176.102488 107.568573 
L 184.84857 107.568573 
L 184.84857 90.855511 
L 176.102488 90.855511 
L 176.102488 107.568573 
z
" clip-path="url(#p40ba44b86e)" style="fill: #9665aa; stroke: #515151; stroke-linejoin: miter"/>
   </g>
   <g id="line2d_23">
    <path d="M 180.475529 107.568573 
L 180.475529 131.171835 
" clip-path="url(#p40ba44b86e)" style="fill: none; stroke: #515151"/>
   </g>
   <g id="line2d_24">
    <path d="M 180.475529 90.855511 
L 180.475529 66.725135 
" clip-path="url(#p40ba44b86e)" style="fill: none; stroke: #515151"/>
   </g>
   <g id="line2d_25">
    <path d="M 178.289009 131.171835 
L 182.662049 131.171835 
" clip-path="url(#p40ba44b86e)" style="fill: none; stroke: #515151; stroke-linecap: square"/>
   </g>
   <g id="line2d_26">
    <path d="M 178.289009 66.725135 
L 182.662049 66.725135 
" clip-path="url(#p40ba44b86e)" style="fill: none; stroke: #515151; stroke-linecap: square"/>
   </g>
   <g id="line2d_27"/>
   <g id="patch_6">
    <path d="M 234.409698 113.728058 
L 243.15578 113.728058 
L 243.15578 99.156346 
L 234.409698 99.156346 
L 234.409698 113.728058 
z
" clip-path="url(#p40ba44b86e)" style="fill: #9665aa; stroke: #515151; stroke-linejoin: miter"/>
   </g>
   <g id="line2d_28">
    <path d="M 238.782739 113.728058 
L 238.782739 131.963052 
" clip-path="url(#p40ba44b86e)" style="fill: none; stroke: #515151"/>
   </g>
   <g id="line2d_29">
    <path d="M 238.782739 99.156346 
L 238.782739 79.264732 
" clip-path="url(#p40ba44b86e)" style="fill: none; stroke: #515151"/>
   </g>
   <g id="line2d_30">
    <path d="M 236.596219 131.963052 
L 240.969259 131.963052 
" clip-path="url(#p40ba44b86e)" style="fill: none; stroke: #515151; stroke-linecap: square"/>
   </g>
   <g id="line2d_31">
    <path d="M 236.596219 79.264732 
L 240.969259 79.264732 
" clip-path="url(#p40ba44b86e)" style="fill: none; stroke: #515151; stroke-linecap: square"/>
   </g>
   <g id="line2d_32"/>
   <g id="patch_7">
    <path d="M 292.716908 117.923877 
L 301.46299 117.923877 
L 301.46299 104.008031 
L 292.716908 104.008031 
L 292.716908 117.923877 
z
" clip-path="url(#p40ba44b86e)" style="fill: #9665aa; stroke: #515151; stroke-linejoin: miter"/>
   </g>
   <g id="line2d_33">
    <path d="M 297.089949 117.923877 
L 297.089949 137.304964 
" clip-path="url(#p40ba44b86e)" style="fill: none; stroke: #515151"/>
   </g>
   <g id="line2d_34">
    <path d="M 297.089949 104.008031 
L 297.089949 84.604657 
" clip-path="url(#p40ba44b86e)" style="fill: none; stroke: #515151"/>
   </g>
   <g id="line2d_35">
    <path d="M 294.903429 137.304964 
L 299.276469 137.304964 
" clip-path="url(#p40ba44b86e)" style="fill: none; stroke: #515151; stroke-linecap: square"/>
   </g>
   <g id="line2d_36">
    <path d="M 294.903429 84.604657 
L 299.276469 84.604657 
" clip-path="url(#p40ba44b86e)" style="fill: none; stroke: #515151; stroke-linecap: square"/>
   </g>
   <g id="line2d_37"/>
   <g id="line2d_38">
    <defs>
     <path id="m52137be8b8" d="M -6 -3 
L 6 3 
" style="stroke: #9b59b6"/>
    </defs>
    <g>
     <use xlink:href="#m52137be8b8" x="46.80625" y="143.028" style="fill: #6c3f7f; stroke: #9b59b6"/>
     <use xlink:href="#m52137be8b8" x="46.80625" y="138.87" style="fill: #6c3f7f; stroke: #9b59b6"/>
    </g>
   </g>
   <g id="line2d_39">
    <path d="M 59.488068 76.087549 
L 68.23415 76.087549 
" clip-path="url(#p40ba44b86e)" style="fill: none; stroke: #515151"/>
   </g>
   <g id="line2d_40">
    <path d="M 117.795278 89.944034 
L 126.54136 89.944034 
" clip-path="url(#p40ba44b86e)" style="fill: none; stroke: #515151"/>
   </g>
   <g id="line2d_41">
    <path d="M 176.102488 99.867192 
L 184.84857 99.867192 
" clip-path="url(#p40ba44b86e)" style="fill: none; stroke: #515151"/>
   </g>
   <g id="line2d_42">
    <path d="M 234.409698 107.020936 
L 243.15578 107.020936 
" clip-path="url(#p40ba44b86e)" style="fill: none; stroke: #515151"/>
   </g>
   <g id="line2d_43">
    <path d="M 292.716908 111.613344 
L 301.46299 111.613344 
" clip-path="url(#p40ba44b86e)" style="fill: none; stroke: #515151"/>
   </g>
   <g id="patch_8">
    <path d="M 46.80625 145.8 
L 46.80625 7.2 
" style="fill: none; stroke: #000000; stroke-width: 0.8; stroke-linejoin: miter; stroke-linecap: square"/>
   </g>
   <g id="patch_9">
    <path d="M 325.80625 145.8 
L 325.80625 7.2 
" style="fill: none; stroke: #000000; stroke-width: 0.8; stroke-linejoin: miter; stroke-linecap: square"/>
   </g>
  </g>
  <g id="axes_2">
   <g id="matplotlib.axis_3">
    <g id="ytick_7">
     <g id="line2d_44">
      <defs>
       <path id="md02511c863" d="M 0 0 
L 3.5 0 
" style="stroke: #128973; stroke-width: 2"/>
      </defs>
      <g>
       <use xlink:href="#md02511c863" x="325.80625" y="118.418665" style="fill: #128973; stroke: #128973; stroke-width: 2"/>
      </g>
     </g>
     <g id="text_13">
      <!-- 2.0 -->
      <g style="fill: #128973" transform="translate(332.80625 121.997571) scale(0.1 -0.1)">
       <use xlink:href="#ArialMT-32"/>
       <use xlink:href="#ArialMT-2e" transform="translate(55.615234 0)"/>
       <use xlink:href="#ArialMT-30" transform="translate(83.398438 0)"/>
      </g>
     </g>
    </g>
    <g id="ytick_8">
     <g id="line2d_45">
      <g>
       <use xlink:href="#md02511c863" x="325.80625" y="82.63113" style="fill: #128973; stroke: #128973; stroke-width: 2"/>
      </g>
     </g>
     <g id="text_14">
      <!-- 2.5 -->
      <g style="fill: #128973" transform="translate(332.80625 86.210036) scale(0.1 -0.1)">
       <use xlink:href="#ArialMT-32"/>
       <use xlink:href="#ArialMT-2e" transform="translate(55.615234 0)"/>
       <use xlink:href="#ArialMT-35" transform="translate(83.398438 0)"/>
      </g>
     </g>
    </g>
    <g id="ytick_9">
     <g id="line2d_46">
      <g>
       <use xlink:href="#md02511c863" x="325.80625" y="46.843595" style="fill: #128973; stroke: #128973; stroke-width: 2"/>
      </g>
     </g>
     <g id="text_15">
      <!-- 3.0 -->
      <g style="fill: #128973" transform="translate(332.80625 50.422501) scale(0.1 -0.1)">
       <use xlink:href="#ArialMT-33"/>
       <use xlink:href="#ArialMT-2e" transform="translate(55.615234 0)"/>
       <use xlink:href="#ArialMT-30" transform="translate(83.398438 0)"/>
      </g>
     </g>
    </g>
    <g id="ytick_10">
     <g id="line2d_47">
      <g>
       <use xlink:href="#md02511c863" x="325.80625" y="11.05606" style="fill: #128973; stroke: #128973; stroke-width: 2"/>
      </g>
     </g>
     <g id="text_16">
      <!-- 3.5 -->
      <g style="fill: #128973" transform="translate(332.80625 14.634966) scale(0.1 -0.1)">
       <use xlink:href="#ArialMT-33"/>
       <use xlink:href="#ArialMT-2e" transform="translate(55.615234 0)"/>
       <use xlink:href="#ArialMT-35" transform="translate(83.398438 0)"/>
      </g>
     </g>
    </g>
    <g id="text_17">
     <!-- Davies Bouldin Index -->
     <g style="fill: #128973" transform="translate(357.864062 123.470313) rotate(-90) scale(0.1 -0.1)">
      <defs>
       <path id="ArialMT-44" d="M 494 0 
L 494 4581 
L 2072 4581 
Q 2606 4581 2888 4516 
Q 3281 4425 3559 4188 
Q 3922 3881 4101 3404 
Q 4281 2928 4281 2316 
Q 4281 1794 4159 1391 
Q 4038 988 3847 723 
Q 3656 459 3429 307 
Q 3203 156 2883 78 
Q 2563 0 2147 0 
L 494 0 
z
M 1100 541 
L 2078 541 
Q 2531 541 2789 625 
Q 3047 709 3200 863 
Q 3416 1078 3536 1442 
Q 3656 1806 3656 2325 
Q 3656 3044 3420 3430 
Q 3184 3816 2847 3947 
Q 2603 4041 2063 4041 
L 1100 4041 
L 1100 541 
z
" transform="scale(0.015625)"/>
       <path id="ArialMT-61" d="M 2588 409 
Q 2275 144 1986 34 
Q 1697 -75 1366 -75 
Q 819 -75 525 192 
Q 231 459 231 875 
Q 231 1119 342 1320 
Q 453 1522 633 1644 
Q 813 1766 1038 1828 
Q 1203 1872 1538 1913 
Q 2219 1994 2541 2106 
Q 2544 2222 2544 2253 
Q 2544 2597 2384 2738 
Q 2169 2928 1744 2928 
Q 1347 2928 1158 2789 
Q 969 2650 878 2297 
L 328 2372 
Q 403 2725 575 2942 
Q 747 3159 1072 3276 
Q 1397 3394 1825 3394 
Q 2250 3394 2515 3294 
Q 2781 3194 2906 3042 
Q 3031 2891 3081 2659 
Q 3109 2516 3109 2141 
L 3109 1391 
Q 3109 606 3145 398 
Q 3181 191 3288 0 
L 2700 0 
Q 2613 175 2588 409 
z
M 2541 1666 
Q 2234 1541 1622 1453 
Q 1275 1403 1131 1340 
Q 988 1278 909 1158 
Q 831 1038 831 891 
Q 831 666 1001 516 
Q 1172 366 1500 366 
Q 1825 366 2078 508 
Q 2331 650 2450 897 
Q 2541 1088 2541 1459 
L 2541 1666 
z
" transform="scale(0.015625)"/>
       <path id="ArialMT-76" d="M 1344 0 
L 81 3319 
L 675 3319 
L 1388 1331 
Q 1503 1009 1600 663 
Q 1675 925 1809 1294 
L 2547 3319 
L 3125 3319 
L 1869 0 
L 1344 0 
z
" transform="scale(0.015625)"/>
       <path id="ArialMT-73" d="M 197 991 
L 753 1078 
Q 800 744 1014 566 
Q 1228 388 1613 388 
Q 2000 388 2187 545 
Q 2375 703 2375 916 
Q 2375 1106 2209 1216 
Q 2094 1291 1634 1406 
Q 1016 1563 777 1677 
Q 538 1791 414 1992 
Q 291 2194 291 2438 
Q 291 2659 392 2848 
Q 494 3038 669 3163 
Q 800 3259 1026 3326 
Q 1253 3394 1513 3394 
Q 1903 3394 2198 3281 
Q 2494 3169 2634 2976 
Q 2775 2784 2828 2463 
L 2278 2388 
Q 2241 2644 2061 2787 
Q 1881 2931 1553 2931 
Q 1166 2931 1000 2803 
Q 834 2675 834 2503 
Q 834 2394 903 2306 
Q 972 2216 1119 2156 
Q 1203 2125 1616 2013 
Q 2213 1853 2448 1751 
Q 2684 1650 2818 1456 
Q 2953 1263 2953 975 
Q 2953 694 2789 445 
Q 2625 197 2315 61 
Q 2006 -75 1616 -75 
Q 969 -75 630 194 
Q 291 463 197 991 
z
" transform="scale(0.015625)"/>
       <path id="ArialMT-42" d="M 469 0 
L 469 4581 
L 2188 4581 
Q 2713 4581 3030 4442 
Q 3347 4303 3526 4014 
Q 3706 3725 3706 3409 
Q 3706 3116 3547 2856 
Q 3388 2597 3066 2438 
Q 3481 2316 3704 2022 
Q 3928 1728 3928 1328 
Q 3928 1006 3792 729 
Q 3656 453 3456 303 
Q 3256 153 2954 76 
Q 2653 0 2216 0 
L 469 0 
z
M 1075 2656 
L 2066 2656 
Q 2469 2656 2644 2709 
Q 2875 2778 2992 2937 
Q 3109 3097 3109 3338 
Q 3109 3566 3000 3739 
Q 2891 3913 2687 3977 
Q 2484 4041 1991 4041 
L 1075 4041 
L 1075 2656 
z
M 1075 541 
L 2216 541 
Q 2509 541 2628 563 
Q 2838 600 2978 687 
Q 3119 775 3209 942 
Q 3300 1109 3300 1328 
Q 3300 1584 3169 1773 
Q 3038 1963 2805 2039 
Q 2572 2116 2134 2116 
L 1075 2116 
L 1075 541 
z
" transform="scale(0.015625)"/>
       <path id="ArialMT-64" d="M 2575 0 
L 2575 419 
Q 2259 -75 1647 -75 
Q 1250 -75 917 144 
Q 584 363 401 755 
Q 219 1147 219 1656 
Q 219 2153 384 2558 
Q 550 2963 881 3178 
Q 1213 3394 1622 3394 
Q 1922 3394 2156 3267 
Q 2391 3141 2538 2938 
L 2538 4581 
L 3097 4581 
L 3097 0 
L 2575 0 
z
M 797 1656 
Q 797 1019 1065 703 
Q 1334 388 1700 388 
Q 2069 388 2326 689 
Q 2584 991 2584 1609 
Q 2584 2291 2321 2609 
Q 2059 2928 1675 2928 
Q 1300 2928 1048 2622 
Q 797 2316 797 1656 
z
" transform="scale(0.015625)"/>
       <path id="ArialMT-49" d="M 597 0 
L 597 4581 
L 1203 4581 
L 1203 0 
L 597 0 
z
" transform="scale(0.015625)"/>
       <path id="ArialMT-78" d="M 47 0 
L 1259 1725 
L 138 3319 
L 841 3319 
L 1350 2541 
Q 1494 2319 1581 2169 
Q 1719 2375 1834 2534 
L 2394 3319 
L 3066 3319 
L 1919 1756 
L 3153 0 
L 2463 0 
L 1781 1031 
L 1600 1309 
L 728 0 
L 47 0 
z
" transform="scale(0.015625)"/>
      </defs>
      <use xlink:href="#ArialMT-44"/>
      <use xlink:href="#ArialMT-61" transform="translate(72.216797 0)"/>
      <use xlink:href="#ArialMT-76" transform="translate(127.832031 0)"/>
      <use xlink:href="#ArialMT-69" transform="translate(177.832031 0)"/>
      <use xlink:href="#ArialMT-65" transform="translate(200.048828 0)"/>
      <use xlink:href="#ArialMT-73" transform="translate(255.664062 0)"/>
      <use xlink:href="#ArialMT-20" transform="translate(305.664062 0)"/>
      <use xlink:href="#ArialMT-42" transform="translate(333.447266 0)"/>
      <use xlink:href="#ArialMT-6f" transform="translate(400.146484 0)"/>
      <use xlink:href="#ArialMT-75" transform="translate(455.761719 0)"/>
      <use xlink:href="#ArialMT-6c" transform="translate(511.376953 0)"/>
      <use xlink:href="#ArialMT-64" transform="translate(533.59375 0)"/>
      <use xlink:href="#ArialMT-69" transform="translate(589.208984 0)"/>
      <use xlink:href="#ArialMT-6e" transform="translate(611.425781 0)"/>
      <use xlink:href="#ArialMT-20" transform="translate(667.041016 0)"/>
      <use xlink:href="#ArialMT-49" transform="translate(694.824219 0)"/>
      <use xlink:href="#ArialMT-6e" transform="translate(722.607422 0)"/>
      <use xlink:href="#ArialMT-64" transform="translate(778.222656 0)"/>
      <use xlink:href="#ArialMT-65" transform="translate(833.837891 0)"/>
      <use xlink:href="#ArialMT-78" transform="translate(889.453125 0)"/>
     </g>
    </g>
   </g>
   <g id="line2d_48">
    <path d="M 75.522551 90.513934 
L 133.829761 89.187046 
L 192.136971 78.360719 
L 250.444181 72.667793 
L 308.751391 68.681856 
" clip-path="url(#p40ba44b86e)" style="fill: none; stroke-dasharray: 5.55,2.4; stroke-dashoffset: 0; stroke: #1abc9c; stroke-opacity: 0.4; stroke-width: 1.5"/>
   </g>
   <g id="patch_10">
    <path d="M 71.14951 102.599633 
L 79.895592 102.599633 
L 79.895592 78.888322 
L 71.14951 78.888322 
L 71.14951 102.599633 
z
" clip-path="url(#p40ba44b86e)" style="fill: #2ea890; stroke: #404040; stroke-linejoin: miter"/>
   </g>
   <g id="line2d_49">
    <path d="M 75.522551 102.599633 
L 75.522551 136.513115 
" clip-path="url(#p40ba44b86e)" style="fill: none; stroke: #404040"/>
   </g>
   <g id="line2d_50">
    <path d="M 75.522551 78.888322 
L 75.522551 44.985823 
" clip-path="url(#p40ba44b86e)" style="fill: none; stroke: #404040"/>
   </g>
   <g id="line2d_51">
    <path d="M 73.336031 136.513115 
L 77.709071 136.513115 
" clip-path="url(#p40ba44b86e)" style="fill: none; stroke: #404040; stroke-linecap: square"/>
   </g>
   <g id="line2d_52">
    <path d="M 73.336031 44.985823 
L 77.709071 44.985823 
" clip-path="url(#p40ba44b86e)" style="fill: none; stroke: #404040; stroke-linecap: square"/>
   </g>
   <g id="line2d_53"/>
   <g id="patch_11">
    <path d="M 129.45672 99.99523 
L 138.202802 99.99523 
L 138.202802 75.3155 
L 129.45672 75.3155 
L 129.45672 99.99523 
z
" clip-path="url(#p40ba44b86e)" style="fill: #2ea890; stroke: #404040; stroke-linejoin: miter"/>
   </g>
   <g id="line2d_54">
    <path d="M 133.829761 99.99523 
L 133.829761 132.796594 
" clip-path="url(#p40ba44b86e)" style="fill: none; stroke: #404040"/>
   </g>
   <g id="line2d_55">
    <path d="M 133.829761 75.3155 
L 133.829761 39.598796 
" clip-path="url(#p40ba44b86e)" style="fill: none; stroke: #404040"/>
   </g>
   <g id="line2d_56">
    <path d="M 131.643241 132.796594 
L 136.016281 132.796594 
" clip-path="url(#p40ba44b86e)" style="fill: none; stroke: #404040; stroke-linecap: square"/>
   </g>
   <g id="line2d_57">
    <path d="M 131.643241 39.598796 
L 136.016281 39.598796 
" clip-path="url(#p40ba44b86e)" style="fill: none; stroke: #404040; stroke-linecap: square"/>
   </g>
   <g id="line2d_58"/>
   <g id="patch_12">
    <path d="M 187.76393 88.94191 
L 196.510012 88.94191 
L 196.510012 67.239082 
L 187.76393 67.239082 
L 187.76393 88.94191 
z
" clip-path="url(#p40ba44b86e)" style="fill: #2ea890; stroke: #404040; stroke-linejoin: miter"/>
   </g>
   <g id="line2d_59">
    <path d="M 192.136971 88.94191 
L 192.136971 120.92036 
" clip-path="url(#p40ba44b86e)" style="fill: none; stroke: #404040"/>
   </g>
   <g id="line2d_60">
    <path d="M 192.136971 67.239082 
L 192.136971 35.179425 
" clip-path="url(#p40ba44b86e)" style="fill: none; stroke: #404040"/>
   </g>
   <g id="line2d_61">
    <path d="M 189.950451 120.92036 
L 194.323491 120.92036 
" clip-path="url(#p40ba44b86e)" style="fill: none; stroke: #404040; stroke-linecap: square"/>
   </g>
   <g id="line2d_62">
    <path d="M 189.950451 35.179425 
L 194.323491 35.179425 
" clip-path="url(#p40ba44b86e)" style="fill: none; stroke: #404040; stroke-linecap: square"/>
   </g>
   <g id="line2d_63"/>
   <g id="patch_13">
    <path d="M 246.07114 83.227249 
L 254.817222 83.227249 
L 254.817222 60.844874 
L 246.07114 60.844874 
L 246.07114 83.227249 
z
" clip-path="url(#p40ba44b86e)" style="fill: #2ea890; stroke: #404040; stroke-linejoin: miter"/>
   </g>
   <g id="line2d_64">
    <path d="M 250.444181 83.227249 
L 250.444181 115.023897 
" clip-path="url(#p40ba44b86e)" style="fill: none; stroke: #404040"/>
   </g>
   <g id="line2d_65">
    <path d="M 250.444181 60.844874 
L 250.444181 30.413908 
" clip-path="url(#p40ba44b86e)" style="fill: none; stroke: #404040"/>
   </g>
   <g id="line2d_66">
    <path d="M 248.257661 115.023897 
L 252.630701 115.023897 
" clip-path="url(#p40ba44b86e)" style="fill: none; stroke: #404040; stroke-linecap: square"/>
   </g>
   <g id="line2d_67">
    <path d="M 248.257661 30.413908 
L 252.630701 30.413908 
" clip-path="url(#p40ba44b86e)" style="fill: none; stroke: #404040; stroke-linecap: square"/>
   </g>
   <g id="line2d_68"/>
   <g id="patch_14">
    <path d="M 304.37835 79.753416 
L 313.124432 79.753416 
L 313.124432 58.094763 
L 304.37835 58.094763 
L 304.37835 79.753416 
z
" clip-path="url(#p40ba44b86e)" style="fill: #2ea890; stroke: #404040; stroke-linejoin: miter"/>
   </g>
   <g id="line2d_69">
    <path d="M 308.751391 79.753416 
L 308.751391 110.202853 
" clip-path="url(#p40ba44b86e)" style="fill: none; stroke: #404040"/>
   </g>
   <g id="line2d_70">
    <path d="M 308.751391 58.094763 
L 308.751391 27.158817 
" clip-path="url(#p40ba44b86e)" style="fill: none; stroke: #404040"/>
   </g>
   <g id="line2d_71">
    <path d="M 306.564871 110.202853 
L 310.937911 110.202853 
" clip-path="url(#p40ba44b86e)" style="fill: none; stroke: #404040; stroke-linecap: square"/>
   </g>
   <g id="line2d_72">
    <path d="M 306.564871 27.158817 
L 310.937911 27.158817 
" clip-path="url(#p40ba44b86e)" style="fill: none; stroke: #404040; stroke-linecap: square"/>
   </g>
   <g id="line2d_73"/>
   <g id="line2d_74">
    <defs>
     <path id="mbb2b51ec62" d="M -6 -3 
L 6 3 
" style="stroke: #1abc9c"/>
    </defs>
    <g>
     <use xlink:href="#mbb2b51ec62" x="325.80625" y="143.028" style="fill: #128973; stroke: #1abc9c"/>
     <use xlink:href="#mbb2b51ec62" x="325.80625" y="138.87" style="fill: #128973; stroke: #1abc9c"/>
    </g>
   </g>
   <g id="line2d_75">
    <path d="M 71.14951 90.513934 
L 79.895592 90.513934 
" clip-path="url(#p40ba44b86e)" style="fill: none; stroke: #404040"/>
   </g>
   <g id="line2d_76">
    <path d="M 129.45672 89.187046 
L 138.202802 89.187046 
" clip-path="url(#p40ba44b86e)" style="fill: none; stroke: #404040"/>
   </g>
   <g id="line2d_77">
    <path d="M 187.76393 78.360719 
L 196.510012 78.360719 
" clip-path="url(#p40ba44b86e)" style="fill: none; stroke: #404040"/>
   </g>
   <g id="line2d_78">
    <path d="M 246.07114 72.667793 
L 254.817222 72.667793 
" clip-path="url(#p40ba44b86e)" style="fill: none; stroke: #404040"/>
   </g>
   <g id="line2d_79">
    <path d="M 304.37835 68.681856 
L 313.124432 68.681856 
" clip-path="url(#p40ba44b86e)" style="fill: none; stroke: #404040"/>
   </g>
   <g id="patch_15">
    <path d="M 46.80625 145.8 
L 46.80625 7.2 
" style="fill: none; stroke: #6c3f7f; stroke-width: 2; stroke-linejoin: miter; stroke-linecap: square"/>
   </g>
   <g id="patch_16">
    <path d="M 325.80625 145.8 
L 325.80625 7.2 
" style="fill: none; stroke: #128973; stroke-width: 2; stroke-linejoin: miter; stroke-linecap: square"/>
   </g>
  </g>
 </g>
 <defs>
  <clipPath id="p40ba44b86e">
   <rect x="46.80625" y="7.2" width="279" height="138.6"/>
  </clipPath>
 </defs>
</svg>
