<?xml version="1.0" encoding="utf-8" standalone="no"?>
<!DOCTYPE svg PUBLIC "-//W3C//DTD SVG 1.1//EN"
  "http://www.w3.org/Graphics/SVG/1.1/DTD/svg11.dtd">
<svg xmlns:xlink="http://www.w3.org/1999/xlink" width="402.48pt" height="402.48pt" viewBox="0 0 402.48 402.48" xmlns="http://www.w3.org/2000/svg" version="1.1">
 <metadata>
  <rdf:RDF xmlns:dc="http://purl.org/dc/elements/1.1/" xmlns:cc="http://creativecommons.org/ns#" xmlns:rdf="http://www.w3.org/1999/02/22-rdf-syntax-ns#">
   <cc:Work>
    <dc:type rdf:resource="http://purl.org/dc/dcmitype/StillImage"/>
    <dc:date>2025-12-11T16:06:50.731126</dc:date>
    <dc:format>image/svg+xml</dc:format>
    <dc:creator>
     <cc:Agent>
      <dc:title>Matplotlib v3.9.2, https://matplotlib.org/</dc:title>
     </cc:Agent>
    </dc:creator>
   </cc:Work>
  </rdf:RDF>
 </metadata>
 <defs>
  <style type="text/css">*{stroke-linejoin: round; stroke-linecap: butt}</style>
 </defs>
 <g id="figure_1">
  <g id="patch_1">
   <path d="M 0 402.48 
L 402.48 402.48 
L 402.48 -0 
L 0 -0 
L 0 402.48 
z
" style="fill: none"/>
  </g>
  <g id="axes_1">
   <g id="patch_2">
    <path d="M 395.28 201.24 
C 395.28 175.758901 390.260779 150.525573 380.509584 126.984107 
C 370.75839 103.442641 356.464858 82.050858 338.447 64.033 
C 320.429142 46.015142 299.037359 31.72161 275.495893 21.970416 
C 251.954427 12.219221 226.721099 7.2 201.24 7.2 
C 175.758901 7.2 150.525573 12.219221 126.984107 21.970416 
C 103.442641 31.72161 82.050858 46.015142 64.033 64.033 
C 46.015142 82.050858 31.72161 103.442641 21.970416 126.984107 
C 12.219221 150.525573 7.2 175.758901 7.2 201.24 
C 7.2 226.721099 12.219221 251.954427 21.970416 275.495893 
C 31.72161 299.037359 46.015142 320.429142 64.033 338.447 
C 82.050858 356.464858 103.442641 370.75839 126.984107 380.509584 
C 150.525573 390.260779 175.758901 395.28 201.24 395.28 
C 226.721099 395.28 251.954427 390.260779 275.495893 380.509584 
C 299.037359 370.75839 320.429142 356.464858 338.447 338.447 
C 356.464858 320.429142 370.75839 299.037359 380.509584 275.495893 
C 390.260779 251.954427 395.28 226.721099 395.28 201.24 
M 201.24 201.24 
C 201.24 201.24 201.24 201.24 201.24 201.24 
C 201.24 201.24 201.24 201.24 201.24 201.24 
C 201.24 201.24 201.24 201.24 201.24 201.24 
C 201.24 201.24 201.24 201.24 201.24 201.24 
C 201.24 201.24 201.24 201.24 201.24 201.24 
C 201.24 201.24 201.24 201.24 201.24 201.24 
C 201.24 201.24 201.24 201.24 201.24 201.24 
C 201.24 201.24 201.24 201.24 201.24 201.24 
C 201.24 201.24 201.24 201.24 201.24 201.24 
C 201.24 201.24 201.24 201.24 201.24 201.24 
C 201.24 201.24 201.24 201.24 201.24 201.24 
C 201.24 201.24 201.24 201.24 201.24 201.24 
C 201.24 201.24 201.24 201.24 201.24 201.24 
C 201.24 201.24 201.24 201.24 201.24 201.24 
C 201.24 201.24 201.24 201.24 201.24 201.24 
C 201.24 201.24 201.24 201.24 201.24 201.24 
L 201.24 201.24 
z
" style="fill: none"/>
   </g>
   <g id="line2d_1">
    <path d="M 201.24 173.52 
L 212.51474 175.91652 
L 221.839975 182.6917 
L 227.603287 192.674049 
L 228.808147 204.137529 
L 225.246224 215.1 
L 217.533407 223.665951 
L 207.003312 228.354251 
L 195.476688 228.354251 
L 184.946593 223.665951 
L 177.233776 215.1 
L 173.671853 204.137529 
L 174.876713 192.674049 
L 180.640025 182.6917 
L 189.96526 175.91652 
L 201.24 173.52 
" clip-path="url(#p166c4822ad)" style="fill: none; stroke-dasharray: 1.85,0.8; stroke-dashoffset: 0; stroke: #808080; stroke-width: 0.5"/>
   </g>
   <g id="line2d_2">
    <path d="M 201.24 131.94 
L 229.426849 137.9313 
L 252.739936 154.869249 
L 267.148217 179.825122 
L 270.160367 208.483823 
L 261.25556 235.89 
L 241.973518 257.304878 
L 215.64828 269.025629 
L 186.83172 269.025629 
L 160.506482 257.304878 
L 141.22444 235.89 
L 132.319633 208.483823 
L 135.331783 179.825122 
L 149.740064 154.869249 
L 173.053151 137.9313 
L 201.24 131.94 
" clip-path="url(#p166c4822ad)" style="fill: none; stroke-dasharray: 1.85,0.8; stroke-dashoffset: 0; stroke: #808080; stroke-width: 0.5"/>
   </g>
   <g id="line2d_3">
    <path d="M 201.24 90.36 
L 246.338959 99.94608 
L 283.639898 127.046798 
L 306.693147 166.976196 
L 311.512588 212.830116 
L 297.264897 256.68 
L 266.413629 290.943804 
L 224.293248 309.697006 
L 178.186752 309.697006 
L 136.066371 290.943804 
L 105.215103 256.68 
L 90.967412 212.830116 
L 95.786853 166.976196 
L 118.840102 127.046798 
L 156.141041 99.94608 
L 201.24 90.36 
" clip-path="url(#p166c4822ad)" style="fill: none; stroke-dasharray: 1.85,0.8; stroke-dashoffset: 0; stroke: #808080; stroke-width: 0.5"/>
   </g>
   <g id="line2d_4">
    <path d="M 201.24 48.78 
L 263.251069 61.96086 
L 314.53986 99.224348 
L 346.238076 154.127269 
L 352.864808 217.17641 
L 333.274233 277.47 
L 290.85374 324.582731 
L 232.938216 350.368383 
L 169.541784 350.368383 
L 111.62626 324.582731 
L 69.205767 277.47 
L 49.615192 217.17641 
L 56.241924 154.127269 
L 87.94014 99.224348 
L 139.228931 61.96086 
L 201.24 48.78 
" clip-path="url(#p166c4822ad)" style="fill: none; stroke-dasharray: 1.85,0.8; stroke-dashoffset: 0; stroke: #808080; stroke-width: 0.5"/>
   </g>
   <g id="line2d_5">
    <path d="M 201.24 7.2 
L 280.163178 23.975639 
L 345.439822 71.401897 
L 385.783006 141.278342 
L 394.217029 221.522703 
L 369.283569 298.26 
L 315.29385 358.221658 
L 241.583184 391.03976 
L 160.896816 391.03976 
L 87.18615 358.221658 
L 33.196431 298.26 
L 8.262971 221.522703 
L 16.696994 141.278342 
L 57.040178 71.401897 
L 122.316822 23.975639 
L 201.24 7.2 
" clip-path="url(#p166c4822ad)" style="fill: none; stroke-dasharray: 1.85,0.8; stroke-dashoffset: 0; stroke: #808080; stroke-width: 0.5"/>
   </g>
   <g id="line2d_6">
    <path d="M 201.24 173.52 
L 201.24 131.94 
L 201.24 90.36 
L 201.24 48.78 
L 201.24 7.2 
" clip-path="url(#p166c4822ad)" style="fill: none; stroke-dasharray: 1.85,0.8; stroke-dashoffset: 0; stroke: #808080; stroke-width: 0.5"/>
   </g>
   <g id="line2d_7">
    <path d="M 212.51474 175.91652 
L 229.426849 137.9313 
L 246.338959 99.94608 
L 263.251069 61.96086 
L 280.163178 23.975639 
" clip-path="url(#p166c4822ad)" style="fill: none; stroke-dasharray: 1.85,0.8; stroke-dashoffset: 0; stroke: #808080; stroke-width: 0.5"/>
   </g>
   <g id="line2d_8">
    <path d="M 221.839975 182.6917 
L 252.739936 154.869249 
L 283.639898 127.046798 
L 314.53986 99.224348 
L 345.439822 71.401897 
" clip-path="url(#p166c4822ad)" style="fill: none; stroke-dasharray: 1.85,0.8; stroke-dashoffset: 0; stroke: #808080; stroke-width: 0.5"/>
   </g>
   <g id="line2d_9">
    <path d="M 227.603287 192.674049 
L 267.148217 179.825122 
L 306.693147 166.976196 
L 346.238076 154.127269 
L 385.783006 141.278342 
" clip-path="url(#p166c4822ad)" style="fill: none; stroke-dasharray: 1.85,0.8; stroke-dashoffset: 0; stroke: #808080; stroke-width: 0.5"/>
   </g>
   <g id="line2d_10">
    <path d="M 228.808147 204.137529 
L 270.160367 208.483823 
L 311.512588 212.830116 
L 352.864808 217.17641 
L 394.217029 221.522703 
" clip-path="url(#p166c4822ad)" style="fill: none; stroke-dasharray: 1.85,0.8; stroke-dashoffset: 0; stroke: #808080; stroke-width: 0.5"/>
   </g>
   <g id="line2d_11">
    <path d="M 225.246224 215.1 
L 261.25556 235.89 
L 297.264897 256.68 
L 333.274233 277.47 
L 369.283569 298.26 
" clip-path="url(#p166c4822ad)" style="fill: none; stroke-dasharray: 1.85,0.8; stroke-dashoffset: 0; stroke: #808080; stroke-width: 0.5"/>
   </g>
   <g id="line2d_12">
    <path d="M 217.533407 223.665951 
L 241.973518 257.304878 
L 266.413629 290.943804 
L 290.85374 324.582731 
L 315.29385 358.221658 
" clip-path="url(#p166c4822ad)" style="fill: none; stroke-dasharray: 1.85,0.8; stroke-dashoffset: 0; stroke: #808080; stroke-width: 0.5"/>
   </g>
   <g id="line2d_13">
    <path d="M 207.003312 228.354251 
L 215.64828 269.025629 
L 224.293248 309.697006 
L 232.938216 350.368383 
L 241.583184 391.03976 
" clip-path="url(#p166c4822ad)" style="fill: none; stroke-dasharray: 1.85,0.8; stroke-dashoffset: 0; stroke: #808080; stroke-width: 0.5"/>
   </g>
   <g id="line2d_14">
    <path d="M 195.476688 228.354251 
L 186.83172 269.025629 
L 178.186752 309.697006 
L 169.541784 350.368383 
L 160.896816 391.03976 
" clip-path="url(#p166c4822ad)" style="fill: none; stroke-dasharray: 1.85,0.8; stroke-dashoffset: 0; stroke: #808080; stroke-width: 0.5"/>
   </g>
   <g id="line2d_15">
    <path d="M 184.946593 223.665951 
L 160.506482 257.304878 
L 136.066371 290.943804 
L 111.62626 324.582731 
L 87.18615 358.221658 
" clip-path="url(#p166c4822ad)" style="fill: none; stroke-dasharray: 1.85,0.8; stroke-dashoffset: 0; stroke: #808080; stroke-width: 0.5"/>
   </g>
   <g id="line2d_16">
    <path d="M 177.233776 215.1 
L 141.22444 235.89 
L 105.215103 256.68 
L 69.205767 277.47 
L 33.196431 298.26 
" clip-path="url(#p166c4822ad)" style="fill: none; stroke-dasharray: 1.85,0.8; stroke-dashoffset: 0; stroke: #808080; stroke-width: 0.5"/>
   </g>
   <g id="line2d_17">
    <path d="M 173.671853 204.137529 
L 132.319633 208.483823 
L 90.967412 212.830116 
L 49.615192 217.17641 
L 8.262971 221.522703 
" clip-path="url(#p166c4822ad)" style="fill: none; stroke-dasharray: 1.85,0.8; stroke-dashoffset: 0; stroke: #808080; stroke-width: 0.5"/>
   </g>
   <g id="line2d_18">
    <path d="M 174.876713 192.674049 
L 135.331783 179.825122 
L 95.786853 166.976196 
L 56.241924 154.127269 
L 16.696994 141.278342 
" clip-path="url(#p166c4822ad)" style="fill: none; stroke-dasharray: 1.85,0.8; stroke-dashoffset: 0; stroke: #808080; stroke-width: 0.5"/>
   </g>
   <g id="line2d_19">
    <path d="M 180.640025 182.6917 
L 149.740064 154.869249 
L 118.840102 127.046798 
L 87.94014 99.224348 
L 57.040178 71.401897 
" clip-path="url(#p166c4822ad)" style="fill: none; stroke-dasharray: 1.85,0.8; stroke-dashoffset: 0; stroke: #808080; stroke-width: 0.5"/>
   </g>
   <g id="line2d_20">
    <path d="M 189.96526 175.91652 
L 173.053151 137.9313 
L 156.141041 99.94608 
L 139.228931 61.96086 
L 122.316822 23.975639 
" clip-path="url(#p166c4822ad)" style="fill: none; stroke-dasharray: 1.85,0.8; stroke-dashoffset: 0; stroke: #808080; stroke-width: 0.5"/>
   </g>
   <g id="matplotlib.axis_1">
    <g id="xtick_1"/>
    <g id="xtick_2"/>
    <g id="xtick_3"/>
    <g id="xtick_4"/>
    <g id="xtick_5"/>
    <g id="xtick_6"/>
    <g id="xtick_7"/>
    <g id="xtick_8"/>
    <g id="xtick_9"/>
    <g id="xtick_10"/>
    <g id="xtick_11"/>
    <g id="xtick_12"/>
    <g id="xtick_13"/>
    <g id="xtick_14"/>
    <g id="xtick_15"/>
   </g>
   <g id="matplotlib.axis_2">
    <g id="ytick_1"/>
    <g id="ytick_2"/>
    <g id="ytick_3"/>
    <g id="ytick_4"/>
    <g id="ytick_5"/>
    <g id="ytick_6"/>
    <g id="ytick_7"/>
   </g>
   <g id="line2d_21">
    <path d="M 201.24 143.36064 
L 242.449174 108.68268 
L 250.721139 156.686982 
L 342.626306 155.300804 
L 339.191007 215.739235 
L 354.663779 289.81926 
L 285.770197 317.585834 
L 224.944503 312.760916 
L 183.742585 283.558868 
L 141.019567 284.126315 
L 152.051247 229.63914 
L 123.387553 209.422622 
L 159.823277 187.782891 
L 174.686633 177.331241 
L 176.818914 146.389342 
L 201.24 143.36064 
" clip-path="url(#p166c4822ad)" style="fill: none; stroke: #dcd844; stroke-width: 5; stroke-linecap: square"/>
    <defs>
     <path id="maebe17253c" d="M 0 4 
C 1.060812 4 2.078319 3.578535 2.828427 2.828427 
C 3.578535 2.078319 4 1.060812 4 0 
C 4 -1.060812 3.578535 -2.078319 2.828427 -2.828427 
C 2.078319 -3.578535 1.060812 -4 0 -4 
C -1.060812 -4 -2.078319 -3.578535 -2.828427 -2.828427 
C -3.578535 -2.078319 -4 -1.060812 -4 0 
C -4 1.060812 -3.578535 2.078319 -2.828427 2.828427 
C -2.078319 3.578535 -1.060812 4 0 4 
z
" style="stroke: #dcd844"/>
    </defs>
    <g clip-path="url(#p166c4822ad)">
     <use xlink:href="#maebe17253c" x="201.24" y="143.36064" style="fill: #dcd844; stroke: #dcd844"/>
     <use xlink:href="#maebe17253c" x="242.449174" y="108.68268" style="fill: #dcd844; stroke: #dcd844"/>
     <use xlink:href="#maebe17253c" x="250.721139" y="156.686982" style="fill: #dcd844; stroke: #dcd844"/>
     <use xlink:href="#maebe17253c" x="342.626306" y="155.300804" style="fill: #dcd844; stroke: #dcd844"/>
     <use xlink:href="#maebe17253c" x="339.191007" y="215.739235" style="fill: #dcd844; stroke: #dcd844"/>
     <use xlink:href="#maebe17253c" x="354.663779" y="289.81926" style="fill: #dcd844; stroke: #dcd844"/>
     <use xlink:href="#maebe17253c" x="285.770197" y="317.585834" style="fill: #dcd844; stroke: #dcd844"/>
     <use xlink:href="#maebe17253c" x="224.944503" y="312.760916" style="fill: #dcd844; stroke: #dcd844"/>
     <use xlink:href="#maebe17253c" x="183.742585" y="283.558868" style="fill: #dcd844; stroke: #dcd844"/>
     <use xlink:href="#maebe17253c" x="141.019567" y="284.126315" style="fill: #dcd844; stroke: #dcd844"/>
     <use xlink:href="#maebe17253c" x="152.051247" y="229.63914" style="fill: #dcd844; stroke: #dcd844"/>
     <use xlink:href="#maebe17253c" x="123.387553" y="209.422622" style="fill: #dcd844; stroke: #dcd844"/>
     <use xlink:href="#maebe17253c" x="159.823277" y="187.782891" style="fill: #dcd844; stroke: #dcd844"/>
     <use xlink:href="#maebe17253c" x="174.686633" y="177.331241" style="fill: #dcd844; stroke: #dcd844"/>
     <use xlink:href="#maebe17253c" x="176.818914" y="146.389342" style="fill: #dcd844; stroke: #dcd844"/>
     <use xlink:href="#maebe17253c" x="201.24" y="143.36064" style="fill: #dcd844; stroke: #dcd844"/>
    </g>
   </g>
   <g id="line2d_22">
    <path d="M 201.24 155.502 
L 242.888889 107.695065 
L 248.784741 158.430523 
L 333.399156 158.298887 
L 344.870046 216.336126 
L 354.663779 289.81926 
L 286.878148 319.110799 
L 225.273011 314.306429 
L 182.612975 288.873261 
L 136.017491 291.011082 
L 142.80885 234.97524 
L 119.086922 209.874636 
L 159.454191 187.662968 
L 172.441236 175.309476 
L 182.647954 159.481581 
L 201.24 155.502 
" clip-path="url(#p166c4822ad)" style="fill: none; stroke: #c00000; stroke-width: 5; stroke-linecap: square"/>
    <defs>
     <path id="m4e5c824438" d="M 0 4 
C 1.060812 4 2.078319 3.578535 2.828427 2.828427 
C 3.578535 2.078319 4 1.060812 4 0 
C 4 -1.060812 3.578535 -2.078319 2.828427 -2.828427 
C 2.078319 -3.578535 1.060812 -4 0 -4 
C -1.060812 -4 -2.078319 -3.578535 -2.828427 -2.828427 
C -3.578535 -2.078319 -4 -1.060812 -4 0 
C -4 1.060812 -3.578535 2.078319 -2.828427 2.828427 
C -2.078319 3.578535 -1.060812 4 0 4 
z
" style="stroke: #c00000"/>
    </defs>
    <g clip-path="url(#p166c4822ad)">
     <use xlink:href="#m4e5c824438" x="201.24" y="155.502" style="fill: #c00000; stroke: #c00000"/>
     <use xlink:href="#m4e5c824438" x="242.888889" y="107.695065" style="fill: #c00000; stroke: #c00000"/>
     <use xlink:href="#m4e5c824438" x="248.784741" y="158.430523" style="fill: #c00000; stroke: #c00000"/>
     <use xlink:href="#m4e5c824438" x="333.399156" y="158.298887" style="fill: #c00000; stroke: #c00000"/>
     <use xlink:href="#m4e5c824438" x="344.870046" y="216.336126" style="fill: #c00000; stroke: #c00000"/>
     <use xlink:href="#m4e5c824438" x="354.663779" y="289.81926" style="fill: #c00000; stroke: #c00000"/>
     <use xlink:href="#m4e5c824438" x="286.878148" y="319.110799" style="fill: #c00000; stroke: #c00000"/>
     <use xlink:href="#m4e5c824438" x="225.273011" y="314.306429" style="fill: #c00000; stroke: #c00000"/>
     <use xlink:href="#m4e5c824438" x="182.612975" y="288.873261" style="fill: #c00000; stroke: #c00000"/>
     <use xlink:href="#m4e5c824438" x="136.017491" y="291.011082" style="fill: #c00000; stroke: #c00000"/>
     <use xlink:href="#m4e5c824438" x="142.80885" y="234.97524" style="fill: #c00000; stroke: #c00000"/>
     <use xlink:href="#m4e5c824438" x="119.086922" y="209.874636" style="fill: #c00000; stroke: #c00000"/>
     <use xlink:href="#m4e5c824438" x="159.454191" y="187.662968" style="fill: #c00000; stroke: #c00000"/>
     <use xlink:href="#m4e5c824438" x="172.441236" y="175.309476" style="fill: #c00000; stroke: #c00000"/>
     <use xlink:href="#m4e5c824438" x="182.647954" y="159.481581" style="fill: #c00000; stroke: #c00000"/>
     <use xlink:href="#m4e5c824438" x="201.24" y="155.502" style="fill: #c00000; stroke: #c00000"/>
    </g>
   </g>
   <g id="line2d_23">
    <path d="M 201.24 169.0848 
L 232.741623 130.486197 
L 226.886968 178.147366 
L 322.089306 161.97368 
L 348.646882 216.733088 
L 351.614988 288.05904 
L 294.780451 329.987385 
L 227.503413 324.799644 
L 187.096832 267.778373 
L 143.202884 281.121238 
L 158.124821 226.13256 
L 131.051498 208.617109 
L 175.140346 192.759708 
L 184.82182 186.457005 
L 190.17948 176.397666 
L 201.24 169.0848 
" clip-path="url(#p166c4822ad)" style="fill: none; stroke: #0033cc; stroke-width: 5; stroke-linecap: square"/>
    <defs>
     <path id="m38b4c826dd" d="M 0 4 
C 1.060812 4 2.078319 3.578535 2.828427 2.828427 
C 3.578535 2.078319 4 1.060812 4 0 
C 4 -1.060812 3.578535 -2.078319 2.828427 -2.828427 
C 2.078319 -3.578535 1.060812 -4 0 -4 
C -1.060812 -4 -2.078319 -3.578535 -2.828427 -2.828427 
C -3.578535 -2.078319 -4 -1.060812 -4 0 
C -4 1.060812 -3.578535 2.078319 -2.828427 2.828427 
C -2.078319 3.578535 -1.060812 4 0 4 
z
" style="stroke: #0033cc"/>
    </defs>
    <g clip-path="url(#p166c4822ad)">
     <use xlink:href="#m38b4c826dd" x="201.24" y="169.0848" style="fill: #0033cc; stroke: #0033cc"/>
     <use xlink:href="#m38b4c826dd" x="232.741623" y="130.486197" style="fill: #0033cc; stroke: #0033cc"/>
     <use xlink:href="#m38b4c826dd" x="226.886968" y="178.147366" style="fill: #0033cc; stroke: #0033cc"/>
     <use xlink:href="#m38b4c826dd" x="322.089306" y="161.97368" style="fill: #0033cc; stroke: #0033cc"/>
     <use xlink:href="#m38b4c826dd" x="348.646882" y="216.733088" style="fill: #0033cc; stroke: #0033cc"/>
     <use xlink:href="#m38b4c826dd" x="351.614988" y="288.05904" style="fill: #0033cc; stroke: #0033cc"/>
     <use xlink:href="#m38b4c826dd" x="294.780451" y="329.987385" style="fill: #0033cc; stroke: #0033cc"/>
     <use xlink:href="#m38b4c826dd" x="227.503413" y="324.799644" style="fill: #0033cc; stroke: #0033cc"/>
     <use xlink:href="#m38b4c826dd" x="187.096832" y="267.778373" style="fill: #0033cc; stroke: #0033cc"/>
     <use xlink:href="#m38b4c826dd" x="143.202884" y="281.121238" style="fill: #0033cc; stroke: #0033cc"/>
     <use xlink:href="#m38b4c826dd" x="158.124821" y="226.13256" style="fill: #0033cc; stroke: #0033cc"/>
     <use xlink:href="#m38b4c826dd" x="131.051498" y="208.617109" style="fill: #0033cc; stroke: #0033cc"/>
     <use xlink:href="#m38b4c826dd" x="175.140346" y="192.759708" style="fill: #0033cc; stroke: #0033cc"/>
     <use xlink:href="#m38b4c826dd" x="184.82182" y="186.457005" style="fill: #0033cc; stroke: #0033cc"/>
     <use xlink:href="#m38b4c826dd" x="190.17948" y="176.397666" style="fill: #0033cc; stroke: #0033cc"/>
     <use xlink:href="#m38b4c826dd" x="201.24" y="169.0848" style="fill: #0033cc; stroke: #0033cc"/>
    </g>
   </g>
   <g id="text_1">
    <!-- 0.15 -->
    <g transform="translate(176.947851 269.269623) scale(0.15 -0.15)">
     <defs>
      <path id="Arial-BoldMT-30" d="M 1756 4600 
Q 2422 4600 2797 4125 
Q 3244 3563 3244 2259 
Q 3244 959 2794 391 
Q 2422 -78 1756 -78 
Q 1088 -78 678 436 
Q 269 950 269 2269 
Q 269 3563 719 4131 
Q 1091 4600 1756 4600 
z
M 1756 3872 
Q 1597 3872 1472 3770 
Q 1347 3669 1278 3406 
Q 1188 3066 1188 2259 
Q 1188 1453 1269 1151 
Q 1350 850 1473 750 
Q 1597 650 1756 650 
Q 1916 650 2041 751 
Q 2166 853 2234 1116 
Q 2325 1453 2325 2259 
Q 2325 3066 2244 3367 
Q 2163 3669 2039 3770 
Q 1916 3872 1756 3872 
z
" transform="scale(0.015625)"/>
      <path id="Arial-BoldMT-2e" d="M 459 0 
L 459 878 
L 1338 878 
L 1338 0 
L 459 0 
z
" transform="scale(0.015625)"/>
      <path id="Arial-BoldMT-31" d="M 2519 0 
L 1641 0 
L 1641 3309 
Q 1159 2859 506 2644 
L 506 3441 
Q 850 3553 1253 3867 
Q 1656 4181 1806 4600 
L 2519 4600 
L 2519 0 
z
" transform="scale(0.015625)"/>
      <path id="Arial-BoldMT-35" d="M 284 1178 
L 1159 1269 
Q 1197 972 1381 798 
Q 1566 625 1806 625 
Q 2081 625 2272 848 
Q 2463 1072 2463 1522 
Q 2463 1944 2273 2155 
Q 2084 2366 1781 2366 
Q 1403 2366 1103 2031 
L 391 2134 
L 841 4519 
L 3163 4519 
L 3163 3697 
L 1506 3697 
L 1369 2919 
Q 1663 3066 1969 3066 
Q 2553 3066 2959 2641 
Q 3366 2216 3366 1538 
Q 3366 972 3038 528 
Q 2591 -78 1797 -78 
Q 1163 -78 763 262 
Q 363 603 284 1178 
z
" transform="scale(0.015625)"/>
     </defs>
     <use xlink:href="#Arial-BoldMT-30"/>
     <use xlink:href="#Arial-BoldMT-2e" x="55.615234"/>
     <use xlink:href="#Arial-BoldMT-31" x="83.398438"/>
     <use xlink:href="#Arial-BoldMT-35" x="139.013672"/>
    </g>
   </g>
   <g id="text_2">
    <!-- 0.30 -->
    <g transform="translate(168.302883 309.941) scale(0.15 -0.15)">
     <defs>
      <path id="Arial-BoldMT-33" d="M 241 1216 
L 1091 1319 
Q 1131 994 1309 822 
Q 1488 650 1741 650 
Q 2013 650 2198 856 
Q 2384 1063 2384 1413 
Q 2384 1744 2206 1937 
Q 2028 2131 1772 2131 
Q 1603 2131 1369 2066 
L 1466 2781 
Q 1822 2772 2009 2936 
Q 2197 3100 2197 3372 
Q 2197 3603 2059 3740 
Q 1922 3878 1694 3878 
Q 1469 3878 1309 3722 
Q 1150 3566 1116 3266 
L 306 3403 
Q 391 3819 561 4067 
Q 731 4316 1036 4458 
Q 1341 4600 1719 4600 
Q 2366 4600 2756 4188 
Q 3078 3850 3078 3425 
Q 3078 2822 2419 2463 
Q 2813 2378 3048 2084 
Q 3284 1791 3284 1375 
Q 3284 772 2843 347 
Q 2403 -78 1747 -78 
Q 1125 -78 715 280 
Q 306 638 241 1216 
z
" transform="scale(0.015625)"/>
     </defs>
     <use xlink:href="#Arial-BoldMT-30"/>
     <use xlink:href="#Arial-BoldMT-2e" x="55.615234"/>
     <use xlink:href="#Arial-BoldMT-33" x="83.398438"/>
     <use xlink:href="#Arial-BoldMT-30" x="139.013672"/>
    </g>
   </g>
   <g id="text_3">
    <!-- 0.45 -->
    <g transform="translate(159.657915 350.612377) scale(0.15 -0.15)">
     <defs>
      <path id="Arial-BoldMT-34" d="M 1994 0 
L 1994 922 
L 119 922 
L 119 1691 
L 2106 4600 
L 2844 4600 
L 2844 1694 
L 3413 1694 
L 3413 922 
L 2844 922 
L 2844 0 
L 1994 0 
z
M 1994 1694 
L 1994 3259 
L 941 1694 
L 1994 1694 
z
" transform="scale(0.015625)"/>
     </defs>
     <use xlink:href="#Arial-BoldMT-30"/>
     <use xlink:href="#Arial-BoldMT-2e" x="55.615234"/>
     <use xlink:href="#Arial-BoldMT-34" x="83.398438"/>
     <use xlink:href="#Arial-BoldMT-35" x="139.013672"/>
    </g>
   </g>
  </g>
 </g>
 <defs>
  <clipPath id="p166c4822ad">
   <path d="M 395.28 201.24 
C 395.28 175.758901 390.260779 150.525573 380.509584 126.984107 
C 370.75839 103.442641 356.464858 82.050858 338.447 64.033 
C 320.429142 46.015142 299.037359 31.72161 275.495893 21.970416 
C 251.954427 12.219221 226.721099 7.2 201.24 7.2 
C 175.758901 7.2 150.525573 12.219221 126.984107 21.970416 
C 103.442641 31.72161 82.050858 46.015142 64.033 64.033 
C 46.015142 82.050858 31.72161 103.442641 21.970416 126.984107 
C 12.219221 150.525573 7.2 175.758901 7.2 201.24 
C 7.2 226.721099 12.219221 251.954427 21.970416 275.495893 
C 31.72161 299.037359 46.015142 320.429142 64.033 338.447 
C 82.050858 356.464858 103.442641 370.75839 126.984107 380.509584 
C 150.525573 390.260779 175.758901 395.28 201.24 395.28 
C 226.721099 395.28 251.954427 390.260779 275.495893 380.509584 
C 299.037359 370.75839 320.429142 356.464858 338.447 338.447 
C 356.464858 320.429142 370.75839 299.037359 380.509584 275.495893 
C 390.260779 251.954427 395.28 226.721099 395.28 201.24 
M 201.24 201.24 
C 201.24 201.24 201.24 201.24 201.24 201.24 
C 201.24 201.24 201.24 201.24 201.24 201.24 
C 201.24 201.24 201.24 201.24 201.24 201.24 
C 201.24 201.24 201.24 201.24 201.24 201.24 
C 201.24 201.24 201.24 201.24 201.24 201.24 
C 201.24 201.24 201.24 201.24 201.24 201.24 
C 201.24 201.24 201.24 201.24 201.24 201.24 
C 201.24 201.24 201.24 201.24 201.24 201.24 
C 201.24 201.24 201.24 201.24 201.24 201.24 
C 201.24 201.24 201.24 201.24 201.24 201.24 
C 201.24 201.24 201.24 201.24 201.24 201.24 
C 201.24 201.24 201.24 201.24 201.24 201.24 
C 201.24 201.24 201.24 201.24 201.24 201.24 
C 201.24 201.24 201.24 201.24 201.24 201.24 
C 201.24 201.24 201.24 201.24 201.24 201.24 
C 201.24 201.24 201.24 201.24 201.24 201.24 
z
"/>
  </clipPath>
 </defs>
</svg>
