<?xml version="1.0" encoding="utf-8" standalone="no"?>
<!DOCTYPE svg PUBLIC "-//W3C//DTD SVG 1.1//EN"
  "http://www.w3.org/Graphics/SVG/1.1/DTD/svg11.dtd">
<svg xmlns:xlink="http://www.w3.org/1999/xlink" width="402.48pt" height="402.48pt" viewBox="0 0 402.48 402.48" xmlns="http://www.w3.org/2000/svg" version="1.1">
 <metadata>
  <rdf:RDF xmlns:dc="http://purl.org/dc/elements/1.1/" xmlns:cc="http://creativecommons.org/ns#" xmlns:rdf="http://www.w3.org/1999/02/22-rdf-syntax-ns#">
   <cc:Work>
    <dc:type rdf:resource="http://purl.org/dc/dcmitype/StillImage"/>
    <dc:date>2025-12-11T16:06:47.387417</dc:date>
    <dc:format>image/svg+xml</dc:format>
    <dc:creator>
     <cc:Agent>
      <dc:title>Matplotlib v3.9.2, https://matplotlib.org/</dc:title>
     </cc:Agent>
    </dc:creator>
   </cc:Work>
  </rdf:RDF>
 </metadata>
 <defs>
  <style type="text/css">*{stroke-linejoin: round; stroke-linecap: butt}</style>
 </defs>
 <g id="figure_1">
  <g id="patch_1">
   <path d="M 0 402.48 
L 402.48 402.48 
L 402.48 -0 
L 0 -0 
L 0 402.48 
z
" style="fill: none"/>
  </g>
  <g id="axes_1">
   <g id="patch_2">
    <path d="M 395.28 201.24 
C 395.28 175.758901 390.260779 150.525573 380.509584 126.984107 
C 370.75839 103.442641 356.464858 82.050858 338.447 64.033 
C 320.429142 46.015142 299.037359 31.72161 275.495893 21.970416 
C 251.954427 12.219221 226.721099 7.2 201.24 7.2 
C 175.758901 7.2 150.525573 12.219221 126.984107 21.970416 
C 103.442641 31.72161 82.050858 46.015142 64.033 64.033 
C 46.015142 82.050858 31.72161 103.442641 21.970416 126.984107 
C 12.219221 150.525573 7.2 175.758901 7.2 201.24 
C 7.2 226.721099 12.219221 251.954427 21.970416 275.495893 
C 31.72161 299.037359 46.015142 320.429142 64.033 338.447 
C 82.050858 356.464858 103.442641 370.75839 126.984107 380.509584 
C 150.525573 390.260779 175.758901 395.28 201.24 395.28 
C 226.721099 395.28 251.954427 390.260779 275.495893 380.509584 
C 299.037359 370.75839 320.429142 356.464858 338.447 338.447 
C 356.464858 320.429142 370.75839 299.037359 380.509584 275.495893 
C 390.260779 251.954427 395.28 226.721099 395.28 201.24 
M 201.24 201.24 
C 201.24 201.24 201.24 201.24 201.24 201.24 
C 201.24 201.24 201.24 201.24 201.24 201.24 
C 201.24 201.24 201.24 201.24 201.24 201.24 
C 201.24 201.24 201.24 201.24 201.24 201.24 
C 201.24 201.24 201.24 201.24 201.24 201.24 
C 201.24 201.24 201.24 201.24 201.24 201.24 
C 201.24 201.24 201.24 201.24 201.24 201.24 
C 201.24 201.24 201.24 201.24 201.24 201.24 
C 201.24 201.24 201.24 201.24 201.24 201.24 
C 201.24 201.24 201.24 201.24 201.24 201.24 
C 201.24 201.24 201.24 201.24 201.24 201.24 
C 201.24 201.24 201.24 201.24 201.24 201.24 
C 201.24 201.24 201.24 201.24 201.24 201.24 
C 201.24 201.24 201.24 201.24 201.24 201.24 
C 201.24 201.24 201.24 201.24 201.24 201.24 
C 201.24 201.24 201.24 201.24 201.24 201.24 
L 201.24 201.24 
z
" style="fill: none"/>
   </g>
   <g id="line2d_1">
    <path d="M 201.24 201.24 
L 201.24 201.24 
L 201.24 201.24 
L 201.24 201.24 
L 201.24 201.24 
L 201.24 201.24 
L 201.24 201.24 
L 201.24 201.24 
L 201.24 201.24 
L 201.24 201.24 
L 201.24 201.24 
L 201.24 201.24 
L 201.24 201.24 
L 201.24 201.24 
L 201.24 201.24 
L 201.24 201.24 
" clip-path="url(#p5e2760654a)" style="fill: none; stroke-dasharray: 1.85,0.8; stroke-dashoffset: 0; stroke: #808080; stroke-width: 0.5"/>
   </g>
   <g id="line2d_2">
    <path d="M 201.24 164.8575 
L 216.038096 168.002932 
L 228.277467 176.895356 
L 235.841814 189.997189 
L 237.423193 205.043007 
L 232.748169 219.43125 
L 222.625097 230.674061 
L 208.804347 236.827455 
L 193.675653 236.827455 
L 179.854903 230.674061 
L 169.731831 219.43125 
L 165.056807 205.043007 
L 166.638186 189.997189 
L 174.202533 176.895356 
L 186.441904 168.002932 
L 201.24 164.8575 
" clip-path="url(#p5e2760654a)" style="fill: none; stroke-dasharray: 1.85,0.8; stroke-dashoffset: 0; stroke: #808080; stroke-width: 0.5"/>
   </g>
   <g id="line2d_3">
    <path d="M 201.24 128.475 
L 230.836192 134.765865 
L 255.314933 152.550711 
L 270.443627 178.754378 
L 273.606386 208.846014 
L 264.256339 237.6225 
L 244.010194 260.108122 
L 216.368694 272.41491 
L 186.111306 272.41491 
L 158.469806 260.108122 
L 138.223661 237.6225 
L 128.873614 208.846014 
L 132.036373 178.754378 
L 147.165067 152.550711 
L 171.643808 134.765865 
L 201.24 128.475 
" clip-path="url(#p5e2760654a)" style="fill: none; stroke-dasharray: 1.85,0.8; stroke-dashoffset: 0; stroke: #808080; stroke-width: 0.5"/>
   </g>
   <g id="line2d_4">
    <path d="M 201.24 92.0925 
L 245.634288 101.528797 
L 282.3524 128.206067 
L 305.045441 167.511568 
L 309.789579 212.64902 
L 295.764508 255.81375 
L 265.395291 289.542182 
L 223.933041 308.002365 
L 178.546959 308.002365 
L 137.084709 289.542182 
L 106.715492 255.81375 
L 92.690421 212.64902 
L 97.434559 167.511568 
L 120.1276 128.206067 
L 156.845712 101.528797 
L 201.24 92.0925 
" clip-path="url(#p5e2760654a)" style="fill: none; stroke-dasharray: 1.85,0.8; stroke-dashoffset: 0; stroke: #808080; stroke-width: 0.5"/>
   </g>
   <g id="line2d_5">
    <path d="M 201.24 55.71 
L 260.432384 68.29173 
L 309.389866 103.861423 
L 339.647255 156.268757 
L 345.972771 216.452027 
L 327.272677 274.005 
L 286.780388 318.976243 
L 231.497388 343.58982 
L 170.982612 343.58982 
L 115.699612 318.976243 
L 75.207323 274.005 
L 56.507229 216.452027 
L 62.832745 156.268757 
L 93.090134 103.861423 
L 142.047616 68.29173 
L 201.24 55.71 
" clip-path="url(#p5e2760654a)" style="fill: none; stroke-dasharray: 1.85,0.8; stroke-dashoffset: 0; stroke: #808080; stroke-width: 0.5"/>
   </g>
   <g id="line2d_6">
    <path d="M 201.24 19.3275 
L 275.23048 35.054662 
L 336.427333 79.516779 
L 374.249069 145.025946 
L 382.155964 220.255034 
L 358.780846 292.19625 
L 308.165485 348.410304 
L 239.061735 379.177275 
L 163.418265 379.177275 
L 94.314515 348.410304 
L 43.699154 292.19625 
L 20.324036 220.255034 
L 28.230931 145.025946 
L 66.052667 79.516779 
L 127.24952 35.054662 
L 201.24 19.3275 
" clip-path="url(#p5e2760654a)" style="fill: none; stroke-dasharray: 1.85,0.8; stroke-dashoffset: 0; stroke: #808080; stroke-width: 0.5"/>
   </g>
   <g id="line2d_7">
    <path d="M 201.24 201.24 
L 201.24 164.8575 
L 201.24 128.475 
L 201.24 92.0925 
L 201.24 55.71 
L 201.24 19.3275 
" clip-path="url(#p5e2760654a)" style="fill: none; stroke-dasharray: 1.85,0.8; stroke-dashoffset: 0; stroke: #808080; stroke-width: 0.5"/>
   </g>
   <g id="line2d_8">
    <path d="M 201.24 201.24 
L 216.038096 168.002932 
L 230.836192 134.765865 
L 245.634288 101.528797 
L 260.432384 68.29173 
L 275.23048 35.054662 
" clip-path="url(#p5e2760654a)" style="fill: none; stroke-dasharray: 1.85,0.8; stroke-dashoffset: 0; stroke: #808080; stroke-width: 0.5"/>
   </g>
   <g id="line2d_9">
    <path d="M 201.24 201.24 
L 228.277467 176.895356 
L 255.314933 152.550711 
L 282.3524 128.206067 
L 309.389866 103.861423 
L 336.427333 79.516779 
" clip-path="url(#p5e2760654a)" style="fill: none; stroke-dasharray: 1.85,0.8; stroke-dashoffset: 0; stroke: #808080; stroke-width: 0.5"/>
   </g>
   <g id="line2d_10">
    <path d="M 201.24 201.24 
L 235.841814 189.997189 
L 270.443627 178.754378 
L 305.045441 167.511568 
L 339.647255 156.268757 
L 374.249069 145.025946 
" clip-path="url(#p5e2760654a)" style="fill: none; stroke-dasharray: 1.85,0.8; stroke-dashoffset: 0; stroke: #808080; stroke-width: 0.5"/>
   </g>
   <g id="line2d_11">
    <path d="M 201.24 201.24 
L 237.423193 205.043007 
L 273.606386 208.846014 
L 309.789579 212.64902 
L 345.972771 216.452027 
L 382.155964 220.255034 
" clip-path="url(#p5e2760654a)" style="fill: none; stroke-dasharray: 1.85,0.8; stroke-dashoffset: 0; stroke: #808080; stroke-width: 0.5"/>
   </g>
   <g id="line2d_12">
    <path d="M 201.24 201.24 
L 232.748169 219.43125 
L 264.256339 237.6225 
L 295.764508 255.81375 
L 327.272677 274.005 
L 358.780846 292.19625 
" clip-path="url(#p5e2760654a)" style="fill: none; stroke-dasharray: 1.85,0.8; stroke-dashoffset: 0; stroke: #808080; stroke-width: 0.5"/>
   </g>
   <g id="line2d_13">
    <path d="M 201.24 201.24 
L 222.625097 230.674061 
L 244.010194 260.108122 
L 265.395291 289.542182 
L 286.780388 318.976243 
L 308.165485 348.410304 
" clip-path="url(#p5e2760654a)" style="fill: none; stroke-dasharray: 1.85,0.8; stroke-dashoffset: 0; stroke: #808080; stroke-width: 0.5"/>
   </g>
   <g id="line2d_14">
    <path d="M 201.24 201.24 
L 208.804347 236.827455 
L 216.368694 272.41491 
L 223.933041 308.002365 
L 231.497388 343.58982 
L 239.061735 379.177275 
" clip-path="url(#p5e2760654a)" style="fill: none; stroke-dasharray: 1.85,0.8; stroke-dashoffset: 0; stroke: #808080; stroke-width: 0.5"/>
   </g>
   <g id="line2d_15">
    <path d="M 201.24 201.24 
L 193.675653 236.827455 
L 186.111306 272.41491 
L 178.546959 308.002365 
L 170.982612 343.58982 
L 163.418265 379.177275 
" clip-path="url(#p5e2760654a)" style="fill: none; stroke-dasharray: 1.85,0.8; stroke-dashoffset: 0; stroke: #808080; stroke-width: 0.5"/>
   </g>
   <g id="line2d_16">
    <path d="M 201.24 201.24 
L 179.854903 230.674061 
L 158.469806 260.108122 
L 137.084709 289.542182 
L 115.699612 318.976243 
L 94.314515 348.410304 
" clip-path="url(#p5e2760654a)" style="fill: none; stroke-dasharray: 1.85,0.8; stroke-dashoffset: 0; stroke: #808080; stroke-width: 0.5"/>
   </g>
   <g id="line2d_17">
    <path d="M 201.24 201.24 
L 169.731831 219.43125 
L 138.223661 237.6225 
L 106.715492 255.81375 
L 75.207323 274.005 
L 43.699154 292.19625 
" clip-path="url(#p5e2760654a)" style="fill: none; stroke-dasharray: 1.85,0.8; stroke-dashoffset: 0; stroke: #808080; stroke-width: 0.5"/>
   </g>
   <g id="line2d_18">
    <path d="M 201.24 201.24 
L 165.056807 205.043007 
L 128.873614 208.846014 
L 92.690421 212.64902 
L 56.507229 216.452027 
L 20.324036 220.255034 
" clip-path="url(#p5e2760654a)" style="fill: none; stroke-dasharray: 1.85,0.8; stroke-dashoffset: 0; stroke: #808080; stroke-width: 0.5"/>
   </g>
   <g id="line2d_19">
    <path d="M 201.24 201.24 
L 166.638186 189.997189 
L 132.036373 178.754378 
L 97.434559 167.511568 
L 62.832745 156.268757 
L 28.230931 145.025946 
" clip-path="url(#p5e2760654a)" style="fill: none; stroke-dasharray: 1.85,0.8; stroke-dashoffset: 0; stroke: #808080; stroke-width: 0.5"/>
   </g>
   <g id="line2d_20">
    <path d="M 201.24 201.24 
L 174.202533 176.895356 
L 147.165067 152.550711 
L 120.1276 128.206067 
L 93.090134 103.861423 
L 66.052667 79.516779 
" clip-path="url(#p5e2760654a)" style="fill: none; stroke-dasharray: 1.85,0.8; stroke-dashoffset: 0; stroke: #808080; stroke-width: 0.5"/>
   </g>
   <g id="line2d_21">
    <path d="M 201.24 201.24 
L 186.441904 168.002932 
L 171.643808 134.765865 
L 156.845712 101.528797 
L 142.047616 68.29173 
L 127.24952 35.054662 
" clip-path="url(#p5e2760654a)" style="fill: none; stroke-dasharray: 1.85,0.8; stroke-dashoffset: 0; stroke: #808080; stroke-width: 0.5"/>
   </g>
   <g id="matplotlib.axis_1">
    <g id="xtick_1"/>
    <g id="xtick_2"/>
    <g id="xtick_3"/>
    <g id="xtick_4"/>
    <g id="xtick_5"/>
    <g id="xtick_6"/>
    <g id="xtick_7"/>
    <g id="xtick_8"/>
    <g id="xtick_9"/>
    <g id="xtick_10"/>
    <g id="xtick_11"/>
    <g id="xtick_12"/>
    <g id="xtick_13"/>
    <g id="xtick_14"/>
    <g id="xtick_15"/>
   </g>
   <g id="matplotlib.axis_2">
    <g id="ytick_1"/>
    <g id="ytick_2"/>
    <g id="ytick_3"/>
    <g id="ytick_4"/>
    <g id="ytick_5"/>
    <g id="ytick_6"/>
    <g id="ytick_7"/>
    <g id="ytick_8"/>
   </g>
   <g id="line2d_22">
    <path d="M 201.24 62.201855 
L 237.908948 118.880194 
L 286.759522 124.237876 
L 285.391457 173.897534 
L 278.132766 209.321755 
L 271.81233 241.984954 
L 246.524179 263.568326 
L 217.193803 276.29674 
L 183.296378 285.658104 
L 154.712767 265.279243 
L 134.040509 240.037644 
L 118.999322 209.883844 
L 88.274673 164.53534 
L 142.709454 148.53886 
L 138.518881 60.36606 
L 201.24 62.201855 
" clip-path="url(#p5e2760654a)" style="fill: none; stroke: #dcd844; stroke-width: 5; stroke-linecap: square"/>
    <defs>
     <path id="m3908b51031" d="M 0 4 
C 1.060812 4 2.078319 3.578535 2.828427 2.828427 
C 3.578535 2.078319 4 1.060812 4 0 
C 4 -1.060812 3.578535 -2.078319 2.828427 -2.828427 
C 2.078319 -3.578535 1.060812 -4 0 -4 
C -1.060812 -4 -2.078319 -3.578535 -2.828427 -2.828427 
C -3.578535 -2.078319 -4 -1.060812 -4 0 
C -4 1.060812 -3.578535 2.078319 -2.828427 2.828427 
C -2.078319 3.578535 -1.060812 4 0 4 
z
" style="stroke: #dcd844"/>
    </defs>
    <g clip-path="url(#p5e2760654a)">
     <use xlink:href="#m3908b51031" x="201.24" y="62.201855" style="fill: #dcd844; stroke: #dcd844"/>
     <use xlink:href="#m3908b51031" x="237.908948" y="118.880194" style="fill: #dcd844; stroke: #dcd844"/>
     <use xlink:href="#m3908b51031" x="286.759522" y="124.237876" style="fill: #dcd844; stroke: #dcd844"/>
     <use xlink:href="#m3908b51031" x="285.391457" y="173.897534" style="fill: #dcd844; stroke: #dcd844"/>
     <use xlink:href="#m3908b51031" x="278.132766" y="209.321755" style="fill: #dcd844; stroke: #dcd844"/>
     <use xlink:href="#m3908b51031" x="271.81233" y="241.984954" style="fill: #dcd844; stroke: #dcd844"/>
     <use xlink:href="#m3908b51031" x="246.524179" y="263.568326" style="fill: #dcd844; stroke: #dcd844"/>
     <use xlink:href="#m3908b51031" x="217.193803" y="276.29674" style="fill: #dcd844; stroke: #dcd844"/>
     <use xlink:href="#m3908b51031" x="183.296378" y="285.658104" style="fill: #dcd844; stroke: #dcd844"/>
     <use xlink:href="#m3908b51031" x="154.712767" y="265.279243" style="fill: #dcd844; stroke: #dcd844"/>
     <use xlink:href="#m3908b51031" x="134.040509" y="240.037644" style="fill: #dcd844; stroke: #dcd844"/>
     <use xlink:href="#m3908b51031" x="118.999322" y="209.883844" style="fill: #dcd844; stroke: #dcd844"/>
     <use xlink:href="#m3908b51031" x="88.274673" y="164.53534" style="fill: #dcd844; stroke: #dcd844"/>
     <use xlink:href="#m3908b51031" x="142.709454" y="148.53886" style="fill: #dcd844; stroke: #dcd844"/>
     <use xlink:href="#m3908b51031" x="138.518881" y="60.36606" style="fill: #dcd844; stroke: #dcd844"/>
     <use xlink:href="#m3908b51031" x="201.24" y="62.201855" style="fill: #dcd844; stroke: #dcd844"/>
    </g>
   </g>
   <g id="line2d_23">
    <path d="M 201.24 118.174932 
L 238.447588 117.670389 
L 281.025688 129.400644 
L 278.640824 176.090948 
L 282.088787 209.73755 
L 271.81233 241.984954 
L 247.259453 264.580343 
L 217.485922 277.671052 
L 181.568996 293.784798 
L 149.414599 272.571545 
L 109.377207 254.277008 
L 111.96558 210.62312 
L 85.504946 163.635401 
L 120.63392 128.661959 
L 166.329188 122.829034 
L 201.24 118.174932 
" clip-path="url(#p5e2760654a)" style="fill: none; stroke: #c00000; stroke-width: 5; stroke-linecap: square"/>
    <defs>
     <path id="m9867d1e5a1" d="M 0 4 
C 1.060812 4 2.078319 3.578535 2.828427 2.828427 
C 3.578535 2.078319 4 1.060812 4 0 
C 4 -1.060812 3.578535 -2.078319 2.828427 -2.828427 
C 2.078319 -3.578535 1.060812 -4 0 -4 
C -1.060812 -4 -2.078319 -3.578535 -2.828427 -2.828427 
C -3.578535 -2.078319 -4 -1.060812 -4 0 
C -4 1.060812 -3.578535 2.078319 -2.828427 2.828427 
C -2.078319 3.578535 -1.060812 4 0 4 
z
" style="stroke: #c00000"/>
    </defs>
    <g clip-path="url(#p5e2760654a)">
     <use xlink:href="#m9867d1e5a1" x="201.24" y="118.174932" style="fill: #c00000; stroke: #c00000"/>
     <use xlink:href="#m9867d1e5a1" x="238.447588" y="117.670389" style="fill: #c00000; stroke: #c00000"/>
     <use xlink:href="#m9867d1e5a1" x="281.025688" y="129.400644" style="fill: #c00000; stroke: #c00000"/>
     <use xlink:href="#m9867d1e5a1" x="278.640824" y="176.090948" style="fill: #c00000; stroke: #c00000"/>
     <use xlink:href="#m9867d1e5a1" x="282.088787" y="209.73755" style="fill: #c00000; stroke: #c00000"/>
     <use xlink:href="#m9867d1e5a1" x="271.81233" y="241.984954" style="fill: #c00000; stroke: #c00000"/>
     <use xlink:href="#m9867d1e5a1" x="247.259453" y="264.580343" style="fill: #c00000; stroke: #c00000"/>
     <use xlink:href="#m9867d1e5a1" x="217.485922" y="277.671052" style="fill: #c00000; stroke: #c00000"/>
     <use xlink:href="#m9867d1e5a1" x="181.568996" y="293.784798" style="fill: #c00000; stroke: #c00000"/>
     <use xlink:href="#m9867d1e5a1" x="149.414599" y="272.571545" style="fill: #c00000; stroke: #c00000"/>
     <use xlink:href="#m9867d1e5a1" x="109.377207" y="254.277008" style="fill: #c00000; stroke: #c00000"/>
     <use xlink:href="#m9867d1e5a1" x="111.96558" y="210.62312" style="fill: #c00000; stroke: #c00000"/>
     <use xlink:href="#m9867d1e5a1" x="85.504946" y="163.635401" style="fill: #c00000; stroke: #c00000"/>
     <use xlink:href="#m9867d1e5a1" x="120.63392" y="128.661959" style="fill: #c00000; stroke: #c00000"/>
     <use xlink:href="#m9867d1e5a1" x="166.329188" y="122.829034" style="fill: #c00000; stroke: #c00000"/>
     <use xlink:href="#m9867d1e5a1" x="201.24" y="118.174932" style="fill: #c00000; stroke: #c00000"/>
    </g>
   </g>
   <g id="line2d_24">
    <path d="M 201.24 180.793214 
L 226.017436 145.588967 
L 216.184567 187.783851 
L 270.366477 178.779446 
L 284.719733 210.014074 
L 270.149802 241.025093 
L 252.503681 271.798403 
L 219.469257 287.001909 
L 188.425645 261.526799 
L 157.025322 262.096284 
L 150.247822 230.680348 
L 131.533812 208.566416 
L 199.261623 200.597186 
L 160.126849 164.221552 
L 200.217958 198.944456 
L 201.24 180.793214 
" clip-path="url(#p5e2760654a)" style="fill: none; stroke: #0033cc; stroke-width: 5; stroke-linecap: square"/>
    <defs>
     <path id="mf71df22839" d="M 0 4 
C 1.060812 4 2.078319 3.578535 2.828427 2.828427 
C 3.578535 2.078319 4 1.060812 4 0 
C 4 -1.060812 3.578535 -2.078319 2.828427 -2.828427 
C 2.078319 -3.578535 1.060812 -4 0 -4 
C -1.060812 -4 -2.078319 -3.578535 -2.828427 -2.828427 
C -3.578535 -2.078319 -4 -1.060812 -4 0 
C -4 1.060812 -3.578535 2.078319 -2.828427 2.828427 
C -2.078319 3.578535 -1.060812 4 0 4 
z
" style="stroke: #0033cc"/>
    </defs>
    <g clip-path="url(#p5e2760654a)">
     <use xlink:href="#mf71df22839" x="201.24" y="180.793214" style="fill: #0033cc; stroke: #0033cc"/>
     <use xlink:href="#mf71df22839" x="226.017436" y="145.588967" style="fill: #0033cc; stroke: #0033cc"/>
     <use xlink:href="#mf71df22839" x="216.184567" y="187.783851" style="fill: #0033cc; stroke: #0033cc"/>
     <use xlink:href="#mf71df22839" x="270.366477" y="178.779446" style="fill: #0033cc; stroke: #0033cc"/>
     <use xlink:href="#mf71df22839" x="284.719733" y="210.014074" style="fill: #0033cc; stroke: #0033cc"/>
     <use xlink:href="#mf71df22839" x="270.149802" y="241.025093" style="fill: #0033cc; stroke: #0033cc"/>
     <use xlink:href="#mf71df22839" x="252.503681" y="271.798403" style="fill: #0033cc; stroke: #0033cc"/>
     <use xlink:href="#mf71df22839" x="219.469257" y="287.001909" style="fill: #0033cc; stroke: #0033cc"/>
     <use xlink:href="#mf71df22839" x="188.425645" y="261.526799" style="fill: #0033cc; stroke: #0033cc"/>
     <use xlink:href="#mf71df22839" x="157.025322" y="262.096284" style="fill: #0033cc; stroke: #0033cc"/>
     <use xlink:href="#mf71df22839" x="150.247822" y="230.680348" style="fill: #0033cc; stroke: #0033cc"/>
     <use xlink:href="#mf71df22839" x="131.533812" y="208.566416" style="fill: #0033cc; stroke: #0033cc"/>
     <use xlink:href="#mf71df22839" x="199.261623" y="200.597186" style="fill: #0033cc; stroke: #0033cc"/>
     <use xlink:href="#mf71df22839" x="160.126849" y="164.221552" style="fill: #0033cc; stroke: #0033cc"/>
     <use xlink:href="#mf71df22839" x="200.217958" y="198.944456" style="fill: #0033cc; stroke: #0033cc"/>
     <use xlink:href="#mf71df22839" x="201.24" y="180.793214" style="fill: #0033cc; stroke: #0033cc"/>
    </g>
   </g>
   <g id="text_1">
    <!-- 0.15 -->
    <g transform="translate(183.827805 236.901985) scale(0.15 -0.15)">
     <defs>
      <path id="Arial-BoldMT-30" d="M 1756 4600 
Q 2422 4600 2797 4125 
Q 3244 3563 3244 2259 
Q 3244 959 2794 391 
Q 2422 -78 1756 -78 
Q 1088 -78 678 436 
Q 269 950 269 2269 
Q 269 3563 719 4131 
Q 1091 4600 1756 4600 
z
M 1756 3872 
Q 1597 3872 1472 3770 
Q 1347 3669 1278 3406 
Q 1188 3066 1188 2259 
Q 1188 1453 1269 1151 
Q 1350 850 1473 750 
Q 1597 650 1756 650 
Q 1916 650 2041 751 
Q 2166 853 2234 1116 
Q 2325 1453 2325 2259 
Q 2325 3066 2244 3367 
Q 2163 3669 2039 3770 
Q 1916 3872 1756 3872 
z
" transform="scale(0.015625)"/>
      <path id="Arial-BoldMT-2e" d="M 459 0 
L 459 878 
L 1338 878 
L 1338 0 
L 459 0 
z
" transform="scale(0.015625)"/>
      <path id="Arial-BoldMT-31" d="M 2519 0 
L 1641 0 
L 1641 3309 
Q 1159 2859 506 2644 
L 506 3441 
Q 850 3553 1253 3867 
Q 1656 4181 1806 4600 
L 2519 4600 
L 2519 0 
z
" transform="scale(0.015625)"/>
      <path id="Arial-BoldMT-35" d="M 284 1178 
L 1159 1269 
Q 1197 972 1381 798 
Q 1566 625 1806 625 
Q 2081 625 2272 848 
Q 2463 1072 2463 1522 
Q 2463 1944 2273 2155 
Q 2084 2366 1781 2366 
Q 1403 2366 1103 2031 
L 391 2134 
L 841 4519 
L 3163 4519 
L 3163 3697 
L 1506 3697 
L 1369 2919 
Q 1663 3066 1969 3066 
Q 2553 3066 2959 2641 
Q 3366 2216 3366 1538 
Q 3366 972 3038 528 
Q 2591 -78 1797 -78 
Q 1163 -78 763 262 
Q 363 603 284 1178 
z
" transform="scale(0.015625)"/>
     </defs>
     <use xlink:href="#Arial-BoldMT-30"/>
     <use xlink:href="#Arial-BoldMT-2e" x="55.615234"/>
     <use xlink:href="#Arial-BoldMT-31" x="83.398438"/>
     <use xlink:href="#Arial-BoldMT-35" x="139.013672"/>
    </g>
   </g>
   <g id="text_2">
    <!-- 0.30 -->
    <g transform="translate(176.263458 272.48944) scale(0.15 -0.15)">
     <defs>
      <path id="Arial-BoldMT-33" d="M 241 1216 
L 1091 1319 
Q 1131 994 1309 822 
Q 1488 650 1741 650 
Q 2013 650 2198 856 
Q 2384 1063 2384 1413 
Q 2384 1744 2206 1937 
Q 2028 2131 1772 2131 
Q 1603 2131 1369 2066 
L 1466 2781 
Q 1822 2772 2009 2936 
Q 2197 3100 2197 3372 
Q 2197 3603 2059 3740 
Q 1922 3878 1694 3878 
Q 1469 3878 1309 3722 
Q 1150 3566 1116 3266 
L 306 3403 
Q 391 3819 561 4067 
Q 731 4316 1036 4458 
Q 1341 4600 1719 4600 
Q 2366 4600 2756 4188 
Q 3078 3850 3078 3425 
Q 3078 2822 2419 2463 
Q 2813 2378 3048 2084 
Q 3284 1791 3284 1375 
Q 3284 772 2843 347 
Q 2403 -78 1747 -78 
Q 1125 -78 715 280 
Q 306 638 241 1216 
z
" transform="scale(0.015625)"/>
     </defs>
     <use xlink:href="#Arial-BoldMT-30"/>
     <use xlink:href="#Arial-BoldMT-2e" x="55.615234"/>
     <use xlink:href="#Arial-BoldMT-33" x="83.398438"/>
     <use xlink:href="#Arial-BoldMT-30" x="139.013672"/>
    </g>
   </g>
   <g id="text_3">
    <!-- 0.45 -->
    <g transform="translate(168.699111 308.076895) scale(0.15 -0.15)">
     <defs>
      <path id="Arial-BoldMT-34" d="M 1994 0 
L 1994 922 
L 119 922 
L 119 1691 
L 2106 4600 
L 2844 4600 
L 2844 1694 
L 3413 1694 
L 3413 922 
L 2844 922 
L 2844 0 
L 1994 0 
z
M 1994 1694 
L 1994 3259 
L 941 1694 
L 1994 1694 
z
" transform="scale(0.015625)"/>
     </defs>
     <use xlink:href="#Arial-BoldMT-30"/>
     <use xlink:href="#Arial-BoldMT-2e" x="55.615234"/>
     <use xlink:href="#Arial-BoldMT-34" x="83.398438"/>
     <use xlink:href="#Arial-BoldMT-35" x="139.013672"/>
    </g>
   </g>
   <g id="text_4">
    <!-- 0.60 -->
    <g transform="translate(161.134764 343.66435) scale(0.15 -0.15)">
     <defs>
      <path id="Arial-BoldMT-36" d="M 3247 3459 
L 2397 3366 
Q 2366 3628 2234 3753 
Q 2103 3878 1894 3878 
Q 1616 3878 1423 3628 
Q 1231 3378 1181 2588 
Q 1509 2975 1997 2975 
Q 2547 2975 2939 2556 
Q 3331 2138 3331 1475 
Q 3331 772 2918 347 
Q 2506 -78 1859 -78 
Q 1166 -78 719 461 
Q 272 1000 272 2228 
Q 272 3488 737 4044 
Q 1203 4600 1947 4600 
Q 2469 4600 2811 4308 
Q 3153 4016 3247 3459 
z
M 1256 1544 
Q 1256 1116 1453 883 
Q 1650 650 1903 650 
Q 2147 650 2309 840 
Q 2472 1031 2472 1466 
Q 2472 1913 2297 2120 
Q 2122 2328 1859 2328 
Q 1606 2328 1431 2129 
Q 1256 1931 1256 1544 
z
" transform="scale(0.015625)"/>
     </defs>
     <use xlink:href="#Arial-BoldMT-30"/>
     <use xlink:href="#Arial-BoldMT-2e" x="55.615234"/>
     <use xlink:href="#Arial-BoldMT-36" x="83.398438"/>
     <use xlink:href="#Arial-BoldMT-30" x="139.013672"/>
    </g>
   </g>
   <g id="text_5">
    <!-- 0.75 -->
    <g transform="translate(153.570417 379.251805) scale(0.15 -0.15)">
     <defs>
      <path id="Arial-BoldMT-37" d="M 272 3703 
L 272 4519 
L 3275 4519 
L 3275 3881 
Q 2903 3516 2518 2831 
Q 2134 2147 1932 1376 
Q 1731 606 1734 0 
L 888 0 
Q 909 950 1279 1937 
Q 1650 2925 2269 3703 
L 272 3703 
z
" transform="scale(0.015625)"/>
     </defs>
     <use xlink:href="#Arial-BoldMT-30"/>
     <use xlink:href="#Arial-BoldMT-2e" x="55.615234"/>
     <use xlink:href="#Arial-BoldMT-37" x="83.398438"/>
     <use xlink:href="#Arial-BoldMT-35" x="139.013672"/>
    </g>
   </g>
  </g>
 </g>
 <defs>
  <clipPath id="p5e2760654a">
   <path d="M 395.28 201.24 
C 395.28 175.758901 390.260779 150.525573 380.509584 126.984107 
C 370.75839 103.442641 356.464858 82.050858 338.447 64.033 
C 320.429142 46.015142 299.037359 31.72161 275.495893 21.970416 
C 251.954427 12.219221 226.721099 7.2 201.24 7.2 
C 175.758901 7.2 150.525573 12.219221 126.984107 21.970416 
C 103.442641 31.72161 82.050858 46.015142 64.033 64.033 
C 46.015142 82.050858 31.72161 103.442641 21.970416 126.984107 
C 12.219221 150.525573 7.2 175.758901 7.2 201.24 
C 7.2 226.721099 12.219221 251.954427 21.970416 275.495893 
C 31.72161 299.037359 46.015142 320.429142 64.033 338.447 
C 82.050858 356.464858 103.442641 370.75839 126.984107 380.509584 
C 150.525573 390.260779 175.758901 395.28 201.24 395.28 
C 226.721099 395.28 251.954427 390.260779 275.495893 380.509584 
C 299.037359 370.75839 320.429142 356.464858 338.447 338.447 
C 356.464858 320.429142 370.75839 299.037359 380.509584 275.495893 
C 390.260779 251.954427 395.28 226.721099 395.28 201.24 
M 201.24 201.24 
C 201.24 201.24 201.24 201.24 201.24 201.24 
C 201.24 201.24 201.24 201.24 201.24 201.24 
C 201.24 201.24 201.24 201.24 201.24 201.24 
C 201.24 201.24 201.24 201.24 201.24 201.24 
C 201.24 201.24 201.24 201.24 201.24 201.24 
C 201.24 201.24 201.24 201.24 201.24 201.24 
C 201.24 201.24 201.24 201.24 201.24 201.24 
C 201.24 201.24 201.24 201.24 201.24 201.24 
C 201.24 201.24 201.24 201.24 201.24 201.24 
C 201.24 201.24 201.24 201.24 201.24 201.24 
C 201.24 201.24 201.24 201.24 201.24 201.24 
C 201.24 201.24 201.24 201.24 201.24 201.24 
C 201.24 201.24 201.24 201.24 201.24 201.24 
C 201.24 201.24 201.24 201.24 201.24 201.24 
C 201.24 201.24 201.24 201.24 201.24 201.24 
C 201.24 201.24 201.24 201.24 201.24 201.24 
z
"/>
  </clipPath>
 </defs>
</svg>
