<?xml version="1.0" encoding="utf-8" standalone="no"?>
<!DOCTYPE svg PUBLIC "-//W3C//DTD SVG 1.1//EN"
  "http://www.w3.org/Graphics/SVG/1.1/DTD/svg11.dtd">
<svg xmlns:xlink="http://www.w3.org/1999/xlink" width="402.48pt" height="402.48pt" viewBox="0 0 402.48 402.48" xmlns="http://www.w3.org/2000/svg" version="1.1">
 <metadata>
  <rdf:RDF xmlns:dc="http://purl.org/dc/elements/1.1/" xmlns:cc="http://creativecommons.org/ns#" xmlns:rdf="http://www.w3.org/1999/02/22-rdf-syntax-ns#">
   <cc:Work>
    <dc:type rdf:resource="http://purl.org/dc/dcmitype/StillImage"/>
    <dc:date>2025-12-11T16:06:57.554664</dc:date>
    <dc:format>image/svg+xml</dc:format>
    <dc:creator>
     <cc:Agent>
      <dc:title>Matplotlib v3.9.2, https://matplotlib.org/</dc:title>
     </cc:Agent>
    </dc:creator>
   </cc:Work>
  </rdf:RDF>
 </metadata>
 <defs>
  <style type="text/css">*{stroke-linejoin: round; stroke-linecap: butt}</style>
 </defs>
 <g id="figure_1">
  <g id="patch_1">
   <path d="M 0 402.48 
L 402.48 402.48 
L 402.48 -0 
L 0 -0 
L 0 402.48 
z
" style="fill: none"/>
  </g>
  <g id="axes_1">
   <g id="patch_2">
    <path d="M 395.28 201.24 
C 395.28 175.758901 390.260779 150.525573 380.509584 126.984107 
C 370.75839 103.442641 356.464858 82.050858 338.447 64.033 
C 320.429142 46.015142 299.037359 31.72161 275.495893 21.970416 
C 251.954427 12.219221 226.721099 7.2 201.24 7.2 
C 175.758901 7.2 150.525573 12.219221 126.984107 21.970416 
C 103.442641 31.72161 82.050858 46.015142 64.033 64.033 
C 46.015142 82.050858 31.72161 103.442641 21.970416 126.984107 
C 12.219221 150.525573 7.2 175.758901 7.2 201.24 
C 7.2 226.721099 12.219221 251.954427 21.970416 275.495893 
C 31.72161 299.037359 46.015142 320.429142 64.033 338.447 
C 82.050858 356.464858 103.442641 370.75839 126.984107 380.509584 
C 150.525573 390.260779 175.758901 395.28 201.24 395.28 
C 226.721099 395.28 251.954427 390.260779 275.495893 380.509584 
C 299.037359 370.75839 320.429142 356.464858 338.447 338.447 
C 356.464858 320.429142 370.75839 299.037359 380.509584 275.495893 
C 390.260779 251.954427 395.28 226.721099 395.28 201.24 
M 201.24 201.24 
C 201.24 201.24 201.24 201.24 201.24 201.24 
C 201.24 201.24 201.24 201.24 201.24 201.24 
C 201.24 201.24 201.24 201.24 201.24 201.24 
C 201.24 201.24 201.24 201.24 201.24 201.24 
C 201.24 201.24 201.24 201.24 201.24 201.24 
C 201.24 201.24 201.24 201.24 201.24 201.24 
C 201.24 201.24 201.24 201.24 201.24 201.24 
C 201.24 201.24 201.24 201.24 201.24 201.24 
C 201.24 201.24 201.24 201.24 201.24 201.24 
C 201.24 201.24 201.24 201.24 201.24 201.24 
C 201.24 201.24 201.24 201.24 201.24 201.24 
C 201.24 201.24 201.24 201.24 201.24 201.24 
C 201.24 201.24 201.24 201.24 201.24 201.24 
C 201.24 201.24 201.24 201.24 201.24 201.24 
C 201.24 201.24 201.24 201.24 201.24 201.24 
C 201.24 201.24 201.24 201.24 201.24 201.24 
L 201.24 201.24 
z
" style="fill: none"/>
   </g>
   <g id="line2d_1">
    <path d="M 201.24 201.24 
L 201.24 201.24 
L 201.24 201.24 
L 201.24 201.24 
L 201.24 201.24 
L 201.24 201.24 
L 201.24 201.24 
L 201.24 201.24 
L 201.24 201.24 
L 201.24 201.24 
L 201.24 201.24 
L 201.24 201.24 
L 201.24 201.24 
L 201.24 201.24 
L 201.24 201.24 
L 201.24 201.24 
" clip-path="url(#p834fcb5a57)" style="fill: none; stroke-dasharray: 1.85,0.8; stroke-dashoffset: 0; stroke: #808080; stroke-width: 0.5"/>
   </g>
   <g id="line2d_2">
    <path d="M 201.24 171.387692 
L 213.382027 173.96856 
L 223.424588 181.264907 
L 229.631232 192.01513 
L 230.928774 204.360416 
L 227.092857 216.166154 
L 218.786746 225.391024 
L 207.446644 230.439963 
L 195.033356 230.439963 
L 183.693254 225.391024 
L 175.387143 216.166154 
L 171.551226 204.360416 
L 172.848768 192.01513 
L 179.055412 181.264907 
L 189.097973 173.96856 
L 201.24 171.387692 
" clip-path="url(#p834fcb5a57)" style="fill: none; stroke-dasharray: 1.85,0.8; stroke-dashoffset: 0; stroke: #808080; stroke-width: 0.5"/>
   </g>
   <g id="line2d_3">
    <path d="M 201.24 141.535385 
L 225.524055 146.69712 
L 245.609176 161.289815 
L 258.022464 182.790259 
L 260.617547 207.480832 
L 252.945714 231.092308 
L 236.333492 249.542048 
L 213.653288 259.639926 
L 188.826712 259.639926 
L 166.146508 249.542048 
L 149.534286 231.092308 
L 141.862453 207.480832 
L 144.457536 182.790259 
L 156.870824 161.289815 
L 176.955945 146.69712 
L 201.24 141.535385 
" clip-path="url(#p834fcb5a57)" style="fill: none; stroke-dasharray: 1.85,0.8; stroke-dashoffset: 0; stroke: #808080; stroke-width: 0.5"/>
   </g>
   <g id="line2d_4">
    <path d="M 201.24 111.683077 
L 237.666082 119.42568 
L 267.793764 141.314722 
L 286.413695 173.565389 
L 290.306321 210.601248 
L 278.79857 246.018462 
L 253.880239 273.693073 
L 219.859931 288.839889 
L 182.620069 288.839889 
L 148.599761 273.693073 
L 123.68143 246.018462 
L 112.173679 210.601248 
L 116.066305 173.565389 
L 134.686236 141.314722 
L 164.813918 119.42568 
L 201.24 111.683077 
" clip-path="url(#p834fcb5a57)" style="fill: none; stroke-dasharray: 1.85,0.8; stroke-dashoffset: 0; stroke: #808080; stroke-width: 0.5"/>
   </g>
   <g id="line2d_5">
    <path d="M 201.24 81.830769 
L 249.80811 92.15424 
L 289.978352 121.339629 
L 314.804927 164.340518 
L 319.995095 213.721663 
L 304.651427 260.944615 
L 271.426985 297.844097 
L 226.066575 318.039853 
L 176.413425 318.039853 
L 131.053015 297.844097 
L 97.828573 260.944615 
L 82.484905 213.721663 
L 87.675073 164.340518 
L 112.501648 121.339629 
L 152.67189 92.15424 
L 201.24 81.830769 
" clip-path="url(#p834fcb5a57)" style="fill: none; stroke-dasharray: 1.85,0.8; stroke-dashoffset: 0; stroke: #808080; stroke-width: 0.5"/>
   </g>
   <g id="line2d_6">
    <path d="M 201.24 51.978462 
L 261.950137 64.8828 
L 312.16294 101.364536 
L 343.196159 155.115648 
L 349.683868 216.842079 
L 330.504284 275.870769 
L 288.973731 321.995121 
L 232.273219 347.239816 
L 170.206781 347.239816 
L 113.506269 321.995121 
L 71.975716 275.870769 
L 52.796132 216.842079 
L 59.283841 155.115648 
L 90.31706 101.364536 
L 140.529863 64.8828 
L 201.24 51.978462 
" clip-path="url(#p834fcb5a57)" style="fill: none; stroke-dasharray: 1.85,0.8; stroke-dashoffset: 0; stroke: #808080; stroke-width: 0.5"/>
   </g>
   <g id="line2d_7">
    <path d="M 201.24 22.126154 
L 274.092165 37.611359 
L 334.347528 81.389444 
L 371.587391 145.890778 
L 379.372642 219.962495 
L 356.357141 290.796923 
L 306.520477 346.146145 
L 238.479863 376.439779 
L 164.000137 376.439779 
L 95.959523 346.146145 
L 46.122859 290.796923 
L 23.107358 219.962495 
L 30.892609 145.890778 
L 68.132472 81.389444 
L 128.387835 37.611359 
L 201.24 22.126154 
" clip-path="url(#p834fcb5a57)" style="fill: none; stroke-dasharray: 1.85,0.8; stroke-dashoffset: 0; stroke: #808080; stroke-width: 0.5"/>
   </g>
   <g id="line2d_8">
    <path d="M 201.24 201.24 
L 201.24 171.387692 
L 201.24 141.535385 
L 201.24 111.683077 
L 201.24 81.830769 
L 201.24 51.978462 
L 201.24 22.126154 
" clip-path="url(#p834fcb5a57)" style="fill: none; stroke-dasharray: 1.85,0.8; stroke-dashoffset: 0; stroke: #808080; stroke-width: 0.5"/>
   </g>
   <g id="line2d_9">
    <path d="M 201.24 201.24 
L 213.382027 173.96856 
L 225.524055 146.69712 
L 237.666082 119.42568 
L 249.80811 92.15424 
L 261.950137 64.8828 
L 274.092165 37.611359 
" clip-path="url(#p834fcb5a57)" style="fill: none; stroke-dasharray: 1.85,0.8; stroke-dashoffset: 0; stroke: #808080; stroke-width: 0.5"/>
   </g>
   <g id="line2d_10">
    <path d="M 201.24 201.24 
L 223.424588 181.264907 
L 245.609176 161.289815 
L 267.793764 141.314722 
L 289.978352 121.339629 
L 312.16294 101.364536 
L 334.347528 81.389444 
" clip-path="url(#p834fcb5a57)" style="fill: none; stroke-dasharray: 1.85,0.8; stroke-dashoffset: 0; stroke: #808080; stroke-width: 0.5"/>
   </g>
   <g id="line2d_11">
    <path d="M 201.24 201.24 
L 229.631232 192.01513 
L 258.022464 182.790259 
L 286.413695 173.565389 
L 314.804927 164.340518 
L 343.196159 155.115648 
L 371.587391 145.890778 
" clip-path="url(#p834fcb5a57)" style="fill: none; stroke-dasharray: 1.85,0.8; stroke-dashoffset: 0; stroke: #808080; stroke-width: 0.5"/>
   </g>
   <g id="line2d_12">
    <path d="M 201.24 201.24 
L 230.928774 204.360416 
L 260.617547 207.480832 
L 290.306321 210.601248 
L 319.995095 213.721663 
L 349.683868 216.842079 
L 379.372642 219.962495 
" clip-path="url(#p834fcb5a57)" style="fill: none; stroke-dasharray: 1.85,0.8; stroke-dashoffset: 0; stroke: #808080; stroke-width: 0.5"/>
   </g>
   <g id="line2d_13">
    <path d="M 201.24 201.24 
L 227.092857 216.166154 
L 252.945714 231.092308 
L 278.79857 246.018462 
L 304.651427 260.944615 
L 330.504284 275.870769 
L 356.357141 290.796923 
" clip-path="url(#p834fcb5a57)" style="fill: none; stroke-dasharray: 1.85,0.8; stroke-dashoffset: 0; stroke: #808080; stroke-width: 0.5"/>
   </g>
   <g id="line2d_14">
    <path d="M 201.24 201.24 
L 218.786746 225.391024 
L 236.333492 249.542048 
L 253.880239 273.693073 
L 271.426985 297.844097 
L 288.973731 321.995121 
L 306.520477 346.146145 
" clip-path="url(#p834fcb5a57)" style="fill: none; stroke-dasharray: 1.85,0.8; stroke-dashoffset: 0; stroke: #808080; stroke-width: 0.5"/>
   </g>
   <g id="line2d_15">
    <path d="M 201.24 201.24 
L 207.446644 230.439963 
L 213.653288 259.639926 
L 219.859931 288.839889 
L 226.066575 318.039853 
L 232.273219 347.239816 
L 238.479863 376.439779 
" clip-path="url(#p834fcb5a57)" style="fill: none; stroke-dasharray: 1.85,0.8; stroke-dashoffset: 0; stroke: #808080; stroke-width: 0.5"/>
   </g>
   <g id="line2d_16">
    <path d="M 201.24 201.24 
L 195.033356 230.439963 
L 188.826712 259.639926 
L 182.620069 288.839889 
L 176.413425 318.039853 
L 170.206781 347.239816 
L 164.000137 376.439779 
" clip-path="url(#p834fcb5a57)" style="fill: none; stroke-dasharray: 1.85,0.8; stroke-dashoffset: 0; stroke: #808080; stroke-width: 0.5"/>
   </g>
   <g id="line2d_17">
    <path d="M 201.24 201.24 
L 183.693254 225.391024 
L 166.146508 249.542048 
L 148.599761 273.693073 
L 131.053015 297.844097 
L 113.506269 321.995121 
L 95.959523 346.146145 
" clip-path="url(#p834fcb5a57)" style="fill: none; stroke-dasharray: 1.85,0.8; stroke-dashoffset: 0; stroke: #808080; stroke-width: 0.5"/>
   </g>
   <g id="line2d_18">
    <path d="M 201.24 201.24 
L 175.387143 216.166154 
L 149.534286 231.092308 
L 123.68143 246.018462 
L 97.828573 260.944615 
L 71.975716 275.870769 
L 46.122859 290.796923 
" clip-path="url(#p834fcb5a57)" style="fill: none; stroke-dasharray: 1.85,0.8; stroke-dashoffset: 0; stroke: #808080; stroke-width: 0.5"/>
   </g>
   <g id="line2d_19">
    <path d="M 201.24 201.24 
L 171.551226 204.360416 
L 141.862453 207.480832 
L 112.173679 210.601248 
L 82.484905 213.721663 
L 52.796132 216.842079 
L 23.107358 219.962495 
" clip-path="url(#p834fcb5a57)" style="fill: none; stroke-dasharray: 1.85,0.8; stroke-dashoffset: 0; stroke: #808080; stroke-width: 0.5"/>
   </g>
   <g id="line2d_20">
    <path d="M 201.24 201.24 
L 172.848768 192.01513 
L 144.457536 182.790259 
L 116.066305 173.565389 
L 87.675073 164.340518 
L 59.283841 155.115648 
L 30.892609 145.890778 
" clip-path="url(#p834fcb5a57)" style="fill: none; stroke-dasharray: 1.85,0.8; stroke-dashoffset: 0; stroke: #808080; stroke-width: 0.5"/>
   </g>
   <g id="line2d_21">
    <path d="M 201.24 201.24 
L 179.055412 181.264907 
L 156.870824 161.289815 
L 134.686236 141.314722 
L 112.501648 121.339629 
L 90.31706 101.364536 
L 68.132472 81.389444 
" clip-path="url(#p834fcb5a57)" style="fill: none; stroke-dasharray: 1.85,0.8; stroke-dashoffset: 0; stroke: #808080; stroke-width: 0.5"/>
   </g>
   <g id="line2d_22">
    <path d="M 201.24 201.24 
L 189.097973 173.96856 
L 176.955945 146.69712 
L 164.813918 119.42568 
L 152.67189 92.15424 
L 140.529863 64.8828 
L 128.387835 37.611359 
" clip-path="url(#p834fcb5a57)" style="fill: none; stroke-dasharray: 1.85,0.8; stroke-dashoffset: 0; stroke: #808080; stroke-width: 0.5"/>
   </g>
   <g id="matplotlib.axis_1">
    <g id="xtick_1"/>
    <g id="xtick_2"/>
    <g id="xtick_3"/>
    <g id="xtick_4"/>
    <g id="xtick_5"/>
    <g id="xtick_6"/>
    <g id="xtick_7"/>
    <g id="xtick_8"/>
    <g id="xtick_9"/>
    <g id="xtick_10"/>
    <g id="xtick_11"/>
    <g id="xtick_12"/>
    <g id="xtick_13"/>
    <g id="xtick_14"/>
    <g id="xtick_15"/>
   </g>
   <g id="matplotlib.axis_2">
    <g id="ytick_1"/>
    <g id="ytick_2"/>
    <g id="ytick_3"/>
    <g id="ytick_4"/>
    <g id="ytick_5"/>
    <g id="ytick_6"/>
   </g>
   <g id="line2d_23">
    <path d="M 201.24 114.817569 
L 222.403554 153.70588 
L 218.122471 186.038954 
L 318.268657 163.215084 
L 364.379811 218.386685 
L 325.566388 273.019874 
L 284.569498 315.933214 
L 222.06329 299.205876 
L 195.101629 230.118764 
L 140.984474 284.174617 
L 129.730998 242.525742 
L 133.252708 208.385752 
L 155.586899 186.406408 
L 176.437631 178.907846 
L 186.487437 168.1052 
L 201.24 114.817569 
" clip-path="url(#p834fcb5a57)" style="fill: none; stroke: #0033cc; stroke-width: 5; stroke-linecap: square"/>
    <defs>
     <path id="m8f6676d670" d="M 0 4 
C 1.060812 4 2.078319 3.578535 2.828427 2.828427 
C 3.578535 2.078319 4 1.060812 4 0 
C 4 -1.060812 3.578535 -2.078319 2.828427 -2.828427 
C 2.078319 -3.578535 1.060812 -4 0 -4 
C -1.060812 -4 -2.078319 -3.578535 -2.828427 -2.828427 
C -3.578535 -2.078319 -4 -1.060812 -4 0 
C -4 1.060812 -3.578535 2.078319 -2.828427 2.828427 
C -2.078319 3.578535 -1.060812 4 0 4 
z
" style="stroke: #0033cc"/>
    </defs>
    <g clip-path="url(#p834fcb5a57)">
     <use xlink:href="#m8f6676d670" x="201.24" y="114.817569" style="fill: #0033cc; stroke: #0033cc"/>
     <use xlink:href="#m8f6676d670" x="222.403554" y="153.70588" style="fill: #0033cc; stroke: #0033cc"/>
     <use xlink:href="#m8f6676d670" x="218.122471" y="186.038954" style="fill: #0033cc; stroke: #0033cc"/>
     <use xlink:href="#m8f6676d670" x="318.268657" y="163.215084" style="fill: #0033cc; stroke: #0033cc"/>
     <use xlink:href="#m8f6676d670" x="364.379811" y="218.386685" style="fill: #0033cc; stroke: #0033cc"/>
     <use xlink:href="#m8f6676d670" x="325.566388" y="273.019874" style="fill: #0033cc; stroke: #0033cc"/>
     <use xlink:href="#m8f6676d670" x="284.569498" y="315.933214" style="fill: #0033cc; stroke: #0033cc"/>
     <use xlink:href="#m8f6676d670" x="222.06329" y="299.205876" style="fill: #0033cc; stroke: #0033cc"/>
     <use xlink:href="#m8f6676d670" x="195.101629" y="230.118764" style="fill: #0033cc; stroke: #0033cc"/>
     <use xlink:href="#m8f6676d670" x="140.984474" y="284.174617" style="fill: #0033cc; stroke: #0033cc"/>
     <use xlink:href="#m8f6676d670" x="129.730998" y="242.525742" style="fill: #0033cc; stroke: #0033cc"/>
     <use xlink:href="#m8f6676d670" x="133.252708" y="208.385752" style="fill: #0033cc; stroke: #0033cc"/>
     <use xlink:href="#m8f6676d670" x="155.586899" y="186.406408" style="fill: #0033cc; stroke: #0033cc"/>
     <use xlink:href="#m8f6676d670" x="176.437631" y="178.907846" style="fill: #0033cc; stroke: #0033cc"/>
     <use xlink:href="#m8f6676d670" x="186.487437" y="168.1052" style="fill: #0033cc; stroke: #0033cc"/>
     <use xlink:href="#m8f6676d670" x="201.24" y="114.817569" style="fill: #0033cc; stroke: #0033cc"/>
    </g>
   </g>
   <g id="line2d_24">
    <path d="M 201.24 82.48752 
L 240.446607 113.18052 
L 239.641522 166.663114 
L 331.953231 158.768697 
L 357.699837 217.684592 
L 315.613039 267.273305 
L 266.00504 290.38143 
L 217.45796 277.539504 
L 188.926019 259.172727 
L 128.824578 300.911277 
L 111.349617 253.138237 
L 107.275031 211.116116 
L 125.690932 176.69262 
L 168.162779 171.457137 
L 179.190078 151.715065 
L 201.24 82.48752 
" clip-path="url(#p834fcb5a57)" style="fill: none; stroke: #c00000; stroke-width: 5; stroke-linecap: square"/>
    <defs>
     <path id="md106a3ef3b" d="M 0 4 
C 1.060812 4 2.078319 3.578535 2.828427 2.828427 
C 3.578535 2.078319 4 1.060812 4 0 
C 4 -1.060812 3.578535 -2.078319 2.828427 -2.828427 
C 2.078319 -3.578535 1.060812 -4 0 -4 
C -1.060812 -4 -2.078319 -3.578535 -2.828427 -2.828427 
C -3.578535 -2.078319 -4 -1.060812 -4 0 
C -4 1.060812 -3.578535 2.078319 -2.828427 2.828427 
C -2.078319 3.578535 -1.060812 4 0 4 
z
" style="stroke: #c00000"/>
    </defs>
    <g clip-path="url(#p834fcb5a57)">
     <use xlink:href="#md106a3ef3b" x="201.24" y="82.48752" style="fill: #c00000; stroke: #c00000"/>
     <use xlink:href="#md106a3ef3b" x="240.446607" y="113.18052" style="fill: #c00000; stroke: #c00000"/>
     <use xlink:href="#md106a3ef3b" x="239.641522" y="166.663114" style="fill: #c00000; stroke: #c00000"/>
     <use xlink:href="#md106a3ef3b" x="331.953231" y="158.768697" style="fill: #c00000; stroke: #c00000"/>
     <use xlink:href="#md106a3ef3b" x="357.699837" y="217.684592" style="fill: #c00000; stroke: #c00000"/>
     <use xlink:href="#md106a3ef3b" x="315.613039" y="267.273305" style="fill: #c00000; stroke: #c00000"/>
     <use xlink:href="#md106a3ef3b" x="266.00504" y="290.38143" style="fill: #c00000; stroke: #c00000"/>
     <use xlink:href="#md106a3ef3b" x="217.45796" y="277.539504" style="fill: #c00000; stroke: #c00000"/>
     <use xlink:href="#md106a3ef3b" x="188.926019" y="259.172727" style="fill: #c00000; stroke: #c00000"/>
     <use xlink:href="#md106a3ef3b" x="128.824578" y="300.911277" style="fill: #c00000; stroke: #c00000"/>
     <use xlink:href="#md106a3ef3b" x="111.349617" y="253.138237" style="fill: #c00000; stroke: #c00000"/>
     <use xlink:href="#md106a3ef3b" x="107.275031" y="211.116116" style="fill: #c00000; stroke: #c00000"/>
     <use xlink:href="#md106a3ef3b" x="125.690932" y="176.69262" style="fill: #c00000; stroke: #c00000"/>
     <use xlink:href="#md106a3ef3b" x="168.162779" y="171.457137" style="fill: #c00000; stroke: #c00000"/>
     <use xlink:href="#md106a3ef3b" x="179.190078" y="151.715065" style="fill: #c00000; stroke: #c00000"/>
     <use xlink:href="#md106a3ef3b" x="201.24" y="82.48752" style="fill: #c00000; stroke: #c00000"/>
    </g>
   </g>
   <g id="line2d_25">
    <path d="M 201.24 80.487415 
L 242.620029 108.298932 
L 239.308753 166.962741 
L 342.486378 155.34627 
L 353.335587 217.22589 
L 316.000831 267.497197 
L 268.882707 294.342198 
L 217.805532 279.174702 
L 188.988085 258.880727 
L 134.825566 292.651627 
L 112.64226 252.391929 
L 112.88621 210.526358 
L 139.205159 181.083658 
L 155.539749 160.091309 
L 169.403604 129.734284 
L 201.24 80.487415 
" clip-path="url(#p834fcb5a57)" style="fill: none; stroke: #dcd844; stroke-width: 5; stroke-linecap: square"/>
    <defs>
     <path id="m96d5a3012c" d="M 0 4 
C 1.060812 4 2.078319 3.578535 2.828427 2.828427 
C 3.578535 2.078319 4 1.060812 4 0 
C 4 -1.060812 3.578535 -2.078319 2.828427 -2.828427 
C 2.078319 -3.578535 1.060812 -4 0 -4 
C -1.060812 -4 -2.078319 -3.578535 -2.828427 -2.828427 
C -3.578535 -2.078319 -4 -1.060812 -4 0 
C -4 1.060812 -3.578535 2.078319 -2.828427 2.828427 
C -2.078319 3.578535 -1.060812 4 0 4 
z
" style="stroke: #dcd844"/>
    </defs>
    <g clip-path="url(#p834fcb5a57)">
     <use xlink:href="#m96d5a3012c" x="201.24" y="80.487415" style="fill: #dcd844; stroke: #dcd844"/>
     <use xlink:href="#m96d5a3012c" x="242.620029" y="108.298932" style="fill: #dcd844; stroke: #dcd844"/>
     <use xlink:href="#m96d5a3012c" x="239.308753" y="166.962741" style="fill: #dcd844; stroke: #dcd844"/>
     <use xlink:href="#m96d5a3012c" x="342.486378" y="155.34627" style="fill: #dcd844; stroke: #dcd844"/>
     <use xlink:href="#m96d5a3012c" x="353.335587" y="217.22589" style="fill: #dcd844; stroke: #dcd844"/>
     <use xlink:href="#m96d5a3012c" x="316.000831" y="267.497197" style="fill: #dcd844; stroke: #dcd844"/>
     <use xlink:href="#m96d5a3012c" x="268.882707" y="294.342198" style="fill: #dcd844; stroke: #dcd844"/>
     <use xlink:href="#m96d5a3012c" x="217.805532" y="279.174702" style="fill: #dcd844; stroke: #dcd844"/>
     <use xlink:href="#m96d5a3012c" x="188.988085" y="258.880727" style="fill: #dcd844; stroke: #dcd844"/>
     <use xlink:href="#m96d5a3012c" x="134.825566" y="292.651627" style="fill: #dcd844; stroke: #dcd844"/>
     <use xlink:href="#m96d5a3012c" x="112.64226" y="252.391929" style="fill: #dcd844; stroke: #dcd844"/>
     <use xlink:href="#m96d5a3012c" x="112.88621" y="210.526358" style="fill: #dcd844; stroke: #dcd844"/>
     <use xlink:href="#m96d5a3012c" x="139.205159" y="181.083658" style="fill: #dcd844; stroke: #dcd844"/>
     <use xlink:href="#m96d5a3012c" x="155.539749" y="160.091309" style="fill: #dcd844; stroke: #dcd844"/>
     <use xlink:href="#m96d5a3012c" x="169.403604" y="129.734284" style="fill: #dcd844; stroke: #dcd844"/>
     <use xlink:href="#m96d5a3012c" x="201.24" y="80.487415" style="fill: #dcd844; stroke: #dcd844"/>
    </g>
   </g>
   <g id="text_1">
    <!-- 0.10 -->
    <g transform="translate(185.127321 230.788243) scale(0.15 -0.15)">
     <defs>
      <path id="Arial-BoldMT-30" d="M 1756 4600 
Q 2422 4600 2797 4125 
Q 3244 3563 3244 2259 
Q 3244 959 2794 391 
Q 2422 -78 1756 -78 
Q 1088 -78 678 436 
Q 269 950 269 2269 
Q 269 3563 719 4131 
Q 1091 4600 1756 4600 
z
M 1756 3872 
Q 1597 3872 1472 3770 
Q 1347 3669 1278 3406 
Q 1188 3066 1188 2259 
Q 1188 1453 1269 1151 
Q 1350 850 1473 750 
Q 1597 650 1756 650 
Q 1916 650 2041 751 
Q 2166 853 2234 1116 
Q 2325 1453 2325 2259 
Q 2325 3066 2244 3367 
Q 2163 3669 2039 3770 
Q 1916 3872 1756 3872 
z
" transform="scale(0.015625)"/>
      <path id="Arial-BoldMT-2e" d="M 459 0 
L 459 878 
L 1338 878 
L 1338 0 
L 459 0 
z
" transform="scale(0.015625)"/>
      <path id="Arial-BoldMT-31" d="M 2519 0 
L 1641 0 
L 1641 3309 
Q 1159 2859 506 2644 
L 506 3441 
Q 850 3553 1253 3867 
Q 1656 4181 1806 4600 
L 2519 4600 
L 2519 0 
z
" transform="scale(0.015625)"/>
     </defs>
     <use xlink:href="#Arial-BoldMT-30"/>
     <use xlink:href="#Arial-BoldMT-2e" x="55.615234"/>
     <use xlink:href="#Arial-BoldMT-31" x="83.398438"/>
     <use xlink:href="#Arial-BoldMT-30" x="139.013672"/>
    </g>
   </g>
   <g id="text_2">
    <!-- 0.20 -->
    <g transform="translate(178.920677 259.988206) scale(0.15 -0.15)">
     <defs>
      <path id="Arial-BoldMT-32" d="M 3238 816 
L 3238 0 
L 159 0 
Q 209 463 459 877 
Q 709 1291 1447 1975 
Q 2041 2528 2175 2725 
Q 2356 2997 2356 3263 
Q 2356 3556 2198 3714 
Q 2041 3872 1763 3872 
Q 1488 3872 1325 3706 
Q 1163 3541 1138 3156 
L 263 3244 
Q 341 3969 753 4284 
Q 1166 4600 1784 4600 
Q 2463 4600 2850 4234 
Q 3238 3869 3238 3325 
Q 3238 3016 3127 2736 
Q 3016 2456 2775 2150 
Q 2616 1947 2200 1565 
Q 1784 1184 1673 1059 
Q 1563 934 1494 816 
L 3238 816 
z
" transform="scale(0.015625)"/>
     </defs>
     <use xlink:href="#Arial-BoldMT-30"/>
     <use xlink:href="#Arial-BoldMT-2e" x="55.615234"/>
     <use xlink:href="#Arial-BoldMT-32" x="83.398438"/>
     <use xlink:href="#Arial-BoldMT-30" x="139.013672"/>
    </g>
   </g>
   <g id="text_3">
    <!-- 0.30 -->
    <g transform="translate(172.714033 289.188169) scale(0.15 -0.15)">
     <defs>
      <path id="Arial-BoldMT-33" d="M 241 1216 
L 1091 1319 
Q 1131 994 1309 822 
Q 1488 650 1741 650 
Q 2013 650 2198 856 
Q 2384 1063 2384 1413 
Q 2384 1744 2206 1937 
Q 2028 2131 1772 2131 
Q 1603 2131 1369 2066 
L 1466 2781 
Q 1822 2772 2009 2936 
Q 2197 3100 2197 3372 
Q 2197 3603 2059 3740 
Q 1922 3878 1694 3878 
Q 1469 3878 1309 3722 
Q 1150 3566 1116 3266 
L 306 3403 
Q 391 3819 561 4067 
Q 731 4316 1036 4458 
Q 1341 4600 1719 4600 
Q 2366 4600 2756 4188 
Q 3078 3850 3078 3425 
Q 3078 2822 2419 2463 
Q 2813 2378 3048 2084 
Q 3284 1791 3284 1375 
Q 3284 772 2843 347 
Q 2403 -78 1747 -78 
Q 1125 -78 715 280 
Q 306 638 241 1216 
z
" transform="scale(0.015625)"/>
     </defs>
     <use xlink:href="#Arial-BoldMT-30"/>
     <use xlink:href="#Arial-BoldMT-2e" x="55.615234"/>
     <use xlink:href="#Arial-BoldMT-33" x="83.398438"/>
     <use xlink:href="#Arial-BoldMT-30" x="139.013672"/>
    </g>
   </g>
   <g id="text_4">
    <!-- 0.40 -->
    <g transform="translate(166.50739 318.388132) scale(0.15 -0.15)">
     <defs>
      <path id="Arial-BoldMT-34" d="M 1994 0 
L 1994 922 
L 119 922 
L 119 1691 
L 2106 4600 
L 2844 4600 
L 2844 1694 
L 3413 1694 
L 3413 922 
L 2844 922 
L 2844 0 
L 1994 0 
z
M 1994 1694 
L 1994 3259 
L 941 1694 
L 1994 1694 
z
" transform="scale(0.015625)"/>
     </defs>
     <use xlink:href="#Arial-BoldMT-30"/>
     <use xlink:href="#Arial-BoldMT-2e" x="55.615234"/>
     <use xlink:href="#Arial-BoldMT-34" x="83.398438"/>
     <use xlink:href="#Arial-BoldMT-30" x="139.013672"/>
    </g>
   </g>
   <g id="text_5">
    <!-- 0.50 -->
    <g transform="translate(160.300746 347.588095) scale(0.15 -0.15)">
     <defs>
      <path id="Arial-BoldMT-35" d="M 284 1178 
L 1159 1269 
Q 1197 972 1381 798 
Q 1566 625 1806 625 
Q 2081 625 2272 848 
Q 2463 1072 2463 1522 
Q 2463 1944 2273 2155 
Q 2084 2366 1781 2366 
Q 1403 2366 1103 2031 
L 391 2134 
L 841 4519 
L 3163 4519 
L 3163 3697 
L 1506 3697 
L 1369 2919 
Q 1663 3066 1969 3066 
Q 2553 3066 2959 2641 
Q 3366 2216 3366 1538 
Q 3366 972 3038 528 
Q 2591 -78 1797 -78 
Q 1163 -78 763 262 
Q 363 603 284 1178 
z
" transform="scale(0.015625)"/>
     </defs>
     <use xlink:href="#Arial-BoldMT-30"/>
     <use xlink:href="#Arial-BoldMT-2e" x="55.615234"/>
     <use xlink:href="#Arial-BoldMT-35" x="83.398438"/>
     <use xlink:href="#Arial-BoldMT-30" x="139.013672"/>
    </g>
   </g>
   <g id="text_6">
    <!-- 0.60 -->
    <g transform="translate(154.094102 376.788058) scale(0.15 -0.15)">
     <defs>
      <path id="Arial-BoldMT-36" d="M 3247 3459 
L 2397 3366 
Q 2366 3628 2234 3753 
Q 2103 3878 1894 3878 
Q 1616 3878 1423 3628 
Q 1231 3378 1181 2588 
Q 1509 2975 1997 2975 
Q 2547 2975 2939 2556 
Q 3331 2138 3331 1475 
Q 3331 772 2918 347 
Q 2506 -78 1859 -78 
Q 1166 -78 719 461 
Q 272 1000 272 2228 
Q 272 3488 737 4044 
Q 1203 4600 1947 4600 
Q 2469 4600 2811 4308 
Q 3153 4016 3247 3459 
z
M 1256 1544 
Q 1256 1116 1453 883 
Q 1650 650 1903 650 
Q 2147 650 2309 840 
Q 2472 1031 2472 1466 
Q 2472 1913 2297 2120 
Q 2122 2328 1859 2328 
Q 1606 2328 1431 2129 
Q 1256 1931 1256 1544 
z
" transform="scale(0.015625)"/>
     </defs>
     <use xlink:href="#Arial-BoldMT-30"/>
     <use xlink:href="#Arial-BoldMT-2e" x="55.615234"/>
     <use xlink:href="#Arial-BoldMT-36" x="83.398438"/>
     <use xlink:href="#Arial-BoldMT-30" x="139.013672"/>
    </g>
   </g>
  </g>
 </g>
 <defs>
  <clipPath id="p834fcb5a57">
   <path d="M 395.28 201.24 
C 395.28 175.758901 390.260779 150.525573 380.509584 126.984107 
C 370.75839 103.442641 356.464858 82.050858 338.447 64.033 
C 320.429142 46.015142 299.037359 31.72161 275.495893 21.970416 
C 251.954427 12.219221 226.721099 7.2 201.24 7.2 
C 175.758901 7.2 150.525573 12.219221 126.984107 21.970416 
C 103.442641 31.72161 82.050858 46.015142 64.033 64.033 
C 46.015142 82.050858 31.72161 103.442641 21.970416 126.984107 
C 12.219221 150.525573 7.2 175.758901 7.2 201.24 
C 7.2 226.721099 12.219221 251.954427 21.970416 275.495893 
C 31.72161 299.037359 46.015142 320.429142 64.033 338.447 
C 82.050858 356.464858 103.442641 370.75839 126.984107 380.509584 
C 150.525573 390.260779 175.758901 395.28 201.24 395.28 
C 226.721099 395.28 251.954427 390.260779 275.495893 380.509584 
C 299.037359 370.75839 320.429142 356.464858 338.447 338.447 
C 356.464858 320.429142 370.75839 299.037359 380.509584 275.495893 
C 390.260779 251.954427 395.28 226.721099 395.28 201.24 
M 201.24 201.24 
C 201.24 201.24 201.24 201.24 201.24 201.24 
C 201.24 201.24 201.24 201.24 201.24 201.24 
C 201.24 201.24 201.24 201.24 201.24 201.24 
C 201.24 201.24 201.24 201.24 201.24 201.24 
C 201.24 201.24 201.24 201.24 201.24 201.24 
C 201.24 201.24 201.24 201.24 201.24 201.24 
C 201.24 201.24 201.24 201.24 201.24 201.24 
C 201.24 201.24 201.24 201.24 201.24 201.24 
C 201.24 201.24 201.24 201.24 201.24 201.24 
C 201.24 201.24 201.24 201.24 201.24 201.24 
C 201.24 201.24 201.24 201.24 201.24 201.24 
C 201.24 201.24 201.24 201.24 201.24 201.24 
C 201.24 201.24 201.24 201.24 201.24 201.24 
C 201.24 201.24 201.24 201.24 201.24 201.24 
C 201.24 201.24 201.24 201.24 201.24 201.24 
C 201.24 201.24 201.24 201.24 201.24 201.24 
z
"/>
  </clipPath>
 </defs>
</svg>
