<?xml version="1.0" encoding="utf-8" standalone="no"?>
<!DOCTYPE svg PUBLIC "-//W3C//DTD SVG 1.1//EN"
  "http://www.w3.org/Graphics/SVG/1.1/DTD/svg11.dtd">
<svg xmlns:xlink="http://www.w3.org/1999/xlink" width="402.48pt" height="402.48pt" viewBox="0 0 402.48 402.48" xmlns="http://www.w3.org/2000/svg" version="1.1">
 <metadata>
  <rdf:RDF xmlns:dc="http://purl.org/dc/elements/1.1/" xmlns:cc="http://creativecommons.org/ns#" xmlns:rdf="http://www.w3.org/1999/02/22-rdf-syntax-ns#">
   <cc:Work>
    <dc:type rdf:resource="http://purl.org/dc/dcmitype/StillImage"/>
    <dc:date>2025-12-11T16:06:41.122984</dc:date>
    <dc:format>image/svg+xml</dc:format>
    <dc:creator>
     <cc:Agent>
      <dc:title>Matplotlib v3.9.2, https://matplotlib.org/</dc:title>
     </cc:Agent>
    </dc:creator>
   </cc:Work>
  </rdf:RDF>
 </metadata>
 <defs>
  <style type="text/css">*{stroke-linejoin: round; stroke-linecap: butt}</style>
 </defs>
 <g id="figure_1">
  <g id="patch_1">
   <path d="M 0 402.48 
L 402.48 402.48 
L 402.48 -0 
L 0 -0 
L 0 402.48 
z
" style="fill: none"/>
  </g>
  <g id="axes_1">
   <g id="patch_2">
    <path d="M 395.28 201.24 
C 395.28 175.758901 390.260779 150.525573 380.509584 126.984107 
C 370.75839 103.442641 356.464858 82.050858 338.447 64.033 
C 320.429142 46.015142 299.037359 31.72161 275.495893 21.970416 
C 251.954427 12.219221 226.721099 7.2 201.24 7.2 
C 175.758901 7.2 150.525573 12.219221 126.984107 21.970416 
C 103.442641 31.72161 82.050858 46.015142 64.033 64.033 
C 46.015142 82.050858 31.72161 103.442641 21.970416 126.984107 
C 12.219221 150.525573 7.2 175.758901 7.2 201.24 
C 7.2 226.721099 12.219221 251.954427 21.970416 275.495893 
C 31.72161 299.037359 46.015142 320.429142 64.033 338.447 
C 82.050858 356.464858 103.442641 370.75839 126.984107 380.509584 
C 150.525573 390.260779 175.758901 395.28 201.24 395.28 
C 226.721099 395.28 251.954427 390.260779 275.495893 380.509584 
C 299.037359 370.75839 320.429142 356.464858 338.447 338.447 
C 356.464858 320.429142 370.75839 299.037359 380.509584 275.495893 
C 390.260779 251.954427 395.28 226.721099 395.28 201.24 
M 201.24 201.24 
C 201.24 201.24 201.24 201.24 201.24 201.24 
C 201.24 201.24 201.24 201.24 201.24 201.24 
C 201.24 201.24 201.24 201.24 201.24 201.24 
C 201.24 201.24 201.24 201.24 201.24 201.24 
C 201.24 201.24 201.24 201.24 201.24 201.24 
C 201.24 201.24 201.24 201.24 201.24 201.24 
C 201.24 201.24 201.24 201.24 201.24 201.24 
C 201.24 201.24 201.24 201.24 201.24 201.24 
C 201.24 201.24 201.24 201.24 201.24 201.24 
C 201.24 201.24 201.24 201.24 201.24 201.24 
C 201.24 201.24 201.24 201.24 201.24 201.24 
C 201.24 201.24 201.24 201.24 201.24 201.24 
C 201.24 201.24 201.24 201.24 201.24 201.24 
C 201.24 201.24 201.24 201.24 201.24 201.24 
C 201.24 201.24 201.24 201.24 201.24 201.24 
C 201.24 201.24 201.24 201.24 201.24 201.24 
L 201.24 201.24 
z
" style="fill: none"/>
   </g>
   <g id="line2d_1">
    <path d="M 201.24 185.07 
L 207.816932 186.46797 
L 213.256652 190.420158 
L 216.618584 196.243195 
L 217.321419 202.930225 
L 215.243631 209.325 
L 210.744488 214.321805 
L 204.601932 217.056647 
L 197.878068 217.056647 
L 191.735512 214.321805 
L 187.236369 209.325 
L 185.158581 202.930225 
L 185.861416 196.243195 
L 189.223348 190.420158 
L 194.663068 186.46797 
L 201.24 185.07 
" clip-path="url(#p5699cb8536)" style="fill: none; stroke-dasharray: 1.85,0.8; stroke-dashoffset: 0; stroke: #808080; stroke-width: 0.5"/>
   </g>
   <g id="line2d_2">
    <path d="M 201.24 152.73 
L 220.970795 156.92391 
L 237.289955 168.780474 
L 247.375752 186.249586 
L 249.484257 206.310676 
L 243.250892 225.495 
L 229.753463 240.485414 
L 211.325796 248.68994 
L 191.154204 248.68994 
L 172.726537 240.485414 
L 159.229108 225.495 
L 152.995743 206.310676 
L 155.104248 186.249586 
L 165.190045 168.780474 
L 181.509205 156.92391 
L 201.24 152.73 
" clip-path="url(#p5699cb8536)" style="fill: none; stroke-dasharray: 1.85,0.8; stroke-dashoffset: 0; stroke: #808080; stroke-width: 0.5"/>
   </g>
   <g id="line2d_3">
    <path d="M 201.24 120.39 
L 234.124658 127.37985 
L 261.323259 147.14079 
L 278.132919 176.255976 
L 281.647095 209.691126 
L 271.258154 241.665 
L 248.762438 266.649024 
L 218.04966 280.323234 
L 184.43034 280.323234 
L 153.717562 266.649024 
L 131.221846 241.665 
L 120.832905 209.691126 
L 124.347081 176.255976 
L 141.156741 147.14079 
L 168.355342 127.37985 
L 201.24 120.39 
" clip-path="url(#p5699cb8536)" style="fill: none; stroke-dasharray: 1.85,0.8; stroke-dashoffset: 0; stroke: #808080; stroke-width: 0.5"/>
   </g>
   <g id="line2d_4">
    <path d="M 201.24 88.05 
L 247.278521 97.83579 
L 285.356563 125.501107 
L 308.890087 166.262366 
L 313.809933 213.071577 
L 299.265415 257.835 
L 267.771413 292.812634 
L 224.773524 311.956527 
L 177.706476 311.956527 
L 134.708587 292.812634 
L 103.214585 257.835 
L 88.670067 213.071577 
L 93.589913 166.262366 
L 117.123437 125.501107 
L 155.201479 97.83579 
L 201.24 88.05 
" clip-path="url(#p5699cb8536)" style="fill: none; stroke-dasharray: 1.85,0.8; stroke-dashoffset: 0; stroke: #808080; stroke-width: 0.5"/>
   </g>
   <g id="line2d_5">
    <path d="M 201.24 55.71 
L 260.432384 68.29173 
L 309.389866 103.861423 
L 339.647255 156.268757 
L 345.972771 216.452027 
L 327.272677 274.005 
L 286.780388 318.976243 
L 231.497388 343.58982 
L 170.982612 343.58982 
L 115.699612 318.976243 
L 75.207323 274.005 
L 56.507229 216.452027 
L 62.832745 156.268757 
L 93.090134 103.861423 
L 142.047616 68.29173 
L 201.24 55.71 
" clip-path="url(#p5699cb8536)" style="fill: none; stroke-dasharray: 1.85,0.8; stroke-dashoffset: 0; stroke: #808080; stroke-width: 0.5"/>
   </g>
   <g id="line2d_6">
    <path d="M 201.24 23.37 
L 273.586247 38.747669 
L 333.42317 82.221739 
L 370.404423 146.275147 
L 378.13561 219.832478 
L 355.279939 290.175 
L 305.789363 345.139853 
L 238.221252 375.223114 
L 164.258748 375.223114 
L 96.690637 345.139853 
L 47.200061 290.175 
L 24.34439 219.832478 
L 32.075577 146.275147 
L 69.05683 82.221739 
L 128.893753 38.747669 
L 201.24 23.37 
" clip-path="url(#p5699cb8536)" style="fill: none; stroke-dasharray: 1.85,0.8; stroke-dashoffset: 0; stroke: #808080; stroke-width: 0.5"/>
   </g>
   <g id="line2d_7">
    <path d="M 201.24 185.07 
L 201.24 152.73 
L 201.24 120.39 
L 201.24 88.05 
L 201.24 55.71 
L 201.24 23.37 
" clip-path="url(#p5699cb8536)" style="fill: none; stroke-dasharray: 1.85,0.8; stroke-dashoffset: 0; stroke: #808080; stroke-width: 0.5"/>
   </g>
   <g id="line2d_8">
    <path d="M 207.816932 186.46797 
L 220.970795 156.92391 
L 234.124658 127.37985 
L 247.278521 97.83579 
L 260.432384 68.29173 
L 273.586247 38.747669 
" clip-path="url(#p5699cb8536)" style="fill: none; stroke-dasharray: 1.85,0.8; stroke-dashoffset: 0; stroke: #808080; stroke-width: 0.5"/>
   </g>
   <g id="line2d_9">
    <path d="M 213.256652 190.420158 
L 237.289955 168.780474 
L 261.323259 147.14079 
L 285.356563 125.501107 
L 309.389866 103.861423 
L 333.42317 82.221739 
" clip-path="url(#p5699cb8536)" style="fill: none; stroke-dasharray: 1.85,0.8; stroke-dashoffset: 0; stroke: #808080; stroke-width: 0.5"/>
   </g>
   <g id="line2d_10">
    <path d="M 216.618584 196.243195 
L 247.375752 186.249586 
L 278.132919 176.255976 
L 308.890087 166.262366 
L 339.647255 156.268757 
L 370.404423 146.275147 
" clip-path="url(#p5699cb8536)" style="fill: none; stroke-dasharray: 1.85,0.8; stroke-dashoffset: 0; stroke: #808080; stroke-width: 0.5"/>
   </g>
   <g id="line2d_11">
    <path d="M 217.321419 202.930225 
L 249.484257 206.310676 
L 281.647095 209.691126 
L 313.809933 213.071577 
L 345.972771 216.452027 
L 378.13561 219.832478 
" clip-path="url(#p5699cb8536)" style="fill: none; stroke-dasharray: 1.85,0.8; stroke-dashoffset: 0; stroke: #808080; stroke-width: 0.5"/>
   </g>
   <g id="line2d_12">
    <path d="M 215.243631 209.325 
L 243.250892 225.495 
L 271.258154 241.665 
L 299.265415 257.835 
L 327.272677 274.005 
L 355.279939 290.175 
" clip-path="url(#p5699cb8536)" style="fill: none; stroke-dasharray: 1.85,0.8; stroke-dashoffset: 0; stroke: #808080; stroke-width: 0.5"/>
   </g>
   <g id="line2d_13">
    <path d="M 210.744488 214.321805 
L 229.753463 240.485414 
L 248.762438 266.649024 
L 267.771413 292.812634 
L 286.780388 318.976243 
L 305.789363 345.139853 
" clip-path="url(#p5699cb8536)" style="fill: none; stroke-dasharray: 1.85,0.8; stroke-dashoffset: 0; stroke: #808080; stroke-width: 0.5"/>
   </g>
   <g id="line2d_14">
    <path d="M 204.601932 217.056647 
L 211.325796 248.68994 
L 218.04966 280.323234 
L 224.773524 311.956527 
L 231.497388 343.58982 
L 238.221252 375.223114 
" clip-path="url(#p5699cb8536)" style="fill: none; stroke-dasharray: 1.85,0.8; stroke-dashoffset: 0; stroke: #808080; stroke-width: 0.5"/>
   </g>
   <g id="line2d_15">
    <path d="M 197.878068 217.056647 
L 191.154204 248.68994 
L 184.43034 280.323234 
L 177.706476 311.956527 
L 170.982612 343.58982 
L 164.258748 375.223114 
" clip-path="url(#p5699cb8536)" style="fill: none; stroke-dasharray: 1.85,0.8; stroke-dashoffset: 0; stroke: #808080; stroke-width: 0.5"/>
   </g>
   <g id="line2d_16">
    <path d="M 191.735512 214.321805 
L 172.726537 240.485414 
L 153.717562 266.649024 
L 134.708587 292.812634 
L 115.699612 318.976243 
L 96.690637 345.139853 
" clip-path="url(#p5699cb8536)" style="fill: none; stroke-dasharray: 1.85,0.8; stroke-dashoffset: 0; stroke: #808080; stroke-width: 0.5"/>
   </g>
   <g id="line2d_17">
    <path d="M 187.236369 209.325 
L 159.229108 225.495 
L 131.221846 241.665 
L 103.214585 257.835 
L 75.207323 274.005 
L 47.200061 290.175 
" clip-path="url(#p5699cb8536)" style="fill: none; stroke-dasharray: 1.85,0.8; stroke-dashoffset: 0; stroke: #808080; stroke-width: 0.5"/>
   </g>
   <g id="line2d_18">
    <path d="M 185.158581 202.930225 
L 152.995743 206.310676 
L 120.832905 209.691126 
L 88.670067 213.071577 
L 56.507229 216.452027 
L 24.34439 219.832478 
" clip-path="url(#p5699cb8536)" style="fill: none; stroke-dasharray: 1.85,0.8; stroke-dashoffset: 0; stroke: #808080; stroke-width: 0.5"/>
   </g>
   <g id="line2d_19">
    <path d="M 185.861416 196.243195 
L 155.104248 186.249586 
L 124.347081 176.255976 
L 93.589913 166.262366 
L 62.832745 156.268757 
L 32.075577 146.275147 
" clip-path="url(#p5699cb8536)" style="fill: none; stroke-dasharray: 1.85,0.8; stroke-dashoffset: 0; stroke: #808080; stroke-width: 0.5"/>
   </g>
   <g id="line2d_20">
    <path d="M 189.223348 190.420158 
L 165.190045 168.780474 
L 141.156741 147.14079 
L 117.123437 125.501107 
L 93.090134 103.861423 
L 69.05683 82.221739 
" clip-path="url(#p5699cb8536)" style="fill: none; stroke-dasharray: 1.85,0.8; stroke-dashoffset: 0; stroke: #808080; stroke-width: 0.5"/>
   </g>
   <g id="line2d_21">
    <path d="M 194.663068 186.46797 
L 181.509205 156.92391 
L 168.355342 127.37985 
L 155.201479 97.83579 
L 142.047616 68.29173 
L 128.893753 38.747669 
" clip-path="url(#p5699cb8536)" style="fill: none; stroke-dasharray: 1.85,0.8; stroke-dashoffset: 0; stroke: #808080; stroke-width: 0.5"/>
   </g>
   <g id="matplotlib.axis_1">
    <g id="xtick_1"/>
    <g id="xtick_2"/>
    <g id="xtick_3"/>
    <g id="xtick_4"/>
    <g id="xtick_5"/>
    <g id="xtick_6"/>
    <g id="xtick_7"/>
    <g id="xtick_8"/>
    <g id="xtick_9"/>
    <g id="xtick_10"/>
    <g id="xtick_11"/>
    <g id="xtick_12"/>
    <g id="xtick_13"/>
    <g id="xtick_14"/>
    <g id="xtick_15"/>
   </g>
   <g id="matplotlib.axis_2">
    <g id="ytick_1"/>
    <g id="ytick_2"/>
    <g id="ytick_3"/>
    <g id="ytick_4"/>
    <g id="ytick_5"/>
    <g id="ytick_6"/>
   </g>
   <g id="line2d_22">
    <path d="M 201.24 88.55759 
L 241.018038 111.897064 
L 274.599522 135.18679 
L 291.549215 171.896757 
L 321.070972 213.834743 
L 304.473796 260.84206 
L 277.117803 305.676836 
L 284.812985 403.48 
M 223.990598 403.48 
L 186.660765 269.829907 
L 168.961458 245.667602 
L 131.599794 241.446792 
L 136.213702 208.074539 
L 136.520378 180.21132 
L 116.537925 124.973909 
L 163.539871 116.564124 
L 201.24 88.55759 
" clip-path="url(#p5699cb8536)" style="fill: none; stroke: #0033cc; stroke-width: 5; stroke-linecap: square"/>
    <defs>
     <path id="ma1d2468ff2" d="M 0 4 
C 1.060812 4 2.078319 3.578535 2.828427 2.828427 
C 3.578535 2.078319 4 1.060812 4 0 
C 4 -1.060812 3.578535 -2.078319 2.828427 -2.828427 
C 2.078319 -3.578535 1.060812 -4 0 -4 
C -1.060812 -4 -2.078319 -3.578535 -2.828427 -2.828427 
C -3.578535 -2.078319 -4 -1.060812 -4 0 
C -4 1.060812 -3.578535 2.078319 -2.828427 2.828427 
C -2.078319 3.578535 -1.060812 4 0 4 
z
" style="stroke: #0033cc"/>
    </defs>
    <g clip-path="url(#p5699cb8536)">
     <use xlink:href="#ma1d2468ff2" x="201.24" y="88.55759" style="fill: #0033cc; stroke: #0033cc"/>
     <use xlink:href="#ma1d2468ff2" x="241.018038" y="111.897064" style="fill: #0033cc; stroke: #0033cc"/>
     <use xlink:href="#ma1d2468ff2" x="274.599522" y="135.18679" style="fill: #0033cc; stroke: #0033cc"/>
     <use xlink:href="#ma1d2468ff2" x="291.549215" y="171.896757" style="fill: #0033cc; stroke: #0033cc"/>
     <use xlink:href="#ma1d2468ff2" x="321.070972" y="213.834743" style="fill: #0033cc; stroke: #0033cc"/>
     <use xlink:href="#ma1d2468ff2" x="304.473796" y="260.84206" style="fill: #0033cc; stroke: #0033cc"/>
     <use xlink:href="#ma1d2468ff2" x="277.117803" y="305.676836" style="fill: #0033cc; stroke: #0033cc"/>
     <use xlink:href="#ma1d2468ff2" x="308.665481" y="706.637154" style="fill: #0033cc; stroke: #0033cc"/>
     <use xlink:href="#ma1d2468ff2" x="186.660765" y="269.829907" style="fill: #0033cc; stroke: #0033cc"/>
     <use xlink:href="#ma1d2468ff2" x="168.961458" y="245.667602" style="fill: #0033cc; stroke: #0033cc"/>
     <use xlink:href="#ma1d2468ff2" x="131.599794" y="241.446792" style="fill: #0033cc; stroke: #0033cc"/>
     <use xlink:href="#ma1d2468ff2" x="136.213702" y="208.074539" style="fill: #0033cc; stroke: #0033cc"/>
     <use xlink:href="#ma1d2468ff2" x="136.520378" y="180.21132" style="fill: #0033cc; stroke: #0033cc"/>
     <use xlink:href="#ma1d2468ff2" x="116.537925" y="124.973909" style="fill: #0033cc; stroke: #0033cc"/>
     <use xlink:href="#ma1d2468ff2" x="163.539871" y="116.564124" style="fill: #0033cc; stroke: #0033cc"/>
     <use xlink:href="#ma1d2468ff2" x="201.24" y="88.55759" style="fill: #0033cc; stroke: #0033cc"/>
    </g>
   </g>
   <g id="line2d_23">
    <path d="M 201.24 108.148571 
L 239.651334 114.966732 
L 275.359688 134.502333 
L 291.537421 171.900589 
L 280.623098 209.5835 
L 267.67796 239.597974 
L 238.140482 252.029156 
M 182.110867 291.235494 
L 115.383126 319.41185 
L 106.886619 255.71495 
L 67.34165 215.313284 
L 83.471893 162.974822 
L 151.764386 156.691957 
L 157.976905 104.069498 
L 201.24 108.148571 
" clip-path="url(#p5699cb8536)" style="fill: none; stroke: #c00000; stroke-width: 5; stroke-linecap: square"/>
    <defs>
     <path id="me4daae612d" d="M 0 4 
C 1.060812 4 2.078319 3.578535 2.828427 2.828427 
C 3.578535 2.078319 4 1.060812 4 0 
C 4 -1.060812 3.578535 -2.078319 2.828427 -2.828427 
C 2.078319 -3.578535 1.060812 -4 0 -4 
C -1.060812 -4 -2.078319 -3.578535 -2.828427 -2.828427 
C -3.578535 -2.078319 -4 -1.060812 -4 0 
C -4 1.060812 -3.578535 2.078319 -2.828427 2.828427 
C -2.078319 3.578535 -1.060812 4 0 4 
z
" style="stroke: #c00000"/>
    </defs>
    <g clip-path="url(#p5699cb8536)">
     <use xlink:href="#me4daae612d" x="201.24" y="108.148571" style="fill: #c00000; stroke: #c00000"/>
     <use xlink:href="#me4daae612d" x="239.651334" y="114.966732" style="fill: #c00000; stroke: #c00000"/>
     <use xlink:href="#me4daae612d" x="275.359688" y="134.502333" style="fill: #c00000; stroke: #c00000"/>
     <use xlink:href="#me4daae612d" x="291.537421" y="171.900589" style="fill: #c00000; stroke: #c00000"/>
     <use xlink:href="#me4daae612d" x="280.623098" y="209.5835" style="fill: #c00000; stroke: #c00000"/>
     <use xlink:href="#me4daae612d" x="267.67796" y="239.597974" style="fill: #c00000; stroke: #c00000"/>
     <use xlink:href="#me4daae612d" x="238.140482" y="252.029156" style="fill: #c00000; stroke: #c00000"/>
     <use xlink:href="#me4daae612d" x="182.110867" y="291.235494" style="fill: #c00000; stroke: #c00000"/>
     <use xlink:href="#me4daae612d" x="115.383126" y="319.41185" style="fill: #c00000; stroke: #c00000"/>
     <use xlink:href="#me4daae612d" x="106.886619" y="255.71495" style="fill: #c00000; stroke: #c00000"/>
     <use xlink:href="#me4daae612d" x="67.34165" y="215.313284" style="fill: #c00000; stroke: #c00000"/>
     <use xlink:href="#me4daae612d" x="83.471893" y="162.974822" style="fill: #c00000; stroke: #c00000"/>
     <use xlink:href="#me4daae612d" x="151.764386" y="156.691957" style="fill: #c00000; stroke: #c00000"/>
     <use xlink:href="#me4daae612d" x="157.976905" y="104.069498" style="fill: #c00000; stroke: #c00000"/>
     <use xlink:href="#me4daae612d" x="201.24" y="108.148571" style="fill: #c00000; stroke: #c00000"/>
    </g>
   </g>
   <g id="line2d_24">
    <path d="M 201.24 114.716696 
L 229.687491 137.345889 
L 251.333801 156.135339 
L 278.7775 176.046539 
L 263.420498 207.775434 
L 240.621766 223.977073 
L 224.274016 232.943603 
L 206.15714 224.373323 
L 193.683746 236.789378 
L 174.168054 238.501336 
L 152.786255 229.214783 
L 151.302507 206.488642 
L 145.365652 183.085324 
L 154.883571 159.500484 
L 173.256578 138.388206 
L 201.24 114.716696 
" clip-path="url(#p5699cb8536)" style="fill: none; stroke: #dcd844; stroke-width: 5; stroke-linecap: square"/>
    <defs>
     <path id="m957b8f8664" d="M 0 4 
C 1.060812 4 2.078319 3.578535 2.828427 2.828427 
C 3.578535 2.078319 4 1.060812 4 0 
C 4 -1.060812 3.578535 -2.078319 2.828427 -2.828427 
C 2.078319 -3.578535 1.060812 -4 0 -4 
C -1.060812 -4 -2.078319 -3.578535 -2.828427 -2.828427 
C -3.578535 -2.078319 -4 -1.060812 -4 0 
C -4 1.060812 -3.578535 2.078319 -2.828427 2.828427 
C -2.078319 3.578535 -1.060812 4 0 4 
z
" style="stroke: #dcd844"/>
    </defs>
    <g clip-path="url(#p5699cb8536)">
     <use xlink:href="#m957b8f8664" x="201.24" y="114.716696" style="fill: #dcd844; stroke: #dcd844"/>
     <use xlink:href="#m957b8f8664" x="229.687491" y="137.345889" style="fill: #dcd844; stroke: #dcd844"/>
     <use xlink:href="#m957b8f8664" x="251.333801" y="156.135339" style="fill: #dcd844; stroke: #dcd844"/>
     <use xlink:href="#m957b8f8664" x="278.7775" y="176.046539" style="fill: #dcd844; stroke: #dcd844"/>
     <use xlink:href="#m957b8f8664" x="263.420498" y="207.775434" style="fill: #dcd844; stroke: #dcd844"/>
     <use xlink:href="#m957b8f8664" x="240.621766" y="223.977073" style="fill: #dcd844; stroke: #dcd844"/>
     <use xlink:href="#m957b8f8664" x="224.274016" y="232.943603" style="fill: #dcd844; stroke: #dcd844"/>
     <use xlink:href="#m957b8f8664" x="206.15714" y="224.373323" style="fill: #dcd844; stroke: #dcd844"/>
     <use xlink:href="#m957b8f8664" x="193.683746" y="236.789378" style="fill: #dcd844; stroke: #dcd844"/>
     <use xlink:href="#m957b8f8664" x="174.168054" y="238.501336" style="fill: #dcd844; stroke: #dcd844"/>
     <use xlink:href="#m957b8f8664" x="152.786255" y="229.214783" style="fill: #dcd844; stroke: #dcd844"/>
     <use xlink:href="#m957b8f8664" x="151.302507" y="206.488642" style="fill: #dcd844; stroke: #dcd844"/>
     <use xlink:href="#m957b8f8664" x="145.365652" y="183.085324" style="fill: #dcd844; stroke: #dcd844"/>
     <use xlink:href="#m957b8f8664" x="154.883571" y="159.500484" style="fill: #dcd844; stroke: #dcd844"/>
     <use xlink:href="#m957b8f8664" x="173.256578" y="138.388206" style="fill: #dcd844; stroke: #dcd844"/>
     <use xlink:href="#m957b8f8664" x="201.24" y="114.716696" style="fill: #dcd844; stroke: #dcd844"/>
    </g>
   </g>
   <g id="text_1">
    <!-- 0.10 -->
    <g transform="translate(177.314104 249.410667) scale(0.15 -0.15)">
     <defs>
      <path id="DejaVuSans-Bold-30" d="M 2944 2338 
Q 2944 3213 2780 3570 
Q 2616 3928 2228 3928 
Q 1841 3928 1675 3570 
Q 1509 3213 1509 2338 
Q 1509 1453 1675 1090 
Q 1841 728 2228 728 
Q 2613 728 2778 1090 
Q 2944 1453 2944 2338 
z
M 4147 2328 
Q 4147 1169 3647 539 
Q 3147 -91 2228 -91 
Q 1306 -91 806 539 
Q 306 1169 306 2328 
Q 306 3491 806 4120 
Q 1306 4750 2228 4750 
Q 3147 4750 3647 4120 
Q 4147 3491 4147 2328 
z
" transform="scale(0.015625)"/>
      <path id="DejaVuSans-Bold-2e" d="M 653 1209 
L 1778 1209 
L 1778 0 
L 653 0 
L 653 1209 
z
" transform="scale(0.015625)"/>
      <path id="DejaVuSans-Bold-31" d="M 750 831 
L 1813 831 
L 1813 3847 
L 722 3622 
L 722 4441 
L 1806 4666 
L 2950 4666 
L 2950 831 
L 4013 831 
L 4013 0 
L 750 0 
L 750 831 
z
" transform="scale(0.015625)"/>
     </defs>
     <use xlink:href="#DejaVuSans-Bold-30"/>
     <use xlink:href="#DejaVuSans-Bold-2e" x="69.580078"/>
     <use xlink:href="#DejaVuSans-Bold-31" x="107.568359"/>
     <use xlink:href="#DejaVuSans-Bold-30" x="177.148438"/>
    </g>
   </g>
   <g id="text_2">
    <!-- 0.20 -->
    <g transform="translate(170.59024 281.043961) scale(0.15 -0.15)">
     <defs>
      <path id="DejaVuSans-Bold-32" d="M 1844 884 
L 3897 884 
L 3897 0 
L 506 0 
L 506 884 
L 2209 2388 
Q 2438 2594 2547 2791 
Q 2656 2988 2656 3200 
Q 2656 3528 2436 3728 
Q 2216 3928 1850 3928 
Q 1569 3928 1234 3808 
Q 900 3688 519 3450 
L 519 4475 
Q 925 4609 1322 4679 
Q 1719 4750 2100 4750 
Q 2938 4750 3402 4381 
Q 3866 4013 3866 3353 
Q 3866 2972 3669 2642 
Q 3472 2313 2841 1759 
L 1844 884 
z
" transform="scale(0.015625)"/>
     </defs>
     <use xlink:href="#DejaVuSans-Bold-30"/>
     <use xlink:href="#DejaVuSans-Bold-2e" x="69.580078"/>
     <use xlink:href="#DejaVuSans-Bold-32" x="107.568359"/>
     <use xlink:href="#DejaVuSans-Bold-30" x="177.148438"/>
    </g>
   </g>
   <g id="text_3">
    <!-- 0.30 -->
    <g transform="translate(163.866376 312.677254) scale(0.15 -0.15)">
     <defs>
      <path id="DejaVuSans-Bold-33" d="M 2981 2516 
Q 3453 2394 3698 2092 
Q 3944 1791 3944 1325 
Q 3944 631 3412 270 
Q 2881 -91 1863 -91 
Q 1503 -91 1142 -33 
Q 781 25 428 141 
L 428 1069 
Q 766 900 1098 814 
Q 1431 728 1753 728 
Q 2231 728 2486 893 
Q 2741 1059 2741 1369 
Q 2741 1688 2480 1852 
Q 2219 2016 1709 2016 
L 1228 2016 
L 1228 2791 
L 1734 2791 
Q 2188 2791 2409 2933 
Q 2631 3075 2631 3366 
Q 2631 3634 2415 3781 
Q 2200 3928 1806 3928 
Q 1516 3928 1219 3862 
Q 922 3797 628 3669 
L 628 4550 
Q 984 4650 1334 4700 
Q 1684 4750 2022 4750 
Q 2931 4750 3382 4451 
Q 3834 4153 3834 3553 
Q 3834 3144 3618 2883 
Q 3403 2622 2981 2516 
z
" transform="scale(0.015625)"/>
     </defs>
     <use xlink:href="#DejaVuSans-Bold-30"/>
     <use xlink:href="#DejaVuSans-Bold-2e" x="69.580078"/>
     <use xlink:href="#DejaVuSans-Bold-33" x="107.568359"/>
     <use xlink:href="#DejaVuSans-Bold-30" x="177.148438"/>
    </g>
   </g>
   <g id="text_4">
    <!-- 0.40 -->
    <g transform="translate(157.142512 344.310548) scale(0.15 -0.15)">
     <defs>
      <path id="DejaVuSans-Bold-34" d="M 2356 3675 
L 1038 1722 
L 2356 1722 
L 2356 3675 
z
M 2156 4666 
L 3494 4666 
L 3494 1722 
L 4159 1722 
L 4159 850 
L 3494 850 
L 3494 0 
L 2356 0 
L 2356 850 
L 288 850 
L 288 1881 
L 2156 4666 
z
" transform="scale(0.015625)"/>
     </defs>
     <use xlink:href="#DejaVuSans-Bold-30"/>
     <use xlink:href="#DejaVuSans-Bold-2e" x="69.580078"/>
     <use xlink:href="#DejaVuSans-Bold-34" x="107.568359"/>
     <use xlink:href="#DejaVuSans-Bold-30" x="177.148438"/>
    </g>
   </g>
   <g id="text_5">
    <!-- 0.50 -->
    <g transform="translate(150.418648 375.943841) scale(0.15 -0.15)">
     <defs>
      <path id="DejaVuSans-Bold-35" d="M 678 4666 
L 3669 4666 
L 3669 3781 
L 1638 3781 
L 1638 3059 
Q 1775 3097 1914 3117 
Q 2053 3138 2203 3138 
Q 3056 3138 3531 2711 
Q 4006 2284 4006 1522 
Q 4006 766 3489 337 
Q 2972 -91 2053 -91 
Q 1656 -91 1267 -14 
Q 878 63 494 219 
L 494 1166 
Q 875 947 1217 837 
Q 1559 728 1863 728 
Q 2300 728 2551 942 
Q 2803 1156 2803 1522 
Q 2803 1891 2551 2103 
Q 2300 2316 1863 2316 
Q 1603 2316 1309 2248 
Q 1016 2181 678 2041 
L 678 4666 
z
" transform="scale(0.015625)"/>
     </defs>
     <use xlink:href="#DejaVuSans-Bold-30"/>
     <use xlink:href="#DejaVuSans-Bold-2e" x="69.580078"/>
     <use xlink:href="#DejaVuSans-Bold-35" x="107.568359"/>
     <use xlink:href="#DejaVuSans-Bold-30" x="177.148438"/>
    </g>
   </g>
  </g>
 </g>
 <defs>
  <clipPath id="p5699cb8536">
   <path d="M 395.28 201.24 
C 395.28 175.758901 390.260779 150.525573 380.509584 126.984107 
C 370.75839 103.442641 356.464858 82.050858 338.447 64.033 
C 320.429142 46.015142 299.037359 31.72161 275.495893 21.970416 
C 251.954427 12.219221 226.721099 7.2 201.24 7.2 
C 175.758901 7.2 150.525573 12.219221 126.984107 21.970416 
C 103.442641 31.72161 82.050858 46.015142 64.033 64.033 
C 46.015142 82.050858 31.72161 103.442641 21.970416 126.984107 
C 12.219221 150.525573 7.2 175.758901 7.2 201.24 
C 7.2 226.721099 12.219221 251.954427 21.970416 275.495893 
C 31.72161 299.037359 46.015142 320.429142 64.033 338.447 
C 82.050858 356.464858 103.442641 370.75839 126.984107 380.509584 
C 150.525573 390.260779 175.758901 395.28 201.24 395.28 
C 226.721099 395.28 251.954427 390.260779 275.495893 380.509584 
C 299.037359 370.75839 320.429142 356.464858 338.447 338.447 
C 356.464858 320.429142 370.75839 299.037359 380.509584 275.495893 
C 390.260779 251.954427 395.28 226.721099 395.28 201.24 
M 201.24 201.24 
C 201.24 201.24 201.24 201.24 201.24 201.24 
C 201.24 201.24 201.24 201.24 201.24 201.24 
C 201.24 201.24 201.24 201.24 201.24 201.24 
C 201.24 201.24 201.24 201.24 201.24 201.24 
C 201.24 201.24 201.24 201.24 201.24 201.24 
C 201.24 201.24 201.24 201.24 201.24 201.24 
C 201.24 201.24 201.24 201.24 201.24 201.24 
C 201.24 201.24 201.24 201.24 201.24 201.24 
C 201.24 201.24 201.24 201.24 201.24 201.24 
C 201.24 201.24 201.24 201.24 201.24 201.24 
C 201.24 201.24 201.24 201.24 201.24 201.24 
C 201.24 201.24 201.24 201.24 201.24 201.24 
C 201.24 201.24 201.24 201.24 201.24 201.24 
C 201.24 201.24 201.24 201.24 201.24 201.24 
C 201.24 201.24 201.24 201.24 201.24 201.24 
C 201.24 201.24 201.24 201.24 201.24 201.24 
z
"/>
  </clipPath>
 </defs>
</svg>
