<?xml version="1.0" encoding="utf-8" standalone="no"?>
<!DOCTYPE svg PUBLIC "-//W3C//DTD SVG 1.1//EN"
  "http://www.w3.org/Graphics/SVG/1.1/DTD/svg11.dtd">
<svg xmlns:xlink="http://www.w3.org/1999/xlink" width="402.48pt" height="402.48pt" viewBox="0 0 402.48 402.48" xmlns="http://www.w3.org/2000/svg" version="1.1">
 <metadata>
  <rdf:RDF xmlns:dc="http://purl.org/dc/elements/1.1/" xmlns:cc="http://creativecommons.org/ns#" xmlns:rdf="http://www.w3.org/1999/02/22-rdf-syntax-ns#">
   <cc:Work>
    <dc:type rdf:resource="http://purl.org/dc/dcmitype/StillImage"/>
    <dc:date>2025-11-21T13:34:26.120827</dc:date>
    <dc:format>image/svg+xml</dc:format>
    <dc:creator>
     <cc:Agent>
      <dc:title>Matplotlib v3.9.2, https://matplotlib.org/</dc:title>
     </cc:Agent>
    </dc:creator>
   </cc:Work>
  </rdf:RDF>
 </metadata>
 <defs>
  <style type="text/css">*{stroke-linejoin: round; stroke-linecap: butt}</style>
 </defs>
 <g id="figure_1">
  <g id="patch_1">
   <path d="M 0 402.48 
L 402.48 402.48 
L 402.48 -0 
L 0 -0 
L 0 402.48 
z
" style="fill: none"/>
  </g>
  <g id="axes_1">
   <g id="patch_2">
    <path d="M 395.28 201.24 
C 395.28 175.758901 390.260779 150.525573 380.509584 126.984107 
C 370.75839 103.442641 356.464858 82.050858 338.447 64.033 
C 320.429142 46.015142 299.037359 31.72161 275.495893 21.970416 
C 251.954427 12.219221 226.721099 7.2 201.24 7.2 
C 175.758901 7.2 150.525573 12.219221 126.984107 21.970416 
C 103.442641 31.72161 82.050858 46.015142 64.033 64.033 
C 46.015142 82.050858 31.72161 103.442641 21.970416 126.984107 
C 12.219221 150.525573 7.2 175.758901 7.2 201.24 
C 7.2 226.721099 12.219221 251.954427 21.970416 275.495893 
C 31.72161 299.037359 46.015142 320.429142 64.033 338.447 
C 82.050858 356.464858 103.442641 370.75839 126.984107 380.509584 
C 150.525573 390.260779 175.758901 395.28 201.24 395.28 
C 226.721099 395.28 251.954427 390.260779 275.495893 380.509584 
C 299.037359 370.75839 320.429142 356.464858 338.447 338.447 
C 356.464858 320.429142 370.75839 299.037359 380.509584 275.495893 
C 390.260779 251.954427 395.28 226.721099 395.28 201.24 
M 201.24 201.24 
C 201.24 201.24 201.24 201.24 201.24 201.24 
C 201.24 201.24 201.24 201.24 201.24 201.24 
C 201.24 201.24 201.24 201.24 201.24 201.24 
C 201.24 201.24 201.24 201.24 201.24 201.24 
C 201.24 201.24 201.24 201.24 201.24 201.24 
C 201.24 201.24 201.24 201.24 201.24 201.24 
C 201.24 201.24 201.24 201.24 201.24 201.24 
C 201.24 201.24 201.24 201.24 201.24 201.24 
C 201.24 201.24 201.24 201.24 201.24 201.24 
C 201.24 201.24 201.24 201.24 201.24 201.24 
C 201.24 201.24 201.24 201.24 201.24 201.24 
C 201.24 201.24 201.24 201.24 201.24 201.24 
C 201.24 201.24 201.24 201.24 201.24 201.24 
C 201.24 201.24 201.24 201.24 201.24 201.24 
C 201.24 201.24 201.24 201.24 201.24 201.24 
C 201.24 201.24 201.24 201.24 201.24 201.24 
L 201.24 201.24 
z
" style="fill: none"/>
   </g>
   <g id="matplotlib.axis_1">
    <g id="xtick_1"/>
    <g id="xtick_2"/>
    <g id="xtick_3"/>
    <g id="xtick_4"/>
    <g id="xtick_5"/>
    <g id="xtick_6"/>
    <g id="xtick_7"/>
    <g id="xtick_8"/>
    <g id="xtick_9"/>
    <g id="xtick_10"/>
    <g id="xtick_11"/>
    <g id="xtick_12"/>
    <g id="xtick_13"/>
    <g id="xtick_14"/>
    <g id="xtick_15"/>
   </g>
   <g id="matplotlib.axis_2">
    <g id="ytick_1"/>
    <g id="ytick_2"/>
    <g id="ytick_3"/>
    <g id="ytick_4"/>
    <g id="ytick_5"/>
    <g id="ytick_6"/>
    <g id="ytick_7"/>
    <g id="ytick_8"/>
   </g>
   <g id="line2d_1">
    <path d="M 201.24 201.24 
L 201.24 201.24 
L 201.24 201.24 
L 201.24 201.24 
L 201.24 201.24 
L 201.24 201.24 
L 201.24 201.24 
L 201.24 201.24 
L 201.24 201.24 
L 201.24 201.24 
L 201.24 201.24 
L 201.24 201.24 
L 201.24 201.24 
L 201.24 201.24 
L 201.24 201.24 
L 201.24 201.24 
" clip-path="url(#pf3dc85f47b)" style="fill: none; stroke-dasharray: 1.85,0.8; stroke-dashoffset: 0; stroke: #808080; stroke-width: 0.5"/>
   </g>
   <g id="line2d_2">
    <path d="M 201.24 164.8575 
L 216.038096 168.002932 
L 228.277467 176.895356 
L 235.841814 189.997189 
L 237.423193 205.043007 
L 232.748169 219.43125 
L 222.625097 230.674061 
L 208.804347 236.827455 
L 193.675653 236.827455 
L 179.854903 230.674061 
L 169.731831 219.43125 
L 165.056807 205.043007 
L 166.638186 189.997189 
L 174.202533 176.895356 
L 186.441904 168.002932 
L 201.24 164.8575 
" clip-path="url(#pf3dc85f47b)" style="fill: none; stroke-dasharray: 1.85,0.8; stroke-dashoffset: 0; stroke: #808080; stroke-width: 0.5"/>
   </g>
   <g id="line2d_3">
    <path d="M 201.24 128.475 
L 230.836192 134.765865 
L 255.314933 152.550711 
L 270.443627 178.754378 
L 273.606386 208.846014 
L 264.256339 237.6225 
L 244.010194 260.108122 
L 216.368694 272.41491 
L 186.111306 272.41491 
L 158.469806 260.108122 
L 138.223661 237.6225 
L 128.873614 208.846014 
L 132.036373 178.754378 
L 147.165067 152.550711 
L 171.643808 134.765865 
L 201.24 128.475 
" clip-path="url(#pf3dc85f47b)" style="fill: none; stroke-dasharray: 1.85,0.8; stroke-dashoffset: 0; stroke: #808080; stroke-width: 0.5"/>
   </g>
   <g id="line2d_4">
    <path d="M 201.24 92.0925 
L 245.634288 101.528797 
L 282.3524 128.206067 
L 305.045441 167.511568 
L 309.789579 212.64902 
L 295.764508 255.81375 
L 265.395291 289.542182 
L 223.933041 308.002365 
L 178.546959 308.002365 
L 137.084709 289.542182 
L 106.715492 255.81375 
L 92.690421 212.64902 
L 97.434559 167.511568 
L 120.1276 128.206067 
L 156.845712 101.528797 
L 201.24 92.0925 
" clip-path="url(#pf3dc85f47b)" style="fill: none; stroke-dasharray: 1.85,0.8; stroke-dashoffset: 0; stroke: #808080; stroke-width: 0.5"/>
   </g>
   <g id="line2d_5">
    <path d="M 201.24 55.71 
L 260.432384 68.29173 
L 309.389866 103.861423 
L 339.647255 156.268757 
L 345.972771 216.452027 
L 327.272677 274.005 
L 286.780388 318.976243 
L 231.497388 343.58982 
L 170.982612 343.58982 
L 115.699612 318.976243 
L 75.207323 274.005 
L 56.507229 216.452027 
L 62.832745 156.268757 
L 93.090134 103.861423 
L 142.047616 68.29173 
L 201.24 55.71 
" clip-path="url(#pf3dc85f47b)" style="fill: none; stroke-dasharray: 1.85,0.8; stroke-dashoffset: 0; stroke: #808080; stroke-width: 0.5"/>
   </g>
   <g id="line2d_6">
    <path d="M 201.24 19.3275 
L 275.23048 35.054662 
L 336.427333 79.516779 
L 374.249069 145.025946 
L 382.155964 220.255034 
L 358.780846 292.19625 
L 308.165485 348.410304 
L 239.061735 379.177275 
L 163.418265 379.177275 
L 94.314515 348.410304 
L 43.699154 292.19625 
L 20.324036 220.255034 
L 28.230931 145.025946 
L 66.052667 79.516779 
L 127.24952 35.054662 
L 201.24 19.3275 
" clip-path="url(#pf3dc85f47b)" style="fill: none; stroke-dasharray: 1.85,0.8; stroke-dashoffset: 0; stroke: #808080; stroke-width: 0.5"/>
   </g>
   <g id="line2d_7">
    <path d="M 201.24 201.24 
L 201.24 164.8575 
L 201.24 128.475 
L 201.24 92.0925 
L 201.24 55.71 
L 201.24 19.3275 
" clip-path="url(#pf3dc85f47b)" style="fill: none; stroke-dasharray: 1.85,0.8; stroke-dashoffset: 0; stroke: #808080; stroke-width: 0.5"/>
   </g>
   <g id="line2d_8">
    <path d="M 201.24 201.24 
L 216.038096 168.002932 
L 230.836192 134.765865 
L 245.634288 101.528797 
L 260.432384 68.29173 
L 275.23048 35.054662 
" clip-path="url(#pf3dc85f47b)" style="fill: none; stroke-dasharray: 1.85,0.8; stroke-dashoffset: 0; stroke: #808080; stroke-width: 0.5"/>
   </g>
   <g id="line2d_9">
    <path d="M 201.24 201.24 
L 228.277467 176.895356 
L 255.314933 152.550711 
L 282.3524 128.206067 
L 309.389866 103.861423 
L 336.427333 79.516779 
" clip-path="url(#pf3dc85f47b)" style="fill: none; stroke-dasharray: 1.85,0.8; stroke-dashoffset: 0; stroke: #808080; stroke-width: 0.5"/>
   </g>
   <g id="line2d_10">
    <path d="M 201.24 201.24 
L 235.841814 189.997189 
L 270.443627 178.754378 
L 305.045441 167.511568 
L 339.647255 156.268757 
L 374.249069 145.025946 
" clip-path="url(#pf3dc85f47b)" style="fill: none; stroke-dasharray: 1.85,0.8; stroke-dashoffset: 0; stroke: #808080; stroke-width: 0.5"/>
   </g>
   <g id="line2d_11">
    <path d="M 201.24 201.24 
L 237.423193 205.043007 
L 273.606386 208.846014 
L 309.789579 212.64902 
L 345.972771 216.452027 
L 382.155964 220.255034 
" clip-path="url(#pf3dc85f47b)" style="fill: none; stroke-dasharray: 1.85,0.8; stroke-dashoffset: 0; stroke: #808080; stroke-width: 0.5"/>
   </g>
   <g id="line2d_12">
    <path d="M 201.24 201.24 
L 232.748169 219.43125 
L 264.256339 237.6225 
L 295.764508 255.81375 
L 327.272677 274.005 
L 358.780846 292.19625 
" clip-path="url(#pf3dc85f47b)" style="fill: none; stroke-dasharray: 1.85,0.8; stroke-dashoffset: 0; stroke: #808080; stroke-width: 0.5"/>
   </g>
   <g id="line2d_13">
    <path d="M 201.24 201.24 
L 222.625097 230.674061 
L 244.010194 260.108122 
L 265.395291 289.542182 
L 286.780388 318.976243 
L 308.165485 348.410304 
" clip-path="url(#pf3dc85f47b)" style="fill: none; stroke-dasharray: 1.85,0.8; stroke-dashoffset: 0; stroke: #808080; stroke-width: 0.5"/>
   </g>
   <g id="line2d_14">
    <path d="M 201.24 201.24 
L 208.804347 236.827455 
L 216.368694 272.41491 
L 223.933041 308.002365 
L 231.497388 343.58982 
L 239.061735 379.177275 
" clip-path="url(#pf3dc85f47b)" style="fill: none; stroke-dasharray: 1.85,0.8; stroke-dashoffset: 0; stroke: #808080; stroke-width: 0.5"/>
   </g>
   <g id="line2d_15">
    <path d="M 201.24 201.24 
L 193.675653 236.827455 
L 186.111306 272.41491 
L 178.546959 308.002365 
L 170.982612 343.58982 
L 163.418265 379.177275 
" clip-path="url(#pf3dc85f47b)" style="fill: none; stroke-dasharray: 1.85,0.8; stroke-dashoffset: 0; stroke: #808080; stroke-width: 0.5"/>
   </g>
   <g id="line2d_16">
    <path d="M 201.24 201.24 
L 179.854903 230.674061 
L 158.469806 260.108122 
L 137.084709 289.542182 
L 115.699612 318.976243 
L 94.314515 348.410304 
" clip-path="url(#pf3dc85f47b)" style="fill: none; stroke-dasharray: 1.85,0.8; stroke-dashoffset: 0; stroke: #808080; stroke-width: 0.5"/>
   </g>
   <g id="line2d_17">
    <path d="M 201.24 201.24 
L 169.731831 219.43125 
L 138.223661 237.6225 
L 106.715492 255.81375 
L 75.207323 274.005 
L 43.699154 292.19625 
" clip-path="url(#pf3dc85f47b)" style="fill: none; stroke-dasharray: 1.85,0.8; stroke-dashoffset: 0; stroke: #808080; stroke-width: 0.5"/>
   </g>
   <g id="line2d_18">
    <path d="M 201.24 201.24 
L 165.056807 205.043007 
L 128.873614 208.846014 
L 92.690421 212.64902 
L 56.507229 216.452027 
L 20.324036 220.255034 
" clip-path="url(#pf3dc85f47b)" style="fill: none; stroke-dasharray: 1.85,0.8; stroke-dashoffset: 0; stroke: #808080; stroke-width: 0.5"/>
   </g>
   <g id="line2d_19">
    <path d="M 201.24 201.24 
L 166.638186 189.997189 
L 132.036373 178.754378 
L 97.434559 167.511568 
L 62.832745 156.268757 
L 28.230931 145.025946 
" clip-path="url(#pf3dc85f47b)" style="fill: none; stroke-dasharray: 1.85,0.8; stroke-dashoffset: 0; stroke: #808080; stroke-width: 0.5"/>
   </g>
   <g id="line2d_20">
    <path d="M 201.24 201.24 
L 174.202533 176.895356 
L 147.165067 152.550711 
L 120.1276 128.206067 
L 93.090134 103.861423 
L 66.052667 79.516779 
" clip-path="url(#pf3dc85f47b)" style="fill: none; stroke-dasharray: 1.85,0.8; stroke-dashoffset: 0; stroke: #808080; stroke-width: 0.5"/>
   </g>
   <g id="line2d_21">
    <path d="M 201.24 201.24 
L 186.441904 168.002932 
L 171.643808 134.765865 
L 156.845712 101.528797 
L 142.047616 68.29173 
L 127.24952 35.054662 
" clip-path="url(#pf3dc85f47b)" style="fill: none; stroke-dasharray: 1.85,0.8; stroke-dashoffset: 0; stroke: #808080; stroke-width: 0.5"/>
   </g>
   <g id="line2d_22">
    <path d="M 201.24 103.128525 
L 227.107072 143.141606 
L 262.669124 145.928968 
L 316.002682 163.951344 
L 308.318129 212.494365 
L 308.850901 263.369182 
L 256.199699 276.885536 
L 214.699495 264.561945 
L 191.285319 248.073091 
L 152.382182 268.487018 
L 121.734386 247.142587 
L 129.452545 208.785166 
L 150.836691 184.862972 
L 170.309138 173.389727 
L 180.917282 155.594427 
L 201.24 103.128525 
" clip-path="url(#pf3dc85f47b)" style="fill: none; stroke: #dcd844; stroke-width: 5; stroke-linecap: round"/>
    <defs>
     <path id="m2572e056b9" d="M 0 4 
C 1.060812 4 2.078319 3.578535 2.828427 2.828427 
C 3.578535 2.078319 4 1.060812 4 0 
C 4 -1.060812 3.578535 -2.078319 2.828427 -2.828427 
C 2.078319 -3.578535 1.060812 -4 0 -4 
C -1.060812 -4 -2.078319 -3.578535 -2.828427 -2.828427 
C -3.578535 -2.078319 -4 -1.060812 -4 0 
C -4 1.060812 -3.578535 2.078319 -2.828427 2.828427 
C -2.078319 3.578535 -1.060812 4 0 4 
z
" style="stroke: #dcd844"/>
    </defs>
    <g clip-path="url(#pf3dc85f47b)">
     <use xlink:href="#m2572e056b9" x="201.24" y="103.128525" style="fill: #dcd844; stroke: #dcd844"/>
     <use xlink:href="#m2572e056b9" x="227.107072" y="143.141606" style="fill: #dcd844; stroke: #dcd844"/>
     <use xlink:href="#m2572e056b9" x="262.669124" y="145.928968" style="fill: #dcd844; stroke: #dcd844"/>
     <use xlink:href="#m2572e056b9" x="316.002682" y="163.951344" style="fill: #dcd844; stroke: #dcd844"/>
     <use xlink:href="#m2572e056b9" x="308.318129" y="212.494365" style="fill: #dcd844; stroke: #dcd844"/>
     <use xlink:href="#m2572e056b9" x="308.850901" y="263.369182" style="fill: #dcd844; stroke: #dcd844"/>
     <use xlink:href="#m2572e056b9" x="256.199699" y="276.885536" style="fill: #dcd844; stroke: #dcd844"/>
     <use xlink:href="#m2572e056b9" x="214.699495" y="264.561945" style="fill: #dcd844; stroke: #dcd844"/>
     <use xlink:href="#m2572e056b9" x="191.285319" y="248.073091" style="fill: #dcd844; stroke: #dcd844"/>
     <use xlink:href="#m2572e056b9" x="152.382182" y="268.487018" style="fill: #dcd844; stroke: #dcd844"/>
     <use xlink:href="#m2572e056b9" x="121.734386" y="247.142587" style="fill: #dcd844; stroke: #dcd844"/>
     <use xlink:href="#m2572e056b9" x="129.452545" y="208.785166" style="fill: #dcd844; stroke: #dcd844"/>
     <use xlink:href="#m2572e056b9" x="150.836691" y="184.862972" style="fill: #dcd844; stroke: #dcd844"/>
     <use xlink:href="#m2572e056b9" x="170.309138" y="173.389727" style="fill: #dcd844; stroke: #dcd844"/>
     <use xlink:href="#m2572e056b9" x="180.917282" y="155.594427" style="fill: #dcd844; stroke: #dcd844"/>
     <use xlink:href="#m2572e056b9" x="201.24" y="103.128525" style="fill: #dcd844; stroke: #dcd844"/>
    </g>
   </g>
   <g id="line2d_23">
    <path d="M 201.24 104.75361 
L 219.155561 161.00099 
L 259.442653 148.834096 
L 307.4445 166.732066 
L 307.956297 212.456335 
L 311.938701 265.151925 
L 253.861595 273.667412 
L 214.417093 263.233347 
L 191.23489 248.310341 
L 151.669345 269.468153 
L 114.550524 251.290192 
L 124.893463 209.264344 
L 139.856382 181.295254 
L 170.038764 173.14628 
L 186.530693 168.202355 
L 201.24 104.75361 
" clip-path="url(#pf3dc85f47b)" style="fill: none; stroke: #c00000; stroke-width: 5; stroke-linecap: round"/>
    <defs>
     <path id="m9c084ec68b" d="M 0 4 
C 1.060812 4 2.078319 3.578535 2.828427 2.828427 
C 3.578535 2.078319 4 1.060812 4 0 
C 4 -1.060812 3.578535 -2.078319 2.828427 -2.828427 
C 2.078319 -3.578535 1.060812 -4 0 -4 
C -1.060812 -4 -2.078319 -3.578535 -2.828427 -2.828427 
C -3.578535 -2.078319 -4 -1.060812 -4 0 
C -4 1.060812 -3.578535 2.078319 -2.828427 2.828427 
C -2.078319 3.578535 -1.060812 4 0 4 
z
" style="stroke: #c00000"/>
    </defs>
    <g clip-path="url(#pf3dc85f47b)">
     <use xlink:href="#m9c084ec68b" x="201.24" y="104.75361" style="fill: #c00000; stroke: #c00000"/>
     <use xlink:href="#m9c084ec68b" x="219.155561" y="161.00099" style="fill: #c00000; stroke: #c00000"/>
     <use xlink:href="#m9c084ec68b" x="259.442653" y="148.834096" style="fill: #c00000; stroke: #c00000"/>
     <use xlink:href="#m9c084ec68b" x="307.4445" y="166.732066" style="fill: #c00000; stroke: #c00000"/>
     <use xlink:href="#m9c084ec68b" x="307.956297" y="212.456335" style="fill: #c00000; stroke: #c00000"/>
     <use xlink:href="#m9c084ec68b" x="311.938701" y="265.151925" style="fill: #c00000; stroke: #c00000"/>
     <use xlink:href="#m9c084ec68b" x="253.861595" y="273.667412" style="fill: #c00000; stroke: #c00000"/>
     <use xlink:href="#m9c084ec68b" x="214.417093" y="263.233347" style="fill: #c00000; stroke: #c00000"/>
     <use xlink:href="#m9c084ec68b" x="191.23489" y="248.310341" style="fill: #c00000; stroke: #c00000"/>
     <use xlink:href="#m9c084ec68b" x="151.669345" y="269.468153" style="fill: #c00000; stroke: #c00000"/>
     <use xlink:href="#m9c084ec68b" x="114.550524" y="251.290192" style="fill: #c00000; stroke: #c00000"/>
     <use xlink:href="#m9c084ec68b" x="124.893463" y="209.264344" style="fill: #c00000; stroke: #c00000"/>
     <use xlink:href="#m9c084ec68b" x="139.856382" y="181.295254" style="fill: #c00000; stroke: #c00000"/>
     <use xlink:href="#m9c084ec68b" x="170.038764" y="173.14628" style="fill: #c00000; stroke: #c00000"/>
     <use xlink:href="#m9c084ec68b" x="186.530693" y="168.202355" style="fill: #c00000; stroke: #c00000"/>
     <use xlink:href="#m9c084ec68b" x="201.24" y="104.75361" style="fill: #c00000; stroke: #c00000"/>
    </g>
   </g>
   <g id="line2d_24">
    <path d="M 201.24 131.021775 
L 213.226458 174.317975 
L 232.657536 172.951523 
L 296.325784 170.344756 
L 317.243316 213.43244 
L 316.664927 267.880612 
L 268.945217 294.428236 
L 218.158923 280.837275 
L 196.252574 224.703995 
L 161.805881 255.516408 
L 129.107298 242.885835 
L 146.000326 207.045924 
L 164.146856 189.187707 
L 187.522992 188.88915 
L 190.210486 176.467306 
L 201.24 131.021775 
" clip-path="url(#pf3dc85f47b)" style="fill: none; stroke: #0033cc; stroke-width: 5; stroke-linecap: round"/>
    <defs>
     <path id="m886fbb9f95" d="M 0 4 
C 1.060812 4 2.078319 3.578535 2.828427 2.828427 
C 3.578535 2.078319 4 1.060812 4 0 
C 4 -1.060812 3.578535 -2.078319 2.828427 -2.828427 
C 2.078319 -3.578535 1.060812 -4 0 -4 
C -1.060812 -4 -2.078319 -3.578535 -2.828427 -2.828427 
C -3.578535 -2.078319 -4 -1.060812 -4 0 
C -4 1.060812 -3.578535 2.078319 -2.828427 2.828427 
C -2.078319 3.578535 -1.060812 4 0 4 
z
" style="stroke: #0033cc"/>
    </defs>
    <g clip-path="url(#pf3dc85f47b)">
     <use xlink:href="#m886fbb9f95" x="201.24" y="131.021775" style="fill: #0033cc; stroke: #0033cc"/>
     <use xlink:href="#m886fbb9f95" x="213.226458" y="174.317975" style="fill: #0033cc; stroke: #0033cc"/>
     <use xlink:href="#m886fbb9f95" x="232.657536" y="172.951523" style="fill: #0033cc; stroke: #0033cc"/>
     <use xlink:href="#m886fbb9f95" x="296.325784" y="170.344756" style="fill: #0033cc; stroke: #0033cc"/>
     <use xlink:href="#m886fbb9f95" x="317.243316" y="213.43244" style="fill: #0033cc; stroke: #0033cc"/>
     <use xlink:href="#m886fbb9f95" x="316.664927" y="267.880612" style="fill: #0033cc; stroke: #0033cc"/>
     <use xlink:href="#m886fbb9f95" x="268.945217" y="294.428236" style="fill: #0033cc; stroke: #0033cc"/>
     <use xlink:href="#m886fbb9f95" x="218.158923" y="280.837275" style="fill: #0033cc; stroke: #0033cc"/>
     <use xlink:href="#m886fbb9f95" x="196.252574" y="224.703995" style="fill: #0033cc; stroke: #0033cc"/>
     <use xlink:href="#m886fbb9f95" x="161.805881" y="255.516408" style="fill: #0033cc; stroke: #0033cc"/>
     <use xlink:href="#m886fbb9f95" x="129.107298" y="242.885835" style="fill: #0033cc; stroke: #0033cc"/>
     <use xlink:href="#m886fbb9f95" x="146.000326" y="207.045924" style="fill: #0033cc; stroke: #0033cc"/>
     <use xlink:href="#m886fbb9f95" x="164.146856" y="189.187707" style="fill: #0033cc; stroke: #0033cc"/>
     <use xlink:href="#m886fbb9f95" x="187.522992" y="188.88915" style="fill: #0033cc; stroke: #0033cc"/>
     <use xlink:href="#m886fbb9f95" x="190.210486" y="176.467306" style="fill: #0033cc; stroke: #0033cc"/>
     <use xlink:href="#m886fbb9f95" x="201.24" y="131.021775" style="fill: #0033cc; stroke: #0033cc"/>
    </g>
   </g>
   <g id="text_1">
    <!-- 0.15 -->
    <g style="fill: #262626" transform="translate(183.827805 236.901985) scale(0.15 -0.15)">
     <defs>
      <path id="Arial-BoldMT-30" d="M 1756 4600 
Q 2422 4600 2797 4125 
Q 3244 3563 3244 2259 
Q 3244 959 2794 391 
Q 2422 -78 1756 -78 
Q 1088 -78 678 436 
Q 269 950 269 2269 
Q 269 3563 719 4131 
Q 1091 4600 1756 4600 
z
M 1756 3872 
Q 1597 3872 1472 3770 
Q 1347 3669 1278 3406 
Q 1188 3066 1188 2259 
Q 1188 1453 1269 1151 
Q 1350 850 1473 750 
Q 1597 650 1756 650 
Q 1916 650 2041 751 
Q 2166 853 2234 1116 
Q 2325 1453 2325 2259 
Q 2325 3066 2244 3367 
Q 2163 3669 2039 3770 
Q 1916 3872 1756 3872 
z
" transform="scale(0.015625)"/>
      <path id="Arial-BoldMT-2e" d="M 459 0 
L 459 878 
L 1338 878 
L 1338 0 
L 459 0 
z
" transform="scale(0.015625)"/>
      <path id="Arial-BoldMT-31" d="M 2519 0 
L 1641 0 
L 1641 3309 
Q 1159 2859 506 2644 
L 506 3441 
Q 850 3553 1253 3867 
Q 1656 4181 1806 4600 
L 2519 4600 
L 2519 0 
z
" transform="scale(0.015625)"/>
      <path id="Arial-BoldMT-35" d="M 284 1178 
L 1159 1269 
Q 1197 972 1381 798 
Q 1566 625 1806 625 
Q 2081 625 2272 848 
Q 2463 1072 2463 1522 
Q 2463 1944 2273 2155 
Q 2084 2366 1781 2366 
Q 1403 2366 1103 2031 
L 391 2134 
L 841 4519 
L 3163 4519 
L 3163 3697 
L 1506 3697 
L 1369 2919 
Q 1663 3066 1969 3066 
Q 2553 3066 2959 2641 
Q 3366 2216 3366 1538 
Q 3366 972 3038 528 
Q 2591 -78 1797 -78 
Q 1163 -78 763 262 
Q 363 603 284 1178 
z
" transform="scale(0.015625)"/>
     </defs>
     <use xlink:href="#Arial-BoldMT-30"/>
     <use xlink:href="#Arial-BoldMT-2e" x="55.615234"/>
     <use xlink:href="#Arial-BoldMT-31" x="83.398438"/>
     <use xlink:href="#Arial-BoldMT-35" x="139.013672"/>
    </g>
   </g>
   <g id="text_2">
    <!-- 0.30 -->
    <g style="fill: #262626" transform="translate(176.263458 272.48944) scale(0.15 -0.15)">
     <defs>
      <path id="Arial-BoldMT-33" d="M 241 1216 
L 1091 1319 
Q 1131 994 1309 822 
Q 1488 650 1741 650 
Q 2013 650 2198 856 
Q 2384 1063 2384 1413 
Q 2384 1744 2206 1937 
Q 2028 2131 1772 2131 
Q 1603 2131 1369 2066 
L 1466 2781 
Q 1822 2772 2009 2936 
Q 2197 3100 2197 3372 
Q 2197 3603 2059 3740 
Q 1922 3878 1694 3878 
Q 1469 3878 1309 3722 
Q 1150 3566 1116 3266 
L 306 3403 
Q 391 3819 561 4067 
Q 731 4316 1036 4458 
Q 1341 4600 1719 4600 
Q 2366 4600 2756 4188 
Q 3078 3850 3078 3425 
Q 3078 2822 2419 2463 
Q 2813 2378 3048 2084 
Q 3284 1791 3284 1375 
Q 3284 772 2843 347 
Q 2403 -78 1747 -78 
Q 1125 -78 715 280 
Q 306 638 241 1216 
z
" transform="scale(0.015625)"/>
     </defs>
     <use xlink:href="#Arial-BoldMT-30"/>
     <use xlink:href="#Arial-BoldMT-2e" x="55.615234"/>
     <use xlink:href="#Arial-BoldMT-33" x="83.398438"/>
     <use xlink:href="#Arial-BoldMT-30" x="139.013672"/>
    </g>
   </g>
   <g id="text_3">
    <!-- 0.45 -->
    <g style="fill: #262626" transform="translate(168.699111 308.076895) scale(0.15 -0.15)">
     <defs>
      <path id="Arial-BoldMT-34" d="M 1994 0 
L 1994 922 
L 119 922 
L 119 1691 
L 2106 4600 
L 2844 4600 
L 2844 1694 
L 3413 1694 
L 3413 922 
L 2844 922 
L 2844 0 
L 1994 0 
z
M 1994 1694 
L 1994 3259 
L 941 1694 
L 1994 1694 
z
" transform="scale(0.015625)"/>
     </defs>
     <use xlink:href="#Arial-BoldMT-30"/>
     <use xlink:href="#Arial-BoldMT-2e" x="55.615234"/>
     <use xlink:href="#Arial-BoldMT-34" x="83.398438"/>
     <use xlink:href="#Arial-BoldMT-35" x="139.013672"/>
    </g>
   </g>
   <g id="text_4">
    <!-- 0.60 -->
    <g style="fill: #262626" transform="translate(161.134764 343.66435) scale(0.15 -0.15)">
     <defs>
      <path id="Arial-BoldMT-36" d="M 3247 3459 
L 2397 3366 
Q 2366 3628 2234 3753 
Q 2103 3878 1894 3878 
Q 1616 3878 1423 3628 
Q 1231 3378 1181 2588 
Q 1509 2975 1997 2975 
Q 2547 2975 2939 2556 
Q 3331 2138 3331 1475 
Q 3331 772 2918 347 
Q 2506 -78 1859 -78 
Q 1166 -78 719 461 
Q 272 1000 272 2228 
Q 272 3488 737 4044 
Q 1203 4600 1947 4600 
Q 2469 4600 2811 4308 
Q 3153 4016 3247 3459 
z
M 1256 1544 
Q 1256 1116 1453 883 
Q 1650 650 1903 650 
Q 2147 650 2309 840 
Q 2472 1031 2472 1466 
Q 2472 1913 2297 2120 
Q 2122 2328 1859 2328 
Q 1606 2328 1431 2129 
Q 1256 1931 1256 1544 
z
" transform="scale(0.015625)"/>
     </defs>
     <use xlink:href="#Arial-BoldMT-30"/>
     <use xlink:href="#Arial-BoldMT-2e" x="55.615234"/>
     <use xlink:href="#Arial-BoldMT-36" x="83.398438"/>
     <use xlink:href="#Arial-BoldMT-30" x="139.013672"/>
    </g>
   </g>
   <g id="text_5">
    <!-- 0.75 -->
    <g style="fill: #262626" transform="translate(153.570417 379.251805) scale(0.15 -0.15)">
     <defs>
      <path id="Arial-BoldMT-37" d="M 272 3703 
L 272 4519 
L 3275 4519 
L 3275 3881 
Q 2903 3516 2518 2831 
Q 2134 2147 1932 1376 
Q 1731 606 1734 0 
L 888 0 
Q 909 950 1279 1937 
Q 1650 2925 2269 3703 
L 272 3703 
z
" transform="scale(0.015625)"/>
     </defs>
     <use xlink:href="#Arial-BoldMT-30"/>
     <use xlink:href="#Arial-BoldMT-2e" x="55.615234"/>
     <use xlink:href="#Arial-BoldMT-37" x="83.398438"/>
     <use xlink:href="#Arial-BoldMT-35" x="139.013672"/>
    </g>
   </g>
  </g>
 </g>
 <defs>
  <clipPath id="pf3dc85f47b">
   <path d="M 395.28 201.24 
C 395.28 175.758901 390.260779 150.525573 380.509584 126.984107 
C 370.75839 103.442641 356.464858 82.050858 338.447 64.033 
C 320.429142 46.015142 299.037359 31.72161 275.495893 21.970416 
C 251.954427 12.219221 226.721099 7.2 201.24 7.2 
C 175.758901 7.2 150.525573 12.219221 126.984107 21.970416 
C 103.442641 31.72161 82.050858 46.015142 64.033 64.033 
C 46.015142 82.050858 31.72161 103.442641 21.970416 126.984107 
C 12.219221 150.525573 7.2 175.758901 7.2 201.24 
C 7.2 226.721099 12.219221 251.954427 21.970416 275.495893 
C 31.72161 299.037359 46.015142 320.429142 64.033 338.447 
C 82.050858 356.464858 103.442641 370.75839 126.984107 380.509584 
C 150.525573 390.260779 175.758901 395.28 201.24 395.28 
C 226.721099 395.28 251.954427 390.260779 275.495893 380.509584 
C 299.037359 370.75839 320.429142 356.464858 338.447 338.447 
C 356.464858 320.429142 370.75839 299.037359 380.509584 275.495893 
C 390.260779 251.954427 395.28 226.721099 395.28 201.24 
M 201.24 201.24 
C 201.24 201.24 201.24 201.24 201.24 201.24 
C 201.24 201.24 201.24 201.24 201.24 201.24 
C 201.24 201.24 201.24 201.24 201.24 201.24 
C 201.24 201.24 201.24 201.24 201.24 201.24 
C 201.24 201.24 201.24 201.24 201.24 201.24 
C 201.24 201.24 201.24 201.24 201.24 201.24 
C 201.24 201.24 201.24 201.24 201.24 201.24 
C 201.24 201.24 201.24 201.24 201.24 201.24 
C 201.24 201.24 201.24 201.24 201.24 201.24 
C 201.24 201.24 201.24 201.24 201.24 201.24 
C 201.24 201.24 201.24 201.24 201.24 201.24 
C 201.24 201.24 201.24 201.24 201.24 201.24 
C 201.24 201.24 201.24 201.24 201.24 201.24 
C 201.24 201.24 201.24 201.24 201.24 201.24 
C 201.24 201.24 201.24 201.24 201.24 201.24 
C 201.24 201.24 201.24 201.24 201.24 201.24 
z
"/>
  </clipPath>
 </defs>
</svg>
