<?xml version="1.0" encoding="utf-8" standalone="no"?>
<!DOCTYPE svg PUBLIC "-//W3C//DTD SVG 1.1//EN"
  "http://www.w3.org/Graphics/SVG/1.1/DTD/svg11.dtd">
<svg xmlns:xlink="http://www.w3.org/1999/xlink" width="402.48pt" height="402.48pt" viewBox="0 0 402.48 402.48" xmlns="http://www.w3.org/2000/svg" version="1.1">
 <metadata>
  <rdf:RDF xmlns:dc="http://purl.org/dc/elements/1.1/" xmlns:cc="http://creativecommons.org/ns#" xmlns:rdf="http://www.w3.org/1999/02/22-rdf-syntax-ns#">
   <cc:Work>
    <dc:type rdf:resource="http://purl.org/dc/dcmitype/StillImage"/>
    <dc:date>2025-11-20T13:09:35.919597</dc:date>
    <dc:format>image/svg+xml</dc:format>
    <dc:creator>
     <cc:Agent>
      <dc:title>Matplotlib v3.9.2, https://matplotlib.org/</dc:title>
     </cc:Agent>
    </dc:creator>
   </cc:Work>
  </rdf:RDF>
 </metadata>
 <defs>
  <style type="text/css">*{stroke-linejoin: round; stroke-linecap: butt}</style>
 </defs>
 <g id="figure_1">
  <g id="patch_1">
   <path d="M 0 402.48 
L 402.48 402.48 
L 402.48 -0 
L 0 -0 
L 0 402.48 
z
" style="fill: none"/>
  </g>
  <g id="axes_1">
   <g id="patch_2">
    <path d="M 395.28 201.24 
C 395.28 175.758901 390.260779 150.525573 380.509584 126.984107 
C 370.75839 103.442641 356.464858 82.050858 338.447 64.033 
C 320.429142 46.015142 299.037359 31.72161 275.495893 21.970416 
C 251.954427 12.219221 226.721099 7.2 201.24 7.2 
C 175.758901 7.2 150.525573 12.219221 126.984107 21.970416 
C 103.442641 31.72161 82.050858 46.015142 64.033 64.033 
C 46.015142 82.050858 31.72161 103.442641 21.970416 126.984107 
C 12.219221 150.525573 7.2 175.758901 7.2 201.24 
C 7.2 226.721099 12.219221 251.954427 21.970416 275.495893 
C 31.72161 299.037359 46.015142 320.429142 64.033 338.447 
C 82.050858 356.464858 103.442641 370.75839 126.984107 380.509584 
C 150.525573 390.260779 175.758901 395.28 201.24 395.28 
C 226.721099 395.28 251.954427 390.260779 275.495893 380.509584 
C 299.037359 370.75839 320.429142 356.464858 338.447 338.447 
C 356.464858 320.429142 370.75839 299.037359 380.509584 275.495893 
C 390.260779 251.954427 395.28 226.721099 395.28 201.24 
M 201.24 201.24 
C 201.24 201.24 201.24 201.24 201.24 201.24 
C 201.24 201.24 201.24 201.24 201.24 201.24 
C 201.24 201.24 201.24 201.24 201.24 201.24 
C 201.24 201.24 201.24 201.24 201.24 201.24 
C 201.24 201.24 201.24 201.24 201.24 201.24 
C 201.24 201.24 201.24 201.24 201.24 201.24 
C 201.24 201.24 201.24 201.24 201.24 201.24 
C 201.24 201.24 201.24 201.24 201.24 201.24 
C 201.24 201.24 201.24 201.24 201.24 201.24 
C 201.24 201.24 201.24 201.24 201.24 201.24 
C 201.24 201.24 201.24 201.24 201.24 201.24 
C 201.24 201.24 201.24 201.24 201.24 201.24 
C 201.24 201.24 201.24 201.24 201.24 201.24 
C 201.24 201.24 201.24 201.24 201.24 201.24 
C 201.24 201.24 201.24 201.24 201.24 201.24 
C 201.24 201.24 201.24 201.24 201.24 201.24 
L 201.24 201.24 
z
" style="fill: none"/>
   </g>
   <g id="matplotlib.axis_1">
    <g id="xtick_1"/>
    <g id="xtick_2"/>
    <g id="xtick_3"/>
    <g id="xtick_4"/>
    <g id="xtick_5"/>
    <g id="xtick_6"/>
    <g id="xtick_7"/>
    <g id="xtick_8"/>
    <g id="xtick_9"/>
    <g id="xtick_10"/>
    <g id="xtick_11"/>
    <g id="xtick_12"/>
    <g id="xtick_13"/>
    <g id="xtick_14"/>
    <g id="xtick_15"/>
   </g>
   <g id="matplotlib.axis_2">
    <g id="ytick_1"/>
    <g id="ytick_2"/>
    <g id="ytick_3"/>
    <g id="ytick_4"/>
    <g id="ytick_5"/>
    <g id="ytick_6"/>
    <g id="ytick_7"/>
   </g>
   <g id="line2d_1">
    <path d="M 201.24 173.52 
L 212.51474 175.91652 
L 221.839975 182.6917 
L 227.603287 192.674049 
L 228.808147 204.137529 
L 225.246224 215.1 
L 217.533407 223.665951 
L 207.003312 228.354251 
L 195.476688 228.354251 
L 184.946593 223.665951 
L 177.233776 215.1 
L 173.671853 204.137529 
L 174.876713 192.674049 
L 180.640025 182.6917 
L 189.96526 175.91652 
L 201.24 173.52 
" clip-path="url(#p56bc9075aa)" style="fill: none; stroke-dasharray: 1.85,0.8; stroke-dashoffset: 0; stroke: #808080; stroke-width: 0.5"/>
   </g>
   <g id="line2d_2">
    <path d="M 201.24 145.8 
L 223.789479 150.59304 
L 242.439949 164.143399 
L 253.966573 184.108098 
L 256.376294 207.035058 
L 249.252448 228.96 
L 233.826814 246.091902 
L 212.766624 255.468503 
L 189.713376 255.468503 
L 168.653186 246.091902 
L 153.227552 228.96 
L 146.103706 207.035058 
L 148.513427 184.108098 
L 160.040051 164.143399 
L 178.690521 150.59304 
L 201.24 145.8 
" clip-path="url(#p56bc9075aa)" style="fill: none; stroke-dasharray: 1.85,0.8; stroke-dashoffset: 0; stroke: #808080; stroke-width: 0.5"/>
   </g>
   <g id="line2d_3">
    <path d="M 201.24 118.08 
L 235.064219 125.26956 
L 263.039924 145.595099 
L 280.32986 175.542147 
L 283.944441 209.932587 
L 273.258673 242.82 
L 250.120222 268.517853 
L 218.529936 282.582754 
L 183.950064 282.582754 
L 152.359778 268.517853 
L 129.221327 242.82 
L 118.535559 209.932587 
L 122.15014 175.542147 
L 139.440076 145.595099 
L 167.415781 125.26956 
L 201.24 118.08 
" clip-path="url(#p56bc9075aa)" style="fill: none; stroke-dasharray: 1.85,0.8; stroke-dashoffset: 0; stroke: #808080; stroke-width: 0.5"/>
   </g>
   <g id="line2d_4">
    <path d="M 201.24 90.36 
L 246.338959 99.94608 
L 283.639898 127.046798 
L 306.693147 166.976196 
L 311.512588 212.830116 
L 297.264897 256.68 
L 266.413629 290.943804 
L 224.293248 309.697006 
L 178.186752 309.697006 
L 136.066371 290.943804 
L 105.215103 256.68 
L 90.967412 212.830116 
L 95.786853 166.976196 
L 118.840102 127.046798 
L 156.141041 99.94608 
L 201.24 90.36 
" clip-path="url(#p56bc9075aa)" style="fill: none; stroke-dasharray: 1.85,0.8; stroke-dashoffset: 0; stroke: #808080; stroke-width: 0.5"/>
   </g>
   <g id="line2d_5">
    <path d="M 201.24 62.64 
L 257.613699 74.6226 
L 304.239873 108.498498 
L 333.056433 158.410245 
L 339.080735 215.727645 
L 321.271121 270.54 
L 282.707036 313.369755 
L 230.05656 336.811257 
L 172.42344 336.811257 
L 119.772964 313.369755 
L 81.208879 270.54 
L 63.399265 215.727645 
L 69.423567 158.410245 
L 98.240127 108.498498 
L 144.866301 74.6226 
L 201.24 62.64 
" clip-path="url(#p56bc9075aa)" style="fill: none; stroke-dasharray: 1.85,0.8; stroke-dashoffset: 0; stroke: #808080; stroke-width: 0.5"/>
   </g>
   <g id="line2d_6">
    <path d="M 201.24 34.92 
L 268.888438 49.299119 
L 324.839847 89.950198 
L 359.41972 149.844293 
L 366.648882 218.625174 
L 345.277345 284.4 
L 299.000443 335.795707 
L 235.819872 363.925509 
L 166.660128 363.925509 
L 103.479557 335.795707 
L 57.202655 284.4 
L 35.831118 218.625174 
L 43.06028 149.844293 
L 77.640153 89.950198 
L 133.591562 49.299119 
L 201.24 34.92 
" clip-path="url(#p56bc9075aa)" style="fill: none; stroke-dasharray: 1.85,0.8; stroke-dashoffset: 0; stroke: #808080; stroke-width: 0.5"/>
   </g>
   <g id="line2d_7">
    <path d="M 201.24 7.2 
L 280.163178 23.975639 
L 345.439822 71.401897 
L 385.783006 141.278342 
L 394.217029 221.522703 
L 369.283569 298.26 
L 315.29385 358.221658 
L 241.583184 391.03976 
L 160.896816 391.03976 
L 87.18615 358.221658 
L 33.196431 298.26 
L 8.262971 221.522703 
L 16.696994 141.278342 
L 57.040178 71.401897 
L 122.316822 23.975639 
L 201.24 7.2 
" clip-path="url(#p56bc9075aa)" style="fill: none; stroke-dasharray: 1.85,0.8; stroke-dashoffset: 0; stroke: #808080; stroke-width: 0.5"/>
   </g>
   <g id="line2d_8">
    <path d="M 201.24 173.52 
L 201.24 145.8 
L 201.24 118.08 
L 201.24 90.36 
L 201.24 62.64 
L 201.24 34.92 
L 201.24 7.2 
" clip-path="url(#p56bc9075aa)" style="fill: none; stroke-dasharray: 1.85,0.8; stroke-dashoffset: 0; stroke: #808080; stroke-width: 0.5"/>
   </g>
   <g id="line2d_9">
    <path d="M 212.51474 175.91652 
L 223.789479 150.59304 
L 235.064219 125.26956 
L 246.338959 99.94608 
L 257.613699 74.6226 
L 268.888438 49.299119 
L 280.163178 23.975639 
" clip-path="url(#p56bc9075aa)" style="fill: none; stroke-dasharray: 1.85,0.8; stroke-dashoffset: 0; stroke: #808080; stroke-width: 0.5"/>
   </g>
   <g id="line2d_10">
    <path d="M 221.839975 182.6917 
L 242.439949 164.143399 
L 263.039924 145.595099 
L 283.639898 127.046798 
L 304.239873 108.498498 
L 324.839847 89.950198 
L 345.439822 71.401897 
" clip-path="url(#p56bc9075aa)" style="fill: none; stroke-dasharray: 1.85,0.8; stroke-dashoffset: 0; stroke: #808080; stroke-width: 0.5"/>
   </g>
   <g id="line2d_11">
    <path d="M 227.603287 192.674049 
L 253.966573 184.108098 
L 280.32986 175.542147 
L 306.693147 166.976196 
L 333.056433 158.410245 
L 359.41972 149.844293 
L 385.783006 141.278342 
" clip-path="url(#p56bc9075aa)" style="fill: none; stroke-dasharray: 1.85,0.8; stroke-dashoffset: 0; stroke: #808080; stroke-width: 0.5"/>
   </g>
   <g id="line2d_12">
    <path d="M 228.808147 204.137529 
L 256.376294 207.035058 
L 283.944441 209.932587 
L 311.512588 212.830116 
L 339.080735 215.727645 
L 366.648882 218.625174 
L 394.217029 221.522703 
" clip-path="url(#p56bc9075aa)" style="fill: none; stroke-dasharray: 1.85,0.8; stroke-dashoffset: 0; stroke: #808080; stroke-width: 0.5"/>
   </g>
   <g id="line2d_13">
    <path d="M 225.246224 215.1 
L 249.252448 228.96 
L 273.258673 242.82 
L 297.264897 256.68 
L 321.271121 270.54 
L 345.277345 284.4 
L 369.283569 298.26 
" clip-path="url(#p56bc9075aa)" style="fill: none; stroke-dasharray: 1.85,0.8; stroke-dashoffset: 0; stroke: #808080; stroke-width: 0.5"/>
   </g>
   <g id="line2d_14">
    <path d="M 217.533407 223.665951 
L 233.826814 246.091902 
L 250.120222 268.517853 
L 266.413629 290.943804 
L 282.707036 313.369755 
L 299.000443 335.795707 
L 315.29385 358.221658 
" clip-path="url(#p56bc9075aa)" style="fill: none; stroke-dasharray: 1.85,0.8; stroke-dashoffset: 0; stroke: #808080; stroke-width: 0.5"/>
   </g>
   <g id="line2d_15">
    <path d="M 207.003312 228.354251 
L 212.766624 255.468503 
L 218.529936 282.582754 
L 224.293248 309.697006 
L 230.05656 336.811257 
L 235.819872 363.925509 
L 241.583184 391.03976 
" clip-path="url(#p56bc9075aa)" style="fill: none; stroke-dasharray: 1.85,0.8; stroke-dashoffset: 0; stroke: #808080; stroke-width: 0.5"/>
   </g>
   <g id="line2d_16">
    <path d="M 195.476688 228.354251 
L 189.713376 255.468503 
L 183.950064 282.582754 
L 178.186752 309.697006 
L 172.42344 336.811257 
L 166.660128 363.925509 
L 160.896816 391.03976 
" clip-path="url(#p56bc9075aa)" style="fill: none; stroke-dasharray: 1.85,0.8; stroke-dashoffset: 0; stroke: #808080; stroke-width: 0.5"/>
   </g>
   <g id="line2d_17">
    <path d="M 184.946593 223.665951 
L 168.653186 246.091902 
L 152.359778 268.517853 
L 136.066371 290.943804 
L 119.772964 313.369755 
L 103.479557 335.795707 
L 87.18615 358.221658 
" clip-path="url(#p56bc9075aa)" style="fill: none; stroke-dasharray: 1.85,0.8; stroke-dashoffset: 0; stroke: #808080; stroke-width: 0.5"/>
   </g>
   <g id="line2d_18">
    <path d="M 177.233776 215.1 
L 153.227552 228.96 
L 129.221327 242.82 
L 105.215103 256.68 
L 81.208879 270.54 
L 57.202655 284.4 
L 33.196431 298.26 
" clip-path="url(#p56bc9075aa)" style="fill: none; stroke-dasharray: 1.85,0.8; stroke-dashoffset: 0; stroke: #808080; stroke-width: 0.5"/>
   </g>
   <g id="line2d_19">
    <path d="M 173.671853 204.137529 
L 146.103706 207.035058 
L 118.535559 209.932587 
L 90.967412 212.830116 
L 63.399265 215.727645 
L 35.831118 218.625174 
L 8.262971 221.522703 
" clip-path="url(#p56bc9075aa)" style="fill: none; stroke-dasharray: 1.85,0.8; stroke-dashoffset: 0; stroke: #808080; stroke-width: 0.5"/>
   </g>
   <g id="line2d_20">
    <path d="M 174.876713 192.674049 
L 148.513427 184.108098 
L 122.15014 175.542147 
L 95.786853 166.976196 
L 69.423567 158.410245 
L 43.06028 149.844293 
L 16.696994 141.278342 
" clip-path="url(#p56bc9075aa)" style="fill: none; stroke-dasharray: 1.85,0.8; stroke-dashoffset: 0; stroke: #808080; stroke-width: 0.5"/>
   </g>
   <g id="line2d_21">
    <path d="M 180.640025 182.6917 
L 160.040051 164.143399 
L 139.440076 145.595099 
L 118.840102 127.046798 
L 98.240127 108.498498 
L 77.640153 89.950198 
L 57.040178 71.401897 
" clip-path="url(#p56bc9075aa)" style="fill: none; stroke-dasharray: 1.85,0.8; stroke-dashoffset: 0; stroke: #808080; stroke-width: 0.5"/>
   </g>
   <g id="line2d_22">
    <path d="M 189.96526 175.91652 
L 178.690521 150.59304 
L 167.415781 125.26956 
L 156.141041 99.94608 
L 144.866301 74.6226 
L 133.591562 49.299119 
L 122.316822 23.975639 
" clip-path="url(#p56bc9075aa)" style="fill: none; stroke-dasharray: 1.85,0.8; stroke-dashoffset: 0; stroke: #808080; stroke-width: 0.5"/>
   </g>
   <g id="line2d_23">
    <path d="M 201.24 76.11192 
L 234.320086 126.940909 
L 279.416903 130.8492 
L 341.439958 155.686272 
L 339.494257 215.771108 
L 340.116007 281.4201 
L 274.446279 301.999798 
L 221.636361 297.197336 
L 185.408182 275.722849 
L 145.646895 277.757345 
L 92.611836 263.9565 
L 95.075066 212.398384 
L 119.434722 174.659854 
L 153.654059 158.393426 
L 169.60308 130.182315 
L 201.24 76.11192 
" clip-path="url(#p56bc9075aa)" style="fill: none; stroke: #c00000; stroke-width: 5; stroke-linecap: round"/>
    <defs>
     <path id="m9d524318f6" d="M 0 4 
C 1.060812 4 2.078319 3.578535 2.828427 2.828427 
C 3.578535 2.078319 4 1.060812 4 0 
C 4 -1.060812 3.578535 -2.078319 2.828427 -2.828427 
C 2.078319 -3.578535 1.060812 -4 0 -4 
C -1.060812 -4 -2.078319 -3.578535 -2.828427 -2.828427 
C -3.578535 -2.078319 -4 -1.060812 -4 0 
C -4 1.060812 -3.578535 2.078319 -2.828427 2.828427 
C -2.078319 3.578535 -1.060812 4 0 4 
z
" style="stroke: #c00000"/>
    </defs>
    <g clip-path="url(#p56bc9075aa)">
     <use xlink:href="#m9d524318f6" x="201.24" y="76.11192" style="fill: #c00000; stroke: #c00000"/>
     <use xlink:href="#m9d524318f6" x="234.320086" y="126.940909" style="fill: #c00000; stroke: #c00000"/>
     <use xlink:href="#m9d524318f6" x="279.416903" y="130.8492" style="fill: #c00000; stroke: #c00000"/>
     <use xlink:href="#m9d524318f6" x="341.439958" y="155.686272" style="fill: #c00000; stroke: #c00000"/>
     <use xlink:href="#m9d524318f6" x="339.494257" y="215.771108" style="fill: #c00000; stroke: #c00000"/>
     <use xlink:href="#m9d524318f6" x="340.116007" y="281.4201" style="fill: #c00000; stroke: #c00000"/>
     <use xlink:href="#m9d524318f6" x="274.446279" y="301.999798" style="fill: #c00000; stroke: #c00000"/>
     <use xlink:href="#m9d524318f6" x="221.636361" y="297.197336" style="fill: #c00000; stroke: #c00000"/>
     <use xlink:href="#m9d524318f6" x="185.408182" y="275.722849" style="fill: #c00000; stroke: #c00000"/>
     <use xlink:href="#m9d524318f6" x="145.646895" y="277.757345" style="fill: #c00000; stroke: #c00000"/>
     <use xlink:href="#m9d524318f6" x="92.611836" y="263.9565" style="fill: #c00000; stroke: #c00000"/>
     <use xlink:href="#m9d524318f6" x="95.075066" y="212.398384" style="fill: #c00000; stroke: #c00000"/>
     <use xlink:href="#m9d524318f6" x="119.434722" y="174.659854" style="fill: #c00000; stroke: #c00000"/>
     <use xlink:href="#m9d524318f6" x="153.654059" y="158.393426" style="fill: #c00000; stroke: #c00000"/>
     <use xlink:href="#m9d524318f6" x="169.60308" y="130.182315" style="fill: #c00000; stroke: #c00000"/>
     <use xlink:href="#m9d524318f6" x="201.24" y="76.11192" style="fill: #c00000; stroke: #c00000"/>
    </g>
   </g>
   <g id="line2d_24">
    <path d="M 201.24 91.69056 
L 241.073656 111.772145 
L 268.457717 140.716896 
L 334.269144 158.016211 
L 325.15882 214.264393 
L 323.023575 271.55178 
L 271.82304 298.38922 
L 221.480752 296.465251 
L 188.428157 261.514981 
L 158.420926 260.175399 
L 121.563342 247.24134 
L 120.741011 209.700785 
L 147.221626 183.688366 
L 165.004645 168.61354 
L 164.360326 118.406897 
L 201.24 91.69056 
" clip-path="url(#p56bc9075aa)" style="fill: none; stroke: #dcd844; stroke-width: 5; stroke-linecap: round"/>
    <defs>
     <path id="m5161f0babd" d="M 0 4 
C 1.060812 4 2.078319 3.578535 2.828427 2.828427 
C 3.578535 2.078319 4 1.060812 4 0 
C 4 -1.060812 3.578535 -2.078319 2.828427 -2.828427 
C 2.078319 -3.578535 1.060812 -4 0 -4 
C -1.060812 -4 -2.078319 -3.578535 -2.828427 -2.828427 
C -3.578535 -2.078319 -4 -1.060812 -4 0 
C -4 1.060812 -3.578535 2.078319 -2.828427 2.828427 
C -2.078319 3.578535 -1.060812 4 0 4 
z
" style="stroke: #dcd844"/>
    </defs>
    <g clip-path="url(#p56bc9075aa)">
     <use xlink:href="#m5161f0babd" x="201.24" y="91.69056" style="fill: #dcd844; stroke: #dcd844"/>
     <use xlink:href="#m5161f0babd" x="241.073656" y="111.772145" style="fill: #dcd844; stroke: #dcd844"/>
     <use xlink:href="#m5161f0babd" x="268.457717" y="140.716896" style="fill: #dcd844; stroke: #dcd844"/>
     <use xlink:href="#m5161f0babd" x="334.269144" y="158.016211" style="fill: #dcd844; stroke: #dcd844"/>
     <use xlink:href="#m5161f0babd" x="325.15882" y="214.264393" style="fill: #dcd844; stroke: #dcd844"/>
     <use xlink:href="#m5161f0babd" x="323.023575" y="271.55178" style="fill: #dcd844; stroke: #dcd844"/>
     <use xlink:href="#m5161f0babd" x="271.82304" y="298.38922" style="fill: #dcd844; stroke: #dcd844"/>
     <use xlink:href="#m5161f0babd" x="221.480752" y="296.465251" style="fill: #dcd844; stroke: #dcd844"/>
     <use xlink:href="#m5161f0babd" x="188.428157" y="261.514981" style="fill: #dcd844; stroke: #dcd844"/>
     <use xlink:href="#m5161f0babd" x="158.420926" y="260.175399" style="fill: #dcd844; stroke: #dcd844"/>
     <use xlink:href="#m5161f0babd" x="121.563342" y="247.24134" style="fill: #dcd844; stroke: #dcd844"/>
     <use xlink:href="#m5161f0babd" x="120.741011" y="209.700785" style="fill: #dcd844; stroke: #dcd844"/>
     <use xlink:href="#m5161f0babd" x="147.221626" y="183.688366" style="fill: #dcd844; stroke: #dcd844"/>
     <use xlink:href="#m5161f0babd" x="165.004645" y="168.61354" style="fill: #dcd844; stroke: #dcd844"/>
     <use xlink:href="#m5161f0babd" x="164.360326" y="118.406897" style="fill: #dcd844; stroke: #dcd844"/>
     <use xlink:href="#m5161f0babd" x="201.24" y="91.69056" style="fill: #dcd844; stroke: #dcd844"/>
    </g>
   </g>
   <g id="line2d_25">
    <path d="M 201.24 117.58104 
L 226.393944 144.743316 
L 237.083956 168.965957 
L 318.02936 163.292837 
L 339.135871 215.73344 
L 337.04321 279.64602 
L 286.878148 319.110799 
L 225.803236 316.80094 
L 193.788037 236.298727 
L 165.720372 250.128573 
L 125.092257 245.20392 
L 136.206741 208.075271 
L 158.874198 187.474517 
L 181.608224 183.56347 
L 174.699263 141.628528 
L 201.24 117.58104 
" clip-path="url(#p56bc9075aa)" style="fill: none; stroke: #0033cc; stroke-width: 5; stroke-linecap: round"/>
    <defs>
     <path id="m15eed6e242" d="M 0 4 
C 1.060812 4 2.078319 3.578535 2.828427 2.828427 
C 3.578535 2.078319 4 1.060812 4 0 
C 4 -1.060812 3.578535 -2.078319 2.828427 -2.828427 
C 2.078319 -3.578535 1.060812 -4 0 -4 
C -1.060812 -4 -2.078319 -3.578535 -2.828427 -2.828427 
C -3.578535 -2.078319 -4 -1.060812 -4 0 
C -4 1.060812 -3.578535 2.078319 -2.828427 2.828427 
C -2.078319 3.578535 -1.060812 4 0 4 
z
" style="stroke: #0033cc"/>
    </defs>
    <g clip-path="url(#p56bc9075aa)">
     <use xlink:href="#m15eed6e242" x="201.24" y="117.58104" style="fill: #0033cc; stroke: #0033cc"/>
     <use xlink:href="#m15eed6e242" x="226.393944" y="144.743316" style="fill: #0033cc; stroke: #0033cc"/>
     <use xlink:href="#m15eed6e242" x="237.083956" y="168.965957" style="fill: #0033cc; stroke: #0033cc"/>
     <use xlink:href="#m15eed6e242" x="318.02936" y="163.292837" style="fill: #0033cc; stroke: #0033cc"/>
     <use xlink:href="#m15eed6e242" x="339.135871" y="215.73344" style="fill: #0033cc; stroke: #0033cc"/>
     <use xlink:href="#m15eed6e242" x="337.04321" y="279.64602" style="fill: #0033cc; stroke: #0033cc"/>
     <use xlink:href="#m15eed6e242" x="286.878148" y="319.110799" style="fill: #0033cc; stroke: #0033cc"/>
     <use xlink:href="#m15eed6e242" x="225.803236" y="316.80094" style="fill: #0033cc; stroke: #0033cc"/>
     <use xlink:href="#m15eed6e242" x="193.788037" y="236.298727" style="fill: #0033cc; stroke: #0033cc"/>
     <use xlink:href="#m15eed6e242" x="165.720372" y="250.128573" style="fill: #0033cc; stroke: #0033cc"/>
     <use xlink:href="#m15eed6e242" x="125.092257" y="245.20392" style="fill: #0033cc; stroke: #0033cc"/>
     <use xlink:href="#m15eed6e242" x="136.206741" y="208.075271" style="fill: #0033cc; stroke: #0033cc"/>
     <use xlink:href="#m15eed6e242" x="158.874198" y="187.474517" style="fill: #0033cc; stroke: #0033cc"/>
     <use xlink:href="#m15eed6e242" x="181.608224" y="183.56347" style="fill: #0033cc; stroke: #0033cc"/>
     <use xlink:href="#m15eed6e242" x="174.699263" y="141.628528" style="fill: #0033cc; stroke: #0033cc"/>
     <use xlink:href="#m15eed6e242" x="201.24" y="117.58104" style="fill: #0033cc; stroke: #0033cc"/>
    </g>
   </g>
   <g id="text_1">
    <!-- 0.10 -->
    <g style="fill: #262626" transform="translate(179.829507 255.712497) scale(0.15 -0.15)">
     <defs>
      <path id="Arial-BoldMT-30" d="M 1756 4600 
Q 2422 4600 2797 4125 
Q 3244 3563 3244 2259 
Q 3244 959 2794 391 
Q 2422 -78 1756 -78 
Q 1088 -78 678 436 
Q 269 950 269 2269 
Q 269 3563 719 4131 
Q 1091 4600 1756 4600 
z
M 1756 3872 
Q 1597 3872 1472 3770 
Q 1347 3669 1278 3406 
Q 1188 3066 1188 2259 
Q 1188 1453 1269 1151 
Q 1350 850 1473 750 
Q 1597 650 1756 650 
Q 1916 650 2041 751 
Q 2166 853 2234 1116 
Q 2325 1453 2325 2259 
Q 2325 3066 2244 3367 
Q 2163 3669 2039 3770 
Q 1916 3872 1756 3872 
z
" transform="scale(0.015625)"/>
      <path id="Arial-BoldMT-2e" d="M 459 0 
L 459 878 
L 1338 878 
L 1338 0 
L 459 0 
z
" transform="scale(0.015625)"/>
      <path id="Arial-BoldMT-31" d="M 2519 0 
L 1641 0 
L 1641 3309 
Q 1159 2859 506 2644 
L 506 3441 
Q 850 3553 1253 3867 
Q 1656 4181 1806 4600 
L 2519 4600 
L 2519 0 
z
" transform="scale(0.015625)"/>
     </defs>
     <use xlink:href="#Arial-BoldMT-30"/>
     <use xlink:href="#Arial-BoldMT-2e" x="55.615234"/>
     <use xlink:href="#Arial-BoldMT-31" x="83.398438"/>
     <use xlink:href="#Arial-BoldMT-30" x="139.013672"/>
    </g>
   </g>
   <g id="text_2">
    <!-- 0.20 -->
    <g style="fill: #262626" transform="translate(174.066195 282.826748) scale(0.15 -0.15)">
     <defs>
      <path id="Arial-BoldMT-32" d="M 3238 816 
L 3238 0 
L 159 0 
Q 209 463 459 877 
Q 709 1291 1447 1975 
Q 2041 2528 2175 2725 
Q 2356 2997 2356 3263 
Q 2356 3556 2198 3714 
Q 2041 3872 1763 3872 
Q 1488 3872 1325 3706 
Q 1163 3541 1138 3156 
L 263 3244 
Q 341 3969 753 4284 
Q 1166 4600 1784 4600 
Q 2463 4600 2850 4234 
Q 3238 3869 3238 3325 
Q 3238 3016 3127 2736 
Q 3016 2456 2775 2150 
Q 2616 1947 2200 1565 
Q 1784 1184 1673 1059 
Q 1563 934 1494 816 
L 3238 816 
z
" transform="scale(0.015625)"/>
     </defs>
     <use xlink:href="#Arial-BoldMT-30"/>
     <use xlink:href="#Arial-BoldMT-2e" x="55.615234"/>
     <use xlink:href="#Arial-BoldMT-32" x="83.398438"/>
     <use xlink:href="#Arial-BoldMT-30" x="139.013672"/>
    </g>
   </g>
   <g id="text_3">
    <!-- 0.30 -->
    <g style="fill: #262626" transform="translate(168.302883 309.941) scale(0.15 -0.15)">
     <defs>
      <path id="Arial-BoldMT-33" d="M 241 1216 
L 1091 1319 
Q 1131 994 1309 822 
Q 1488 650 1741 650 
Q 2013 650 2198 856 
Q 2384 1063 2384 1413 
Q 2384 1744 2206 1937 
Q 2028 2131 1772 2131 
Q 1603 2131 1369 2066 
L 1466 2781 
Q 1822 2772 2009 2936 
Q 2197 3100 2197 3372 
Q 2197 3603 2059 3740 
Q 1922 3878 1694 3878 
Q 1469 3878 1309 3722 
Q 1150 3566 1116 3266 
L 306 3403 
Q 391 3819 561 4067 
Q 731 4316 1036 4458 
Q 1341 4600 1719 4600 
Q 2366 4600 2756 4188 
Q 3078 3850 3078 3425 
Q 3078 2822 2419 2463 
Q 2813 2378 3048 2084 
Q 3284 1791 3284 1375 
Q 3284 772 2843 347 
Q 2403 -78 1747 -78 
Q 1125 -78 715 280 
Q 306 638 241 1216 
z
" transform="scale(0.015625)"/>
     </defs>
     <use xlink:href="#Arial-BoldMT-30"/>
     <use xlink:href="#Arial-BoldMT-2e" x="55.615234"/>
     <use xlink:href="#Arial-BoldMT-33" x="83.398438"/>
     <use xlink:href="#Arial-BoldMT-30" x="139.013672"/>
    </g>
   </g>
   <g id="text_4">
    <!-- 0.40 -->
    <g style="fill: #262626" transform="translate(162.539571 337.055251) scale(0.15 -0.15)">
     <defs>
      <path id="Arial-BoldMT-34" d="M 1994 0 
L 1994 922 
L 119 922 
L 119 1691 
L 2106 4600 
L 2844 4600 
L 2844 1694 
L 3413 1694 
L 3413 922 
L 2844 922 
L 2844 0 
L 1994 0 
z
M 1994 1694 
L 1994 3259 
L 941 1694 
L 1994 1694 
z
" transform="scale(0.015625)"/>
     </defs>
     <use xlink:href="#Arial-BoldMT-30"/>
     <use xlink:href="#Arial-BoldMT-2e" x="55.615234"/>
     <use xlink:href="#Arial-BoldMT-34" x="83.398438"/>
     <use xlink:href="#Arial-BoldMT-30" x="139.013672"/>
    </g>
   </g>
   <g id="text_5">
    <!-- 0.50 -->
    <g style="fill: #262626" transform="translate(156.776259 364.169503) scale(0.15 -0.15)">
     <defs>
      <path id="Arial-BoldMT-35" d="M 284 1178 
L 1159 1269 
Q 1197 972 1381 798 
Q 1566 625 1806 625 
Q 2081 625 2272 848 
Q 2463 1072 2463 1522 
Q 2463 1944 2273 2155 
Q 2084 2366 1781 2366 
Q 1403 2366 1103 2031 
L 391 2134 
L 841 4519 
L 3163 4519 
L 3163 3697 
L 1506 3697 
L 1369 2919 
Q 1663 3066 1969 3066 
Q 2553 3066 2959 2641 
Q 3366 2216 3366 1538 
Q 3366 972 3038 528 
Q 2591 -78 1797 -78 
Q 1163 -78 763 262 
Q 363 603 284 1178 
z
" transform="scale(0.015625)"/>
     </defs>
     <use xlink:href="#Arial-BoldMT-30"/>
     <use xlink:href="#Arial-BoldMT-2e" x="55.615234"/>
     <use xlink:href="#Arial-BoldMT-35" x="83.398438"/>
     <use xlink:href="#Arial-BoldMT-30" x="139.013672"/>
    </g>
   </g>
  </g>
 </g>
 <defs>
  <clipPath id="p56bc9075aa">
   <path d="M 395.28 201.24 
C 395.28 175.758901 390.260779 150.525573 380.509584 126.984107 
C 370.75839 103.442641 356.464858 82.050858 338.447 64.033 
C 320.429142 46.015142 299.037359 31.72161 275.495893 21.970416 
C 251.954427 12.219221 226.721099 7.2 201.24 7.2 
C 175.758901 7.2 150.525573 12.219221 126.984107 21.970416 
C 103.442641 31.72161 82.050858 46.015142 64.033 64.033 
C 46.015142 82.050858 31.72161 103.442641 21.970416 126.984107 
C 12.219221 150.525573 7.2 175.758901 7.2 201.24 
C 7.2 226.721099 12.219221 251.954427 21.970416 275.495893 
C 31.72161 299.037359 46.015142 320.429142 64.033 338.447 
C 82.050858 356.464858 103.442641 370.75839 126.984107 380.509584 
C 150.525573 390.260779 175.758901 395.28 201.24 395.28 
C 226.721099 395.28 251.954427 390.260779 275.495893 380.509584 
C 299.037359 370.75839 320.429142 356.464858 338.447 338.447 
C 356.464858 320.429142 370.75839 299.037359 380.509584 275.495893 
C 390.260779 251.954427 395.28 226.721099 395.28 201.24 
M 201.24 201.24 
C 201.24 201.24 201.24 201.24 201.24 201.24 
C 201.24 201.24 201.24 201.24 201.24 201.24 
C 201.24 201.24 201.24 201.24 201.24 201.24 
C 201.24 201.24 201.24 201.24 201.24 201.24 
C 201.24 201.24 201.24 201.24 201.24 201.24 
C 201.24 201.24 201.24 201.24 201.24 201.24 
C 201.24 201.24 201.24 201.24 201.24 201.24 
C 201.24 201.24 201.24 201.24 201.24 201.24 
C 201.24 201.24 201.24 201.24 201.24 201.24 
C 201.24 201.24 201.24 201.24 201.24 201.24 
C 201.24 201.24 201.24 201.24 201.24 201.24 
C 201.24 201.24 201.24 201.24 201.24 201.24 
C 201.24 201.24 201.24 201.24 201.24 201.24 
C 201.24 201.24 201.24 201.24 201.24 201.24 
C 201.24 201.24 201.24 201.24 201.24 201.24 
C 201.24 201.24 201.24 201.24 201.24 201.24 
z
"/>
  </clipPath>
 </defs>
</svg>
