<?xml version="1.0" encoding="utf-8" standalone="no"?>
<!DOCTYPE svg PUBLIC "-//W3C//DTD SVG 1.1//EN"
  "http://www.w3.org/Graphics/SVG/1.1/DTD/svg11.dtd">
<svg xmlns:xlink="http://www.w3.org/1999/xlink" width="402.48pt" height="402.48pt" viewBox="0 0 402.48 402.48" xmlns="http://www.w3.org/2000/svg" version="1.1">
 <metadata>
  <rdf:RDF xmlns:dc="http://purl.org/dc/elements/1.1/" xmlns:cc="http://creativecommons.org/ns#" xmlns:rdf="http://www.w3.org/1999/02/22-rdf-syntax-ns#">
   <cc:Work>
    <dc:type rdf:resource="http://purl.org/dc/dcmitype/StillImage"/>
    <dc:date>2025-12-11T16:06:54.164234</dc:date>
    <dc:format>image/svg+xml</dc:format>
    <dc:creator>
     <cc:Agent>
      <dc:title>Matplotlib v3.9.2, https://matplotlib.org/</dc:title>
     </cc:Agent>
    </dc:creator>
   </cc:Work>
  </rdf:RDF>
 </metadata>
 <defs>
  <style type="text/css">*{stroke-linejoin: round; stroke-linecap: butt}</style>
 </defs>
 <g id="figure_1">
  <g id="patch_1">
   <path d="M 0 402.48 
L 402.48 402.48 
L 402.48 -0 
L 0 -0 
L 0 402.48 
z
" style="fill: none"/>
  </g>
  <g id="axes_1">
   <g id="patch_2">
    <path d="M 395.28 201.24 
C 395.28 175.758901 390.260779 150.525573 380.509584 126.984107 
C 370.75839 103.442641 356.464858 82.050858 338.447 64.033 
C 320.429142 46.015142 299.037359 31.72161 275.495893 21.970416 
C 251.954427 12.219221 226.721099 7.2 201.24 7.2 
C 175.758901 7.2 150.525573 12.219221 126.984107 21.970416 
C 103.442641 31.72161 82.050858 46.015142 64.033 64.033 
C 46.015142 82.050858 31.72161 103.442641 21.970416 126.984107 
C 12.219221 150.525573 7.2 175.758901 7.2 201.24 
C 7.2 226.721099 12.219221 251.954427 21.970416 275.495893 
C 31.72161 299.037359 46.015142 320.429142 64.033 338.447 
C 82.050858 356.464858 103.442641 370.75839 126.984107 380.509584 
C 150.525573 390.260779 175.758901 395.28 201.24 395.28 
C 226.721099 395.28 251.954427 390.260779 275.495893 380.509584 
C 299.037359 370.75839 320.429142 356.464858 338.447 338.447 
C 356.464858 320.429142 370.75839 299.037359 380.509584 275.495893 
C 390.260779 251.954427 395.28 226.721099 395.28 201.24 
M 201.24 201.24 
C 201.24 201.24 201.24 201.24 201.24 201.24 
C 201.24 201.24 201.24 201.24 201.24 201.24 
C 201.24 201.24 201.24 201.24 201.24 201.24 
C 201.24 201.24 201.24 201.24 201.24 201.24 
C 201.24 201.24 201.24 201.24 201.24 201.24 
C 201.24 201.24 201.24 201.24 201.24 201.24 
C 201.24 201.24 201.24 201.24 201.24 201.24 
C 201.24 201.24 201.24 201.24 201.24 201.24 
C 201.24 201.24 201.24 201.24 201.24 201.24 
C 201.24 201.24 201.24 201.24 201.24 201.24 
C 201.24 201.24 201.24 201.24 201.24 201.24 
C 201.24 201.24 201.24 201.24 201.24 201.24 
C 201.24 201.24 201.24 201.24 201.24 201.24 
C 201.24 201.24 201.24 201.24 201.24 201.24 
C 201.24 201.24 201.24 201.24 201.24 201.24 
C 201.24 201.24 201.24 201.24 201.24 201.24 
L 201.24 201.24 
z
" style="fill: none"/>
   </g>
   <g id="line2d_1">
    <path d="M 201.24 185.07 
L 207.816932 186.46797 
L 213.256652 190.420158 
L 216.618584 196.243195 
L 217.321419 202.930225 
L 215.243631 209.325 
L 210.744488 214.321805 
L 204.601932 217.056647 
L 197.878068 217.056647 
L 191.735512 214.321805 
L 187.236369 209.325 
L 185.158581 202.930225 
L 185.861416 196.243195 
L 189.223348 190.420158 
L 194.663068 186.46797 
L 201.24 185.07 
" clip-path="url(#p338e8c9cfd)" style="fill: none; stroke-dasharray: 1.85,0.8; stroke-dashoffset: 0; stroke: #808080; stroke-width: 0.5"/>
   </g>
   <g id="line2d_2">
    <path d="M 201.24 152.73 
L 220.970795 156.92391 
L 237.289955 168.780474 
L 247.375752 186.249586 
L 249.484257 206.310676 
L 243.250892 225.495 
L 229.753463 240.485414 
L 211.325796 248.68994 
L 191.154204 248.68994 
L 172.726537 240.485414 
L 159.229108 225.495 
L 152.995743 206.310676 
L 155.104248 186.249586 
L 165.190045 168.780474 
L 181.509205 156.92391 
L 201.24 152.73 
" clip-path="url(#p338e8c9cfd)" style="fill: none; stroke-dasharray: 1.85,0.8; stroke-dashoffset: 0; stroke: #808080; stroke-width: 0.5"/>
   </g>
   <g id="line2d_3">
    <path d="M 201.24 120.39 
L 234.124658 127.37985 
L 261.323259 147.14079 
L 278.132919 176.255976 
L 281.647095 209.691126 
L 271.258154 241.665 
L 248.762438 266.649024 
L 218.04966 280.323234 
L 184.43034 280.323234 
L 153.717562 266.649024 
L 131.221846 241.665 
L 120.832905 209.691126 
L 124.347081 176.255976 
L 141.156741 147.14079 
L 168.355342 127.37985 
L 201.24 120.39 
" clip-path="url(#p338e8c9cfd)" style="fill: none; stroke-dasharray: 1.85,0.8; stroke-dashoffset: 0; stroke: #808080; stroke-width: 0.5"/>
   </g>
   <g id="line2d_4">
    <path d="M 201.24 88.05 
L 247.278521 97.83579 
L 285.356563 125.501107 
L 308.890087 166.262366 
L 313.809933 213.071577 
L 299.265415 257.835 
L 267.771413 292.812634 
L 224.773524 311.956527 
L 177.706476 311.956527 
L 134.708587 292.812634 
L 103.214585 257.835 
L 88.670067 213.071577 
L 93.589913 166.262366 
L 117.123437 125.501107 
L 155.201479 97.83579 
L 201.24 88.05 
" clip-path="url(#p338e8c9cfd)" style="fill: none; stroke-dasharray: 1.85,0.8; stroke-dashoffset: 0; stroke: #808080; stroke-width: 0.5"/>
   </g>
   <g id="line2d_5">
    <path d="M 201.24 55.71 
L 260.432384 68.29173 
L 309.389866 103.861423 
L 339.647255 156.268757 
L 345.972771 216.452027 
L 327.272677 274.005 
L 286.780388 318.976243 
L 231.497388 343.58982 
L 170.982612 343.58982 
L 115.699612 318.976243 
L 75.207323 274.005 
L 56.507229 216.452027 
L 62.832745 156.268757 
L 93.090134 103.861423 
L 142.047616 68.29173 
L 201.24 55.71 
" clip-path="url(#p338e8c9cfd)" style="fill: none; stroke-dasharray: 1.85,0.8; stroke-dashoffset: 0; stroke: #808080; stroke-width: 0.5"/>
   </g>
   <g id="line2d_6">
    <path d="M 201.24 23.37 
L 273.586247 38.747669 
L 333.42317 82.221739 
L 370.404423 146.275147 
L 378.13561 219.832478 
L 355.279939 290.175 
L 305.789363 345.139853 
L 238.221252 375.223114 
L 164.258748 375.223114 
L 96.690637 345.139853 
L 47.200061 290.175 
L 24.34439 219.832478 
L 32.075577 146.275147 
L 69.05683 82.221739 
L 128.893753 38.747669 
L 201.24 23.37 
" clip-path="url(#p338e8c9cfd)" style="fill: none; stroke-dasharray: 1.85,0.8; stroke-dashoffset: 0; stroke: #808080; stroke-width: 0.5"/>
   </g>
   <g id="line2d_7">
    <path d="M 201.24 185.07 
L 201.24 152.73 
L 201.24 120.39 
L 201.24 88.05 
L 201.24 55.71 
L 201.24 23.37 
" clip-path="url(#p338e8c9cfd)" style="fill: none; stroke-dasharray: 1.85,0.8; stroke-dashoffset: 0; stroke: #808080; stroke-width: 0.5"/>
   </g>
   <g id="line2d_8">
    <path d="M 207.816932 186.46797 
L 220.970795 156.92391 
L 234.124658 127.37985 
L 247.278521 97.83579 
L 260.432384 68.29173 
L 273.586247 38.747669 
" clip-path="url(#p338e8c9cfd)" style="fill: none; stroke-dasharray: 1.85,0.8; stroke-dashoffset: 0; stroke: #808080; stroke-width: 0.5"/>
   </g>
   <g id="line2d_9">
    <path d="M 213.256652 190.420158 
L 237.289955 168.780474 
L 261.323259 147.14079 
L 285.356563 125.501107 
L 309.389866 103.861423 
L 333.42317 82.221739 
" clip-path="url(#p338e8c9cfd)" style="fill: none; stroke-dasharray: 1.85,0.8; stroke-dashoffset: 0; stroke: #808080; stroke-width: 0.5"/>
   </g>
   <g id="line2d_10">
    <path d="M 216.618584 196.243195 
L 247.375752 186.249586 
L 278.132919 176.255976 
L 308.890087 166.262366 
L 339.647255 156.268757 
L 370.404423 146.275147 
" clip-path="url(#p338e8c9cfd)" style="fill: none; stroke-dasharray: 1.85,0.8; stroke-dashoffset: 0; stroke: #808080; stroke-width: 0.5"/>
   </g>
   <g id="line2d_11">
    <path d="M 217.321419 202.930225 
L 249.484257 206.310676 
L 281.647095 209.691126 
L 313.809933 213.071577 
L 345.972771 216.452027 
L 378.13561 219.832478 
" clip-path="url(#p338e8c9cfd)" style="fill: none; stroke-dasharray: 1.85,0.8; stroke-dashoffset: 0; stroke: #808080; stroke-width: 0.5"/>
   </g>
   <g id="line2d_12">
    <path d="M 215.243631 209.325 
L 243.250892 225.495 
L 271.258154 241.665 
L 299.265415 257.835 
L 327.272677 274.005 
L 355.279939 290.175 
" clip-path="url(#p338e8c9cfd)" style="fill: none; stroke-dasharray: 1.85,0.8; stroke-dashoffset: 0; stroke: #808080; stroke-width: 0.5"/>
   </g>
   <g id="line2d_13">
    <path d="M 210.744488 214.321805 
L 229.753463 240.485414 
L 248.762438 266.649024 
L 267.771413 292.812634 
L 286.780388 318.976243 
L 305.789363 345.139853 
" clip-path="url(#p338e8c9cfd)" style="fill: none; stroke-dasharray: 1.85,0.8; stroke-dashoffset: 0; stroke: #808080; stroke-width: 0.5"/>
   </g>
   <g id="line2d_14">
    <path d="M 204.601932 217.056647 
L 211.325796 248.68994 
L 218.04966 280.323234 
L 224.773524 311.956527 
L 231.497388 343.58982 
L 238.221252 375.223114 
" clip-path="url(#p338e8c9cfd)" style="fill: none; stroke-dasharray: 1.85,0.8; stroke-dashoffset: 0; stroke: #808080; stroke-width: 0.5"/>
   </g>
   <g id="line2d_15">
    <path d="M 197.878068 217.056647 
L 191.154204 248.68994 
L 184.43034 280.323234 
L 177.706476 311.956527 
L 170.982612 343.58982 
L 164.258748 375.223114 
" clip-path="url(#p338e8c9cfd)" style="fill: none; stroke-dasharray: 1.85,0.8; stroke-dashoffset: 0; stroke: #808080; stroke-width: 0.5"/>
   </g>
   <g id="line2d_16">
    <path d="M 191.735512 214.321805 
L 172.726537 240.485414 
L 153.717562 266.649024 
L 134.708587 292.812634 
L 115.699612 318.976243 
L 96.690637 345.139853 
" clip-path="url(#p338e8c9cfd)" style="fill: none; stroke-dasharray: 1.85,0.8; stroke-dashoffset: 0; stroke: #808080; stroke-width: 0.5"/>
   </g>
   <g id="line2d_17">
    <path d="M 187.236369 209.325 
L 159.229108 225.495 
L 131.221846 241.665 
L 103.214585 257.835 
L 75.207323 274.005 
L 47.200061 290.175 
" clip-path="url(#p338e8c9cfd)" style="fill: none; stroke-dasharray: 1.85,0.8; stroke-dashoffset: 0; stroke: #808080; stroke-width: 0.5"/>
   </g>
   <g id="line2d_18">
    <path d="M 185.158581 202.930225 
L 152.995743 206.310676 
L 120.832905 209.691126 
L 88.670067 213.071577 
L 56.507229 216.452027 
L 24.34439 219.832478 
" clip-path="url(#p338e8c9cfd)" style="fill: none; stroke-dasharray: 1.85,0.8; stroke-dashoffset: 0; stroke: #808080; stroke-width: 0.5"/>
   </g>
   <g id="line2d_19">
    <path d="M 185.861416 196.243195 
L 155.104248 186.249586 
L 124.347081 176.255976 
L 93.589913 166.262366 
L 62.832745 156.268757 
L 32.075577 146.275147 
" clip-path="url(#p338e8c9cfd)" style="fill: none; stroke-dasharray: 1.85,0.8; stroke-dashoffset: 0; stroke: #808080; stroke-width: 0.5"/>
   </g>
   <g id="line2d_20">
    <path d="M 189.223348 190.420158 
L 165.190045 168.780474 
L 141.156741 147.14079 
L 117.123437 125.501107 
L 93.090134 103.861423 
L 69.05683 82.221739 
" clip-path="url(#p338e8c9cfd)" style="fill: none; stroke-dasharray: 1.85,0.8; stroke-dashoffset: 0; stroke: #808080; stroke-width: 0.5"/>
   </g>
   <g id="line2d_21">
    <path d="M 194.663068 186.46797 
L 181.509205 156.92391 
L 168.355342 127.37985 
L 155.201479 97.83579 
L 142.047616 68.29173 
L 128.893753 38.747669 
" clip-path="url(#p338e8c9cfd)" style="fill: none; stroke-dasharray: 1.85,0.8; stroke-dashoffset: 0; stroke: #808080; stroke-width: 0.5"/>
   </g>
   <g id="matplotlib.axis_1">
    <g id="xtick_1"/>
    <g id="xtick_2"/>
    <g id="xtick_3"/>
    <g id="xtick_4"/>
    <g id="xtick_5"/>
    <g id="xtick_6"/>
    <g id="xtick_7"/>
    <g id="xtick_8"/>
    <g id="xtick_9"/>
    <g id="xtick_10"/>
    <g id="xtick_11"/>
    <g id="xtick_12"/>
    <g id="xtick_13"/>
    <g id="xtick_14"/>
    <g id="xtick_15"/>
   </g>
   <g id="matplotlib.axis_2">
    <g id="ytick_1"/>
    <g id="ytick_2"/>
    <g id="ytick_3"/>
    <g id="ytick_4"/>
    <g id="ytick_5"/>
    <g id="ytick_6"/>
   </g>
   <g id="line2d_22">
    <path d="M 201.24 115.561597 
L 242.695511 108.129397 
L 263.244776 145.410649 
L 309.152739 166.177026 
L 330.451238 214.820648 
L 312.109128 265.250321 
L 284.167523 315.379944 
L 230.72045 339.934613 
L 178.645174 307.540297 
L 134.20262 293.509039 
L 111.163983 253.245413 
L 105.025572 211.352544 
L 130.238306 178.170151 
L 141.176173 147.158288 
L 163.165919 115.724215 
L 201.24 115.561597 
" clip-path="url(#p338e8c9cfd)" style="fill: none; stroke: #0033cc; stroke-width: 5; stroke-linecap: square"/>
    <defs>
     <path id="mc64494adab" d="M 0 4 
C 1.060812 4 2.078319 3.578535 2.828427 2.828427 
C 3.578535 2.078319 4 1.060812 4 0 
C 4 -1.060812 3.578535 -2.078319 2.828427 -2.828427 
C 2.078319 -3.578535 1.060812 -4 0 -4 
C -1.060812 -4 -2.078319 -3.578535 -2.828427 -2.828427 
C -3.578535 -2.078319 -4 -1.060812 -4 0 
C -4 1.060812 -3.578535 2.078319 -2.828427 2.828427 
C -2.078319 3.578535 -1.060812 4 0 4 
z
" style="stroke: #0033cc"/>
    </defs>
    <g clip-path="url(#p338e8c9cfd)">
     <use xlink:href="#mc64494adab" x="201.24" y="115.561597" style="fill: #0033cc; stroke: #0033cc"/>
     <use xlink:href="#mc64494adab" x="242.695511" y="108.129397" style="fill: #0033cc; stroke: #0033cc"/>
     <use xlink:href="#mc64494adab" x="263.244776" y="145.410649" style="fill: #0033cc; stroke: #0033cc"/>
     <use xlink:href="#mc64494adab" x="309.152739" y="166.177026" style="fill: #0033cc; stroke: #0033cc"/>
     <use xlink:href="#mc64494adab" x="330.451238" y="214.820648" style="fill: #0033cc; stroke: #0033cc"/>
     <use xlink:href="#mc64494adab" x="312.109128" y="265.250321" style="fill: #0033cc; stroke: #0033cc"/>
     <use xlink:href="#mc64494adab" x="284.167523" y="315.379944" style="fill: #0033cc; stroke: #0033cc"/>
     <use xlink:href="#mc64494adab" x="230.72045" y="339.934613" style="fill: #0033cc; stroke: #0033cc"/>
     <use xlink:href="#mc64494adab" x="178.645174" y="307.540297" style="fill: #0033cc; stroke: #0033cc"/>
     <use xlink:href="#mc64494adab" x="134.20262" y="293.509039" style="fill: #0033cc; stroke: #0033cc"/>
     <use xlink:href="#mc64494adab" x="111.163983" y="253.245413" style="fill: #0033cc; stroke: #0033cc"/>
     <use xlink:href="#mc64494adab" x="105.025572" y="211.352544" style="fill: #0033cc; stroke: #0033cc"/>
     <use xlink:href="#mc64494adab" x="130.238306" y="178.170151" style="fill: #0033cc; stroke: #0033cc"/>
     <use xlink:href="#mc64494adab" x="141.176173" y="147.158288" style="fill: #0033cc; stroke: #0033cc"/>
     <use xlink:href="#mc64494adab" x="163.165919" y="115.724215" style="fill: #0033cc; stroke: #0033cc"/>
     <use xlink:href="#mc64494adab" x="201.24" y="115.561597" style="fill: #0033cc; stroke: #0033cc"/>
    </g>
   </g>
   <g id="line2d_23">
    <path d="M 201.24 81.179252 
L 255.743353 78.823464 
L 305.862305 107.037653 
L 319.973084 162.661283 
L 321.394266 213.868722 
L 308.142843 262.960385 
L 267.810065 292.865833 
L 224.944015 312.758622 
L 173.701361 330.799109 
L 122.592167 309.489456 
L 82.097023 270.02723 
L 52.550412 216.867905 
L 59.338941 155.133551 
L 92.837509 103.633959 
L 152.657479 92.121871 
L 201.24 81.179252 
" clip-path="url(#p338e8c9cfd)" style="fill: none; stroke: #c00000; stroke-width: 5; stroke-linecap: square"/>
    <defs>
     <path id="ma9f3f4132d" d="M 0 4 
C 1.060812 4 2.078319 3.578535 2.828427 2.828427 
C 3.578535 2.078319 4 1.060812 4 0 
C 4 -1.060812 3.578535 -2.078319 2.828427 -2.828427 
C 2.078319 -3.578535 1.060812 -4 0 -4 
C -1.060812 -4 -2.078319 -3.578535 -2.828427 -2.828427 
C -3.578535 -2.078319 -4 -1.060812 -4 0 
C -4 1.060812 -3.578535 2.078319 -2.828427 2.828427 
C -2.078319 3.578535 -1.060812 4 0 4 
z
" style="stroke: #c00000"/>
    </defs>
    <g clip-path="url(#p338e8c9cfd)">
     <use xlink:href="#ma9f3f4132d" x="201.24" y="81.179252" style="fill: #c00000; stroke: #c00000"/>
     <use xlink:href="#ma9f3f4132d" x="255.743353" y="78.823464" style="fill: #c00000; stroke: #c00000"/>
     <use xlink:href="#ma9f3f4132d" x="305.862305" y="107.037653" style="fill: #c00000; stroke: #c00000"/>
     <use xlink:href="#ma9f3f4132d" x="319.973084" y="162.661283" style="fill: #c00000; stroke: #c00000"/>
     <use xlink:href="#ma9f3f4132d" x="321.394266" y="213.868722" style="fill: #c00000; stroke: #c00000"/>
     <use xlink:href="#ma9f3f4132d" x="308.142843" y="262.960385" style="fill: #c00000; stroke: #c00000"/>
     <use xlink:href="#ma9f3f4132d" x="267.810065" y="292.865833" style="fill: #c00000; stroke: #c00000"/>
     <use xlink:href="#ma9f3f4132d" x="224.944015" y="312.758622" style="fill: #c00000; stroke: #c00000"/>
     <use xlink:href="#ma9f3f4132d" x="173.701361" y="330.799109" style="fill: #c00000; stroke: #c00000"/>
     <use xlink:href="#ma9f3f4132d" x="122.592167" y="309.489456" style="fill: #c00000; stroke: #c00000"/>
     <use xlink:href="#ma9f3f4132d" x="82.097023" y="270.02723" style="fill: #c00000; stroke: #c00000"/>
     <use xlink:href="#ma9f3f4132d" x="52.550412" y="216.867905" style="fill: #c00000; stroke: #c00000"/>
     <use xlink:href="#ma9f3f4132d" x="59.338941" y="155.133551" style="fill: #c00000; stroke: #c00000"/>
     <use xlink:href="#ma9f3f4132d" x="92.837509" y="103.633959" style="fill: #c00000; stroke: #c00000"/>
     <use xlink:href="#ma9f3f4132d" x="152.657479" y="92.121871" style="fill: #c00000; stroke: #c00000"/>
     <use xlink:href="#ma9f3f4132d" x="201.24" y="81.179252" style="fill: #c00000; stroke: #c00000"/>
    </g>
   </g>
   <g id="line2d_24">
    <path d="M 201.24 35.069151 
L 256.55056 77.010447 
L 310.995911 102.415334 
L 328.301607 159.955181 
L 321.747135 213.90581 
L 305.551537 261.464294 
L 270.345625 296.355733 
L 225.379972 314.80964 
L 174.049027 329.163468 
L 128.322001 301.603016 
L 88.375486 266.402357 
L 76.271377 214.374732 
L 60.435323 155.489787 
L 93.323325 104.071389 
L 136.627177 56.117223 
L 201.24 35.069151 
" clip-path="url(#p338e8c9cfd)" style="fill: none; stroke: #dcd844; stroke-width: 5; stroke-linecap: square"/>
    <defs>
     <path id="m2c7effb27f" d="M 0 4 
C 1.060812 4 2.078319 3.578535 2.828427 2.828427 
C 3.578535 2.078319 4 1.060812 4 0 
C 4 -1.060812 3.578535 -2.078319 2.828427 -2.828427 
C 2.078319 -3.578535 1.060812 -4 0 -4 
C -1.060812 -4 -2.078319 -3.578535 -2.828427 -2.828427 
C -3.578535 -2.078319 -4 -1.060812 -4 0 
C -4 1.060812 -3.578535 2.078319 -2.828427 2.828427 
C -2.078319 3.578535 -1.060812 4 0 4 
z
" style="stroke: #dcd844"/>
    </defs>
    <g clip-path="url(#p338e8c9cfd)">
     <use xlink:href="#m2c7effb27f" x="201.24" y="35.069151" style="fill: #dcd844; stroke: #dcd844"/>
     <use xlink:href="#m2c7effb27f" x="256.55056" y="77.010447" style="fill: #dcd844; stroke: #dcd844"/>
     <use xlink:href="#m2c7effb27f" x="310.995911" y="102.415334" style="fill: #dcd844; stroke: #dcd844"/>
     <use xlink:href="#m2c7effb27f" x="328.301607" y="159.955181" style="fill: #dcd844; stroke: #dcd844"/>
     <use xlink:href="#m2c7effb27f" x="321.747135" y="213.90581" style="fill: #dcd844; stroke: #dcd844"/>
     <use xlink:href="#m2c7effb27f" x="305.551537" y="261.464294" style="fill: #dcd844; stroke: #dcd844"/>
     <use xlink:href="#m2c7effb27f" x="270.345625" y="296.355733" style="fill: #dcd844; stroke: #dcd844"/>
     <use xlink:href="#m2c7effb27f" x="225.379972" y="314.80964" style="fill: #dcd844; stroke: #dcd844"/>
     <use xlink:href="#m2c7effb27f" x="174.049027" y="329.163468" style="fill: #dcd844; stroke: #dcd844"/>
     <use xlink:href="#m2c7effb27f" x="128.322001" y="301.603016" style="fill: #dcd844; stroke: #dcd844"/>
     <use xlink:href="#m2c7effb27f" x="88.375486" y="266.402357" style="fill: #dcd844; stroke: #dcd844"/>
     <use xlink:href="#m2c7effb27f" x="76.271377" y="214.374732" style="fill: #dcd844; stroke: #dcd844"/>
     <use xlink:href="#m2c7effb27f" x="60.435323" y="155.489787" style="fill: #dcd844; stroke: #dcd844"/>
     <use xlink:href="#m2c7effb27f" x="93.323325" y="104.071389" style="fill: #dcd844; stroke: #dcd844"/>
     <use xlink:href="#m2c7effb27f" x="136.627177" y="56.117223" style="fill: #dcd844; stroke: #dcd844"/>
     <use xlink:href="#m2c7effb27f" x="201.24" y="35.069151" style="fill: #dcd844; stroke: #dcd844"/>
    </g>
   </g>
   <g id="text_1">
    <!-- 0.10 -->
    <g transform="translate(181.222308 249.159886) scale(0.15 -0.15)">
     <defs>
      <path id="Arial-BoldMT-30" d="M 1756 4600 
Q 2422 4600 2797 4125 
Q 3244 3563 3244 2259 
Q 3244 959 2794 391 
Q 2422 -78 1756 -78 
Q 1088 -78 678 436 
Q 269 950 269 2269 
Q 269 3563 719 4131 
Q 1091 4600 1756 4600 
z
M 1756 3872 
Q 1597 3872 1472 3770 
Q 1347 3669 1278 3406 
Q 1188 3066 1188 2259 
Q 1188 1453 1269 1151 
Q 1350 850 1473 750 
Q 1597 650 1756 650 
Q 1916 650 2041 751 
Q 2166 853 2234 1116 
Q 2325 1453 2325 2259 
Q 2325 3066 2244 3367 
Q 2163 3669 2039 3770 
Q 1916 3872 1756 3872 
z
" transform="scale(0.015625)"/>
      <path id="Arial-BoldMT-2e" d="M 459 0 
L 459 878 
L 1338 878 
L 1338 0 
L 459 0 
z
" transform="scale(0.015625)"/>
      <path id="Arial-BoldMT-31" d="M 2519 0 
L 1641 0 
L 1641 3309 
Q 1159 2859 506 2644 
L 506 3441 
Q 850 3553 1253 3867 
Q 1656 4181 1806 4600 
L 2519 4600 
L 2519 0 
z
" transform="scale(0.015625)"/>
     </defs>
     <use xlink:href="#Arial-BoldMT-30"/>
     <use xlink:href="#Arial-BoldMT-2e" x="55.615234"/>
     <use xlink:href="#Arial-BoldMT-31" x="83.398438"/>
     <use xlink:href="#Arial-BoldMT-30" x="139.013672"/>
    </g>
   </g>
   <g id="text_2">
    <!-- 0.20 -->
    <g transform="translate(174.498443 280.793179) scale(0.15 -0.15)">
     <defs>
      <path id="Arial-BoldMT-32" d="M 3238 816 
L 3238 0 
L 159 0 
Q 209 463 459 877 
Q 709 1291 1447 1975 
Q 2041 2528 2175 2725 
Q 2356 2997 2356 3263 
Q 2356 3556 2198 3714 
Q 2041 3872 1763 3872 
Q 1488 3872 1325 3706 
Q 1163 3541 1138 3156 
L 263 3244 
Q 341 3969 753 4284 
Q 1166 4600 1784 4600 
Q 2463 4600 2850 4234 
Q 3238 3869 3238 3325 
Q 3238 3016 3127 2736 
Q 3016 2456 2775 2150 
Q 2616 1947 2200 1565 
Q 1784 1184 1673 1059 
Q 1563 934 1494 816 
L 3238 816 
z
" transform="scale(0.015625)"/>
     </defs>
     <use xlink:href="#Arial-BoldMT-30"/>
     <use xlink:href="#Arial-BoldMT-2e" x="55.615234"/>
     <use xlink:href="#Arial-BoldMT-32" x="83.398438"/>
     <use xlink:href="#Arial-BoldMT-30" x="139.013672"/>
    </g>
   </g>
   <g id="text_3">
    <!-- 0.30 -->
    <g transform="translate(167.774579 312.426473) scale(0.15 -0.15)">
     <defs>
      <path id="Arial-BoldMT-33" d="M 241 1216 
L 1091 1319 
Q 1131 994 1309 822 
Q 1488 650 1741 650 
Q 2013 650 2198 856 
Q 2384 1063 2384 1413 
Q 2384 1744 2206 1937 
Q 2028 2131 1772 2131 
Q 1603 2131 1369 2066 
L 1466 2781 
Q 1822 2772 2009 2936 
Q 2197 3100 2197 3372 
Q 2197 3603 2059 3740 
Q 1922 3878 1694 3878 
Q 1469 3878 1309 3722 
Q 1150 3566 1116 3266 
L 306 3403 
Q 391 3819 561 4067 
Q 731 4316 1036 4458 
Q 1341 4600 1719 4600 
Q 2366 4600 2756 4188 
Q 3078 3850 3078 3425 
Q 3078 2822 2419 2463 
Q 2813 2378 3048 2084 
Q 3284 1791 3284 1375 
Q 3284 772 2843 347 
Q 2403 -78 1747 -78 
Q 1125 -78 715 280 
Q 306 638 241 1216 
z
" transform="scale(0.015625)"/>
     </defs>
     <use xlink:href="#Arial-BoldMT-30"/>
     <use xlink:href="#Arial-BoldMT-2e" x="55.615234"/>
     <use xlink:href="#Arial-BoldMT-33" x="83.398438"/>
     <use xlink:href="#Arial-BoldMT-30" x="139.013672"/>
    </g>
   </g>
   <g id="text_4">
    <!-- 0.40 -->
    <g transform="translate(161.050715 344.059766) scale(0.15 -0.15)">
     <defs>
      <path id="Arial-BoldMT-34" d="M 1994 0 
L 1994 922 
L 119 922 
L 119 1691 
L 2106 4600 
L 2844 4600 
L 2844 1694 
L 3413 1694 
L 3413 922 
L 2844 922 
L 2844 0 
L 1994 0 
z
M 1994 1694 
L 1994 3259 
L 941 1694 
L 1994 1694 
z
" transform="scale(0.015625)"/>
     </defs>
     <use xlink:href="#Arial-BoldMT-30"/>
     <use xlink:href="#Arial-BoldMT-2e" x="55.615234"/>
     <use xlink:href="#Arial-BoldMT-34" x="83.398438"/>
     <use xlink:href="#Arial-BoldMT-30" x="139.013672"/>
    </g>
   </g>
   <g id="text_5">
    <!-- 0.50 -->
    <g transform="translate(154.326851 375.69306) scale(0.15 -0.15)">
     <defs>
      <path id="Arial-BoldMT-35" d="M 284 1178 
L 1159 1269 
Q 1197 972 1381 798 
Q 1566 625 1806 625 
Q 2081 625 2272 848 
Q 2463 1072 2463 1522 
Q 2463 1944 2273 2155 
Q 2084 2366 1781 2366 
Q 1403 2366 1103 2031 
L 391 2134 
L 841 4519 
L 3163 4519 
L 3163 3697 
L 1506 3697 
L 1369 2919 
Q 1663 3066 1969 3066 
Q 2553 3066 2959 2641 
Q 3366 2216 3366 1538 
Q 3366 972 3038 528 
Q 2591 -78 1797 -78 
Q 1163 -78 763 262 
Q 363 603 284 1178 
z
" transform="scale(0.015625)"/>
     </defs>
     <use xlink:href="#Arial-BoldMT-30"/>
     <use xlink:href="#Arial-BoldMT-2e" x="55.615234"/>
     <use xlink:href="#Arial-BoldMT-35" x="83.398438"/>
     <use xlink:href="#Arial-BoldMT-30" x="139.013672"/>
    </g>
   </g>
  </g>
 </g>
 <defs>
  <clipPath id="p338e8c9cfd">
   <path d="M 395.28 201.24 
C 395.28 175.758901 390.260779 150.525573 380.509584 126.984107 
C 370.75839 103.442641 356.464858 82.050858 338.447 64.033 
C 320.429142 46.015142 299.037359 31.72161 275.495893 21.970416 
C 251.954427 12.219221 226.721099 7.2 201.24 7.2 
C 175.758901 7.2 150.525573 12.219221 126.984107 21.970416 
C 103.442641 31.72161 82.050858 46.015142 64.033 64.033 
C 46.015142 82.050858 31.72161 103.442641 21.970416 126.984107 
C 12.219221 150.525573 7.2 175.758901 7.2 201.24 
C 7.2 226.721099 12.219221 251.954427 21.970416 275.495893 
C 31.72161 299.037359 46.015142 320.429142 64.033 338.447 
C 82.050858 356.464858 103.442641 370.75839 126.984107 380.509584 
C 150.525573 390.260779 175.758901 395.28 201.24 395.28 
C 226.721099 395.28 251.954427 390.260779 275.495893 380.509584 
C 299.037359 370.75839 320.429142 356.464858 338.447 338.447 
C 356.464858 320.429142 370.75839 299.037359 380.509584 275.495893 
C 390.260779 251.954427 395.28 226.721099 395.28 201.24 
M 201.24 201.24 
C 201.24 201.24 201.24 201.24 201.24 201.24 
C 201.24 201.24 201.24 201.24 201.24 201.24 
C 201.24 201.24 201.24 201.24 201.24 201.24 
C 201.24 201.24 201.24 201.24 201.24 201.24 
C 201.24 201.24 201.24 201.24 201.24 201.24 
C 201.24 201.24 201.24 201.24 201.24 201.24 
C 201.24 201.24 201.24 201.24 201.24 201.24 
C 201.24 201.24 201.24 201.24 201.24 201.24 
C 201.24 201.24 201.24 201.24 201.24 201.24 
C 201.24 201.24 201.24 201.24 201.24 201.24 
C 201.24 201.24 201.24 201.24 201.24 201.24 
C 201.24 201.24 201.24 201.24 201.24 201.24 
C 201.24 201.24 201.24 201.24 201.24 201.24 
C 201.24 201.24 201.24 201.24 201.24 201.24 
C 201.24 201.24 201.24 201.24 201.24 201.24 
C 201.24 201.24 201.24 201.24 201.24 201.24 
z
"/>
  </clipPath>
 </defs>
</svg>
