<?xml version="1.0" encoding="utf-8" standalone="no"?>
<!DOCTYPE svg PUBLIC "-//W3C//DTD SVG 1.1//EN"
  "http://www.w3.org/Graphics/SVG/1.1/DTD/svg11.dtd">
<svg xmlns:xlink="http://www.w3.org/1999/xlink" width="732.95322pt" height="465.426224pt" viewBox="0 0 732.95322 465.426224" xmlns="http://www.w3.org/2000/svg" version="1.1">
 <metadata>
  <rdf:RDF xmlns:dc="http://purl.org/dc/elements/1.1/" xmlns:cc="http://creativecommons.org/ns#" xmlns:rdf="http://www.w3.org/1999/02/22-rdf-syntax-ns#">
   <cc:Work>
    <dc:type rdf:resource="http://purl.org/dc/dcmitype/StillImage"/>
    <dc:date>2025-11-20T13:09:33.931119</dc:date>
    <dc:format>image/svg+xml</dc:format>
    <dc:creator>
     <cc:Agent>
      <dc:title>Matplotlib v3.9.2, https://matplotlib.org/</dc:title>
     </cc:Agent>
    </dc:creator>
   </cc:Work>
  </rdf:RDF>
 </metadata>
 <defs>
  <style type="text/css">*{stroke-linejoin: round; stroke-linecap: butt}</style>
 </defs>
 <g id="figure_1">
  <g id="patch_1">
   <path d="M 0 465.426224 
L 732.95322 465.426224 
L 732.95322 0 
L 0 0 
L 0 465.426224 
z
" style="fill: none"/>
  </g>
  <g id="axes_1">
   <g id="patch_2">
    <path d="M 519.179821 225.457969 
C 519.179821 199.976869 514.1606 174.743542 504.409405 151.202076 
C 494.658211 127.660609 480.364679 106.268827 462.346821 88.250969 
C 444.328963 70.233111 422.93718 55.939579 399.395714 46.188384 
C 375.854248 36.43719 350.62092 31.417969 325.139821 31.417969 
C 299.658722 31.417969 274.425394 36.43719 250.883928 46.188384 
C 227.342462 55.939579 205.950679 70.233111 187.932821 88.250969 
C 169.914963 106.268827 155.621431 127.660609 145.870236 151.202076 
C 136.119042 174.743542 131.099821 199.976869 131.099821 225.457969 
C 131.099821 250.939068 136.119042 276.172396 145.870236 299.713862 
C 155.621431 323.255328 169.914963 344.64711 187.932821 362.664969 
C 205.950679 380.682827 227.342462 394.976359 250.883928 404.727553 
C 274.425394 414.478748 299.658722 419.497969 325.139821 419.497969 
C 350.62092 419.497969 375.854248 414.478748 399.395714 404.727553 
C 422.93718 394.976359 444.328963 380.682827 462.346821 362.664969 
C 480.364679 344.64711 494.658211 323.255328 504.409405 299.713862 
C 514.1606 276.172396 519.179821 250.939068 519.179821 225.457969 
M 325.139821 225.457969 
C 325.139821 225.457969 325.139821 225.457969 325.139821 225.457969 
C 325.139821 225.457969 325.139821 225.457969 325.139821 225.457969 
C 325.139821 225.457969 325.139821 225.457969 325.139821 225.457969 
C 325.139821 225.457969 325.139821 225.457969 325.139821 225.457969 
C 325.139821 225.457969 325.139821 225.457969 325.139821 225.457969 
C 325.139821 225.457969 325.139821 225.457969 325.139821 225.457969 
C 325.139821 225.457969 325.139821 225.457969 325.139821 225.457969 
C 325.139821 225.457969 325.139821 225.457969 325.139821 225.457969 
C 325.139821 225.457969 325.139821 225.457969 325.139821 225.457969 
C 325.139821 225.457969 325.139821 225.457969 325.139821 225.457969 
C 325.139821 225.457969 325.139821 225.457969 325.139821 225.457969 
C 325.139821 225.457969 325.139821 225.457969 325.139821 225.457969 
C 325.139821 225.457969 325.139821 225.457969 325.139821 225.457969 
C 325.139821 225.457969 325.139821 225.457969 325.139821 225.457969 
C 325.139821 225.457969 325.139821 225.457969 325.139821 225.457969 
C 325.139821 225.457969 325.139821 225.457969 325.139821 225.457969 
L 325.139821 225.457969 
z
" style="fill: none"/>
   </g>
   <g id="matplotlib.axis_1">
    <g id="xtick_1">
     <g id="text_1">
      <!-- Value -->
      <g style="fill: #e6af00" transform="translate(287.883571 28.673437) scale(0.3 -0.3)">
       <defs>
        <path id="ArialMT-56" d="M 1803 0 
L 28 4581 
L 684 4581 
L 1875 1253 
Q 2019 853 2116 503 
Q 2222 878 2363 1253 
L 3600 4581 
L 4219 4581 
L 2425 0 
L 1803 0 
z
" transform="scale(0.015625)"/>
        <path id="ArialMT-61" d="M 2588 409 
Q 2275 144 1986 34 
Q 1697 -75 1366 -75 
Q 819 -75 525 192 
Q 231 459 231 875 
Q 231 1119 342 1320 
Q 453 1522 633 1644 
Q 813 1766 1038 1828 
Q 1203 1872 1538 1913 
Q 2219 1994 2541 2106 
Q 2544 2222 2544 2253 
Q 2544 2597 2384 2738 
Q 2169 2928 1744 2928 
Q 1347 2928 1158 2789 
Q 969 2650 878 2297 
L 328 2372 
Q 403 2725 575 2942 
Q 747 3159 1072 3276 
Q 1397 3394 1825 3394 
Q 2250 3394 2515 3294 
Q 2781 3194 2906 3042 
Q 3031 2891 3081 2659 
Q 3109 2516 3109 2141 
L 3109 1391 
Q 3109 606 3145 398 
Q 3181 191 3288 0 
L 2700 0 
Q 2613 175 2588 409 
z
M 2541 1666 
Q 2234 1541 1622 1453 
Q 1275 1403 1131 1340 
Q 988 1278 909 1158 
Q 831 1038 831 891 
Q 831 666 1001 516 
Q 1172 366 1500 366 
Q 1825 366 2078 508 
Q 2331 650 2450 897 
Q 2541 1088 2541 1459 
L 2541 1666 
z
" transform="scale(0.015625)"/>
        <path id="ArialMT-6c" d="M 409 0 
L 409 4581 
L 972 4581 
L 972 0 
L 409 0 
z
" transform="scale(0.015625)"/>
        <path id="ArialMT-75" d="M 2597 0 
L 2597 488 
Q 2209 -75 1544 -75 
Q 1250 -75 995 37 
Q 741 150 617 320 
Q 494 491 444 738 
Q 409 903 409 1263 
L 409 3319 
L 972 3319 
L 972 1478 
Q 972 1038 1006 884 
Q 1059 663 1231 536 
Q 1403 409 1656 409 
Q 1909 409 2131 539 
Q 2353 669 2445 892 
Q 2538 1116 2538 1541 
L 2538 3319 
L 3100 3319 
L 3100 0 
L 2597 0 
z
" transform="scale(0.015625)"/>
        <path id="ArialMT-65" d="M 2694 1069 
L 3275 997 
Q 3138 488 2766 206 
Q 2394 -75 1816 -75 
Q 1088 -75 661 373 
Q 234 822 234 1631 
Q 234 2469 665 2931 
Q 1097 3394 1784 3394 
Q 2450 3394 2872 2941 
Q 3294 2488 3294 1666 
Q 3294 1616 3291 1516 
L 816 1516 
Q 847 969 1125 678 
Q 1403 388 1819 388 
Q 2128 388 2347 550 
Q 2566 713 2694 1069 
z
M 847 1978 
L 2700 1978 
Q 2663 2397 2488 2606 
Q 2219 2931 1791 2931 
Q 1403 2931 1139 2672 
Q 875 2413 847 1978 
z
" transform="scale(0.015625)"/>
       </defs>
       <use xlink:href="#ArialMT-56"/>
       <use xlink:href="#ArialMT-61" x="59.324219"/>
       <use xlink:href="#ArialMT-6c" x="114.939453"/>
       <use xlink:href="#ArialMT-75" x="137.15625"/>
       <use xlink:href="#ArialMT-65" x="192.771484"/>
      </g>
     </g>
    </g>
    <g id="xtick_2">
     <g id="text_2">
      <!-- Decision Making -->
      <g style="fill: #e6af00" transform="translate(408.333734 46.181068) scale(0.3 -0.3)">
       <defs>
        <path id="ArialMT-44" d="M 494 0 
L 494 4581 
L 2072 4581 
Q 2606 4581 2888 4516 
Q 3281 4425 3559 4188 
Q 3922 3881 4101 3404 
Q 4281 2928 4281 2316 
Q 4281 1794 4159 1391 
Q 4038 988 3847 723 
Q 3656 459 3429 307 
Q 3203 156 2883 78 
Q 2563 0 2147 0 
L 494 0 
z
M 1100 541 
L 2078 541 
Q 2531 541 2789 625 
Q 3047 709 3200 863 
Q 3416 1078 3536 1442 
Q 3656 1806 3656 2325 
Q 3656 3044 3420 3430 
Q 3184 3816 2847 3947 
Q 2603 4041 2063 4041 
L 1100 4041 
L 1100 541 
z
" transform="scale(0.015625)"/>
        <path id="ArialMT-63" d="M 2588 1216 
L 3141 1144 
Q 3050 572 2676 248 
Q 2303 -75 1759 -75 
Q 1078 -75 664 370 
Q 250 816 250 1647 
Q 250 2184 428 2587 
Q 606 2991 970 3192 
Q 1334 3394 1763 3394 
Q 2303 3394 2647 3120 
Q 2991 2847 3088 2344 
L 2541 2259 
Q 2463 2594 2264 2762 
Q 2066 2931 1784 2931 
Q 1359 2931 1093 2626 
Q 828 2322 828 1663 
Q 828 994 1084 691 
Q 1341 388 1753 388 
Q 2084 388 2306 591 
Q 2528 794 2588 1216 
z
" transform="scale(0.015625)"/>
        <path id="ArialMT-69" d="M 425 3934 
L 425 4581 
L 988 4581 
L 988 3934 
L 425 3934 
z
M 425 0 
L 425 3319 
L 988 3319 
L 988 0 
L 425 0 
z
" transform="scale(0.015625)"/>
        <path id="ArialMT-73" d="M 197 991 
L 753 1078 
Q 800 744 1014 566 
Q 1228 388 1613 388 
Q 2000 388 2187 545 
Q 2375 703 2375 916 
Q 2375 1106 2209 1216 
Q 2094 1291 1634 1406 
Q 1016 1563 777 1677 
Q 538 1791 414 1992 
Q 291 2194 291 2438 
Q 291 2659 392 2848 
Q 494 3038 669 3163 
Q 800 3259 1026 3326 
Q 1253 3394 1513 3394 
Q 1903 3394 2198 3281 
Q 2494 3169 2634 2976 
Q 2775 2784 2828 2463 
L 2278 2388 
Q 2241 2644 2061 2787 
Q 1881 2931 1553 2931 
Q 1166 2931 1000 2803 
Q 834 2675 834 2503 
Q 834 2394 903 2306 
Q 972 2216 1119 2156 
Q 1203 2125 1616 2013 
Q 2213 1853 2448 1751 
Q 2684 1650 2818 1456 
Q 2953 1263 2953 975 
Q 2953 694 2789 445 
Q 2625 197 2315 61 
Q 2006 -75 1616 -75 
Q 969 -75 630 194 
Q 291 463 197 991 
z
" transform="scale(0.015625)"/>
        <path id="ArialMT-6f" d="M 213 1659 
Q 213 2581 725 3025 
Q 1153 3394 1769 3394 
Q 2453 3394 2887 2945 
Q 3322 2497 3322 1706 
Q 3322 1066 3130 698 
Q 2938 331 2570 128 
Q 2203 -75 1769 -75 
Q 1072 -75 642 372 
Q 213 819 213 1659 
z
M 791 1659 
Q 791 1022 1069 705 
Q 1347 388 1769 388 
Q 2188 388 2466 706 
Q 2744 1025 2744 1678 
Q 2744 2294 2464 2611 
Q 2184 2928 1769 2928 
Q 1347 2928 1069 2612 
Q 791 2297 791 1659 
z
" transform="scale(0.015625)"/>
        <path id="ArialMT-6e" d="M 422 0 
L 422 3319 
L 928 3319 
L 928 2847 
Q 1294 3394 1984 3394 
Q 2284 3394 2536 3286 
Q 2788 3178 2913 3003 
Q 3038 2828 3088 2588 
Q 3119 2431 3119 2041 
L 3119 0 
L 2556 0 
L 2556 2019 
Q 2556 2363 2490 2533 
Q 2425 2703 2258 2804 
Q 2091 2906 1866 2906 
Q 1506 2906 1245 2678 
Q 984 2450 984 1813 
L 984 0 
L 422 0 
z
" transform="scale(0.015625)"/>
        <path id="ArialMT-20" transform="scale(0.015625)"/>
        <path id="ArialMT-4d" d="M 475 0 
L 475 4581 
L 1388 4581 
L 2472 1338 
Q 2622 884 2691 659 
Q 2769 909 2934 1394 
L 4031 4581 
L 4847 4581 
L 4847 0 
L 4263 0 
L 4263 3834 
L 2931 0 
L 2384 0 
L 1059 3900 
L 1059 0 
L 475 0 
z
" transform="scale(0.015625)"/>
        <path id="ArialMT-6b" d="M 425 0 
L 425 4581 
L 988 4581 
L 988 1969 
L 2319 3319 
L 3047 3319 
L 1778 2088 
L 3175 0 
L 2481 0 
L 1384 1697 
L 988 1316 
L 988 0 
L 425 0 
z
" transform="scale(0.015625)"/>
        <path id="ArialMT-67" d="M 319 -275 
L 866 -356 
Q 900 -609 1056 -725 
Q 1266 -881 1628 -881 
Q 2019 -881 2231 -725 
Q 2444 -569 2519 -288 
Q 2563 -116 2559 434 
Q 2191 0 1641 0 
Q 956 0 581 494 
Q 206 988 206 1678 
Q 206 2153 378 2554 
Q 550 2956 876 3175 
Q 1203 3394 1644 3394 
Q 2231 3394 2613 2919 
L 2613 3319 
L 3131 3319 
L 3131 450 
Q 3131 -325 2973 -648 
Q 2816 -972 2473 -1159 
Q 2131 -1347 1631 -1347 
Q 1038 -1347 672 -1080 
Q 306 -813 319 -275 
z
M 784 1719 
Q 784 1066 1043 766 
Q 1303 466 1694 466 
Q 2081 466 2343 764 
Q 2606 1063 2606 1700 
Q 2606 2309 2336 2618 
Q 2066 2928 1684 2928 
Q 1309 2928 1046 2623 
Q 784 2319 784 1719 
z
" transform="scale(0.015625)"/>
       </defs>
       <use xlink:href="#ArialMT-44"/>
       <use xlink:href="#ArialMT-65" x="72.216797"/>
       <use xlink:href="#ArialMT-63" x="127.832031"/>
       <use xlink:href="#ArialMT-69" x="177.832031"/>
       <use xlink:href="#ArialMT-73" x="200.048828"/>
       <use xlink:href="#ArialMT-69" x="250.048828"/>
       <use xlink:href="#ArialMT-6f" x="272.265625"/>
       <use xlink:href="#ArialMT-6e" x="327.880859"/>
       <use xlink:href="#ArialMT-20" x="383.496094"/>
       <use xlink:href="#ArialMT-4d" x="411.279297"/>
       <use xlink:href="#ArialMT-61" x="494.580078"/>
       <use xlink:href="#ArialMT-6b" x="550.195312"/>
       <use xlink:href="#ArialMT-69" x="600.195312"/>
       <use xlink:href="#ArialMT-6e" x="622.412109"/>
       <use xlink:href="#ArialMT-67" x="678.027344"/>
      </g>
     </g>
    </g>
    <g id="xtick_3">
     <g id="text_3">
      <!-- Reward -->
      <g style="fill: #e6af00" transform="translate(477.142664 96.349463) scale(0.3 -0.3)">
       <defs>
        <path id="ArialMT-52" d="M 503 0 
L 503 4581 
L 2534 4581 
Q 3147 4581 3465 4457 
Q 3784 4334 3975 4021 
Q 4166 3709 4166 3331 
Q 4166 2844 3850 2509 
Q 3534 2175 2875 2084 
Q 3116 1969 3241 1856 
Q 3506 1613 3744 1247 
L 4541 0 
L 3778 0 
L 3172 953 
Q 2906 1366 2734 1584 
Q 2563 1803 2427 1890 
Q 2291 1978 2150 2013 
Q 2047 2034 1813 2034 
L 1109 2034 
L 1109 0 
L 503 0 
z
M 1109 2559 
L 2413 2559 
Q 2828 2559 3062 2645 
Q 3297 2731 3419 2920 
Q 3541 3109 3541 3331 
Q 3541 3656 3305 3865 
Q 3069 4075 2559 4075 
L 1109 4075 
L 1109 2559 
z
" transform="scale(0.015625)"/>
        <path id="ArialMT-77" d="M 1034 0 
L 19 3319 
L 600 3319 
L 1128 1403 
L 1325 691 
Q 1338 744 1497 1375 
L 2025 3319 
L 2603 3319 
L 3100 1394 
L 3266 759 
L 3456 1400 
L 4025 3319 
L 4572 3319 
L 3534 0 
L 2950 0 
L 2422 1988 
L 2294 2553 
L 1622 0 
L 1034 0 
z
" transform="scale(0.015625)"/>
        <path id="ArialMT-72" d="M 416 0 
L 416 3319 
L 922 3319 
L 922 2816 
Q 1116 3169 1280 3281 
Q 1444 3394 1641 3394 
Q 1925 3394 2219 3213 
L 2025 2691 
Q 1819 2813 1613 2813 
Q 1428 2813 1281 2702 
Q 1134 2591 1072 2394 
Q 978 2094 978 1738 
L 978 0 
L 416 0 
z
" transform="scale(0.015625)"/>
        <path id="ArialMT-64" d="M 2575 0 
L 2575 419 
Q 2259 -75 1647 -75 
Q 1250 -75 917 144 
Q 584 363 401 755 
Q 219 1147 219 1656 
Q 219 2153 384 2558 
Q 550 2963 881 3178 
Q 1213 3394 1622 3394 
Q 1922 3394 2156 3267 
Q 2391 3141 2538 2938 
L 2538 4581 
L 3097 4581 
L 3097 0 
L 2575 0 
z
M 797 1656 
Q 797 1019 1065 703 
Q 1334 388 1700 388 
Q 2069 388 2326 689 
Q 2584 991 2584 1609 
Q 2584 2291 2321 2609 
Q 2059 2928 1675 2928 
Q 1300 2928 1048 2622 
Q 797 2316 797 1656 
z
" transform="scale(0.015625)"/>
       </defs>
       <use xlink:href="#ArialMT-52"/>
       <use xlink:href="#ArialMT-65" x="72.216797"/>
       <use xlink:href="#ArialMT-77" x="127.832031"/>
       <use xlink:href="#ArialMT-61" x="200.048828"/>
       <use xlink:href="#ArialMT-72" x="255.664062"/>
       <use xlink:href="#ArialMT-64" x="288.964844"/>
      </g>
     </g>
    </g>
    <g id="xtick_4">
     <g id="text_4">
      <!-- Self -->
      <g style="fill: #e6af00" transform="translate(519.668921 170.007101) scale(0.3 -0.3)">
       <defs>
        <path id="ArialMT-53" d="M 288 1472 
L 859 1522 
Q 900 1178 1048 958 
Q 1197 738 1509 602 
Q 1822 466 2213 466 
Q 2559 466 2825 569 
Q 3091 672 3220 851 
Q 3350 1031 3350 1244 
Q 3350 1459 3225 1620 
Q 3100 1781 2813 1891 
Q 2628 1963 1997 2114 
Q 1366 2266 1113 2400 
Q 784 2572 623 2826 
Q 463 3081 463 3397 
Q 463 3744 659 4045 
Q 856 4347 1234 4503 
Q 1613 4659 2075 4659 
Q 2584 4659 2973 4495 
Q 3363 4331 3572 4012 
Q 3781 3694 3797 3291 
L 3216 3247 
Q 3169 3681 2898 3903 
Q 2628 4125 2100 4125 
Q 1550 4125 1298 3923 
Q 1047 3722 1047 3438 
Q 1047 3191 1225 3031 
Q 1400 2872 2139 2705 
Q 2878 2538 3153 2413 
Q 3553 2228 3743 1945 
Q 3934 1663 3934 1294 
Q 3934 928 3725 604 
Q 3516 281 3123 101 
Q 2731 -78 2241 -78 
Q 1619 -78 1198 103 
Q 778 284 539 648 
Q 300 1013 288 1472 
z
" transform="scale(0.015625)"/>
        <path id="ArialMT-66" d="M 556 0 
L 556 2881 
L 59 2881 
L 59 3319 
L 556 3319 
L 556 3672 
Q 556 4006 616 4169 
Q 697 4388 901 4523 
Q 1106 4659 1475 4659 
Q 1713 4659 2000 4603 
L 1916 4113 
Q 1741 4144 1584 4144 
Q 1328 4144 1222 4034 
Q 1116 3925 1116 3625 
L 1116 3319 
L 1763 3319 
L 1763 2881 
L 1116 2881 
L 1116 0 
L 556 0 
z
" transform="scale(0.015625)"/>
       </defs>
       <use xlink:href="#ArialMT-53"/>
       <use xlink:href="#ArialMT-65" x="66.699219"/>
       <use xlink:href="#ArialMT-6c" x="122.314453"/>
       <use xlink:href="#ArialMT-66" x="144.53125"/>
      </g>
     </g>
    </g>
    <g id="xtick_5">
     <g id="text_5">
      <!-- Social -->
      <g style="fill: #002699" transform="translate(528.559329 254.593689) scale(0.3 -0.3)">
       <use xlink:href="#ArialMT-53"/>
       <use xlink:href="#ArialMT-6f" x="66.699219"/>
       <use xlink:href="#ArialMT-63" x="122.314453"/>
       <use xlink:href="#ArialMT-69" x="172.314453"/>
       <use xlink:href="#ArialMT-61" x="194.53125"/>
       <use xlink:href="#ArialMT-6c" x="250.146484"/>
      </g>
     </g>
    </g>
    <g id="xtick_6">
     <g id="text_6">
      <!-- Autobiographical -->
      <g style="fill: #002699" transform="translate(502.276657 335.307656) scale(0.3 -0.3)">
       <defs>
        <path id="ArialMT-41" d="M -9 0 
L 1750 4581 
L 2403 4581 
L 4278 0 
L 3588 0 
L 3053 1388 
L 1138 1388 
L 634 0 
L -9 0 
z
M 1313 1881 
L 2866 1881 
L 2388 3150 
Q 2169 3728 2063 4100 
Q 1975 3659 1816 3225 
L 1313 1881 
z
" transform="scale(0.015625)"/>
        <path id="ArialMT-74" d="M 1650 503 
L 1731 6 
Q 1494 -44 1306 -44 
Q 1000 -44 831 53 
Q 663 150 594 308 
Q 525 466 525 972 
L 525 2881 
L 113 2881 
L 113 3319 
L 525 3319 
L 525 4141 
L 1084 4478 
L 1084 3319 
L 1650 3319 
L 1650 2881 
L 1084 2881 
L 1084 941 
Q 1084 700 1114 631 
Q 1144 563 1211 522 
Q 1278 481 1403 481 
Q 1497 481 1650 503 
z
" transform="scale(0.015625)"/>
        <path id="ArialMT-62" d="M 941 0 
L 419 0 
L 419 4581 
L 981 4581 
L 981 2947 
Q 1338 3394 1891 3394 
Q 2197 3394 2470 3270 
Q 2744 3147 2920 2923 
Q 3097 2700 3197 2384 
Q 3297 2069 3297 1709 
Q 3297 856 2875 390 
Q 2453 -75 1863 -75 
Q 1275 -75 941 416 
L 941 0 
z
M 934 1684 
Q 934 1088 1097 822 
Q 1363 388 1816 388 
Q 2184 388 2453 708 
Q 2722 1028 2722 1663 
Q 2722 2313 2464 2622 
Q 2206 2931 1841 2931 
Q 1472 2931 1203 2611 
Q 934 2291 934 1684 
z
" transform="scale(0.015625)"/>
        <path id="ArialMT-70" d="M 422 -1272 
L 422 3319 
L 934 3319 
L 934 2888 
Q 1116 3141 1344 3267 
Q 1572 3394 1897 3394 
Q 2322 3394 2647 3175 
Q 2972 2956 3137 2557 
Q 3303 2159 3303 1684 
Q 3303 1175 3120 767 
Q 2938 359 2589 142 
Q 2241 -75 1856 -75 
Q 1575 -75 1351 44 
Q 1128 163 984 344 
L 984 -1272 
L 422 -1272 
z
M 931 1641 
Q 931 1000 1190 694 
Q 1450 388 1819 388 
Q 2194 388 2461 705 
Q 2728 1022 2728 1688 
Q 2728 2322 2467 2637 
Q 2206 2953 1844 2953 
Q 1484 2953 1207 2617 
Q 931 2281 931 1641 
z
" transform="scale(0.015625)"/>
        <path id="ArialMT-68" d="M 422 0 
L 422 4581 
L 984 4581 
L 984 2938 
Q 1378 3394 1978 3394 
Q 2347 3394 2619 3248 
Q 2891 3103 3008 2847 
Q 3125 2591 3125 2103 
L 3125 0 
L 2563 0 
L 2563 2103 
Q 2563 2525 2380 2717 
Q 2197 2909 1863 2909 
Q 1613 2909 1392 2779 
Q 1172 2650 1078 2428 
Q 984 2206 984 1816 
L 984 0 
L 422 0 
z
" transform="scale(0.015625)"/>
       </defs>
       <use xlink:href="#ArialMT-41"/>
       <use xlink:href="#ArialMT-75" x="66.699219"/>
       <use xlink:href="#ArialMT-74" x="122.314453"/>
       <use xlink:href="#ArialMT-6f" x="150.097656"/>
       <use xlink:href="#ArialMT-62" x="205.712891"/>
       <use xlink:href="#ArialMT-69" x="261.328125"/>
       <use xlink:href="#ArialMT-6f" x="283.544922"/>
       <use xlink:href="#ArialMT-67" x="339.160156"/>
       <use xlink:href="#ArialMT-72" x="394.775391"/>
       <use xlink:href="#ArialMT-61" x="428.076172"/>
       <use xlink:href="#ArialMT-70" x="483.691406"/>
       <use xlink:href="#ArialMT-68" x="539.306641"/>
       <use xlink:href="#ArialMT-69" x="594.921875"/>
       <use xlink:href="#ArialMT-63" x="617.138672"/>
       <use xlink:href="#ArialMT-61" x="667.138672"/>
       <use xlink:href="#ArialMT-6c" x="722.753906"/>
      </g>
     </g>
    </g>
    <g id="xtick_7">
     <g id="text_7">
      <!-- Theory Mind -->
      <g style="fill: #002699" transform="translate(445.365416 398.513992) scale(0.3 -0.3)">
       <defs>
        <path id="ArialMT-54" d="M 1659 0 
L 1659 4041 
L 150 4041 
L 150 4581 
L 3781 4581 
L 3781 4041 
L 2266 4041 
L 2266 0 
L 1659 0 
z
" transform="scale(0.015625)"/>
        <path id="ArialMT-79" d="M 397 -1278 
L 334 -750 
Q 519 -800 656 -800 
Q 844 -800 956 -737 
Q 1069 -675 1141 -563 
Q 1194 -478 1313 -144 
Q 1328 -97 1363 -6 
L 103 3319 
L 709 3319 
L 1400 1397 
Q 1534 1031 1641 628 
Q 1738 1016 1872 1384 
L 2581 3319 
L 3144 3319 
L 1881 -56 
Q 1678 -603 1566 -809 
Q 1416 -1088 1222 -1217 
Q 1028 -1347 759 -1347 
Q 597 -1347 397 -1278 
z
" transform="scale(0.015625)"/>
       </defs>
       <use xlink:href="#ArialMT-54"/>
       <use xlink:href="#ArialMT-68" x="61.083984"/>
       <use xlink:href="#ArialMT-65" x="116.699219"/>
       <use xlink:href="#ArialMT-6f" x="172.314453"/>
       <use xlink:href="#ArialMT-72" x="227.929688"/>
       <use xlink:href="#ArialMT-79" x="261.230469"/>
       <use xlink:href="#ArialMT-20" x="311.230469"/>
       <use xlink:href="#ArialMT-4d" x="339.013672"/>
       <use xlink:href="#ArialMT-69" x="422.314453"/>
       <use xlink:href="#ArialMT-6e" x="444.53125"/>
       <use xlink:href="#ArialMT-64" x="500.146484"/>
      </g>
     </g>
    </g>
    <g id="xtick_8">
     <g id="text_8">
      <!-- Person -->
      <g style="fill: #002699" transform="translate(371.700397 452.263724) scale(0.3 -0.3)">
       <defs>
        <path id="ArialMT-50" d="M 494 0 
L 494 4581 
L 2222 4581 
Q 2678 4581 2919 4538 
Q 3256 4481 3484 4323 
Q 3713 4166 3852 3881 
Q 3991 3597 3991 3256 
Q 3991 2672 3619 2267 
Q 3247 1863 2275 1863 
L 1100 1863 
L 1100 0 
L 494 0 
z
M 1100 2403 
L 2284 2403 
Q 2872 2403 3119 2622 
Q 3366 2841 3366 3238 
Q 3366 3525 3220 3729 
Q 3075 3934 2838 4000 
Q 2684 4041 2272 4041 
L 1100 4041 
L 1100 2403 
z
" transform="scale(0.015625)"/>
       </defs>
       <use xlink:href="#ArialMT-50"/>
       <use xlink:href="#ArialMT-65" x="66.699219"/>
       <use xlink:href="#ArialMT-72" x="122.314453"/>
       <use xlink:href="#ArialMT-73" x="155.615234"/>
       <use xlink:href="#ArialMT-6f" x="205.615234"/>
       <use xlink:href="#ArialMT-6e" x="261.230469"/>
      </g>
     </g>
    </g>
    <g id="xtick_9">
     <g id="text_9">
      <!-- Motivation -->
      <g style="fill: #8b0000" transform="translate(141.858933 452.263724) scale(0.3 -0.3)">
       <defs>
        <path id="ArialMT-76" d="M 1344 0 
L 81 3319 
L 675 3319 
L 1388 1331 
Q 1503 1009 1600 663 
Q 1675 925 1809 1294 
L 2547 3319 
L 3125 3319 
L 1869 0 
L 1344 0 
z
" transform="scale(0.015625)"/>
       </defs>
       <use xlink:href="#ArialMT-4d"/>
       <use xlink:href="#ArialMT-6f" x="83.300781"/>
       <use xlink:href="#ArialMT-74" x="138.916016"/>
       <use xlink:href="#ArialMT-69" x="166.699219"/>
       <use xlink:href="#ArialMT-76" x="188.916016"/>
       <use xlink:href="#ArialMT-61" x="238.916016"/>
       <use xlink:href="#ArialMT-74" x="294.53125"/>
       <use xlink:href="#ArialMT-69" x="322.314453"/>
       <use xlink:href="#ArialMT-6f" x="344.53125"/>
       <use xlink:href="#ArialMT-6e" x="400.146484"/>
      </g>
     </g>
    </g>
    <g id="xtick_10">
     <g id="text_10">
      <!-- Depression -->
      <g style="fill: #8b0000" transform="translate(53.17985 398.689774) scale(0.3 -0.3)">
       <use xlink:href="#ArialMT-44"/>
       <use xlink:href="#ArialMT-65" x="72.216797"/>
       <use xlink:href="#ArialMT-70" x="127.832031"/>
       <use xlink:href="#ArialMT-72" x="183.447266"/>
       <use xlink:href="#ArialMT-65" x="216.748047"/>
       <use xlink:href="#ArialMT-73" x="272.363281"/>
       <use xlink:href="#ArialMT-73" x="322.363281"/>
       <use xlink:href="#ArialMT-69" x="372.363281"/>
       <use xlink:href="#ArialMT-6f" x="394.580078"/>
       <use xlink:href="#ArialMT-6e" x="450.195312"/>
      </g>
     </g>
    </g>
    <g id="xtick_11">
     <g id="text_11">
      <!-- Emotion -->
      <g style="fill: #8b0000" transform="translate(37.954547 335.483438) scale(0.3 -0.3)">
       <defs>
        <path id="ArialMT-45" d="M 506 0 
L 506 4581 
L 3819 4581 
L 3819 4041 
L 1113 4041 
L 1113 2638 
L 3647 2638 
L 3647 2100 
L 1113 2100 
L 1113 541 
L 3925 541 
L 3925 0 
L 506 0 
z
" transform="scale(0.015625)"/>
        <path id="ArialMT-6d" d="M 422 0 
L 422 3319 
L 925 3319 
L 925 2853 
Q 1081 3097 1340 3245 
Q 1600 3394 1931 3394 
Q 2300 3394 2536 3241 
Q 2772 3088 2869 2813 
Q 3263 3394 3894 3394 
Q 4388 3394 4653 3120 
Q 4919 2847 4919 2278 
L 4919 0 
L 4359 0 
L 4359 2091 
Q 4359 2428 4304 2576 
Q 4250 2725 4106 2815 
Q 3963 2906 3769 2906 
Q 3419 2906 3187 2673 
Q 2956 2441 2956 1928 
L 2956 0 
L 2394 0 
L 2394 2156 
Q 2394 2531 2256 2718 
Q 2119 2906 1806 2906 
Q 1569 2906 1367 2781 
Q 1166 2656 1075 2415 
Q 984 2175 984 1722 
L 984 0 
L 422 0 
z
" transform="scale(0.015625)"/>
       </defs>
       <use xlink:href="#ArialMT-45"/>
       <use xlink:href="#ArialMT-6d" x="66.699219"/>
       <use xlink:href="#ArialMT-6f" x="150"/>
       <use xlink:href="#ArialMT-74" x="205.615234"/>
       <use xlink:href="#ArialMT-69" x="233.398438"/>
       <use xlink:href="#ArialMT-6f" x="255.615234"/>
       <use xlink:href="#ArialMT-6e" x="311.230469"/>
      </g>
     </g>
    </g>
    <g id="xtick_12">
     <g id="text_12">
      <!-- Affective -->
      <g style="fill: #8b0000" transform="translate(7.2 254.593689) scale(0.3 -0.3)">
       <use xlink:href="#ArialMT-41"/>
       <use xlink:href="#ArialMT-66" x="66.699219"/>
       <use xlink:href="#ArialMT-66" x="92.732422"/>
       <use xlink:href="#ArialMT-65" x="120.515625"/>
       <use xlink:href="#ArialMT-63" x="176.130859"/>
       <use xlink:href="#ArialMT-74" x="226.130859"/>
       <use xlink:href="#ArialMT-69" x="253.914062"/>
       <use xlink:href="#ArialMT-76" x="276.130859"/>
       <use xlink:href="#ArialMT-65" x="326.130859"/>
      </g>
     </g>
    </g>
    <g id="xtick_13">
     <g id="text_13">
      <!-- Fear -->
      <g style="fill: #8b0000" transform="translate(68.932596 170.007101) scale(0.3 -0.3)">
       <defs>
        <path id="ArialMT-46" d="M 525 0 
L 525 4581 
L 3616 4581 
L 3616 4041 
L 1131 4041 
L 1131 2622 
L 3281 2622 
L 3281 2081 
L 1131 2081 
L 1131 0 
L 525 0 
z
" transform="scale(0.015625)"/>
       </defs>
       <use xlink:href="#ArialMT-46"/>
       <use xlink:href="#ArialMT-65" x="61.083984"/>
       <use xlink:href="#ArialMT-61" x="116.699219"/>
       <use xlink:href="#ArialMT-72" x="172.314453"/>
      </g>
     </g>
    </g>
    <g id="xtick_14">
     <g id="text_14">
      <!-- Food -->
      <g style="fill: #e6af00" transform="translate(104.765103 96.349463) scale(0.3 -0.3)">
       <use xlink:href="#ArialMT-46"/>
       <use xlink:href="#ArialMT-6f" x="61.083984"/>
       <use xlink:href="#ArialMT-6f" x="116.699219"/>
       <use xlink:href="#ArialMT-64" x="172.314453"/>
      </g>
     </g>
    </g>
    <g id="xtick_15">
     <g id="text_15">
      <!-- Choice -->
      <g style="fill: #e6af00" transform="translate(148.566221 46.35685) scale(0.3 -0.3)">
       <defs>
        <path id="ArialMT-43" d="M 3763 1606 
L 4369 1453 
Q 4178 706 3683 314 
Q 3188 -78 2472 -78 
Q 1731 -78 1267 223 
Q 803 525 561 1097 
Q 319 1669 319 2325 
Q 319 3041 592 3573 
Q 866 4106 1370 4382 
Q 1875 4659 2481 4659 
Q 3169 4659 3637 4309 
Q 4106 3959 4291 3325 
L 3694 3184 
Q 3534 3684 3231 3912 
Q 2928 4141 2469 4141 
Q 1941 4141 1586 3887 
Q 1231 3634 1087 3207 
Q 944 2781 944 2328 
Q 944 1744 1114 1308 
Q 1284 872 1643 656 
Q 2003 441 2422 441 
Q 2931 441 3284 734 
Q 3638 1028 3763 1606 
z
" transform="scale(0.015625)"/>
       </defs>
       <use xlink:href="#ArialMT-43"/>
       <use xlink:href="#ArialMT-68" x="72.216797"/>
       <use xlink:href="#ArialMT-6f" x="127.832031"/>
       <use xlink:href="#ArialMT-69" x="183.447266"/>
       <use xlink:href="#ArialMT-63" x="205.664062"/>
       <use xlink:href="#ArialMT-65" x="255.664062"/>
      </g>
     </g>
    </g>
   </g>
   <g id="matplotlib.axis_2">
    <g id="ytick_1"/>
    <g id="ytick_2"/>
    <g id="ytick_3"/>
    <g id="ytick_4"/>
    <g id="ytick_5"/>
    <g id="ytick_6"/>
    <g id="ytick_7"/>
   </g>
   <g id="line2d_1">
    <path d="M 325.139821 197.737969 
L 336.414561 200.134489 
L 345.739796 206.909668 
L 351.503108 216.892018 
L 352.707968 228.355498 
L 349.146045 239.317969 
L 341.433228 247.88392 
L 330.903133 252.57222 
L 319.376509 252.57222 
L 308.846414 247.88392 
L 301.133597 239.317969 
L 297.571674 228.355498 
L 298.776534 216.892018 
L 304.539846 206.909668 
L 313.865081 200.134489 
L 325.139821 197.737969 
" clip-path="url(#p8693caf1bf)" style="fill: none; stroke-dasharray: 1.85,0.8; stroke-dashoffset: 0; stroke: #808080; stroke-width: 0.5"/>
   </g>
   <g id="line2d_2">
    <path d="M 325.139821 170.017969 
L 347.6893 174.811009 
L 366.33977 188.361368 
L 377.866394 208.326067 
L 380.276115 231.253027 
L 373.152269 253.177969 
L 357.726635 270.309871 
L 336.666445 279.686472 
L 313.613197 279.686472 
L 292.553007 270.309871 
L 277.127373 253.177969 
L 270.003527 231.253027 
L 272.413248 208.326067 
L 283.939872 188.361368 
L 302.590341 174.811009 
L 325.139821 170.017969 
" clip-path="url(#p8693caf1bf)" style="fill: none; stroke-dasharray: 1.85,0.8; stroke-dashoffset: 0; stroke: #808080; stroke-width: 0.5"/>
   </g>
   <g id="line2d_3">
    <path d="M 325.139821 142.297969 
L 358.96404 149.487528 
L 386.939745 169.813068 
L 404.229681 199.760115 
L 407.844262 234.150556 
L 397.158494 267.037969 
L 374.020043 292.735822 
L 342.429757 306.800723 
L 307.849885 306.800723 
L 276.259599 292.735822 
L 253.121148 267.037969 
L 242.43538 234.150556 
L 246.049961 199.760115 
L 263.339897 169.813068 
L 291.315602 149.487528 
L 325.139821 142.297969 
" clip-path="url(#p8693caf1bf)" style="fill: none; stroke-dasharray: 1.85,0.8; stroke-dashoffset: 0; stroke: #808080; stroke-width: 0.5"/>
   </g>
   <g id="line2d_4">
    <path d="M 325.139821 114.577969 
L 370.23878 124.164048 
L 407.539719 151.264767 
L 430.592968 191.194164 
L 435.412409 237.048085 
L 421.164718 280.897969 
L 390.31345 315.161773 
L 348.193069 333.914975 
L 302.086573 333.914975 
L 259.966192 315.161773 
L 229.114924 280.897969 
L 214.867233 237.048085 
L 219.686674 191.194164 
L 242.739923 151.264767 
L 280.040862 124.164048 
L 325.139821 114.577969 
" clip-path="url(#p8693caf1bf)" style="fill: none; stroke-dasharray: 1.85,0.8; stroke-dashoffset: 0; stroke: #808080; stroke-width: 0.5"/>
   </g>
   <g id="line2d_5">
    <path d="M 325.139821 86.857969 
L 381.51352 98.840568 
L 428.139694 132.716467 
L 456.956254 182.628213 
L 462.980556 239.945614 
L 445.170942 294.757969 
L 406.606857 337.587724 
L 353.956381 361.029226 
L 296.323261 361.029226 
L 243.672785 337.587724 
L 205.1087 294.757969 
L 187.299086 239.945614 
L 193.323388 182.628213 
L 222.139948 132.716467 
L 268.766122 98.840568 
L 325.139821 86.857969 
" clip-path="url(#p8693caf1bf)" style="fill: none; stroke-dasharray: 1.85,0.8; stroke-dashoffset: 0; stroke: #808080; stroke-width: 0.5"/>
   </g>
   <g id="line2d_6">
    <path d="M 325.139821 59.137969 
L 392.788259 73.517088 
L 448.739668 114.168166 
L 483.319541 174.062262 
L 490.548703 242.843143 
L 469.177166 308.617969 
L 422.900264 360.013675 
L 359.719693 388.143478 
L 290.559949 388.143478 
L 227.379378 360.013675 
L 181.102476 308.617969 
L 159.730939 242.843143 
L 166.960101 174.062262 
L 201.539974 114.168166 
L 257.491383 73.517088 
L 325.139821 59.137969 
" clip-path="url(#p8693caf1bf)" style="fill: none; stroke-dasharray: 1.85,0.8; stroke-dashoffset: 0; stroke: #808080; stroke-width: 0.5"/>
   </g>
   <g id="line2d_7">
    <path d="M 325.139821 31.417969 
L 404.062999 48.193608 
L 469.339643 95.619866 
L 509.682827 165.496311 
L 518.11685 245.740672 
L 493.18339 322.477969 
L 439.193671 382.439626 
L 365.483005 415.257729 
L 284.796636 415.257729 
L 211.085971 382.439626 
L 157.096252 322.477969 
L 132.162792 245.740672 
L 140.596815 165.496311 
L 180.939999 95.619866 
L 246.216643 48.193608 
L 325.139821 31.417969 
" clip-path="url(#p8693caf1bf)" style="fill: none; stroke-dasharray: 1.85,0.8; stroke-dashoffset: 0; stroke: #808080; stroke-width: 0.5"/>
   </g>
   <g id="line2d_8">
    <path d="M 325.139821 197.737969 
L 325.139821 170.017969 
L 325.139821 142.297969 
L 325.139821 114.577969 
L 325.139821 86.857969 
L 325.139821 59.137969 
L 325.139821 31.417969 
" clip-path="url(#p8693caf1bf)" style="fill: none; stroke-dasharray: 1.85,0.8; stroke-dashoffset: 0; stroke: #808080; stroke-width: 0.5"/>
   </g>
   <g id="line2d_9">
    <path d="M 336.414561 200.134489 
L 347.6893 174.811009 
L 358.96404 149.487528 
L 370.23878 124.164048 
L 381.51352 98.840568 
L 392.788259 73.517088 
L 404.062999 48.193608 
" clip-path="url(#p8693caf1bf)" style="fill: none; stroke-dasharray: 1.85,0.8; stroke-dashoffset: 0; stroke: #808080; stroke-width: 0.5"/>
   </g>
   <g id="line2d_10">
    <path d="M 345.739796 206.909668 
L 366.33977 188.361368 
L 386.939745 169.813068 
L 407.539719 151.264767 
L 428.139694 132.716467 
L 448.739668 114.168166 
L 469.339643 95.619866 
" clip-path="url(#p8693caf1bf)" style="fill: none; stroke-dasharray: 1.85,0.8; stroke-dashoffset: 0; stroke: #808080; stroke-width: 0.5"/>
   </g>
   <g id="line2d_11">
    <path d="M 351.503108 216.892018 
L 377.866394 208.326067 
L 404.229681 199.760115 
L 430.592968 191.194164 
L 456.956254 182.628213 
L 483.319541 174.062262 
L 509.682827 165.496311 
" clip-path="url(#p8693caf1bf)" style="fill: none; stroke-dasharray: 1.85,0.8; stroke-dashoffset: 0; stroke: #808080; stroke-width: 0.5"/>
   </g>
   <g id="line2d_12">
    <path d="M 352.707968 228.355498 
L 380.276115 231.253027 
L 407.844262 234.150556 
L 435.412409 237.048085 
L 462.980556 239.945614 
L 490.548703 242.843143 
L 518.11685 245.740672 
" clip-path="url(#p8693caf1bf)" style="fill: none; stroke-dasharray: 1.85,0.8; stroke-dashoffset: 0; stroke: #808080; stroke-width: 0.5"/>
   </g>
   <g id="line2d_13">
    <path d="M 349.146045 239.317969 
L 373.152269 253.177969 
L 397.158494 267.037969 
L 421.164718 280.897969 
L 445.170942 294.757969 
L 469.177166 308.617969 
L 493.18339 322.477969 
" clip-path="url(#p8693caf1bf)" style="fill: none; stroke-dasharray: 1.85,0.8; stroke-dashoffset: 0; stroke: #808080; stroke-width: 0.5"/>
   </g>
   <g id="line2d_14">
    <path d="M 341.433228 247.88392 
L 357.726635 270.309871 
L 374.020043 292.735822 
L 390.31345 315.161773 
L 406.606857 337.587724 
L 422.900264 360.013675 
L 439.193671 382.439626 
" clip-path="url(#p8693caf1bf)" style="fill: none; stroke-dasharray: 1.85,0.8; stroke-dashoffset: 0; stroke: #808080; stroke-width: 0.5"/>
   </g>
   <g id="line2d_15">
    <path d="M 330.903133 252.57222 
L 336.666445 279.686472 
L 342.429757 306.800723 
L 348.193069 333.914975 
L 353.956381 361.029226 
L 359.719693 388.143478 
L 365.483005 415.257729 
" clip-path="url(#p8693caf1bf)" style="fill: none; stroke-dasharray: 1.85,0.8; stroke-dashoffset: 0; stroke: #808080; stroke-width: 0.5"/>
   </g>
   <g id="line2d_16">
    <path d="M 319.376509 252.57222 
L 313.613197 279.686472 
L 307.849885 306.800723 
L 302.086573 333.914975 
L 296.323261 361.029226 
L 290.559949 388.143478 
L 284.796636 415.257729 
" clip-path="url(#p8693caf1bf)" style="fill: none; stroke-dasharray: 1.85,0.8; stroke-dashoffset: 0; stroke: #808080; stroke-width: 0.5"/>
   </g>
   <g id="line2d_17">
    <path d="M 308.846414 247.88392 
L 292.553007 270.309871 
L 276.259599 292.735822 
L 259.966192 315.161773 
L 243.672785 337.587724 
L 227.379378 360.013675 
L 211.085971 382.439626 
" clip-path="url(#p8693caf1bf)" style="fill: none; stroke-dasharray: 1.85,0.8; stroke-dashoffset: 0; stroke: #808080; stroke-width: 0.5"/>
   </g>
   <g id="line2d_18">
    <path d="M 301.133597 239.317969 
L 277.127373 253.177969 
L 253.121148 267.037969 
L 229.114924 280.897969 
L 205.1087 294.757969 
L 181.102476 308.617969 
L 157.096252 322.477969 
" clip-path="url(#p8693caf1bf)" style="fill: none; stroke-dasharray: 1.85,0.8; stroke-dashoffset: 0; stroke: #808080; stroke-width: 0.5"/>
   </g>
   <g id="line2d_19">
    <path d="M 297.571674 228.355498 
L 270.003527 231.253027 
L 242.43538 234.150556 
L 214.867233 237.048085 
L 187.299086 239.945614 
L 159.730939 242.843143 
L 132.162792 245.740672 
" clip-path="url(#p8693caf1bf)" style="fill: none; stroke-dasharray: 1.85,0.8; stroke-dashoffset: 0; stroke: #808080; stroke-width: 0.5"/>
   </g>
   <g id="line2d_20">
    <path d="M 298.776534 216.892018 
L 272.413248 208.326067 
L 246.049961 199.760115 
L 219.686674 191.194164 
L 193.323388 182.628213 
L 166.960101 174.062262 
L 140.596815 165.496311 
" clip-path="url(#p8693caf1bf)" style="fill: none; stroke-dasharray: 1.85,0.8; stroke-dashoffset: 0; stroke: #808080; stroke-width: 0.5"/>
   </g>
   <g id="line2d_21">
    <path d="M 304.539846 206.909668 
L 283.939872 188.361368 
L 263.339897 169.813068 
L 242.739923 151.264767 
L 222.139948 132.716467 
L 201.539974 114.168166 
L 180.939999 95.619866 
" clip-path="url(#p8693caf1bf)" style="fill: none; stroke-dasharray: 1.85,0.8; stroke-dashoffset: 0; stroke: #808080; stroke-width: 0.5"/>
   </g>
   <g id="line2d_22">
    <path d="M 313.865081 200.134489 
L 302.590341 174.811009 
L 291.315602 149.487528 
L 280.040862 124.164048 
L 268.766122 98.840568 
L 257.491383 73.517088 
L 246.216643 48.193608 
" clip-path="url(#p8693caf1bf)" style="fill: none; stroke-dasharray: 1.85,0.8; stroke-dashoffset: 0; stroke: #808080; stroke-width: 0.5"/>
   </g>
   <g id="line2d_23">
    <path d="M 325.139821 100.329889 
L 358.219907 151.158878 
L 403.316724 155.067169 
L 465.339779 179.904241 
L 463.394078 239.989077 
L 464.015828 305.638069 
L 398.346099 326.217767 
L 345.536182 321.415305 
L 309.308003 299.940818 
L 269.546716 301.975314 
L 216.511657 288.174469 
L 218.974887 236.616353 
L 243.334543 198.877823 
L 277.55388 182.611395 
L 293.502901 154.400284 
L 325.139821 100.329889 
" clip-path="url(#p8693caf1bf)" style="fill: none; stroke: #c00000; stroke-width: 5; stroke-linecap: round"/>
    <defs>
     <path id="m0f21b5c131" d="M 0 4 
C 1.060812 4 2.078319 3.578535 2.828427 2.828427 
C 3.578535 2.078319 4 1.060812 4 0 
C 4 -1.060812 3.578535 -2.078319 2.828427 -2.828427 
C 2.078319 -3.578535 1.060812 -4 0 -4 
C -1.060812 -4 -2.078319 -3.578535 -2.828427 -2.828427 
C -3.578535 -2.078319 -4 -1.060812 -4 0 
C -4 1.060812 -3.578535 2.078319 -2.828427 2.828427 
C -2.078319 3.578535 -1.060812 4 0 4 
z
" style="stroke: #c00000"/>
    </defs>
    <g clip-path="url(#p8693caf1bf)">
     <use xlink:href="#m0f21b5c131" x="325.139821" y="100.329889" style="fill: #c00000; stroke: #c00000"/>
     <use xlink:href="#m0f21b5c131" x="358.219907" y="151.158878" style="fill: #c00000; stroke: #c00000"/>
     <use xlink:href="#m0f21b5c131" x="403.316724" y="155.067169" style="fill: #c00000; stroke: #c00000"/>
     <use xlink:href="#m0f21b5c131" x="465.339779" y="179.904241" style="fill: #c00000; stroke: #c00000"/>
     <use xlink:href="#m0f21b5c131" x="463.394078" y="239.989077" style="fill: #c00000; stroke: #c00000"/>
     <use xlink:href="#m0f21b5c131" x="464.015828" y="305.638069" style="fill: #c00000; stroke: #c00000"/>
     <use xlink:href="#m0f21b5c131" x="398.346099" y="326.217767" style="fill: #c00000; stroke: #c00000"/>
     <use xlink:href="#m0f21b5c131" x="345.536182" y="321.415305" style="fill: #c00000; stroke: #c00000"/>
     <use xlink:href="#m0f21b5c131" x="309.308003" y="299.940818" style="fill: #c00000; stroke: #c00000"/>
     <use xlink:href="#m0f21b5c131" x="269.546716" y="301.975314" style="fill: #c00000; stroke: #c00000"/>
     <use xlink:href="#m0f21b5c131" x="216.511657" y="288.174469" style="fill: #c00000; stroke: #c00000"/>
     <use xlink:href="#m0f21b5c131" x="218.974887" y="236.616353" style="fill: #c00000; stroke: #c00000"/>
     <use xlink:href="#m0f21b5c131" x="243.334543" y="198.877823" style="fill: #c00000; stroke: #c00000"/>
     <use xlink:href="#m0f21b5c131" x="277.55388" y="182.611395" style="fill: #c00000; stroke: #c00000"/>
     <use xlink:href="#m0f21b5c131" x="293.502901" y="154.400284" style="fill: #c00000; stroke: #c00000"/>
     <use xlink:href="#m0f21b5c131" x="325.139821" y="100.329889" style="fill: #c00000; stroke: #c00000"/>
    </g>
   </g>
   <g id="line2d_24">
    <path d="M 325.139821 115.908529 
L 364.973477 135.990114 
L 392.357538 164.934865 
L 458.168965 182.23418 
L 449.058641 238.482362 
L 446.923396 295.769749 
L 395.722861 322.607189 
L 345.380573 320.68322 
L 312.327978 285.73295 
L 282.320747 284.393368 
L 245.463163 271.459309 
L 244.640832 233.918753 
L 271.121447 207.906335 
L 288.904466 192.831508 
L 288.260147 142.624865 
L 325.139821 115.908529 
" clip-path="url(#p8693caf1bf)" style="fill: none; stroke: #dcd844; stroke-width: 5; stroke-linecap: round"/>
    <defs>
     <path id="m87ac9a6931" d="M 0 4 
C 1.060812 4 2.078319 3.578535 2.828427 2.828427 
C 3.578535 2.078319 4 1.060812 4 0 
C 4 -1.060812 3.578535 -2.078319 2.828427 -2.828427 
C 2.078319 -3.578535 1.060812 -4 0 -4 
C -1.060812 -4 -2.078319 -3.578535 -2.828427 -2.828427 
C -3.578535 -2.078319 -4 -1.060812 -4 0 
C -4 1.060812 -3.578535 2.078319 -2.828427 2.828427 
C -2.078319 3.578535 -1.060812 4 0 4 
z
" style="stroke: #dcd844"/>
    </defs>
    <g clip-path="url(#p8693caf1bf)">
     <use xlink:href="#m87ac9a6931" x="325.139821" y="115.908529" style="fill: #dcd844; stroke: #dcd844"/>
     <use xlink:href="#m87ac9a6931" x="364.973477" y="135.990114" style="fill: #dcd844; stroke: #dcd844"/>
     <use xlink:href="#m87ac9a6931" x="392.357538" y="164.934865" style="fill: #dcd844; stroke: #dcd844"/>
     <use xlink:href="#m87ac9a6931" x="458.168965" y="182.23418" style="fill: #dcd844; stroke: #dcd844"/>
     <use xlink:href="#m87ac9a6931" x="449.058641" y="238.482362" style="fill: #dcd844; stroke: #dcd844"/>
     <use xlink:href="#m87ac9a6931" x="446.923396" y="295.769749" style="fill: #dcd844; stroke: #dcd844"/>
     <use xlink:href="#m87ac9a6931" x="395.722861" y="322.607189" style="fill: #dcd844; stroke: #dcd844"/>
     <use xlink:href="#m87ac9a6931" x="345.380573" y="320.68322" style="fill: #dcd844; stroke: #dcd844"/>
     <use xlink:href="#m87ac9a6931" x="312.327978" y="285.73295" style="fill: #dcd844; stroke: #dcd844"/>
     <use xlink:href="#m87ac9a6931" x="282.320747" y="284.393368" style="fill: #dcd844; stroke: #dcd844"/>
     <use xlink:href="#m87ac9a6931" x="245.463163" y="271.459309" style="fill: #dcd844; stroke: #dcd844"/>
     <use xlink:href="#m87ac9a6931" x="244.640832" y="233.918753" style="fill: #dcd844; stroke: #dcd844"/>
     <use xlink:href="#m87ac9a6931" x="271.121447" y="207.906335" style="fill: #dcd844; stroke: #dcd844"/>
     <use xlink:href="#m87ac9a6931" x="288.904466" y="192.831508" style="fill: #dcd844; stroke: #dcd844"/>
     <use xlink:href="#m87ac9a6931" x="288.260147" y="142.624865" style="fill: #dcd844; stroke: #dcd844"/>
     <use xlink:href="#m87ac9a6931" x="325.139821" y="115.908529" style="fill: #dcd844; stroke: #dcd844"/>
    </g>
   </g>
   <g id="line2d_25">
    <path d="M 325.139821 141.799009 
L 350.293765 168.961285 
L 360.983777 193.183926 
L 441.929181 187.510805 
L 463.035692 239.951409 
L 460.943031 303.863989 
L 410.777969 343.328768 
L 349.703057 341.018909 
L 317.687858 260.516696 
L 289.620193 274.346542 
L 248.992078 269.421889 
L 260.106562 232.29324 
L 282.774019 211.692485 
L 305.508045 207.781438 
L 298.599084 165.846497 
L 325.139821 141.799009 
" clip-path="url(#p8693caf1bf)" style="fill: none; stroke: #0033cc; stroke-width: 5; stroke-linecap: round"/>
    <defs>
     <path id="m464fcd8cb9" d="M 0 4 
C 1.060812 4 2.078319 3.578535 2.828427 2.828427 
C 3.578535 2.078319 4 1.060812 4 0 
C 4 -1.060812 3.578535 -2.078319 2.828427 -2.828427 
C 2.078319 -3.578535 1.060812 -4 0 -4 
C -1.060812 -4 -2.078319 -3.578535 -2.828427 -2.828427 
C -3.578535 -2.078319 -4 -1.060812 -4 0 
C -4 1.060812 -3.578535 2.078319 -2.828427 2.828427 
C -2.078319 3.578535 -1.060812 4 0 4 
z
" style="stroke: #0033cc"/>
    </defs>
    <g clip-path="url(#p8693caf1bf)">
     <use xlink:href="#m464fcd8cb9" x="325.139821" y="141.799009" style="fill: #0033cc; stroke: #0033cc"/>
     <use xlink:href="#m464fcd8cb9" x="350.293765" y="168.961285" style="fill: #0033cc; stroke: #0033cc"/>
     <use xlink:href="#m464fcd8cb9" x="360.983777" y="193.183926" style="fill: #0033cc; stroke: #0033cc"/>
     <use xlink:href="#m464fcd8cb9" x="441.929181" y="187.510805" style="fill: #0033cc; stroke: #0033cc"/>
     <use xlink:href="#m464fcd8cb9" x="463.035692" y="239.951409" style="fill: #0033cc; stroke: #0033cc"/>
     <use xlink:href="#m464fcd8cb9" x="460.943031" y="303.863989" style="fill: #0033cc; stroke: #0033cc"/>
     <use xlink:href="#m464fcd8cb9" x="410.777969" y="343.328768" style="fill: #0033cc; stroke: #0033cc"/>
     <use xlink:href="#m464fcd8cb9" x="349.703057" y="341.018909" style="fill: #0033cc; stroke: #0033cc"/>
     <use xlink:href="#m464fcd8cb9" x="317.687858" y="260.516696" style="fill: #0033cc; stroke: #0033cc"/>
     <use xlink:href="#m464fcd8cb9" x="289.620193" y="274.346542" style="fill: #0033cc; stroke: #0033cc"/>
     <use xlink:href="#m464fcd8cb9" x="248.992078" y="269.421889" style="fill: #0033cc; stroke: #0033cc"/>
     <use xlink:href="#m464fcd8cb9" x="260.106562" y="232.29324" style="fill: #0033cc; stroke: #0033cc"/>
     <use xlink:href="#m464fcd8cb9" x="282.774019" y="211.692485" style="fill: #0033cc; stroke: #0033cc"/>
     <use xlink:href="#m464fcd8cb9" x="305.508045" y="207.781438" style="fill: #0033cc; stroke: #0033cc"/>
     <use xlink:href="#m464fcd8cb9" x="298.599084" y="165.846497" style="fill: #0033cc; stroke: #0033cc"/>
     <use xlink:href="#m464fcd8cb9" x="325.139821" y="141.799009" style="fill: #0033cc; stroke: #0033cc"/>
    </g>
   </g>
   <g id="text_16">
    <!-- 0.10 -->
    <g style="fill: #262626" transform="translate(303.729328 279.930466) scale(0.15 -0.15)">
     <defs>
      <path id="Arial-BoldMT-30" d="M 1756 4600 
Q 2422 4600 2797 4125 
Q 3244 3563 3244 2259 
Q 3244 959 2794 391 
Q 2422 -78 1756 -78 
Q 1088 -78 678 436 
Q 269 950 269 2269 
Q 269 3563 719 4131 
Q 1091 4600 1756 4600 
z
M 1756 3872 
Q 1597 3872 1472 3770 
Q 1347 3669 1278 3406 
Q 1188 3066 1188 2259 
Q 1188 1453 1269 1151 
Q 1350 850 1473 750 
Q 1597 650 1756 650 
Q 1916 650 2041 751 
Q 2166 853 2234 1116 
Q 2325 1453 2325 2259 
Q 2325 3066 2244 3367 
Q 2163 3669 2039 3770 
Q 1916 3872 1756 3872 
z
" transform="scale(0.015625)"/>
      <path id="Arial-BoldMT-2e" d="M 459 0 
L 459 878 
L 1338 878 
L 1338 0 
L 459 0 
z
" transform="scale(0.015625)"/>
      <path id="Arial-BoldMT-31" d="M 2519 0 
L 1641 0 
L 1641 3309 
Q 1159 2859 506 2644 
L 506 3441 
Q 850 3553 1253 3867 
Q 1656 4181 1806 4600 
L 2519 4600 
L 2519 0 
z
" transform="scale(0.015625)"/>
     </defs>
     <use xlink:href="#Arial-BoldMT-30"/>
     <use xlink:href="#Arial-BoldMT-2e" x="55.615234"/>
     <use xlink:href="#Arial-BoldMT-31" x="83.398438"/>
     <use xlink:href="#Arial-BoldMT-30" x="139.013672"/>
    </g>
   </g>
   <g id="text_17">
    <!-- 0.20 -->
    <g style="fill: #262626" transform="translate(297.966016 307.044717) scale(0.15 -0.15)">
     <defs>
      <path id="Arial-BoldMT-32" d="M 3238 816 
L 3238 0 
L 159 0 
Q 209 463 459 877 
Q 709 1291 1447 1975 
Q 2041 2528 2175 2725 
Q 2356 2997 2356 3263 
Q 2356 3556 2198 3714 
Q 2041 3872 1763 3872 
Q 1488 3872 1325 3706 
Q 1163 3541 1138 3156 
L 263 3244 
Q 341 3969 753 4284 
Q 1166 4600 1784 4600 
Q 2463 4600 2850 4234 
Q 3238 3869 3238 3325 
Q 3238 3016 3127 2736 
Q 3016 2456 2775 2150 
Q 2616 1947 2200 1565 
Q 1784 1184 1673 1059 
Q 1563 934 1494 816 
L 3238 816 
z
" transform="scale(0.015625)"/>
     </defs>
     <use xlink:href="#Arial-BoldMT-30"/>
     <use xlink:href="#Arial-BoldMT-2e" x="55.615234"/>
     <use xlink:href="#Arial-BoldMT-32" x="83.398438"/>
     <use xlink:href="#Arial-BoldMT-30" x="139.013672"/>
    </g>
   </g>
   <g id="text_18">
    <!-- 0.30 -->
    <g style="fill: #262626" transform="translate(292.202704 334.158969) scale(0.15 -0.15)">
     <defs>
      <path id="Arial-BoldMT-33" d="M 241 1216 
L 1091 1319 
Q 1131 994 1309 822 
Q 1488 650 1741 650 
Q 2013 650 2198 856 
Q 2384 1063 2384 1413 
Q 2384 1744 2206 1937 
Q 2028 2131 1772 2131 
Q 1603 2131 1369 2066 
L 1466 2781 
Q 1822 2772 2009 2936 
Q 2197 3100 2197 3372 
Q 2197 3603 2059 3740 
Q 1922 3878 1694 3878 
Q 1469 3878 1309 3722 
Q 1150 3566 1116 3266 
L 306 3403 
Q 391 3819 561 4067 
Q 731 4316 1036 4458 
Q 1341 4600 1719 4600 
Q 2366 4600 2756 4188 
Q 3078 3850 3078 3425 
Q 3078 2822 2419 2463 
Q 2813 2378 3048 2084 
Q 3284 1791 3284 1375 
Q 3284 772 2843 347 
Q 2403 -78 1747 -78 
Q 1125 -78 715 280 
Q 306 638 241 1216 
z
" transform="scale(0.015625)"/>
     </defs>
     <use xlink:href="#Arial-BoldMT-30"/>
     <use xlink:href="#Arial-BoldMT-2e" x="55.615234"/>
     <use xlink:href="#Arial-BoldMT-33" x="83.398438"/>
     <use xlink:href="#Arial-BoldMT-30" x="139.013672"/>
    </g>
   </g>
   <g id="text_19">
    <!-- 0.40 -->
    <g style="fill: #262626" transform="translate(286.439392 361.27322) scale(0.15 -0.15)">
     <defs>
      <path id="Arial-BoldMT-34" d="M 1994 0 
L 1994 922 
L 119 922 
L 119 1691 
L 2106 4600 
L 2844 4600 
L 2844 1694 
L 3413 1694 
L 3413 922 
L 2844 922 
L 2844 0 
L 1994 0 
z
M 1994 1694 
L 1994 3259 
L 941 1694 
L 1994 1694 
z
" transform="scale(0.015625)"/>
     </defs>
     <use xlink:href="#Arial-BoldMT-30"/>
     <use xlink:href="#Arial-BoldMT-2e" x="55.615234"/>
     <use xlink:href="#Arial-BoldMT-34" x="83.398438"/>
     <use xlink:href="#Arial-BoldMT-30" x="139.013672"/>
    </g>
   </g>
   <g id="text_20">
    <!-- 0.50 -->
    <g style="fill: #262626" transform="translate(280.67608 388.387472) scale(0.15 -0.15)">
     <defs>
      <path id="Arial-BoldMT-35" d="M 284 1178 
L 1159 1269 
Q 1197 972 1381 798 
Q 1566 625 1806 625 
Q 2081 625 2272 848 
Q 2463 1072 2463 1522 
Q 2463 1944 2273 2155 
Q 2084 2366 1781 2366 
Q 1403 2366 1103 2031 
L 391 2134 
L 841 4519 
L 3163 4519 
L 3163 3697 
L 1506 3697 
L 1369 2919 
Q 1663 3066 1969 3066 
Q 2553 3066 2959 2641 
Q 3366 2216 3366 1538 
Q 3366 972 3038 528 
Q 2591 -78 1797 -78 
Q 1163 -78 763 262 
Q 363 603 284 1178 
z
" transform="scale(0.015625)"/>
     </defs>
     <use xlink:href="#Arial-BoldMT-30"/>
     <use xlink:href="#Arial-BoldMT-2e" x="55.615234"/>
     <use xlink:href="#Arial-BoldMT-35" x="83.398438"/>
     <use xlink:href="#Arial-BoldMT-30" x="139.013672"/>
    </g>
   </g>
  </g>
 </g>
 <defs>
  <clipPath id="p8693caf1bf">
   <path d="M 519.179821 225.457969 
C 519.179821 199.976869 514.1606 174.743542 504.409405 151.202076 
C 494.658211 127.660609 480.364679 106.268827 462.346821 88.250969 
C 444.328963 70.233111 422.93718 55.939579 399.395714 46.188384 
C 375.854248 36.43719 350.62092 31.417969 325.139821 31.417969 
C 299.658722 31.417969 274.425394 36.43719 250.883928 46.188384 
C 227.342462 55.939579 205.950679 70.233111 187.932821 88.250969 
C 169.914963 106.268827 155.621431 127.660609 145.870236 151.202076 
C 136.119042 174.743542 131.099821 199.976869 131.099821 225.457969 
C 131.099821 250.939068 136.119042 276.172396 145.870236 299.713862 
C 155.621431 323.255328 169.914963 344.64711 187.932821 362.664969 
C 205.950679 380.682827 227.342462 394.976359 250.883928 404.727553 
C 274.425394 414.478748 299.658722 419.497969 325.139821 419.497969 
C 350.62092 419.497969 375.854248 414.478748 399.395714 404.727553 
C 422.93718 394.976359 444.328963 380.682827 462.346821 362.664969 
C 480.364679 344.64711 494.658211 323.255328 504.409405 299.713862 
C 514.1606 276.172396 519.179821 250.939068 519.179821 225.457969 
M 325.139821 225.457969 
C 325.139821 225.457969 325.139821 225.457969 325.139821 225.457969 
C 325.139821 225.457969 325.139821 225.457969 325.139821 225.457969 
C 325.139821 225.457969 325.139821 225.457969 325.139821 225.457969 
C 325.139821 225.457969 325.139821 225.457969 325.139821 225.457969 
C 325.139821 225.457969 325.139821 225.457969 325.139821 225.457969 
C 325.139821 225.457969 325.139821 225.457969 325.139821 225.457969 
C 325.139821 225.457969 325.139821 225.457969 325.139821 225.457969 
C 325.139821 225.457969 325.139821 225.457969 325.139821 225.457969 
C 325.139821 225.457969 325.139821 225.457969 325.139821 225.457969 
C 325.139821 225.457969 325.139821 225.457969 325.139821 225.457969 
C 325.139821 225.457969 325.139821 225.457969 325.139821 225.457969 
C 325.139821 225.457969 325.139821 225.457969 325.139821 225.457969 
C 325.139821 225.457969 325.139821 225.457969 325.139821 225.457969 
C 325.139821 225.457969 325.139821 225.457969 325.139821 225.457969 
C 325.139821 225.457969 325.139821 225.457969 325.139821 225.457969 
C 325.139821 225.457969 325.139821 225.457969 325.139821 225.457969 
z
"/>
  </clipPath>
 </defs>
</svg>
