<?xml version="1.0" encoding="utf-8" standalone="no"?>
<!DOCTYPE svg PUBLIC "-//W3C//DTD SVG 1.1//EN"
  "http://www.w3.org/Graphics/SVG/1.1/DTD/svg11.dtd">
<svg xmlns:xlink="http://www.w3.org/1999/xlink" width="256.978125pt" height="255.898125pt" viewBox="0 0 256.978125 255.898125" xmlns="http://www.w3.org/2000/svg" version="1.1">
 <metadata>
  <rdf:RDF xmlns:dc="http://purl.org/dc/elements/1.1/" xmlns:cc="http://creativecommons.org/ns#" xmlns:rdf="http://www.w3.org/1999/02/22-rdf-syntax-ns#">
   <cc:Work>
    <dc:type rdf:resource="http://purl.org/dc/dcmitype/StillImage"/>
    <dc:date>2025-10-28T14:33:17.495212</dc:date>
    <dc:format>image/svg+xml</dc:format>
    <dc:creator>
     <cc:Agent>
      <dc:title>Matplotlib v3.9.2, https://matplotlib.org/</dc:title>
     </cc:Agent>
    </dc:creator>
   </cc:Work>
  </rdf:RDF>
 </metadata>
 <defs>
  <style type="text/css">*{stroke-linejoin: round; stroke-linecap: butt}</style>
 </defs>
 <g id="figure_1">
  <g id="patch_1">
   <path d="M 0 255.898125 
L 256.978125 255.898125 
L 256.978125 -0 
L 0 -0 
L 0 255.898125 
z
" style="fill: none"/>
  </g>
  <g id="axes_1">
   <g id="patch_2">
    <path d="M 82.378125 173.52 
L 249.778125 173.52 
L 249.778125 7.2 
L 82.378125 7.2 
L 82.378125 173.52 
z
" style="fill: none"/>
   </g>
   <g id="matplotlib.axis_1">
    <g id="xtick_1">
     <g id="text_1">
      <!-- BCP (0-3) -->
      <g style="fill: #262626" transform="translate(101.705625 224.796563) rotate(-90) scale(0.1 -0.1)">
       <defs>
        <path id="ArialMT-42" d="M 469 0 
L 469 4581 
L 2188 4581 
Q 2713 4581 3030 4442 
Q 3347 4303 3526 4014 
Q 3706 3725 3706 3409 
Q 3706 3116 3547 2856 
Q 3388 2597 3066 2438 
Q 3481 2316 3704 2022 
Q 3928 1728 3928 1328 
Q 3928 1006 3792 729 
Q 3656 453 3456 303 
Q 3256 153 2954 76 
Q 2653 0 2216 0 
L 469 0 
z
M 1075 2656 
L 2066 2656 
Q 2469 2656 2644 2709 
Q 2875 2778 2992 2937 
Q 3109 3097 3109 3338 
Q 3109 3566 3000 3739 
Q 2891 3913 2687 3977 
Q 2484 4041 1991 4041 
L 1075 4041 
L 1075 2656 
z
M 1075 541 
L 2216 541 
Q 2509 541 2628 563 
Q 2838 600 2978 687 
Q 3119 775 3209 942 
Q 3300 1109 3300 1328 
Q 3300 1584 3169 1773 
Q 3038 1963 2805 2039 
Q 2572 2116 2134 2116 
L 1075 2116 
L 1075 541 
z
" transform="scale(0.015625)"/>
        <path id="ArialMT-43" d="M 3763 1606 
L 4369 1453 
Q 4178 706 3683 314 
Q 3188 -78 2472 -78 
Q 1731 -78 1267 223 
Q 803 525 561 1097 
Q 319 1669 319 2325 
Q 319 3041 592 3573 
Q 866 4106 1370 4382 
Q 1875 4659 2481 4659 
Q 3169 4659 3637 4309 
Q 4106 3959 4291 3325 
L 3694 3184 
Q 3534 3684 3231 3912 
Q 2928 4141 2469 4141 
Q 1941 4141 1586 3887 
Q 1231 3634 1087 3207 
Q 944 2781 944 2328 
Q 944 1744 1114 1308 
Q 1284 872 1643 656 
Q 2003 441 2422 441 
Q 2931 441 3284 734 
Q 3638 1028 3763 1606 
z
" transform="scale(0.015625)"/>
        <path id="ArialMT-50" d="M 494 0 
L 494 4581 
L 2222 4581 
Q 2678 4581 2919 4538 
Q 3256 4481 3484 4323 
Q 3713 4166 3852 3881 
Q 3991 3597 3991 3256 
Q 3991 2672 3619 2267 
Q 3247 1863 2275 1863 
L 1100 1863 
L 1100 0 
L 494 0 
z
M 1100 2403 
L 2284 2403 
Q 2872 2403 3119 2622 
Q 3366 2841 3366 3238 
Q 3366 3525 3220 3729 
Q 3075 3934 2838 4000 
Q 2684 4041 2272 4041 
L 1100 4041 
L 1100 2403 
z
" transform="scale(0.015625)"/>
        <path id="ArialMT-20" transform="scale(0.015625)"/>
        <path id="ArialMT-28" d="M 1497 -1347 
Q 1031 -759 709 28 
Q 388 816 388 1659 
Q 388 2403 628 3084 
Q 909 3875 1497 4659 
L 1900 4659 
Q 1522 4009 1400 3731 
Q 1209 3300 1100 2831 
Q 966 2247 966 1656 
Q 966 153 1900 -1347 
L 1497 -1347 
z
" transform="scale(0.015625)"/>
        <path id="ArialMT-30" d="M 266 2259 
Q 266 3072 433 3567 
Q 600 4063 929 4331 
Q 1259 4600 1759 4600 
Q 2128 4600 2406 4451 
Q 2684 4303 2865 4023 
Q 3047 3744 3150 3342 
Q 3253 2941 3253 2259 
Q 3253 1453 3087 958 
Q 2922 463 2592 192 
Q 2263 -78 1759 -78 
Q 1097 -78 719 397 
Q 266 969 266 2259 
z
M 844 2259 
Q 844 1131 1108 757 
Q 1372 384 1759 384 
Q 2147 384 2411 759 
Q 2675 1134 2675 2259 
Q 2675 3391 2411 3762 
Q 2147 4134 1753 4134 
Q 1366 4134 1134 3806 
Q 844 3388 844 2259 
z
" transform="scale(0.015625)"/>
        <path id="ArialMT-2d" d="M 203 1375 
L 203 1941 
L 1931 1941 
L 1931 1375 
L 203 1375 
z
" transform="scale(0.015625)"/>
        <path id="ArialMT-33" d="M 269 1209 
L 831 1284 
Q 928 806 1161 595 
Q 1394 384 1728 384 
Q 2125 384 2398 659 
Q 2672 934 2672 1341 
Q 2672 1728 2419 1979 
Q 2166 2231 1775 2231 
Q 1616 2231 1378 2169 
L 1441 2663 
Q 1497 2656 1531 2656 
Q 1891 2656 2178 2843 
Q 2466 3031 2466 3422 
Q 2466 3731 2256 3934 
Q 2047 4138 1716 4138 
Q 1388 4138 1169 3931 
Q 950 3725 888 3313 
L 325 3413 
Q 428 3978 793 4289 
Q 1159 4600 1703 4600 
Q 2078 4600 2393 4439 
Q 2709 4278 2876 4000 
Q 3044 3722 3044 3409 
Q 3044 3113 2884 2869 
Q 2725 2625 2413 2481 
Q 2819 2388 3044 2092 
Q 3269 1797 3269 1353 
Q 3269 753 2831 336 
Q 2394 -81 1725 -81 
Q 1122 -81 723 278 
Q 325 638 269 1209 
z
" transform="scale(0.015625)"/>
        <path id="ArialMT-29" d="M 791 -1347 
L 388 -1347 
Q 1322 153 1322 1656 
Q 1322 2244 1188 2822 
Q 1081 3291 891 3722 
Q 769 4003 388 4659 
L 791 4659 
Q 1378 3875 1659 3084 
Q 1900 2403 1900 1659 
Q 1900 816 1576 28 
Q 1253 -759 791 -1347 
z
" transform="scale(0.015625)"/>
       </defs>
       <use xlink:href="#ArialMT-42"/>
       <use xlink:href="#ArialMT-43" x="66.699219"/>
       <use xlink:href="#ArialMT-50" x="138.916016"/>
       <use xlink:href="#ArialMT-20" x="203.865234"/>
       <use xlink:href="#ArialMT-28" x="231.648438"/>
       <use xlink:href="#ArialMT-30" x="264.949219"/>
       <use xlink:href="#ArialMT-2d" x="320.564453"/>
       <use xlink:href="#ArialMT-33" x="353.865234"/>
       <use xlink:href="#ArialMT-29" x="409.480469"/>
      </g>
     </g>
    </g>
    <g id="xtick_2">
     <g id="text_2">
      <!-- HCPD (05-11) -->
      <g style="fill: #262626" transform="translate(135.185625 243.129375) rotate(-90) scale(0.1 -0.1)">
       <defs>
        <path id="ArialMT-48" d="M 513 0 
L 513 4581 
L 1119 4581 
L 1119 2700 
L 3500 2700 
L 3500 4581 
L 4106 4581 
L 4106 0 
L 3500 0 
L 3500 2159 
L 1119 2159 
L 1119 0 
L 513 0 
z
" transform="scale(0.015625)"/>
        <path id="ArialMT-44" d="M 494 0 
L 494 4581 
L 2072 4581 
Q 2606 4581 2888 4516 
Q 3281 4425 3559 4188 
Q 3922 3881 4101 3404 
Q 4281 2928 4281 2316 
Q 4281 1794 4159 1391 
Q 4038 988 3847 723 
Q 3656 459 3429 307 
Q 3203 156 2883 78 
Q 2563 0 2147 0 
L 494 0 
z
M 1100 541 
L 2078 541 
Q 2531 541 2789 625 
Q 3047 709 3200 863 
Q 3416 1078 3536 1442 
Q 3656 1806 3656 2325 
Q 3656 3044 3420 3430 
Q 3184 3816 2847 3947 
Q 2603 4041 2063 4041 
L 1100 4041 
L 1100 541 
z
" transform="scale(0.015625)"/>
        <path id="ArialMT-35" d="M 266 1200 
L 856 1250 
Q 922 819 1161 601 
Q 1400 384 1738 384 
Q 2144 384 2425 690 
Q 2706 997 2706 1503 
Q 2706 1984 2436 2262 
Q 2166 2541 1728 2541 
Q 1456 2541 1237 2417 
Q 1019 2294 894 2097 
L 366 2166 
L 809 4519 
L 3088 4519 
L 3088 3981 
L 1259 3981 
L 1013 2750 
Q 1425 3038 1878 3038 
Q 2478 3038 2890 2622 
Q 3303 2206 3303 1553 
Q 3303 931 2941 478 
Q 2500 -78 1738 -78 
Q 1113 -78 717 272 
Q 322 622 266 1200 
z
" transform="scale(0.015625)"/>
        <path id="ArialMT-31" d="M 2384 0 
L 1822 0 
L 1822 3584 
Q 1619 3391 1289 3197 
Q 959 3003 697 2906 
L 697 3450 
Q 1169 3672 1522 3987 
Q 1875 4303 2022 4600 
L 2384 4600 
L 2384 0 
z
" transform="scale(0.015625)"/>
       </defs>
       <use xlink:href="#ArialMT-48"/>
       <use xlink:href="#ArialMT-43" x="72.216797"/>
       <use xlink:href="#ArialMT-50" x="144.433594"/>
       <use xlink:href="#ArialMT-44" x="211.132812"/>
       <use xlink:href="#ArialMT-20" x="283.349609"/>
       <use xlink:href="#ArialMT-28" x="311.132812"/>
       <use xlink:href="#ArialMT-30" x="344.433594"/>
       <use xlink:href="#ArialMT-35" x="400.048828"/>
       <use xlink:href="#ArialMT-2d" x="455.664062"/>
       <use xlink:href="#ArialMT-31" x="488.964844"/>
       <use xlink:href="#ArialMT-31" x="537.205078"/>
       <use xlink:href="#ArialMT-29" x="592.820312"/>
      </g>
     </g>
    </g>
    <g id="xtick_3">
     <g id="text_3">
      <!-- HCPD (12-21) -->
      <g style="fill: #262626" transform="translate(168.665625 243.866875) rotate(-90) scale(0.1 -0.1)">
       <defs>
        <path id="ArialMT-32" d="M 3222 541 
L 3222 0 
L 194 0 
Q 188 203 259 391 
Q 375 700 629 1000 
Q 884 1300 1366 1694 
Q 2113 2306 2375 2664 
Q 2638 3022 2638 3341 
Q 2638 3675 2398 3904 
Q 2159 4134 1775 4134 
Q 1369 4134 1125 3890 
Q 881 3647 878 3216 
L 300 3275 
Q 359 3922 746 4261 
Q 1134 4600 1788 4600 
Q 2447 4600 2831 4234 
Q 3216 3869 3216 3328 
Q 3216 3053 3103 2787 
Q 2991 2522 2730 2228 
Q 2469 1934 1863 1422 
Q 1356 997 1212 845 
Q 1069 694 975 541 
L 3222 541 
z
" transform="scale(0.015625)"/>
       </defs>
       <use xlink:href="#ArialMT-48"/>
       <use xlink:href="#ArialMT-43" x="72.216797"/>
       <use xlink:href="#ArialMT-50" x="144.433594"/>
       <use xlink:href="#ArialMT-44" x="211.132812"/>
       <use xlink:href="#ArialMT-20" x="283.349609"/>
       <use xlink:href="#ArialMT-28" x="311.132812"/>
       <use xlink:href="#ArialMT-31" x="344.433594"/>
       <use xlink:href="#ArialMT-32" x="400.048828"/>
       <use xlink:href="#ArialMT-2d" x="455.664062"/>
       <use xlink:href="#ArialMT-32" x="488.964844"/>
       <use xlink:href="#ArialMT-31" x="544.580078"/>
       <use xlink:href="#ArialMT-29" x="600.195312"/>
      </g>
     </g>
    </g>
    <g id="xtick_4">
     <g id="text_4">
      <!-- HCPYA (22-35) -->
      <g style="fill: #262626" transform="translate(202.145625 248.698125) rotate(-90) scale(0.1 -0.1)">
       <defs>
        <path id="ArialMT-59" d="M 1784 0 
L 1784 1941 
L 19 4581 
L 756 4581 
L 1659 3200 
Q 1909 2813 2125 2425 
Q 2331 2784 2625 3234 
L 3513 4581 
L 4219 4581 
L 2391 1941 
L 2391 0 
L 1784 0 
z
" transform="scale(0.015625)"/>
        <path id="ArialMT-41" d="M -9 0 
L 1750 4581 
L 2403 4581 
L 4278 0 
L 3588 0 
L 3053 1388 
L 1138 1388 
L 634 0 
L -9 0 
z
M 1313 1881 
L 2866 1881 
L 2388 3150 
Q 2169 3728 2063 4100 
Q 1975 3659 1816 3225 
L 1313 1881 
z
" transform="scale(0.015625)"/>
       </defs>
       <use xlink:href="#ArialMT-48"/>
       <use xlink:href="#ArialMT-43" x="72.216797"/>
       <use xlink:href="#ArialMT-50" x="144.433594"/>
       <use xlink:href="#ArialMT-59" x="211.132812"/>
       <use xlink:href="#ArialMT-41" x="270.457031"/>
       <use xlink:href="#ArialMT-20" x="331.65625"/>
       <use xlink:href="#ArialMT-28" x="359.439453"/>
       <use xlink:href="#ArialMT-32" x="392.740234"/>
       <use xlink:href="#ArialMT-32" x="448.355469"/>
       <use xlink:href="#ArialMT-2d" x="503.970703"/>
       <use xlink:href="#ArialMT-33" x="537.271484"/>
       <use xlink:href="#ArialMT-35" x="592.886719"/>
       <use xlink:href="#ArialMT-29" x="648.501953"/>
      </g>
     </g>
    </g>
    <g id="xtick_5">
     <g id="text_5">
      <!-- HCPA (36-60) -->
      <g style="fill: #262626" transform="translate(235.625625 242.027813) rotate(-90) scale(0.1 -0.1)">
       <defs>
        <path id="ArialMT-36" d="M 3184 3459 
L 2625 3416 
Q 2550 3747 2413 3897 
Q 2184 4138 1850 4138 
Q 1581 4138 1378 3988 
Q 1113 3794 959 3422 
Q 806 3050 800 2363 
Q 1003 2672 1297 2822 
Q 1591 2972 1913 2972 
Q 2475 2972 2870 2558 
Q 3266 2144 3266 1488 
Q 3266 1056 3080 686 
Q 2894 316 2569 119 
Q 2244 -78 1831 -78 
Q 1128 -78 684 439 
Q 241 956 241 2144 
Q 241 3472 731 4075 
Q 1159 4600 1884 4600 
Q 2425 4600 2770 4297 
Q 3116 3994 3184 3459 
z
M 888 1484 
Q 888 1194 1011 928 
Q 1134 663 1356 523 
Q 1578 384 1822 384 
Q 2178 384 2434 671 
Q 2691 959 2691 1453 
Q 2691 1928 2437 2201 
Q 2184 2475 1800 2475 
Q 1419 2475 1153 2201 
Q 888 1928 888 1484 
z
" transform="scale(0.015625)"/>
       </defs>
       <use xlink:href="#ArialMT-48"/>
       <use xlink:href="#ArialMT-43" x="72.216797"/>
       <use xlink:href="#ArialMT-50" x="144.433594"/>
       <use xlink:href="#ArialMT-41" x="203.757812"/>
       <use xlink:href="#ArialMT-20" x="264.957031"/>
       <use xlink:href="#ArialMT-28" x="292.740234"/>
       <use xlink:href="#ArialMT-33" x="326.041016"/>
       <use xlink:href="#ArialMT-36" x="381.65625"/>
       <use xlink:href="#ArialMT-2d" x="437.271484"/>
       <use xlink:href="#ArialMT-36" x="470.572266"/>
       <use xlink:href="#ArialMT-30" x="526.1875"/>
       <use xlink:href="#ArialMT-29" x="581.802734"/>
      </g>
     </g>
    </g>
   </g>
   <g id="matplotlib.axis_2">
    <g id="ytick_1">
     <g id="text_6">
      <!-- HCPD (05-11) -->
      <g style="fill: #262626" transform="translate(12.76875 26.4195) scale(0.1 -0.1)">
       <use xlink:href="#ArialMT-48"/>
       <use xlink:href="#ArialMT-43" x="72.216797"/>
       <use xlink:href="#ArialMT-50" x="144.433594"/>
       <use xlink:href="#ArialMT-44" x="211.132812"/>
       <use xlink:href="#ArialMT-20" x="283.349609"/>
       <use xlink:href="#ArialMT-28" x="311.132812"/>
       <use xlink:href="#ArialMT-30" x="344.433594"/>
       <use xlink:href="#ArialMT-35" x="400.048828"/>
       <use xlink:href="#ArialMT-2d" x="455.664062"/>
       <use xlink:href="#ArialMT-31" x="488.964844"/>
       <use xlink:href="#ArialMT-31" x="537.205078"/>
       <use xlink:href="#ArialMT-29" x="592.820312"/>
      </g>
     </g>
    </g>
    <g id="ytick_2">
     <g id="text_7">
      <!-- HCPD (12-21) -->
      <g style="fill: #262626" transform="translate(12.03125 59.6835) scale(0.1 -0.1)">
       <use xlink:href="#ArialMT-48"/>
       <use xlink:href="#ArialMT-43" x="72.216797"/>
       <use xlink:href="#ArialMT-50" x="144.433594"/>
       <use xlink:href="#ArialMT-44" x="211.132812"/>
       <use xlink:href="#ArialMT-20" x="283.349609"/>
       <use xlink:href="#ArialMT-28" x="311.132812"/>
       <use xlink:href="#ArialMT-31" x="344.433594"/>
       <use xlink:href="#ArialMT-32" x="400.048828"/>
       <use xlink:href="#ArialMT-2d" x="455.664062"/>
       <use xlink:href="#ArialMT-32" x="488.964844"/>
       <use xlink:href="#ArialMT-31" x="544.580078"/>
       <use xlink:href="#ArialMT-29" x="600.195312"/>
      </g>
     </g>
    </g>
    <g id="ytick_3">
     <g id="text_8">
      <!-- HCPYA (22-35) -->
      <g style="fill: #262626" transform="translate(7.2 92.9475) scale(0.1 -0.1)">
       <use xlink:href="#ArialMT-48"/>
       <use xlink:href="#ArialMT-43" x="72.216797"/>
       <use xlink:href="#ArialMT-50" x="144.433594"/>
       <use xlink:href="#ArialMT-59" x="211.132812"/>
       <use xlink:href="#ArialMT-41" x="270.457031"/>
       <use xlink:href="#ArialMT-20" x="331.65625"/>
       <use xlink:href="#ArialMT-28" x="359.439453"/>
       <use xlink:href="#ArialMT-32" x="392.740234"/>
       <use xlink:href="#ArialMT-32" x="448.355469"/>
       <use xlink:href="#ArialMT-2d" x="503.970703"/>
       <use xlink:href="#ArialMT-33" x="537.271484"/>
       <use xlink:href="#ArialMT-35" x="592.886719"/>
       <use xlink:href="#ArialMT-29" x="648.501953"/>
      </g>
     </g>
    </g>
    <g id="ytick_4">
     <g id="text_9">
      <!-- HCPA (36-60) -->
      <g style="fill: #262626" transform="translate(13.870313 126.2115) scale(0.1 -0.1)">
       <use xlink:href="#ArialMT-48"/>
       <use xlink:href="#ArialMT-43" x="72.216797"/>
       <use xlink:href="#ArialMT-50" x="144.433594"/>
       <use xlink:href="#ArialMT-41" x="203.757812"/>
       <use xlink:href="#ArialMT-20" x="264.957031"/>
       <use xlink:href="#ArialMT-28" x="292.740234"/>
       <use xlink:href="#ArialMT-33" x="326.041016"/>
       <use xlink:href="#ArialMT-36" x="381.65625"/>
       <use xlink:href="#ArialMT-2d" x="437.271484"/>
       <use xlink:href="#ArialMT-36" x="470.572266"/>
       <use xlink:href="#ArialMT-30" x="526.1875"/>
       <use xlink:href="#ArialMT-29" x="581.802734"/>
      </g>
     </g>
    </g>
    <g id="ytick_5">
     <g id="text_10">
      <!-- HCPA (61-100) -->
      <g style="fill: #262626" transform="translate(8.309375 159.4755) scale(0.1 -0.1)">
       <use xlink:href="#ArialMT-48"/>
       <use xlink:href="#ArialMT-43" x="72.216797"/>
       <use xlink:href="#ArialMT-50" x="144.433594"/>
       <use xlink:href="#ArialMT-41" x="203.757812"/>
       <use xlink:href="#ArialMT-20" x="264.957031"/>
       <use xlink:href="#ArialMT-28" x="292.740234"/>
       <use xlink:href="#ArialMT-36" x="326.041016"/>
       <use xlink:href="#ArialMT-31" x="381.65625"/>
       <use xlink:href="#ArialMT-2d" x="437.271484"/>
       <use xlink:href="#ArialMT-31" x="470.572266"/>
       <use xlink:href="#ArialMT-30" x="526.1875"/>
       <use xlink:href="#ArialMT-30" x="581.802734"/>
       <use xlink:href="#ArialMT-29" x="637.417969"/>
      </g>
     </g>
    </g>
   </g>
   <g id="QuadMesh_1">
    <path d="M 82.378125 7.2 
L 115.858125 7.2 
L 115.858125 40.464 
L 82.378125 40.464 
L 82.378125 7.2 
" clip-path="url(#p85c9ef7431)" style="fill: #f5841e"/>
    <path d="M 115.858125 7.2 
L 149.338125 7.2 
L 149.338125 40.464 
L 115.858125 40.464 
L 115.858125 7.2 
" clip-path="url(#p85c9ef7431)" style="fill: none"/>
    <path d="M 149.338125 7.2 
L 182.818125 7.2 
L 182.818125 40.464 
L 149.338125 40.464 
L 149.338125 7.2 
" clip-path="url(#p85c9ef7431)" style="fill: none"/>
    <path d="M 182.818125 7.2 
L 216.298125 7.2 
L 216.298125 40.464 
L 182.818125 40.464 
L 182.818125 7.2 
" clip-path="url(#p85c9ef7431)" style="fill: none"/>
    <path d="M 216.298125 7.2 
L 249.778125 7.2 
L 249.778125 40.464 
L 216.298125 40.464 
L 216.298125 7.2 
" clip-path="url(#p85c9ef7431)" style="fill: none"/>
    <path d="M 82.378125 40.464 
L 115.858125 40.464 
L 115.858125 73.728 
L 82.378125 73.728 
L 82.378125 40.464 
" clip-path="url(#p85c9ef7431)" style="fill: #feb340"/>
    <path d="M 115.858125 40.464 
L 149.338125 40.464 
L 149.338125 73.728 
L 115.858125 73.728 
L 115.858125 40.464 
" clip-path="url(#p85c9ef7431)" style="fill: #fe9c2c"/>
    <path d="M 149.338125 40.464 
L 182.818125 40.464 
L 182.818125 73.728 
L 149.338125 73.728 
L 149.338125 40.464 
" clip-path="url(#p85c9ef7431)" style="fill: none"/>
    <path d="M 182.818125 40.464 
L 216.298125 40.464 
L 216.298125 73.728 
L 182.818125 73.728 
L 182.818125 40.464 
" clip-path="url(#p85c9ef7431)" style="fill: none"/>
    <path d="M 216.298125 40.464 
L 249.778125 40.464 
L 249.778125 73.728 
L 216.298125 73.728 
L 216.298125 40.464 
" clip-path="url(#p85c9ef7431)" style="fill: none"/>
    <path d="M 82.378125 73.728 
L 115.858125 73.728 
L 115.858125 106.992 
L 82.378125 106.992 
L 82.378125 73.728 
" clip-path="url(#p85c9ef7431)" style="fill: #fec95b"/>
    <path d="M 115.858125 73.728 
L 149.338125 73.728 
L 149.338125 106.992 
L 115.858125 106.992 
L 115.858125 73.728 
" clip-path="url(#p85c9ef7431)" style="fill: #fed36f"/>
    <path d="M 149.338125 73.728 
L 182.818125 73.728 
L 182.818125 106.992 
L 149.338125 106.992 
L 149.338125 73.728 
" clip-path="url(#p85c9ef7431)" style="fill: #662506"/>
    <path d="M 182.818125 73.728 
L 216.298125 73.728 
L 216.298125 106.992 
L 182.818125 106.992 
L 182.818125 73.728 
" clip-path="url(#p85c9ef7431)" style="fill: none"/>
    <path d="M 216.298125 73.728 
L 249.778125 73.728 
L 249.778125 106.992 
L 216.298125 106.992 
L 216.298125 73.728 
" clip-path="url(#p85c9ef7431)" style="fill: none"/>
    <path d="M 82.378125 106.992 
L 115.858125 106.992 
L 115.858125 140.256 
L 82.378125 140.256 
L 82.378125 106.992 
" clip-path="url(#p85c9ef7431)" style="fill: #fedb80"/>
    <path d="M 115.858125 106.992 
L 149.338125 106.992 
L 149.338125 140.256 
L 115.858125 140.256 
L 115.858125 106.992 
" clip-path="url(#p85c9ef7431)" style="fill: #db5d0b"/>
    <path d="M 149.338125 106.992 
L 182.818125 106.992 
L 182.818125 140.256 
L 149.338125 140.256 
L 149.338125 106.992 
" clip-path="url(#p85c9ef7431)" style="fill: #feb541"/>
    <path d="M 182.818125 106.992 
L 216.298125 106.992 
L 216.298125 140.256 
L 182.818125 140.256 
L 182.818125 106.992 
" clip-path="url(#p85c9ef7431)" style="fill: #feb340"/>
    <path d="M 216.298125 106.992 
L 249.778125 106.992 
L 249.778125 140.256 
L 216.298125 140.256 
L 216.298125 106.992 
" clip-path="url(#p85c9ef7431)" style="fill: none"/>
    <path d="M 82.378125 140.256 
L 115.858125 140.256 
L 115.858125 173.52 
L 82.378125 173.52 
L 82.378125 140.256 
" clip-path="url(#p85c9ef7431)" style="fill: #f98e23"/>
    <path d="M 115.858125 140.256 
L 149.338125 140.256 
L 149.338125 173.52 
L 115.858125 173.52 
L 115.858125 140.256 
" clip-path="url(#p85c9ef7431)" style="fill: #fd9627"/>
    <path d="M 149.338125 140.256 
L 182.818125 140.256 
L 182.818125 173.52 
L 149.338125 173.52 
L 149.338125 140.256 
" clip-path="url(#p85c9ef7431)" style="fill: #feaa38"/>
    <path d="M 182.818125 140.256 
L 216.298125 140.256 
L 216.298125 173.52 
L 182.818125 173.52 
L 182.818125 140.256 
" clip-path="url(#p85c9ef7431)" style="fill: #fed069"/>
    <path d="M 216.298125 140.256 
L 249.778125 140.256 
L 249.778125 173.52 
L 216.298125 173.52 
L 216.298125 140.256 
" clip-path="url(#p85c9ef7431)" style="fill: #fe9c2c"/>
   </g>
   <g id="text_11">
    <!-- 0.53 -->
    <g style="fill: #ffffff" transform="translate(89.387656 26.417156) scale(0.1 -0.1)">
     <defs>
      <path id="ArialMT-2e" d="M 581 0 
L 581 641 
L 1222 641 
L 1222 0 
L 581 0 
z
" transform="scale(0.015625)"/>
     </defs>
     <use xlink:href="#ArialMT-30"/>
     <use xlink:href="#ArialMT-2e" x="55.615234"/>
     <use xlink:href="#ArialMT-35" x="83.398438"/>
     <use xlink:href="#ArialMT-33" x="139.013672"/>
    </g>
   </g>
   <g id="text_12">
    <!-- 0.47 -->
    <g style="fill: #262626" transform="translate(89.387656 59.681156) scale(0.1 -0.1)">
     <defs>
      <path id="ArialMT-34" d="M 2069 0 
L 2069 1097 
L 81 1097 
L 81 1613 
L 2172 4581 
L 2631 4581 
L 2631 1613 
L 3250 1613 
L 3250 1097 
L 2631 1097 
L 2631 0 
L 2069 0 
z
M 2069 1613 
L 2069 3678 
L 634 1613 
L 2069 1613 
z
" transform="scale(0.015625)"/>
      <path id="ArialMT-37" d="M 303 3981 
L 303 4522 
L 3269 4522 
L 3269 4084 
Q 2831 3619 2401 2847 
Q 1972 2075 1738 1259 
Q 1569 684 1522 0 
L 944 0 
Q 953 541 1156 1306 
Q 1359 2072 1739 2783 
Q 2119 3494 2547 3981 
L 303 3981 
z
" transform="scale(0.015625)"/>
     </defs>
     <use xlink:href="#ArialMT-30"/>
     <use xlink:href="#ArialMT-2e" x="55.615234"/>
     <use xlink:href="#ArialMT-34" x="83.398438"/>
     <use xlink:href="#ArialMT-37" x="139.013672"/>
    </g>
   </g>
   <g id="text_13">
    <!-- 0.50 -->
    <g style="fill: #262626" transform="translate(122.867656 59.681156) scale(0.1 -0.1)">
     <use xlink:href="#ArialMT-30"/>
     <use xlink:href="#ArialMT-2e" x="55.615234"/>
     <use xlink:href="#ArialMT-35" x="83.398438"/>
     <use xlink:href="#ArialMT-30" x="139.013672"/>
    </g>
   </g>
   <g id="text_14">
    <!-- 0.44 -->
    <g style="fill: #262626" transform="translate(89.387656 92.945156) scale(0.1 -0.1)">
     <use xlink:href="#ArialMT-30"/>
     <use xlink:href="#ArialMT-2e" x="55.615234"/>
     <use xlink:href="#ArialMT-34" x="83.398438"/>
     <use xlink:href="#ArialMT-34" x="139.013672"/>
    </g>
   </g>
   <g id="text_15">
    <!-- 0.43 -->
    <g style="fill: #262626" transform="translate(122.867656 92.945156) scale(0.1 -0.1)">
     <use xlink:href="#ArialMT-30"/>
     <use xlink:href="#ArialMT-2e" x="55.615234"/>
     <use xlink:href="#ArialMT-34" x="83.398438"/>
     <use xlink:href="#ArialMT-33" x="139.013672"/>
    </g>
   </g>
   <g id="text_16">
    <!-- 0.70 -->
    <g style="fill: #ffffff" transform="translate(156.347656 92.945156) scale(0.1 -0.1)">
     <use xlink:href="#ArialMT-30"/>
     <use xlink:href="#ArialMT-2e" x="55.615234"/>
     <use xlink:href="#ArialMT-37" x="83.398438"/>
     <use xlink:href="#ArialMT-30" x="139.013672"/>
    </g>
   </g>
   <g id="text_17">
    <!-- 0.41 -->
    <g style="fill: #262626" transform="translate(89.387656 126.209156) scale(0.1 -0.1)">
     <use xlink:href="#ArialMT-30"/>
     <use xlink:href="#ArialMT-2e" x="55.615234"/>
     <use xlink:href="#ArialMT-34" x="83.398438"/>
     <use xlink:href="#ArialMT-31" x="139.013672"/>
    </g>
   </g>
   <g id="text_18">
    <!-- 0.58 -->
    <g style="fill: #ffffff" transform="translate(122.867656 126.209156) scale(0.1 -0.1)">
     <defs>
      <path id="ArialMT-38" d="M 1131 2484 
Q 781 2613 612 2850 
Q 444 3088 444 3419 
Q 444 3919 803 4259 
Q 1163 4600 1759 4600 
Q 2359 4600 2725 4251 
Q 3091 3903 3091 3403 
Q 3091 3084 2923 2848 
Q 2756 2613 2416 2484 
Q 2838 2347 3058 2040 
Q 3278 1734 3278 1309 
Q 3278 722 2862 322 
Q 2447 -78 1769 -78 
Q 1091 -78 675 323 
Q 259 725 259 1325 
Q 259 1772 486 2073 
Q 713 2375 1131 2484 
z
M 1019 3438 
Q 1019 3113 1228 2906 
Q 1438 2700 1772 2700 
Q 2097 2700 2305 2904 
Q 2513 3109 2513 3406 
Q 2513 3716 2298 3927 
Q 2084 4138 1766 4138 
Q 1444 4138 1231 3931 
Q 1019 3725 1019 3438 
z
M 838 1322 
Q 838 1081 952 856 
Q 1066 631 1291 507 
Q 1516 384 1775 384 
Q 2178 384 2440 643 
Q 2703 903 2703 1303 
Q 2703 1709 2433 1975 
Q 2163 2241 1756 2241 
Q 1359 2241 1098 1978 
Q 838 1716 838 1322 
z
" transform="scale(0.015625)"/>
     </defs>
     <use xlink:href="#ArialMT-30"/>
     <use xlink:href="#ArialMT-2e" x="55.615234"/>
     <use xlink:href="#ArialMT-35" x="83.398438"/>
     <use xlink:href="#ArialMT-38" x="139.013672"/>
    </g>
   </g>
   <g id="text_19">
    <!-- 0.47 -->
    <g style="fill: #262626" transform="translate(156.347656 126.209156) scale(0.1 -0.1)">
     <use xlink:href="#ArialMT-30"/>
     <use xlink:href="#ArialMT-2e" x="55.615234"/>
     <use xlink:href="#ArialMT-34" x="83.398438"/>
     <use xlink:href="#ArialMT-37" x="139.013672"/>
    </g>
   </g>
   <g id="text_20">
    <!-- 0.47 -->
    <g style="fill: #262626" transform="translate(189.827656 126.209156) scale(0.1 -0.1)">
     <use xlink:href="#ArialMT-30"/>
     <use xlink:href="#ArialMT-2e" x="55.615234"/>
     <use xlink:href="#ArialMT-34" x="83.398438"/>
     <use xlink:href="#ArialMT-37" x="139.013672"/>
    </g>
   </g>
   <g id="text_21">
    <!-- 0.51 -->
    <g style="fill: #ffffff" transform="translate(89.387656 159.473156) scale(0.1 -0.1)">
     <use xlink:href="#ArialMT-30"/>
     <use xlink:href="#ArialMT-2e" x="55.615234"/>
     <use xlink:href="#ArialMT-35" x="83.398438"/>
     <use xlink:href="#ArialMT-31" x="139.013672"/>
    </g>
   </g>
   <g id="text_22">
    <!-- 0.50 -->
    <g style="fill: #262626" transform="translate(122.867656 159.473156) scale(0.1 -0.1)">
     <use xlink:href="#ArialMT-30"/>
     <use xlink:href="#ArialMT-2e" x="55.615234"/>
     <use xlink:href="#ArialMT-35" x="83.398438"/>
     <use xlink:href="#ArialMT-30" x="139.013672"/>
    </g>
   </g>
   <g id="text_23">
    <!-- 0.48 -->
    <g style="fill: #262626" transform="translate(156.347656 159.473156) scale(0.1 -0.1)">
     <use xlink:href="#ArialMT-30"/>
     <use xlink:href="#ArialMT-2e" x="55.615234"/>
     <use xlink:href="#ArialMT-34" x="83.398438"/>
     <use xlink:href="#ArialMT-38" x="139.013672"/>
    </g>
   </g>
   <g id="text_24">
    <!-- 0.43 -->
    <g style="fill: #262626" transform="translate(189.827656 159.473156) scale(0.1 -0.1)">
     <use xlink:href="#ArialMT-30"/>
     <use xlink:href="#ArialMT-2e" x="55.615234"/>
     <use xlink:href="#ArialMT-34" x="83.398438"/>
     <use xlink:href="#ArialMT-33" x="139.013672"/>
    </g>
   </g>
   <g id="text_25">
    <!-- 0.50 -->
    <g style="fill: #262626" transform="translate(223.307656 159.473156) scale(0.1 -0.1)">
     <use xlink:href="#ArialMT-30"/>
     <use xlink:href="#ArialMT-2e" x="55.615234"/>
     <use xlink:href="#ArialMT-35" x="83.398438"/>
     <use xlink:href="#ArialMT-30" x="139.013672"/>
    </g>
   </g>
  </g>
 </g>
 <defs>
  <clipPath id="p85c9ef7431">
   <rect x="82.378125" y="7.2" width="167.4" height="166.32"/>
  </clipPath>
 </defs>
</svg>
